<?xml version="1.0" encoding="UTF-8"?>
<svg xmlns="http://www.w3.org/2000/svg" width="512" height="512" viewBox="0 0 128 128"><g><path d="M121.587,34.352l-28.5-10.158a1.752,1.752,0,0,0-1.174,0l-9.887,3.523a25.968,25.968,0,0,0,.343-4.1,18.369,18.369,0,0,0-36.738,0,25.968,25.968,0,0,0,.343,4.1l-9.887-3.523a1.752,1.752,0,0,0-1.174,0L6.413,34.352A1.748,1.748,0,0,0,5.25,36v85a1.749,1.749,0,0,0,2.337,1.648L35.5,112.7l27.913,9.947a1.74,1.74,0,0,0,1.174,0L92.5,112.7l27.913,9.947A1.749,1.749,0,0,0,122.75,121V36A1.748,1.748,0,0,0,121.587,34.352Zm-19.155.712a1.36,1.36,0,0,1-.574,1.274l-7.608,5.3V28.324l7.716,2.75Zm-.059,72.237,3.552,2.979a2.779,2.779,0,0,1,.965,1.733l.321,2.215L94.25,109.609V80.616l13.576,10.529a2.793,2.793,0,0,1,.8,3.411l-.724,1.5a1.26,1.26,0,0,1-.74.644l-1.778.575a6.265,6.265,0,0,0-4.348,5.977v1.181A3.742,3.742,0,0,0,102.373,107.3Zm-22.716-2.915-.761-1.16a3.3,3.3,0,0,1,.235-3.955l3.556-4.232a6.256,6.256,0,0,0,1.186-5.915l-.656-2.1a4.75,4.75,0,0,0-2.629-2.935l-3.536-1.548a2.25,2.25,0,0,1-1.34-2.253l.224-2.617a1.252,1.252,0,0,1,1.431-1.13l12.291,1.844a8.287,8.287,0,0,1,1.092.245v30.978L77,114.507l2.936-6.527A3.735,3.735,0,0,0,79.657,104.386ZM90.178,74.925,77.886,73.082a4.747,4.747,0,0,0-5.437,4.291l-.224,2.617a5.749,5.749,0,0,0,3.423,5.758L79.184,87.3a1.251,1.251,0,0,1,.692.773l.656,2.1a2.768,2.768,0,0,1-.525,2.62L76.452,97.02a6.778,6.778,0,0,0-.483,8.125l.76,1.159a.248.248,0,0,1,.019.24l-4.315,9.592-6.683,2.382V63.509l3.462,2.349a4.84,4.84,0,0,0,5.408.034l3.5-2.313a4.84,4.84,0,0,0,1.989-5.407l-.307-1.06a1.355,1.355,0,0,1,.264-1.251l4.885-5.827a5.235,5.235,0,0,1,2.474-1.644l3.323-1.026V75.049C90.558,75.01,90.371,74.954,90.178,74.925ZM20.158,39.943l1.662-7.367,11.93-4.252V45.35a5.171,5.171,0,0,0-.543.132L28.1,47.1a1.358,1.358,0,0,1-1.748-1.052l-.086-.465a4.86,4.86,0,0,0-4.78-3.981,1.359,1.359,0,0,1-1.327-1.659ZM37.25,50.71l4.292,4.136a5.271,5.271,0,0,1,1.323,5.485l-1.148,3.344a4.831,4.831,0,0,0,.822,4.639l4.71,5.81a4.837,4.837,0,0,0,3.775,1.8h.02a4.84,4.84,0,0,0,3.78-1.828l2.287-2.866a4.856,4.856,0,0,0,.972-3.962l-.646-3.309a1.36,1.36,0,0,1,1.238-1.617l3.575-.256v56.432l-25-8.909Zm53.5-22.386V43.7L86.4,45.045a8.739,8.739,0,0,0-4.125,2.74l-4.884,5.827a4.854,4.854,0,0,0-.944,4.474l.307,1.059a1.356,1.356,0,0,1-.556,1.514l-3.5,2.313a1.358,1.358,0,0,1-1.513-.009l-5.3-3.6c-.039-.027-.084-.045-.125-.07V55.107c2.47-2.357,11.89-11.9,15.338-23.34ZM64,8.75A14.886,14.886,0,0,1,78.869,23.619C78.869,35.986,67.7,48.206,64,51.913c-3.7-3.707-14.869-15.927-14.869-28.294A14.886,14.886,0,0,1,64,8.75ZM62.25,55.107v3.47l-3.825.274A4.861,4.861,0,0,0,54,64.629l.645,3.309a1.359,1.359,0,0,1-.272,1.109l-2.287,2.865a1.342,1.342,0,0,1-1.058.512,1.425,1.425,0,0,1-1.062-.5l-4.711-5.811a1.353,1.353,0,0,1-.23-1.3l1.148-3.343a8.783,8.783,0,0,0-2.2-9.142l-5.924-5.709a4.9,4.9,0,0,0-.8-.61V28.324l9.662,3.443C50.36,43.2,59.78,52.75,62.25,55.107ZM17.918,33.966l-1.174,5.207A4.859,4.859,0,0,0,21.485,45.1a1.361,1.361,0,0,1,1.338,1.116l.086.466a4.859,4.859,0,0,0,6.247,3.753l4.594-1.455v60.627l-13.074,4.659,0,0a5.745,5.745,0,0,0-.545-5.341l-2.864-4.3a.249.249,0,0,1,.064-.342l1.4-.989a5.519,5.519,0,0,0,2.3-3.921l.539-5.066a2,2,0,0,1,.935-1.494l2.781-1.738a5.534,5.534,0,0,0,1.956-7.248l-.732-1.388a6.732,6.732,0,0,0-4.622-3.464l-2.061-.42A2.019,2.019,0,0,1,18.4,77.406l-1.1-2.44a6.747,6.747,0,0,0-2.495-2.9L8.75,68.157V37.234ZM8.75,72.322l4.159,2.684a3.257,3.257,0,0,1,1.2,1.4l1.1,2.439a5.525,5.525,0,0,0,3.926,3.14l2.061.42a3.239,3.239,0,0,1,2.225,1.667l.732,1.389a2.02,2.02,0,0,1-.714,2.646l-2.782,1.738A5.479,5.479,0,0,0,18.1,93.935L17.556,99a2.014,2.014,0,0,1-.84,1.431l-1.4.99a3.73,3.73,0,0,0-.958,5.141l2.864,4.3a2.249,2.249,0,0,1,.213,2.09l-1.167,2.888L8.75,118.519Zm110.5,46.2-8.31-2.962-.586-4.046a6.277,6.277,0,0,0-2.18-3.913l-3.551-2.978a.248.248,0,0,1-.09-.192v-1.181a2.776,2.776,0,0,1,1.925-2.647l1.779-.575a4.777,4.777,0,0,0,2.811-2.447l.725-1.5a6.311,6.311,0,0,0-1.8-7.7L95.636,77.261a11.645,11.645,0,0,0-1.386-.915V45.906l9.609-6.7a4.852,4.852,0,0,0,2.05-4.551l-.266-2.273,13.607,4.849Z"/><path d="M72.915,23.619A8.915,8.915,0,1,0,64,32.533,8.925,8.925,0,0,0,72.915,23.619Zm-14.33,0A5.415,5.415,0,1,1,64,29.033,5.422,5.422,0,0,1,58.585,23.619Z"/></g></svg>
