<svg id="Layer_5" enable-background="new 0 0 64 64" height="512" viewBox="0 0 64 64" width="512" xmlns="http://www.w3.org/2000/svg"><path d="m19 19c3.86 0 7-3.14 7-7s-3.14-7-7-7-7 3.14-7 7 3.14 7 7 7zm0-12c2.757 0 5 2.243 5 5s-2.243 5-5 5-5-2.243-5-5 2.243-5 5-5z"/><path d="m20 21h2v2h-2z"/><path d="m16 21h2v2h-2z"/><path d="m57 23v-2.101c2.279-.465 4-2.484 4-4.899 0-2.757-2.243-5-5-5s-5 2.243-5 5c0 2.414 1.721 4.434 4 4.899v2.101h-10v-4c0-2.206-1.794-4-4-4h-11.295c.189-.814.295-1.647.295-2.484v-.516c0-6.065-4.935-11-11-11s-11 4.935-11 11v.516c0 .837.106 1.67.295 2.484h-3.295c-2.206 0-4 1.794-4 4v34c0 2.206 1.794 4 4 4h3v6h10c2.206 0 4-1.794 4-4v-8h9 2v8c0 2.206 1.794 4 4 4h26v-40zm-4-7c0-1.654 1.346-3 3-3s3 1.346 3 3-1.346 3-3 3-3-1.346-3-3zm8 9v4h-4v-4zm-4 8v-2h4v4h-6v16h6v4h-6v6h-4v-26h-6v-4h6v-6h4v8zm4 4v12h-4v-12zm-12-12v4h-4v-4zm-25 24h-4v-6h-17v-4h28v-22h4v22h8v4h-19zm-6 0h-13c-.732 0-1.409.212-2 .556v-4.556h15zm25-30v18h-6v-20h4c1.103 0 2 .897 2 2zm-33-7c0-4.962 4.038-9 9-9s9 4.038 9 9v.516c0 1.462-.362 2.918-1.046 4.211l-7.371 13.921c-.229.433-.938.433-1.167 0l-7.37-13.921c-.684-1.292-1.046-2.748-1.046-4.211zm-5 5h3.978c.099.222.187.448.3.663l7.37 13.92c.462.875 1.363 1.417 2.352 1.417s1.89-.542 2.352-1.416l7.37-13.921c.105-.199.186-.409.278-.614v19.951h-26v-18c0-1.103.897-2 2-2zm13 44h-8v-4h8c1.103 0 2 .897 2 2s-.897 2-2 2zm2-5.444c-.591-.344-1.268-.556-2-.556h-13c-1.103 0-2-.897-2-2s.897-2 2-2h15zm11-6.556h-5v-4h17v4.556c-.591-.344-1.268-.556-2-.556h-2-2-2-2zm6 2h2 2c1.103 0 2 .897 2 2s-.897 2-2 2h-4c-.732 0-1.409.212-2 .556v-4.556zm-2 8c0-1.103.897-2 2-2h4c2.206 0 4-1.794 4-4v-16h4v24h-12c-1.103 0-2-.897-2-2zm22 2v-4h4v4z"/><path d="m5 33h2v2h-2z"/><path d="m9 33h2v2h-2z"/><path d="m13 33h2v2h-2z"/><path d="m5 29h8v2h-8z"/><path d="m5 25h8v2h-8z"/></svg>