<?xml version="1.0"?>
<svg xmlns="http://www.w3.org/2000/svg" viewBox="0 0 64 64" width="512" height="512"><g id="Navigation-Map-Travel-Location-World"><path d="M13,15a3,3,0,1,0-3,3A3,3,0,0,0,13,15ZM9,15a1,1,0,1,1,1,1A1,1,0,0,1,9,15Z"/><path d="M53,9a3,3,0,1,0-3,3A3,3,0,0,0,53,9ZM49,9a1,1,0,1,1,1,1A1,1,0,0,1,49,9Z"/><path d="M32,35a3,3,0,1,0-3,3A3,3,0,0,0,32,35Zm-4,0a1,1,0,1,1,1,1A1,1,0,0,1,28,35Z"/><path d="M54.66,14.92C55.92,13.03,57,10.87,57,9A7,7,0,0,0,43.51,6.39a28.879,28.879,0,0,0-28.85,3.4A6.989,6.989,0,0,0,3,15c0,1.96,1.18,4.23,2.52,6.17a29.005,29.005,0,1,0,49.14-6.25ZM50,4a5,5,0,0,1,5,5c0,2.57-3.15,6.53-5,8.55-1.85-2.02-5-5.98-5-8.55A5,5,0,0,1,50,4ZM5,15a5,5,0,0,1,10,0c0,2.57-3.15,6.53-5,8.55C8.15,21.53,5,17.57,5,15ZM5,33a26.591,26.591,0,0,1,1.91-9.97c1.13,1.4,2.13,2.43,2.38,2.68a1.014,1.014,0,0,0,1.42,0C11.35,25.06,17,19.29,17,15a6.993,6.993,0,0,0-1.05-3.68c.14-.11.29-.21.44-.32h3.2L22,13.41v3.18l-3.71,3.7A1.033,1.033,0,0,0,18,21v3.59L14.59,28H12a1,1,0,0,0-1,1v3a1.033,1.033,0,0,0,.29.71L16,37.41v2.18l-2.71,2.7A1.033,1.033,0,0,0,13,43v2.59L9.98,48.6A26.864,26.864,0,0,1,5,33ZM32,56v4c-.67,0-1.34-.03-2-.08V53a1.033,1.033,0,0,0-.29-.71L28,50.59V47a1,1,0,0,0-1-1H23.41L22,44.59V42.41l2.01-2.01a34.119,34.119,0,0,0,4.28,5.31,1.014,1.014,0,0,0,1.42,0,34.119,34.119,0,0,0,4.28-5.31L37,43.41v3.18l-1.71,1.7A1.033,1.033,0,0,0,35,49v3.59l-2.71,2.7A1.033,1.033,0,0,0,32,56Zm2.71-29.71L33,24.59V24h4v4.59L35.59,30H35V27A1.033,1.033,0,0,0,34.71,26.29ZM34,35c0,2.57-3.15,6.53-5,8.55-1.85-2.02-5-5.98-5-8.55a5,5,0,0,1,10,0ZM49,53.96a26.893,26.893,0,0,1-15,5.96V56.41l2.71-2.7A1.033,1.033,0,0,0,37,53V49.41l1.71-1.7A1.033,1.033,0,0,0,39,47V43a1.033,1.033,0,0,0-.29-.71l-3.7-3.7A8.567,8.567,0,0,0,36,35a6.884,6.884,0,0,0-.69-3H36a1.033,1.033,0,0,0,.71-.29l2-2A1.033,1.033,0,0,0,39,29V23a1,1,0,0,0-1-1H32a1,1,0,0,0-1,1v2a1.033,1.033,0,0,0,.29.71L33,27.41v1.85A7,7,0,0,0,22,35a8.567,8.567,0,0,0,.99,3.59l-2.7,2.7A1.033,1.033,0,0,0,20,42v3a1.033,1.033,0,0,0,.29.71l2,2A1.033,1.033,0,0,0,23,48h3v3a1.033,1.033,0,0,0,.29.71L28,53.41V59.7a27.007,27.007,0,0,1-16.79-9.49l3.5-3.5A1.033,1.033,0,0,0,15,46V43.41l2.71-2.7A1.033,1.033,0,0,0,18,40V37a1.033,1.033,0,0,0-.29-.71L13,31.59V30h2a1.033,1.033,0,0,0,.71-.29l4-4A1.033,1.033,0,0,0,20,25V21.41l3.71-3.7A1.033,1.033,0,0,0,24,17V13a1.033,1.033,0,0,0-.29-.71l-3-3A1.033,1.033,0,0,0,20,9h-.34A26.468,26.468,0,0,1,28,6.31V13a1.033,1.033,0,0,0,.29.71l4,4A1.033,1.033,0,0,0,33,18h4.59L42,22.41v5.18l-1.71,1.7A1.033,1.033,0,0,0,40,30v4a1.033,1.033,0,0,0,.29.71L44,38.41V43a1.033,1.033,0,0,0,.29.71L49,48.41Zm2-1.8V48a1.033,1.033,0,0,0-.29-.71L46,42.59V38a1.033,1.033,0,0,0-.29-.71L42,33.59V30.41l1.71-1.7A1.033,1.033,0,0,0,44,28V22a1.033,1.033,0,0,0-.29-.71l-5-5A1.033,1.033,0,0,0,38,16H33.41L30,12.59V6.08c.66-.05,1.33-.08,2-.08A26.725,26.725,0,0,1,43.03,8.36c-.02.21-.03.42-.03.64,0,4.29,5.65,10.06,6.29,10.71a1.014,1.014,0,0,0,1.42,0,37.622,37.622,0,0,0,2.71-3.1A26.907,26.907,0,0,1,51,52.16Z"/></g></svg>
