<?xml version="1.0" encoding="UTF-8"?><svg id="Capa_1" xmlns="http://www.w3.org/2000/svg" viewBox="0 0 512 512"><defs><style>.cls-1{opacity:.85;}.cls-2{fill:#960e53;}.cls-2,.cls-3,.cls-4{stroke-width:0px;}.cls-3{fill:#3a3a3a;}.cls-4{fill:#603;}</style></defs><path class="cls-3" d="m426.05,504.05l-.7-17.75-6.41-6.94-4.69-5.58-.32-3.39h-2.99s-.73-1.66-.73-1.66l-2.78-1.86-1.56,1.3,4.48,4.15-2.12,1.41-4.13-3.42-1.31-1.31-1.73,1.88-2.87.33-1.95,3.18-7.06-2.94-5.23-5.59.18-3.09-2.02-2.36-.96-4.27,13.78.02v1.54s10.16.02,10.16.02l4.05-2.88v6.31s5.47,0,5.47,0v3.59s5.81,0,5.81,0l11.79,14.91h3.54s.89,4.49.89,4.49l7.62,10.6-5.53,7.12-3.53,1.37-.92-3.52-4.04-3.59-4.17,7.93Zm3.97-9.02l4.85,4.3.78,2.98,2.64-1.02,5.1-6.56-7.42-10.38-.79-4.01h-3.31s-11.79-14.92-11.79-14.92h-6.17s0-3.6,0-3.6h-5.48s0-5.68,0-5.68l-3.15,2.24-11.06-.02v-1.54s-12.24-.02-12.24-.02l.74,3.27,2.08,2.44-.18,3.07,4.98,5.32,6.33,2.61,1.82-2.97,2.95-.34,2.04-2.22,1.79,1.8,3.71,3.07.97-.64-4.41-4.09,2.55-2.12,3.37,2.26.63,1.43h3.17s.36,3.8.36,3.8l4.54,5.4,6.57,7.11.61,15.45,3.39-6.44Z"/><path class="cls-3" d="m405.32,458.43h-11.06v-1.54h-12.87l-5.79-10.24,3.65-.18v-2.45l12.55-.63-.11-13.65h4.44l.08.05,7.24,4.44v6.53h2.23v9.13h3.48v5.82l-3.83,2.73Zm-10.38-.68h10.16l3.36-2.4v-4.79h-3.48v-9.13h-2.23v-6.83l-6.83-4.19h-3.55l.11,13.62-12.56.63v2.45l-3.19.16,5.05,8.93h13.15v1.54Z"/><path class="cls-3" d="m379.44,444.69l-5.01-5.79,2.22-3.75,4.39.06,2.79-4.79h8.52l.12,13.62-13.05.65Zm-4.17-5.87l4.47,5.16,12.06-.6-.11-12.28h-7.45l-2.8,4.8-4.4-.06-1.77,2.98Z"/><path class="cls-3" d="m437.95,487.17l-1.99-2.82-.79-4.01h-3.31s-11.79-14.92-11.79-14.92h-6.17s0-3.6,0-3.6h-5.48s.02-11.31.02-11.31h-3.48s.01-9.13.01-9.13h-2.23s.01-6.83.01-6.83l-6.82-4.2h-3.56s0,.68,0,.68h-5.4s-1.9-3.5-1.9-3.5l1.88-3.05.02-15.44,12.34,9.76,14.11,2.34-.11-3.89,17.92,3.35.1,13.02-4.23,2.73-.02,15.25,11.06,6.75-.21,28.81Zm-1.33-3.03l.66.92.2-26.32-11.06-6.75.03-16.01,4.22-2.73-.09-12.08-16.53-3.09.11,3.87-15.1-2.5-11.37-8.99-.02,14.23-1.78,2.88,1.51,2.79h4.3s0-.68,0-.68h4.43s.08.06.08.06l7.23,4.45v6.53s2.21,0,2.21,0v9.13s3.47,0,3.47,0l-.02,11.3h5.48s0,3.6,0,3.6h5.81s11.79,14.92,11.79,14.92h3.54s.89,4.49.89,4.49Z"/><path class="cls-3" d="m443.68,495.15l-6.41-8.92.2-27.48-11.06-6.75.03-16.01,4.22-2.73-.1-12.76,11.39,1.53.2-21.36.05-.08,11.73-18.84,9.47,9.59-.18,4.49,2.38,3.79,5.42,3.51-.88,5.61,4.65,12.11-3.04,3.03-3.09,5.5,1.87,1.33.04.08,7.32,14.62,5.86-.33,2.41,2.98-5.85,7.69-.95,7.61-3.15,4.58h-1.23s-23.44,24.35-23.44,24.35l-7.85,2.89Zm-5.72-9.14l5.98,8.32,7.22-2.65,23.54-24.44h1.16s2.85-4.14,2.85-4.14l.96-7.62,5.64-7.41-1.86-2.29-5.96.34-7.48-14.94-2.23-1.59,3.47-6.16,2.76-2.75-4.56-11.87.84-5.35-5.22-3.42-2.53-4.03.18-4.41-8.65-8.76-11.22,18.02-.21,21.94-11.37-1.53.09,12.35-4.23,2.73-.02,15.25,11.06,6.75-.21,27.65Z"/><path class="cls-3" d="m426.05,504.05l-.7-17.75-6.41-6.94-4.69-5.58-.32-3.39h-2.99s-.73-1.66-.73-1.66l-2.78-1.86-1.56,1.3,4.48,4.15-2.12,1.41-4.13-3.42-1.31-1.31-1.73,1.88-2.87.33-1.95,3.18-7.06-2.94-5.23-5.59.18-3.09-2.02-2.36-.96-4.27,13.78.02v1.54s10.16.02,10.16.02l4.05-2.88v6.31s5.47,0,5.47,0v3.59s5.81,0,5.81,0l11.79,14.91h3.54s.89,4.49.89,4.49l7.62,10.6-5.53,7.12-3.53,1.37-.92-3.52-4.04-3.59-4.17,7.93Zm3.97-9.02l4.85,4.3.78,2.98,2.64-1.02,5.1-6.56-7.42-10.38-.79-4.01h-3.31s-11.79-14.92-11.79-14.92h-6.17s0-3.6,0-3.6h-5.48s0-5.68,0-5.68l-3.15,2.24-11.06-.02v-1.54s-12.24-.02-12.24-.02l.74,3.27,2.08,2.44-.18,3.07,4.98,5.32,6.33,2.61,1.82-2.97,2.95-.34,2.04-2.22,1.79,1.8,3.71,3.07.97-.64-4.41-4.09,2.55-2.12,3.37,2.26.63,1.43h3.17s.36,3.8.36,3.8l4.54,5.4,6.57,7.11.61,15.45,3.39-6.44Z"/><path class="cls-3" d="m379.44,444.69l-5.01-5.79,2.22-3.75,4.39.06,2.79-4.79h8.52l.12,13.62-13.05.65Zm-4.17-5.87l4.47,5.16,12.06-.6-.11-12.28h-7.45l-2.8,4.8-4.4-.06-1.77,2.98Z"/><path class="cls-3" d="m437.95,487.17l-1.99-2.82-.79-4.01h-3.31s-11.79-14.92-11.79-14.92h-6.17s0-3.6,0-3.6h-5.48s.02-11.31.02-11.31h-3.48s.01-9.13.01-9.13h-2.23s.01-6.83.01-6.83l-6.82-4.2h-3.56s0,.68,0,.68h-5.4s-1.9-3.5-1.9-3.5l1.88-3.05.02-15.44,12.34,9.76,14.11,2.34-.11-3.89,17.92,3.35.1,13.02-4.23,2.73-.02,15.25,11.06,6.75-.21,28.81Zm-1.33-3.03l.66.92.2-26.32-11.06-6.75.03-16.01,4.22-2.73-.09-12.08-16.53-3.09.11,3.87-15.1-2.5-11.37-8.99-.02,14.23-1.78,2.88,1.51,2.79h4.3s0-.68,0-.68h4.43s.08.06.08.06l7.23,4.45v6.53s2.21,0,2.21,0v9.13s3.47,0,3.47,0l-.02,11.3h5.48s0,3.6,0,3.6h5.81s11.79,14.92,11.79,14.92h3.54s.89,4.49.89,4.49Z"/><path class="cls-3" d="m442.61,422.79l-12.1-1.63-16.5-3.06.11,3.87-15.1-2.48-12.07-9.52v-9.26s3.04-11.87,3.04-11.87l6.49-8.7h10.65l.08.05,8.33,4.97.04.13,3.01,9.8h4.32l29.66-20.97.02,6.32,1.75,1.77-11.56,18.63-.17,21.94Zm-29.31-5.51l17.65,3.27,10.98,1.46.17-21.36.05-.08,11.33-18.26-1.57-1.58-.02-5.28-28.76,20.34h-5.04l-3.12-10.16-8.02-4.79h-10.12l-6.25,8.37-2.94,11.65v8.81l11.67,9.2,14.11,2.31-.11-3.89Z"/><path class="cls-3" d="m365.67,439.22l-7.02-1.39v-31.55l.96-1.3-.96-12.03-9.34-22.84,19.29-9.44,1.23,27.22,1.34,18.1h-5.5v33.22Zm-6.33-1.95l5.65,1.12v-33.08h5.45l-1.29-17.38-1.18-26.19-17.78,8.7,9.15,22.4.98,12.34-.98,1.33v30.76Z"/><path class="cls-3" d="m368.43,442.58l-3.44-3.64v-33.63h5.45l-1.29-17.38-2.08-44.81,9.16,3.59h5.24l14.67-11,6.52,2.76-7.72,10.29.76,15.01,11.82,9-.15,8.07h-10.55l-6.25,8.37-2.94,11.65v23.9l-1.77,2.88,1.89,3.47h-3.52l-2.8,4.8-4.4-.06-2,3.38-4.56-.37-.61,1.94-1.44,1.79Zm-2.76-3.91l2.72,2.87.91-1.13.69-2.28,4.68.38,1.99-3.35,4.39.06,2.79-4.79h2.76l-1.53-2.81,1.88-3.05v-23.84s3.04-11.87,3.04-11.87l6.49-8.7h10.22l.13-7.05-11.8-8.98-.78-15.57,7.34-9.79-5.35-2.26-14.54,10.91-5.66-.02-8.24-3.23,2.03,43.75,1.34,18.1h-5.5v32.67Z"/><path class="cls-3" d="m359.33,438.29l-3.37-2.87-4.8.34-.11-.1-10.97-10.03-5.23-.93,3.17-4.44-2.16-3.28-5.13-4.61v-6.57l28.59.26v32.23Zm-3.14-3.58l2.45,2.09v-30.07l-27.22-.25v5.58l4.99,4.5,2.44,3.71-2.82,3.94,4.36.78.07.07,10.93,10,4.79-.34Z"/><path class="cls-3" d="m359.17,406.74h-1.54l-26.78-.26-3.06-8.99,3.39-3.47-.17-12.02,3.49-2.46-5.04-3.14,5.99-12.83-9.82-5.6,1.67-2.21-13.42.71-.76,14.11-4.13,4.2,2.74-.3-1.99,6.17-5.47-2.45-1.74-7.55-5.83,2.52-3.32.09-5.5-5.76-4.99-3.69-2.75-5.58-3.07-2.72.26-3.11-2.58-2.88,29.14-27.23.18.04,27.09,6.54,34.39-6.62,2.24,21.31.85,16.91v.92s-18.44,9.03-18.44,9.03l9.15,22.4.98,12.34-1.15,1.55Zm-27.83-.94l27.48.25.79-1.07-.96-12.03-9.34-22.84,18.63-9.12v-.47l-.85-16.87-2.16-20.55-33.8,6.51-27.05-6.54-28.38,26.52,2.33,2.6-.25,3.06,2.95,2.64,2.7,5.49,4.9,3.63,5.33,5.58,2.95-.08,6.39-2.79,1.85,8.02,4.46,2,1.43-4.44-3.59.39,5.29-5.38.78-14.47,15.51-.83-2.09,2.76,9.69,5.53-6,12.85,5.4,3.37-4.04,2.85.17,11.94-3.29,3.38,2.76,8.13Z"/><path class="cls-3" d="m381.7,347.4l-5.66-.02-8.92-3.5-2.27-21.61,17.11,3.61,14.7,3.83-.12,6.57-14.83,11.12Zm-5.47-.68h5.24l14.38-10.79.11-5.7-14.17-3.7-16.16-3.41,2.13,20.26,8.48,3.32Z"/><path class="cls-3" d="m323.49,376.79l-3.36-1.64-5.07-.52-2.63-4.08.79-14.71,15.51-.83-2.09,2.76,9.69,5.53-6.21,13.32-6.63.18Zm-8.03-2.81l4.92.53,3.26,1.59,6.04-.16,5.77-12.36-9.82-5.6,1.67-2.21-13.42.71-.75,13.87,2.33,3.62Z"/><path class="cls-3" d="m423.12,395.79h-5.04l-3.12-10.16-8.27-4.94v-1.56l.14-6.02-11.8-8.98-.78-15.57,7.58-10.11.82-1.93,16.98,3.28.07.08,6.13,6.43,10.53,2.2.06.18,5.49,16.09,10.84,10.04-.34.24-29.3,20.72Zm-4.53-.68h4.32l28.78-20.35-10.35-9.59-5.48-16.07-10.36-2.16-.07-.08-6.13-6.42-16.22-3.14-.66,1.53-7.46,9.94.76,15.01,11.82,9-.15,7.53,8.16,4.87.04.13,3.01,9.8Z"/><path class="cls-3" d="m436.28,349.19l-10.79-2.26-.07-.08-6.3-6.6.13-13.16h11.45l17.25-7.54,24.08,2.66,3.51,18.93-5.4,4.68-21.45-2.62-9.71,1.1-2.69,4.89Zm-10.44-2.88l10.09,2.11,2.62-4.75,10.14-1.15h.04s21.19,2.6,21.19,2.6l4.87-4.22-3.34-18.04-23.39-2.59-17.21,7.52h-10.92l-.12,12.2,6.04,6.33Z"/><path class="cls-3" d="m430.84,327.78h-5.57l.37-5.09.23-20.01,28.43-.57,1.05-1.91-7.41-9.62-14.51-.34-12.56,3.05-1.27-18.41-14.2-12.46,19.66-20.95,18.66,19.24,23.07,4.13,6.67,39.55v.06s-2.28,11.7-2.28,11.7l.97,6.77-24.08-2.66-17.21,7.52Zm-4.84-.68h4.7l17.25-7.54,23.39,2.59-.86-6.01v-.06s2.28-11.69,2.28-11.69l-6.57-38.96-22.81-4.08-.08-.08-18.24-18.8-18.68,19.91,13.88,12.18,1.24,17.88,11.86-2.88h.04s14.88.35,14.88.35l7.88,10.23-1.46,2.65-28.17.57-.23,19.37-.32,4.37Z"/><path class="cls-3" d="m425.99,303.36l-5.31-10.73,12.67-3.08h.04s14.88.35,14.88.35l7.88,10.23-1.46,2.65-28.72.58Zm-4.31-10.27l4.74,9.58,27.88-.56,1.05-1.91-7.41-9.62-14.51-.34-11.75,2.86Z"/><path class="cls-3" d="m419.8,340.53l-16.74-3.23-.75,1.77-6.46-2.73.14-6.47,2.39-6.74,21.41.7.14,3.6-.13,13.11Zm-17.15-4.01l16.47,3.18.12-12.27-.12-2.95-20.27-.67-2.21,6.22-.11,5.85,5.41,2.29.7-1.65Z"/><path class="cls-3" d="m425.95,327.78h-6.7l-.14-3.61v-11.18l-21.53-24.92,14.23-20.92,8.44,7.41v.14s1.26,18.08,1.26,18.08l5.03,10.17v.08s-.23,19.68-.23,19.68l-.37,5.07Zm-6.04-.68h5.4l.32-4.42.23-19.58-5.02-10.21-1.24-18-7.65-6.71-13.5,19.85,21.35,24.72v11.42l.12,2.94Z"/><path class="cls-3" d="m419.8,324.51l-21.52-.71-.26-8.97-15.83-11.73,3.32-5.15-3.32-6.37,6.51-3.46,6.68.81,2.71-1.31.17.2,21.52,24.92v11.78Zm-20.85-1.37l20.16.66v-10.82l-21.18-24.52-2.42,1.17-6.67-.81-5.72,3.04,3.19,6.12-3.19,4.95,15.58,11.55.25,8.66Z"/><path class="cls-3" d="m236.66,259.11h-.14s-35.12-.26-35.12-.26l-.95-2.33,3.21-5.73.23-2.85-3.56-1.53-.26-3.84-4.94-4.85-1.02-3.76-4.2-3.69-.53-2.63-4.4-8.02.5-2.74-3.2-2.48-3.55-.73.27-4.75.42-3.68-1.76-3.58v-11.65l29.57-10.32,15.65-20.86,4.5-16.83,11.38,15.41,3.94,7.42v.08s1.14,36.52,1.14,36.52l28.83,11.67-4.01,14.59-.07.06-31.94,31.34Zm-34.8-.94l34.52.25,31.67-31.07,3.8-13.82-28.68-11.61v-.22s-1.15-36.66-1.15-36.66l-3.84-7.23-10.51-14.22-4.21,15.63-15.81,21.08-.1.03-29.21,10.19v11l1.78,3.61-.44,3.87-.24,4.14,3.13.64,3.65,2.83-.53,2.91,4.34,7.95.49,2.45,4.18,3.67,1.03,3.78,4.99,4.9.25,3.69,3.63,1.55-.32,3.55-3.09,5.51.65,1.6Z"/><path class="cls-3" d="m414.69,143.14h-.27l-5.89-24.88h-21.23l5.44-19.63h57.9l-3.35,8.86,2.64,1.47,1.2-4.34,3.41,16.4-25.86,21.6-8.22.52h-5.77Zm.27-.68h5.48l7.97-.51,25.37-21.19-2.75-13.23-.68,2.46-3.92-2.18,3.21-8.49h-56.39l-5.06,18.26h20.87l5.89,24.88Z"/><path class="cls-3" d="m377.27,123.69l-20.33-15.99v-9.07h36.51l-5.41,19.52-10.77,5.53Zm-19.65-16.32l19.72,15.51,10.11-5.19,5.09-18.36h-34.93v8.05Z"/><path class="cls-3" d="m340.91,151.72l-4.34-4.25v-.15s.52-11.5.52-11.5l-3.01-11.35,12.82.35,3.76-26.18h6.97v8.73l20.13,15.83-4.65,7.68-19.43,20.82-7.31-8.33-5.46,8.36Zm5.38-9.49l7.41,8.44,18.89-20.24,4.28-7.07-19.92-15.66v-8.38h-5.69l-3.77,26.2-12.51-.34,2.81,10.56v.05s-.51,11.4-.51,11.4l3.53,3.45,5.5-8.42Z"/><path class="cls-3" d="m347.48,125.52l-12.97-.35-18.88-1.57,4.57-24.96h31.15l-3.87,26.88Zm-31.04-2.54l18.11,1.51,12.34.33,3.67-25.5h-29.79l-4.33,23.65Z"/><path class="cls-3" d="m316.31,123.63l-22.14-.24-12.03-2.22v-26.94l14.26,4.4h24.49l-4.58,24.99Zm-22.05-.92l21.48.22,4.32-23.62-23.83-.02-13.42-4.14v25.44l11.44,2.11Z"/><path class="cls-3" d="m177.87,190.68l-3.93-5.77h-3.17l1.17-10.04-9.52-10.67-7.8-13.58-1.61-10.32,1.82-12.53-2.05-7.67,3.88,2.67.02-4.95,2.1-5.61,26.09-11.44,31.15-31.15,10.7,3.89-15.7,19.39,4.01,11.15,14.88,13.74v15.05s-2.06,10.04-2.06,10.04l-4.4,16.34-15.81,21.08-.1.03-29.69,10.36Zm-6.33-6.46h2.76l3.83,5.64,29.09-10.15,15.65-20.86,4.32-16.14,2.04-9.99v-14.65l-14.79-13.65-.03-.08-4.17-11.59,15.34-18.95-9.39-3.41-30.93,30.93-.06.03-25.89,11.35-1.98,5.28v6.07l-3.42-2.35,1.6,6.02-1.83,12.57,1.58,10.16,7.71,13.38,9.66,10.81-1.11,9.58Z"/><path class="cls-3" d="m242.22,165.39l-4.03-7.59-11.02-14.91,2.08-10.16v-14.65l-14.79-13.65-.03-.08-4.17-11.59,15.8-19.51,32.18,12.04-.46,13.63,4.13,9.42-3.65,9.13,3.69,8.76-9.85,9.85,1.37,6.84-4.35,4.55,1.15,14.03-8.04,3.9Zm-14.32-22.67l10.86,14.71,3.75,7.05,7.02-3.41-1.13-13.87,4.32-4.52-1.37-6.85,9.78-9.78-3.62-8.59,3.65-9.13-4.08-9.3.45-13.3-31.26-11.7-15.24,18.83,4.01,11.15,14.88,13.74v15.05s-2.03,9.89-2.03,9.89Z"/><path class="cls-3" d="m271.38,127.17l-1.4-18.35-8.67-.14-4.23-9.63.47-14.02,25.26,9.44v26.43l.73,5.1-12.17,1.18Zm-9.62-19.17l8.85.14,1.4,18.28,10.76-1.04-.63-4.44v-26s-23.93-8.94-23.93-8.94l-.44,12.91,3.99,9.08Z"/><path class="cls-3" d="m278.54,159.11l-11.99-1.64v-.31s.86-21.12.86-21.12l-6.16-9.72-3.73-8.85,3.79-9.48,9.31.15,1.4,18.28,11.4-1.11,3.52,12.18v14.04h-8.39v7.58Zm-11.29-2.23l10.6,1.45v-7.48h8.39v-13.3l-3.33-11.49-11.53,1.12-1.4-18.35-8.21-.13-3.51,8.78,3.6,8.54,6.25,9.85v.11s-.85,20.91-.85,20.91Z"/><path class="cls-3" d="m312.3,171.21h-3.54l-.1-.1-19.76-19.59h-2.65v-13.99l-3.41-11.76-.76-5.31,12.36,2.28.08.12,11.76,17.33-.45,9.61,14.32,1.95-1.59,7.87-6.26,11.59Zm-3.26-.68h2.85l6.04-11.19,1.4-7.01-14.21-1.93.47-10.01-11.55-17.02-11.14-2.06.62,4.32,3.43,11.86v13.35h2.25l.1.1,19.76,19.59Z"/><path class="cls-3" d="m336.79,160.12l-6.84-.46-12.12.15,1.5-7.47-14.21-1.93.47-10.01-12-17.68,22.45.24,18.75,1.56,2.99,11.24v.05s-.51,11.4-.51,11.4l4.06,3.97-5.45,6.09.92,2.86Zm-6.82-1.15l5.86.39-.73-2.27,5.28-5.89-3.81-3.73v-.15s.52-11.5.52-11.5l-2.83-10.67-18.25-1.52-21.12-.22,11.39,16.78-.45,9.61,14.32,1.95-1.47,7.36,11.3-.14Z"/><path class="cls-3" d="m267.23,157.54l-5.16-.26-3.55-12.6-5.72-1.6-1.45-7.23,10.25-10.25,6.51,10.27v.11s-.87,21.57-.87,21.57Zm-4.63-.92l3.97.2.84-20.77-5.93-9.36-9.38,9.38,1.29,6.46,5.69,1.59,3.52,12.5Z"/><path class="cls-3" d="m249.6,161.75l-1.19-14.54,4.58-4.8,6.09,1.71,3.68,13.05-13.16,4.59Zm-.48-14.29l1.09,13.36,11.72-4.08-3.4-12.06-5.32-1.49-4.09,4.28Z"/><path class="cls-3" d="m272.21,213.66l-.07-.03-28.96-11.72v-.22s-1.15-36.97-1.15-36.97l7.73-3.75,12.54-4.37,4.63.23,11.54,1.57,4.44,14.57-3.27,1-6.14,11.25-.34,8.76,9.87,19.2-10.82.48Zm-28.36-12.22l28.48,11.53,9.6-.43-9.47-18.41.35-9.1.04-.07,6.31-11.56,2.89-.88-4.12-13.5-11.08-1.51-4.47-.22-12.37,4.31-7.3,3.54,1.13,36.3Z"/><path class="cls-3" d="m282.46,213.57l-10-19.43.35-9.1.04-.07,6.31-11.56,3.51-1.07,2.94,7.1,14.27.09,1.56,10.39v6.33s-12.73,6.64-12.73,6.64l-6.26,10.69Zm-9.31-19.59l9.34,18.17,5.73-9.79,12.54-6.54v-5.87l-1.46-9.76-14.14-.09-2.88-6.94-2.65.81-6.14,11.25-.34,8.76Z"/><path class="cls-3" d="m314.66,190.61l-13.85-.31-1.51-10.09-14.14-.09-3-7.23-4.31-14.17v-7.87h11.32l.1.1,19.76,19.59h3.36l2.26,20.08Zm-13.25-.99l12.49.28-2.1-18.69h-3.03l-.1-.1-19.76-19.59h-10.36v7.14l4.26,13.99,2.81,6.78,14.27.09,1.51,10.1Z"/><path class="cls-3" d="m159.05,112.83l-5.93-3.33-7.57-7.34-4.24,2.67-21.62-5.81v-12.17l-19.66-12.06-5.45,7.19v4.38l-12.57-1.66-2.39-1.86.2-.27,37.82-51.11,19.11,7.69.05.15,9.1,27.75,39.82,34.07-26.67,11.7Zm-5.48-3.85l5.52,3.09,25.36-11.12-39.14-33.49-.03-.09-9.08-27.69-18.32-7.37-37.3,50.41,1.72,1.34,11.62,1.53v-3.83l5.96-7.87,20.51,12.59v12.02l20.83,5.6,4.44-2.8,7.92,7.69Z"/><path class="cls-3" d="m80.17,83.26l-25.39-19.75-6.46-2.24-6.16-3.77c-4.16-2.39-13.86-8.12-13.86-9.54s2.15-10.3,2.39-11.3l-2.36-10.46-4.24-5.65,7.66-8.01,1.74-9.77,8.97.02,75.85,28.92-38.13,51.54Zm-31.53-22.59l6.51,2.27,24.89,19.36,37.18-50.25L42.27,3.47h-8.21l-1.68,9.4-7.4,7.74,3.99,5.38,2.41,10.69-.02.08c-.66,2.75-2.39,10.13-2.39,11.22.22.85,7.05,5.22,13.52,8.95l6.14,3.75Z"/><path class="cls-3" d="m185.1,101.5l-39.8-34.05-.03-.09-9.36-28.56,6.63,2.8,74.2,28.26-31.64,31.64Zm-39.21-34.44l39.17,33.51,30.44-30.44-73.22-27.88-5.25-2.22,8.86,27.04Z"/><path class="cls-3" d="m360.55,248.17l-15.66-19.45,14.12-2.5h13.53s-3.14,13.81-3.14,13.81l-8.85,8.14Zm-14.4-18.98l14.47,17.98,8.15-7.5,2.91-12.77h-12.61l-12.92,2.29Z"/><path class="cls-3" d="m342.79,229.3h-.56l3.79-7.34,12.76-4.79,11.8,1.03,3.01.57v4.01s-1.22,4.12-1.22,4.12h-13.26l-13.52,2.39h-2.8Zm.56-.68h2.18l13.55-2.4h12.78l1.05-3.53v-3.35s-2.43-.46-2.43-.46l-11.61-1.02-12.37,4.65-3.15,6.1Z"/><path class="cls-3" d="m346.23,222.61l-8.19-4.88-.83-3.56,6.65.8,16.33,2.39-13.96,5.24Zm-7.59-5.32l7.65,4.56,11.17-4.19-13.69-2-5.67-.68.54,2.32Z"/><path class="cls-3" d="m370.99,218.92l-12.22-1.07-21.35-2.96-3.45-7.16,14.79-.41.06.02,6.79,2.21h13.11l2.26,9.37Zm-12.13-1.75l11.24.98-1.91-7.92-12.73-.02-6.79-2.21-13.62.37,2.83,5.88,20.98,2.91Z"/><path class="cls-3" d="m340.56,192l-26.59-1.42-2.23-19.78,6.31-11.68,11.94-.15h.01s6.46.44,6.46.44l8.69,8.78-4.6,23.81Zm-25.98-2.07l25.42,1.35,4.42-22.87-8.25-8.34-6.19-.42-11.51.14-6.02,11.14,2.14,18.99Z"/><path class="cls-3" d="m365.86,199.06l-25.92-1.17v-6.33s4.48-23.16,4.48-23.16l-8.4-8.49-.91-2.83,5.49-6.14,5.69-8.72,7.66,8.73,17,16.49h17.15v15.47l-16.54,6.37-5.69,9.77Zm-25.24-1.82l24.86,1.12,5.61-9.62,16.33-6.29v-14.31h-16.74l-.1-.1-17.12-16.6-7.08-8.07-5.23,8.01-5.26,5.89.74,2.3,8.54,8.63-4.54,23.48v5.57Z"/><path class="cls-3" d="m388.01,168.13h-17.35l-.1-.1-17.36-16.84,19.74-21.15.22.45,15.97,33.32-1.13,4.31Zm-17.07-.68h16.54l.93-3.56-15.65-32.64-18.6,19.93,16.78,16.27Z"/><path class="cls-3" d="m406.68,159.01l-21.99-2.9-12.22-25.48,4.6-7.6,10.6-5.45h21.41l6,25.34-6.3,5.75-2.1,10.35Zm-21.54-3.53l20.99,2.77,2.01-9.94,6.16-5.63-5.78-24.42h-20.7l-10.28,5.28-4.3,7.12,11.9,24.81Z"/><path class="cls-3" d="m368.9,210.24l-13.44-.02-6.79-2.21-14.37.39-1.27-2.67,7.1-8.52,25.81,1.16,2.96,11.86Zm-13.28-.68h12.4l-2.63-10.51-24.97-1.12-6.6,7.92.89,1.87,14.04-.39.06.02,6.79,2.21Z"/><path class="cls-3" d="m403.27,185.47l-15.86-2.5v-15.27s1.01-3.82,1.01-3.82l-4.08-8.52,21.8,2.88,2.01-9.94,6.41-5.86h6.12l10.09,25.4-7.92,9.11-9.52-5.87h-9.42l-.64,14.38Zm-15.17-3.09l14.52,2.29.64-14.27h10.27l9.19,5.67,7.27-8.36-9.77-24.58h-5.39l-6.05,5.53-2.1,10.35-21.18-2.8,3.64,7.6-1.05,4.02v14.56Z"/><path class="cls-3" d="m466.88,265.55l-23.5-4.21-.08-.08-15.22-15.7,2.09-2.34,21.65-36.21,20.27,3.28v.3s-1.05,44.42-1.05,44.42l-5.74-2.25,1.58,12.78Zm-23.16-4.84l22.37,4.01-1.61-13,5.9,2.31,1.01-43.15-19.22-3.11-21.45,35.86-1.71,1.92,14.71,15.16Z"/><path class="cls-3" d="m472.01,210.97l-20.34-3.29-.23-3.86-18.46-1.82-1.51-10.47-3.5-5.78,22.29-1.53.11.09,23.12,19.07-1.47,7.6Zm-19.69-3.88l19.14,3.1,1.27-6.55-22.7-18.73-20.9,1.44,3,5.01,1.44,10,18.51,1.83.23,3.9Z"/><path class="cls-3" d="m473.5,204.28l-23.47-19.36-21.67,1.49-6.01-9.91,7.91-9.1,18.48,6.04h20.05l3.29,10.25,1.42,20.59Zm-23.25-20.06l.11.09,22.35,18.44-1.31-18.96-3.11-9.65-19.71-.02-18.1-5.92-7.28,8.38,5.53,9.13,21.52-1.48Z"/><path class="cls-3" d="m469.01,174.12l-20.43-.02-18.47-6.04-.06-.15-10.1-25.43,8.46-.54,25.97-21.69,7.3,35.09,3.67,7.4,3.66,11.37Zm-20.27-.68h19.33l-3.36-10.43-3.7-7.48-7.07-34.02-25.26,21.1-7.75.49,9.69,24.4,18.11,5.92Z"/><path class="cls-3" d="m428.56,246.05l-3.84-3.95v-25.45l.04-.08,8.32-15.26,19,1.88.25,4.28-21.62,36.15-2.16,2.43Zm-3.15-4.23l3.13,3.23,1.64-1.83,21.48-35.92-.2-3.48-17.97-1.77-8.07,14.79v24.99Z"/><path class="cls-3" d="m402.04,242.85v-8.53l6.7-7.41,16.67,10.26v5.12l-23.36.56Zm.68-8.26v7.56l22-.53v-4.07l-15.86-9.76-6.14,6.79Z"/><path class="cls-3" d="m425.41,237.98l-16.97-10.45,1.35-9.27,8.52-1.86h7.1v21.58Zm-16.23-10.8l15.55,9.57v-19.67h-6.38l-7.95,1.74-1.22,8.36Z"/><path class="cls-3" d="m409.89,218.93l-5.28-11.12-2.57-5.28v-5.35l31.78,4.23-8.55,15.68h-6.93l-8.45,1.85Zm-7.17-16.56l2.5,5.15,5.05,10.63,8.02-1.75h6.56l7.88-14.45-30.01-3.99v4.41Z"/><path class="cls-3" d="m406.01,262.77l-13.35-3.02-.07-.13-8.23-14.71,5.09-2.24,12.92-.51,23.5-.56-19.86,21.17Zm-12.9-3.62l12.67,2.86,18.48-19.69-21.86.52-12.85.51-4.22,1.88,7.79,13.92Z"/><path class="cls-3" d="m371.9,249l-3.16-9.13.02-.1,3.03-13.32,1.22-4.07,9.45.23.89-4.3,21.74-11.11,5.36,11.29-1.31,9.02-6.4,7.08v8.24l-13.19.52-4.56,2.03-13.08,3.61Zm-2.45-9.16l2.89,8.33,12.41-3.42,4.7-2.07,12.59-.5v-7.85l6.44-7.12,1.25-8.61-4.97-10.46-20.82,10.64-.94,4.54-9.5-.23-1.06,3.56-3,13.19Z"/><path class="cls-3" d="m383.01,223.31l-10.09-.24v-3.73s-2.65-.5-2.65-.5l-2.13-8.86-2.83-11.32,5.78-9.92,16.63-6.41,15.58,2.46-.57,12.79v4.79l2.65,5.45-21.43,10.95-.94,4.54Zm-9.41-.91l8.85.21.89-4.3,21.13-10.8-2.42-4.98v-4.97s.54-12.19.54-12.19l-14.8-2.33-16.23,6.26-5.52,9.48,2.76,11.05,2.03,8.43,2.76.53v3.63Z"/><path class="cls-3" d="m433.68,202.08l-31.66-4.21,1.22-27.46h10.27l9.51,5.86,9.11,15.08,1.55,10.72Zm-30.94-4.8l30.14,4.01-1.41-9.75-8.94-14.76-9.2-5.67h-9.42l-1.17,26.18Z"/><path class="cls-3" d="m396.52,330.38l-15-3.91.82-24.12,16.36,12.13.26,9.05-.02.06-2.42,6.8Zm-14.3-4.44l13.87,3.62,2.18-6.15-.25-8.59-15.05-11.15-.75,22.27Z"/><path class="cls-3" d="m331.14,329.61l-27.57-6.66.08-.33,7.29-28.95,21.85-5.98,3.71,1.12,5.82-.43,6.05,1.9,9.74,1.12,4.44,13.58,6.87-.08,1.65-4.62,11.91,2.46-.81,23.89-16.96-3.58-34.1,6.56Zm-26.73-7.16l26.75,6.46,34.09-6.56h.07s16.23,3.44,16.23,3.44l.76-22.5-10.77-2.22-1.61,4.51-7.85.09-4.46-13.64-9.37-1.09-5.99-1.88-5.82.43-3.65-1.1-21.28,5.83-7.11,28.23Z"/><path class="cls-3" d="m275.24,350.03l-7.11-6.27.9-4.93-18.02-6.92-4.58-12.59-8.66-5.83-5.85-7.55,5.69-.66,2.3,2.64.62-2.76-2.44-2.97-4.3-.69-5.1-2.32-.05-.07-5.52-7.55-5.4-1.44,2.25-2.91-2.61-6.8,1.12-2.57-3.85-5.1,1.36-7.02-5.89-4.61-3.45,2.88-5.83-5.83,35.58.26,32.03-31.43,8.98,13.51,22,6.96,1.87,14.98h7.66l3.23-4.08,17.53-3.7.62,7.44,3.96,3.7v.16s-1.04,18.4-1.04,18.4l-.09,3.92-21.62,5.92-7.22,28.66-.66.61-28.4,26.54Zm-6.37-6.53l6.36,5.6,28.46-26.59,7.27-28.85,21.51-5.89.08-3.43,1.02-18.25-3.92-3.66-.58-6.93-16.53,3.49-3.28,4.14h-8.6l-1.89-15.15-21.82-6.9-.07-.1-8.59-12.92-31.64,31.05h-.14s-34.05-.25-34.05-.25l4.21,4.21,3.4-2.83,6.66,5.21-1.38,7.13,3.91,5.17-1.16,2.68,2.64,6.9-1.86,2.4,4.64,1.24,5.61,7.67,4.9,2.23,4.42.7,2.81,3.42-.98,4.4-2.95-3.38-4.13.48,5.07,6.55,8.72,5.85,4.55,12.51,18.26,7.01-.93,5.11Z"/><path class="cls-3" d="m309.26,263.13h-8.6l-1.99-15.89,5.2,1.65,15.75-17.95,6.81,8.25.02.08,3.32,16.08-17.24,3.64-3.28,4.14Zm-7.99-.68h7.66l3.23-4.08,16.82-3.55-3.17-15.33-6.19-7.5-15.52,17.68-4.61-1.46,1.78,14.23Z"/><path class="cls-3" d="m304.1,249.67l-27.15-8.59-.07-.1-8.9-13.4,4.02-14.6,10.51-.47,18.64,4.65h21.1v3.29s-2.31,11.16-2.31,11.16l-15.84,18.05Zm-4.91-2.27l4.69,1.49,15.43-17.58,2.26-10.95v-2.5h-20.54s-18.58-4.65-18.58-4.65l-9.91.44-3.8,13.82,8.66,13.04,21.79,6.9Z"/><path class="cls-3" d="m321.56,220.8v-2.95h-20.54s-19.07-4.77-19.07-4.77l6.27-10.72,12.54-6.54v-6.22l13.52.31,26.34,1.4v6.38l-6.79,8.14,4.15,8.66.77,3.29-17.19,3.01Zm-20.41-3.63h21.1v2.82l15.67-2.75-.59-2.55-4.3-8.95,6.91-8.29v-5.49l-25.68-1.37-12.81-.29v5.93l-12.73,6.64-5.71,9.76,18.14,4.53Z"/><path class="cls-3" d="m337.11,239.68h-11.14l-6.71-8.12,2.36-11.46,16.79-2.94,8.31,4.95-3.62,7.01-5.98,10.57Zm-10.82-.68h10.42l5.78-10.21,3.32-6.42-7.54-4.49-16.08,2.82-2.2,10.68,6.3,7.62Z"/><path class="cls-3" d="m332.53,284.72l1.04-18.62-3.92-3.66-.61-7.32-3.33-16.12h11l5.88-10.38h3.1l15.22,18.91.02.08,4.2,19.64,3.5,3.5-5.19,4.36-.24,6.03-15.21-1.51-9.74,4.78-5.72.31Zm-2.22-22.6l3.96,3.7v.16s-1.01,18.02-1.01,18.02l4.88-.26,9.72-4.8h.1s14.59,1.46,14.59,1.46l.22-5.61,4.85-4.08-3.12-3.12-.02-.1-4.21-19.66-14.91-18.52h-2.37l-5.88,10.38h-10.56l3.17,15.34.59,7.1Z"/><path class="cls-3" d="m362.08,305.67l-4.46-13.64-9.37-1.09-5.99-1.88-5.82.43-3.99-1.21.1-4.26,5.58-.3,9.72-4.8h.1s15.07,1.51,15.07,1.51l5.72,5.79-2.06,2.39,4.99,12.05-1.75,4.91-7.85.09Zm-19.74-17.29l6.05,1.9,9.74,1.12,4.44,13.58,6.87-.08,1.5-4.22-5.05-12.2,1.92-2.23-5.1-5.17-14.73-1.46-9.74,4.78-5.02.27-.07,3.1,3.37,1.02,5.82-.43Z"/><path class="cls-3" d="m382.82,303.39l-11.75-2.42-5.17-12.49,1.92-2.23-5.29-5.36.24-6.12,4.85-4.08-3.12-3.12-.02-.1-4.26-19.93,9.03-8.3,2.83,8.16h0s.37,1.06.37,1.06l1.93,8.75,7.56,7.03-4.91,9.74,5.69,2.34.3,15.29,3.31,6.35-3.49,5.41Zm-11.25-3.02l10.93,2.26,3.02-4.69-3.2-6.14v-.08s-.3-14.92-.3-14.92l-5.95-2.45,5.01-9.94-7.34-6.83-1.96-8.92-2.84-8.2-7.97,7.33,4.16,19.45,3.5,3.5-5.19,4.36-.22,5.52,5.53,5.6-2.06,2.39,4.87,11.76Z"/><path class="cls-3" d="m382.33,292.28l-.31-15.48-5.95-2.45,5.01-9.94-7.34-6.83-2.03-9.24,13.3-3.67,8.1,14.48,12.95,2.92,6.29,5.52-14.09,20.71-2.74,1.32-6.67-.81-6.52,3.46Zm-5.32-18.28l5.69,2.34.29,14.82,5.72-3.04,6.68.81,2.39-1.16,13.65-20.06-5.7-5.01-13.07-2.95-.07-.13-7.91-14.14-12.15,3.35,1.85,8.39,7.56,7.03-4.91,9.74Z"/><g class="cls-1"><path class="cls-2" d="m154.19,108.14l-8.41-8.16-4.74,2.99-19.63-5.28v-11.81l-21.79-13.37-6.73,8.89v3.01l-10.18-1.34-27.1-21.08-6.52-2.25-6.04-3.69c-5.49-3.16-11.77-7.11-13.01-8.39.19-1.43,1.28-6.31,2.33-10.66l.07-.31-2.53-11.21-3.59-4.78,7.01-7.33,1.58-8.86h7.16l75.19,28.67,18.69,7.52,5.91,2.5,71.79,27.34-29.36,29.36-25.16,11.03-4.95-2.77Z"/><path class="cls-4" d="m41.82,5.86l74.93,28.57,18.67,7.51,5.91,2.5.05.02.05.02,69.76,26.57-27.44,27.44-.25.25-24.3,10.66-4.2-2.35-7.5-7.28-1.55-1.5-1.82,1.15-3.32,2.1-18.04-4.85v-11.53l-1.31-.8-20.08-12.32-2.12-1.3-1.5,1.98-5.71,7.53-.56.73v1.9l-8.26-1.09-1.47-1.14-25.16-19.57-.36-.28-.43-.15-6.17-2.13-5.91-3.61-.03-.02-.03-.02c-4.75-2.73-10.28-6.18-12.19-7.71.35-1.93,1.31-6.18,2.19-9.81l.15-.62-.14-.62-2.4-10.61-.13-.57-.35-.47-2.71-3.62,5.93-6.2.57-.6.15-.81,1.31-7.33h5.76m.5-2.74h-8.56l-1.71,9.59-7.53,7.87,4.11,5.48,2.4,10.61s-2.4,9.93-2.4,11.3,13.69,9.24,13.69,9.24l6.16,3.77,6.45,2.23,25.16,19.57,2.05,1.6,12.1,1.6v-4.11l5.71-7.53,20.08,12.32v12.1l21.23,5.71,4.34-2.74,7.76,7.53,5.71,3.2,26.02-11.41.61-.61,30.43-30.43-73.72-28.07-5.93-2.51-18.71-7.53L42.33,3.12h0Z"/></g><g class="cls-1"><path class="cls-2" d="m269.99,343.12l.98-5.38-18.62-7.14-4.5-12.39-8.86-5.95-3.86-4.98,1.78-.21,3.93,4.51,1.53-6.87-3.38-4.11-4.67-.74-4.52-2.06-5.66-7.75-3.5-.93,1.26-1.63-2.7-7.04,1.24-2.84-3.99-5.29,1.41-7.3-6.49-5.07,25.71.19,32.5-31.89,3.74-13.6,9.02-.4,18.6,4.64h19.6v1.37l-2.39,11.57,6.71,8.12,3.17,15.33.64,7.63,3.85,3.6-.99,17.76-.11,4.77,4.92,1.49,5.81-.43,5.86,1.84,8.84,1.03,4.49,13.73,9.32-.11,1.55-4.34,9.88,2.04,14.93,11.06.23,7.89-1.8,5.08-13.22-3.45-16.97-3.58-34.07,6.56-27.59-6.66-28.39,26.53-5.22-4.6Zm-65.03-83.22l3.87.03-2.1,1.75-1.77-1.77Z"/><path class="cls-4" d="m282.2,215.62l18.24,4.55.33.08h18.37l-2.2,10.66-.27,1.29.84,1.01,6.07,7.35,3.08,14.92.59,7.02.09,1.05.77.72,3,2.81-.96,17.12v.04s0,.04,0,.04l-.09,3.68-.05,2.08,1.99.6,3.68,1.11.49.15.51-.04,5.3-.39,5.49,1.73.25.08.26.03,7.84.91,3.91,11.94.62,1.91,2.01-.02,7.36-.09,1.91-.02.64-1.8.83-2.32,8.41,1.74,14.15,10.49.2,6.97-1.3,3.65-12-3.13-.06-.02h-.06s-16.63-3.52-16.63-3.52l-.54-.11-.54.1-33.51,6.45-26.58-6.42-1.43-.35-1.08,1.01-.58.54-26.36,24.63-3.71-3.27.64-3.5.41-2.23-2.12-.81-16.98-6.51-4.14-11.38-.31-.84-.74-.5-6.23-4.18.76-3.4.8-3.58.29-1.3-.85-1.03-2.62-3.2-.66-.8-1.03-.16-3.97-.63-4.03-1.83-5.17-7.07-.57-.78-.93-.25-1.04-.28.47-.61-.55-1.44-2.22-5.8.69-1.6.64-1.47-.96-1.28-3.14-4.16,1.14-5.88.32-1.65-1.32-1.03-2.66-2.08,21.12.16h1.13s.81-.78.81-.78l31.84-31.24.53-.52.2-.71,3.38-12.29,7.82-.35m.28-2.75l-10.21.46-3.91,14.21-31.84,31.24-34.89-.26,5.02,5.02,3.42-2.85,6.28,4.91-1.37,7.08,3.88,5.14-1.14,2.62,2.62,6.85-2.05,2.65,5.02,1.34,5.59,7.65,5.02,2.28,4.34.68,2.62,3.2-.8,3.58-2.62-3.01-4.91.57,5.48,7.07,8.67,5.82,4.56,12.55,18.14,6.96-.91,5.02,6.73,5.93,28.17-26.33.58-.54,27.16,6.56,34.09-6.56,16.63,3.51,14.44,3.77,2.31-6.5-.26-8.82-15.7-11.64-11.34-2.34-1.63,4.56-7.36.09-4.45-13.61-9.59-1.11-5.99-1.88-5.82.43-3.68-1.11.09-3.68,1.03-18.4-3.94-3.68-.6-7.19-3.25-15.75-6.5-7.87,2.28-11.07v-2.88h-20.8l-18.63-4.65h0Z"/></g><path class="cls-3" d="m443.68,495.15l-6.41-8.92.2-27.48-11.06-6.75.03-16.01,4.22-2.73-.1-12.76,11.39,1.53.2-21.36.05-.08,11.73-18.84,9.47,9.59-.18,4.49,2.38,3.79,5.42,3.51-.88,5.61,4.65,12.11-3.04,3.03-3.09,5.5,1.87,1.33.04.08,7.32,14.62,5.86-.33,2.41,2.98-5.85,7.69-.95,7.61-3.15,4.58h-1.23s-23.44,24.35-23.44,24.35l-7.85,2.89Zm-5.72-9.14l5.98,8.32,7.22-2.65,23.54-24.44h1.16s2.85-4.14,2.85-4.14l.96-7.62,5.64-7.41-1.86-2.29-5.96.34-7.48-14.94-2.23-1.59,3.47-6.16,2.76-2.75-4.56-11.87.84-5.35-5.22-3.42-2.53-4.03.18-4.41-8.65-8.76-11.22,18.02-.21,21.94-11.37-1.53.09,12.35-4.23,2.73-.02,15.25,11.06,6.75-.21,27.65Z"/></svg>