<?xml version="1.0" encoding="UTF-8"?><svg id="Capa_1" xmlns="http://www.w3.org/2000/svg" viewBox="0 0 512 512"><defs><style>.cls-1{fill:#3a3a3a;stroke-width:0px;}</style></defs><path class="cls-1" d="m344.21,732.07h-4.72l-81.89-.79-9.35-27.49,10.35-10.62-.53-36.76,10.68-7.52-15.41-9.6,18.31-39.23-30.04-17.13,5.12-6.74-41.04,2.19-2.33,43.17-12.62,12.85,8.38-.91-6.09,18.88-16.72-7.5-5.33-23.1-17.82,7.7-10.15.27-16.81-17.61-15.25-11.29-8.4-17.06-9.4-8.32.79-9.5-7.89-8.8,89.11-83.27.55.13,82.84,20.01,105.16-20.24,6.84,65.17,2.59,51.71v2.8s-56.39,27.6-56.39,27.6l27.97,68.51,3,37.73-3.52,4.75Zm-85.1-2.87l84.05.78,2.42-3.27-2.92-36.79-28.58-69.86,56.98-27.89v-1.44l-2.59-51.6-6.59-62.85-103.37,19.89-82.73-19.99-86.79,81.1,7.12,7.95-.78,9.35,9.01,8.09,8.27,16.79,14.98,11.1,16.3,17.06,9.02-.24,19.55-8.54,5.66,24.54,13.64,6.11,4.38-13.58-10.99,1.19,16.17-16.47,2.39-44.26,47.43-2.53-6.4,8.44,29.64,16.9-18.34,39.29,16.52,10.29-12.36,8.71.52,36.53-10.06,10.32,8.45,24.86Z"/><path class="cls-1" d="m413.13,550.59l-17.31-.07-27.29-10.7-6.93-66.1,52.32,11.04,44.94,11.72-.37,20.1-45.36,34.02Zm-16.73-2.09h16.03l43.98-32.99.33-17.42-43.33-11.3-49.43-10.43,6.5,61.98,25.92,10.17Z"/><path class="cls-1" d="m563.42,490.56h-17.05l1.12-15.57.71-61.19,86.96-1.75,3.22-5.85-22.66-29.42-44.38-1.03-38.42,9.34-3.89-56.3-43.42-38.12,60.12-64.06,57.07,58.83,70.54,12.64,20.4,120.97-.03.19-6.95,35.77,2.96,20.7-73.65-8.14-52.64,23.01Zm-14.8-2.09h14.36l52.75-23.06,71.53,7.91-2.63-18.38.03-.17,6.95-35.76-20.09-119.14-69.76-12.49-.23-.24-55.77-57.49-57.14,60.88,42.44,37.26,3.78,54.68,36.27-8.81h.14s45.52,1.06,45.52,1.06l24.11,31.3-4.46,8.11-86.14,1.74-.69,59.25-.97,13.36Z"/><path class="cls-1" d="m529.64,529.56l-51.18-9.89-2.3,5.42-19.76-8.36.42-19.8,7.32-20.61,65.47,2.15.43,11.01-.4,40.09Zm-52.45-12.27l50.38,9.74.38-37.53-.35-9.01-62-2.04-6.75,19.01-.33,17.88,16.53,7,2.15-5.05Z"/><path class="cls-1" d="m548.47,490.56h-20.48l-.43-11.04v-34.2l-65.84-76.22,43.53-63.98,25.81,22.66.03.43,3.82,55.28,15.38,31.1v.25s-.7,60.2-.7,60.2l-1.12,15.52Zm-18.46-2.09h16.52l.98-13.51.7-59.89-15.35-31.23-3.81-55.06-23.38-20.53-41.29,60.7,65.3,75.59v34.94l.35,8.99Z"/><path class="cls-1" d="m529.65,480.56l-65.8-2.16-.8-27.44-48.41-35.88,10.15-15.76-10.15-19.49,19.92-10.59,20.44,2.49,8.3-4.01.52.61,65.82,76.2v36.02Zm-63.76-4.19l61.67,2.03v-33.08l-64.79-75-7.41,3.58-20.39-2.48-17.51,9.3,9.75,18.73-9.74,15.13,47.65,35.32.77,26.48Z"/><path class="cls-1" d="m-30.45,280.56h-.43s-107.4-.8-107.4-.8l-2.9-7.13,9.82-17.51.71-8.71-10.89-4.67-.8-11.76-15.1-14.84-3.13-11.49-12.86-11.28-1.61-8.04-13.45-24.53,1.52-8.38-9.78-7.58-10.86-2.23.84-14.51,1.28-11.27-5.38-10.94v-35.62l90.44-31.55,47.85-63.8,13.77-51.46L-24.01-30.41-11.95-7.73v.24s3.47,111.69,3.47,111.69l88.18,35.69-12.28,44.62-.2.2-97.68,95.84Zm-106.42-2.88l105.57.78,96.86-95.04,11.63-42.28L-10.53,105.64l-.02-.68L-14.03-7.18l-11.75-22.12-32.13-43.49-12.87,47.81-48.35,64.47-.3.11-89.34,31.16v33.65l5.44,11.05-1.34,11.82-.73,12.65,9.56,1.96,11.16,8.65-1.62,8.9,13.28,24.31,1.5,7.5,12.79,11.23,3.15,11.55,15.26,15,.77,11.28,11.1,4.76-.98,10.86-9.44,16.84,1.99,4.91Z"/><path class="cls-1" d="m200.87,11.74h-10.83l-.3-.3-60.42-59.9h-8.12v-42.78l-10.43-35.98-2.33-16.24,37.81,6.97.25.36,35.97,52.99-1.37,29.4,43.78,5.95-4.86,24.07-19.14,35.45Zm-9.96-2.09h8.72l18.47-34.21,4.29-21.44-43.47-5.91,1.43-30.62-35.33-52.05-34.08-6.29,1.89,13.22,10.48,36.27v40.83h6.89l.3.3,60.42,59.9Z"/><path class="cls-1" d="m78.26,141.58l-.21-.09L-10.53,105.64l-.02-.68L-14.06-8.1l23.65-11.46,38.34-13.38,14.16.71,35.3,4.81,13.59,44.57-10.02,3.06-18.78,34.4-1.03,26.79,30.2,58.7-33.1,1.48ZM-8.48,104.21l87.1,35.26,29.37-1.31-28.96-56.29,1.07-27.83.12-.22,19.31-35.36,8.83-2.7-12.59-41.28-33.89-4.62-13.67-.68L10.39-17.63-11.92-6.81l3.45,111.01Z"/><path class="cls-1" d="m109.62,141.3l-30.58-59.44,1.07-27.83.12-.22,19.31-35.36,10.74-3.28,9,21.7,43.65.26,4.76,31.77v19.37s-38.93,20.31-38.93,20.31l-19.13,32.71Zm-28.46-59.91l28.58,55.56,17.51-29.94,38.35-20v-17.95l-4.48-29.84-43.25-.26-8.8-21.23-8.11,2.48-18.78,34.4-1.03,26.79Z"/><path class="cls-1" d="m208.09,71.05l-42.35-.96-4.62-30.87-43.25-.26-9.17-22.11-13.17-43.33v-24.08h34.63l.3.3,60.42,59.9h10.28l6.91,61.41Zm-40.53-3.02l38.19.87-6.44-57.16h-9.27l-.3-.3-60.42-59.9h-31.68v21.83l13.04,42.78,8.6,20.73,43.65.26,4.63,30.9Z"/><path class="cls-1" d="m348.45,247.1l-47.88-59.48,43.19-7.64,41.37-.02-9.61,42.25-27.06,24.88Zm-44.03-58.04l44.26,54.98,24.94-22.93,8.89-39.06h-38.56l-39.52,7Z"/><path class="cls-1" d="m294.12,189.38h-1.72l11.59-22.44,39.02-14.66,36.1,3.16,9.22,1.75.02,12.27-3.75,12.59h-40.56l-41.35,7.31-8.56.02Zm1.72-2.09h6.66l41.44-7.33h39.09l3.22-10.8-.02-10.24-7.42-1.41-35.52-3.11-37.82,14.21-9.64,18.67Z"/><path class="cls-1" d="m304.64,168.94l-25.04-14.92-2.54-10.88,20.33,2.45,49.94,7.31-42.69,16.04Zm-23.21-16.26l23.41,13.95,34.15-12.83-41.88-6.13-17.33-2.09,1.65,7.1Z"/><path class="cls-1" d="m380.38,157.66l-37.36-3.27-65.3-9.06-10.54-21.9,45.25-1.24.17.06,20.78,6.77h40.09l6.91,28.65Zm-37.1-5.35l34.38,3.01-5.83-24.22-38.94-.05-20.77-6.76-41.65,1.14,8.65,17.97,64.16,8.91Z"/><path class="cls-1" d="m287.3,75.31l-81.32-4.33-6.81-60.49,19.3-35.73,36.52-.44h.04s19.76,1.34,19.76,1.34l26.58,26.85-14.06,72.81Zm-79.44-6.32l77.73,4.14,13.51-69.93-25.25-25.5-18.93-1.28-35.2.43-18.4,34.07,6.54,58.08Z"/><path class="cls-1" d="m364.68,96.92l-79.28-3.56.02-19.35,13.68-70.83-25.7-25.96-2.79-8.66,16.8-18.77,17.41-26.68,23.42,26.69L380.23.23h52.45v47.31l-50.58,19.49-17.41,29.89Zm-77.19-5.57l76.02,3.42,17.14-29.43,49.93-19.24V2.32h-51.2l-.3-.3-52.35-50.78-21.66-24.68-16,24.5-16.1,18,2.27,7.04,26.13,26.39-13.87,71.81v17.05Z"/><path class="cls-1" d="m432.44,2.32h-53.06l-.3-.3-53.09-51.49,60.38-64.69.66,1.38,48.85,101.9-3.44,13.19ZM380.23.23h50.59l2.84-10.89-47.85-99.83-56.88,60.95L380.23.23Z"/><path class="cls-1" d="m373.99,131.1l-41.1-.05-20.77-6.76-43.95,1.21-3.9-8.16,21.7-26.04,78.95,3.55,9.06,36.26Zm-40.61-2.09h37.93l-8.03-32.14-76.35-3.43-20.18,24.21,2.73,5.72,42.95-1.18.17.06,20.78,6.77Z"/><path class="cls-1" d="m479.08,55.36l-48.5-7.65.03-46.7,3.04-11.67-12.48-26.04,66.68,8.8,6.16-30.39,19.61-17.91h18.71L563.19,1.48l-24.22,27.87-29.11-17.95h-28.81l-1.96,43.97Zm-46.41-9.44l44.42,7.01,1.94-43.63h31.41l28.1,17.33,22.22-25.56-29.87-75.18h-16.47l-18.5,16.9-6.41,31.64-64.79-8.55,11.14,23.25-3.2,12.28v44.52Z"/><path class="cls-1" d="m475.34,230.85v-26.08l20.49-22.67,50.97,31.39v15.65l-71.46,1.71Zm2.09-25.27v23.13l67.27-1.61v-12.44l-48.49-29.86-18.78,20.78Z"/><path class="cls-1" d="m546.8,215.95l-51.91-31.97,4.13-28.36,26.06-5.68h21.72v66Zm-49.64-33.03l47.55,29.28v-60.16h-19.52l-24.31,5.32-3.72,25.56Z"/><path class="cls-1" d="m499.35,157.69l-16.15-34.01-7.86-16.16v-16.36l97.19,12.92-26.15,47.95h-21.19l-25.83,5.65Zm-21.92-50.65l7.65,15.74,15.45,32.51,24.54-5.34h20.06l24.1-44.18-91.8-12.21v13.48Z"/><path class="cls-1" d="m487.47,291.74l-40.82-9.22-.23-.41-25.16-44.98,15.57-6.84,39.52-1.57,71.88-1.72-60.75,64.73Zm-39.45-11.06l38.75,8.75,56.51-60.21-66.86,1.6-39.31,1.56-12.9,5.73,23.81,42.56Z"/><path class="cls-1" d="m383.15,249.63l-9.67-27.91.07-.29,9.27-40.72,3.72-12.46,28.89.7,2.72-13.16,66.49-33.97,16.4,34.52-4.02,27.59-19.57,21.66v25.21l-40.33,1.6-13.95,6.2-40,11.04Zm-7.49-28.03l8.83,25.49,37.97-10.47,14.37-6.32,38.52-1.53v-24l19.69-21.79,3.83-26.33-15.2-32-63.67,32.54-2.87,13.89-29.04-.7-3.25,10.89-9.17,40.33Z"/><path class="cls-1" d="m417.12,171.08l-30.86-.74-.02-11.41-8.08-1.53-6.53-27.09-8.65-34.61,17.67-30.35,50.86-19.6,47.66,7.52-1.74,39.13v14.65l8.1,16.66-65.55,33.49-2.87,13.89Zm-28.77-2.79l27.07.65,2.72-13.16,64.61-33.02-7.41-15.25v-15.21s1.66-37.28,1.66-37.28l-45.26-7.14-49.65,19.14-16.88,28.98,8.45,33.79,6.21,25.79,8.45,1.61.02,11.1Z"/><path class="cls-1" d="m572.11,106.14l-96.81-12.87,3.74-83.97h31.41l29.07,17.93,27.86,46.13,4.74,32.78Zm-94.64-14.69l92.17,12.25-4.31-29.83-27.34-45.13-28.14-17.35h-28.81l-3.57,80.06Z"/><path class="cls-1" d="m458.47,498.54l-45.89-11.97,2.49-73.76,50.04,37.09.81,27.66-.07.18-7.39,20.8Zm-43.74-13.57l42.41,11.06,6.68-18.8-.76-26.26-46.02-34.11-2.3,68.1Z"/><path class="cls-1" d="m258.5,496.17l-84.31-20.37.26-1.02,22.31-88.54,66.84-18.3,11.36,3.43,17.8-1.31,18.51,5.82,29.79,3.44,13.58,41.53,21.01-.25,5.03-14.13,36.44,7.52-2.47,73.06-51.88-10.95-104.28,20.07Zm-81.76-21.91l81.81,19.76,104.25-20.06.21.04,49.65,10.47,2.33-68.8-32.92-6.79-4.91,13.79-24.01.28-13.64-41.71-28.65-3.32-18.32-5.74-17.79,1.31-11.15-3.37-65.08,17.82-21.75,86.33Z"/><path class="cls-1" d="m87.54,558.63l-21.75-19.17,2.74-15.08-55.12-21.15L-.6,464.72l-26.49-17.84-17.89-23.1,17.4-2.02,7.03,8.06,1.88-8.43-7.45-9.07-13.14-2.11-15.6-7.09-.16-.22-16.88-23.08-16.52-4.41,6.89-8.9-7.97-20.79,3.41-7.86-11.78-15.59,4.16-21.47-18.03-14.09-10.55,8.8-17.84-17.84,108.82.8,97.97-96.12,27.46,41.32,67.29,21.29,5.73,45.82h23.43l9.87-12.46,53.62-11.32,1.9,22.77,12.1,11.31-.03.49-3.14,56.28-.28,12-66.12,18.11-22.08,87.65-2.01,1.88-86.86,81.17Zm-19.48-19.96l19.44,17.13,87.03-81.33,22.24-88.24,65.8-18.02.24-10.48,3.11-55.82-11.98-11.2-1.77-21.21-50.56,10.67-10.03,12.66h-26.3l-5.79-46.32-66.72-21.11-.2-.31-26.26-39.52-96.77,94.95h-.43s-104.15-.77-104.15-.77l12.87,12.87,10.39-8.65,20.37,15.92-4.22,21.81,11.95,15.82-3.56,8.19,8.08,21.09-5.68,7.33,14.19,3.79,17.16,23.46,14.98,6.81,13.51,2.13,8.6,10.47-3.01,13.47-9.02-10.35-12.62,1.47,15.51,20.04,26.67,17.89,13.91,38.26,55.86,21.43-2.84,15.63Z"/><path class="cls-1" d="m191.59,292.86h-26.3l-6.08-48.6,15.91,5.03,48.17-54.89,20.84,25.23.05.25,10.16,49.18-52.74,11.13-10.03,12.66Zm-24.45-2.09h23.43l9.87-12.46,51.44-10.86-9.68-46.89-18.94-22.93-47.45,54.07-14.1-4.46,5.44,43.53Z"/><path class="cls-1" d="m175.8,251.7l-83.02-26.27-.2-.31-27.23-40.97,12.28-44.64,32.15-1.44,57,14.23h64.52l-.02,10.07-7.03,34.12-48.45,55.2Zm-15.03-6.95l14.36,4.54,47.18-53.76,6.9-33.48v-7.66l-62.81-.03-56.83-14.18-30.32,1.35-11.62,42.26,26.49,39.87,66.65,21.09Z"/><path class="cls-1" d="m229.21,163.41v-9.01l-62.81-.03-58.33-14.56,19.18-32.79,38.35-20v-19.02l41.34.94,80.55,4.29v19.52l-20.75,24.9,12.7,26.48,2.34,10.06-52.57,9.22Zm-62.43-11.11h64.52v8.61l47.94-8.41-1.82-7.8-13.15-27.38,21.13-25.35v-16.78l-78.54-4.18-39.16-.89v18.15l-38.95,20.31-17.46,29.86,55.49,13.85Z"/><path class="cls-1" d="m276.76,221.14h-34.08l-20.53-24.85,7.22-35.04,51.34-9,25.41,15.14-11.07,21.43-18.29,32.32Zm-33.1-2.09h31.88l17.67-31.23,10.14-19.64-23.05-13.73-49.17,8.62-6.73,32.66,19.26,23.31Z"/><path class="cls-1" d="m262.74,358.88l3.18-56.95-11.98-11.2-1.86-22.39-10.19-49.3h33.65l17.97-31.76h9.49l46.54,57.82.05.24,12.85,60.07,10.71,10.71-15.87,13.35-.72,18.45-46.53-4.62-29.8,14.63-17.48.94Zm-6.78-69.13l12.1,11.31-.03.49-3.08,55.11,14.94-.8,29.74-14.69.3.03,44.61,4.43.67-17.15,14.84-12.48-9.53-9.53-.07-.3-12.86-60.13-45.6-56.65h-7.26l-17.97,31.76h-32.31l9.68,46.9,1.82,21.71Z"/><path class="cls-1" d="m353.13,422.95l-13.64-41.71-28.65-3.32-18.32-5.74-17.79,1.31-12.2-3.69.3-13.02,17.07-.91,29.74-14.69.3.03,46.09,4.57,17.49,17.71-6.29,7.31,15.26,36.86-5.35,15.03-24.01.28Zm-60.37-52.89l18.51,5.82,29.79,3.44,13.58,41.53,21.01-.25,4.59-12.89-15.45-37.3,5.87-6.82-15.6-15.8-45.05-4.47-29.8,14.63-15.35.82-.22,9.49,10.31,3.11,17.8-1.31Z"/><path class="cls-1" d="m416.54,416l-35.93-7.41-15.82-38.19,5.87-6.82-16.19-16.39.73-18.71,14.84-12.48-9.53-9.53-.07-.3-13.04-60.96,27.62-25.39,8.64,24.95h0s1.13,3.25,1.13,3.25l5.9,26.76,23.11,21.51-15.03,29.79,17.39,7.16.93,46.77,10.11,19.43-10.66,16.56Zm-34.42-9.24l33.44,6.9,9.23-14.33-9.78-18.79v-.25s-.91-45.64-.91-45.64l-18.21-7.5,15.34-30.41-22.44-20.89-6-27.28-8.69-25.07-24.39,22.42,12.72,59.49,10.71,10.71-15.87,13.35-.66,16.88,16.91,17.12-6.29,7.31,14.89,35.97Z"/><path class="cls-1" d="m415.04,382l-.94-47.35-18.21-7.5,15.34-30.41-22.44-20.89-6.21-28.25,40.66-11.21,24.78,44.28,39.59,8.94,19.23,16.88-43.09,63.34-8.38,4.05-20.39-2.48-19.93,10.59Zm-16.26-55.92l17.39,7.16.9,45.31,17.5-9.3,20.44,2.49,7.32-3.54,41.73-61.34-17.43-15.31-39.98-9.03-.23-.41-24.2-43.26-37.16,10.25,5.65,25.67,23.11,21.51-15.03,29.79Z"/></svg>