<?xml version="1.0" encoding="UTF-8"?><svg id="Capa_2" xmlns="http://www.w3.org/2000/svg" viewBox="0 0 562.19 472.67"><g id="Capa_1-2"><path d="m536.74,152.14h-6.96V19.77c0-10.9-8.87-19.77-19.77-19.77H52.19c-10.9,0-19.77,8.87-19.77,19.77v72.07h-6.96c-14.04,0-25.46,11.42-25.46,25.46v324.23c0,17.17,13.97,31.15,31.15,31.15h499.9c17.17,0,31.15-13.97,31.15-31.15V177.6c0-14.04-11.42-25.46-25.46-25.46ZM49.21,19.77c0-1.64,1.34-2.98,2.98-2.98h457.81c1.64,0,2.98,1.34,2.98,2.98v132.37H249.19c-5.16,0-9.95-2.79-12.49-7.29l-21.06-37.21c-5.52-9.75-15.9-15.8-27.11-15.8H49.21V19.77Zm-23.75,88.86h163.07c5.16,0,9.95,2.79,12.5,7.29l21.06,37.21c5.52,9.75,15.9,15.8,27.11,15.8h287.55c4.78,0,8.67,3.89,8.67,8.67v20.05H16.79v-80.34c0-4.78,3.89-8.67,8.67-8.67Zm505.59,347.26H31.15c-7.92,0-14.36-6.44-14.36-14.36v-227.1h528.62v227.1c0,7.92-6.44,14.36-14.36,14.36Z"/><path d="m497.09,255.09h-232.56c-4.64,0-8.39,3.76-8.39,8.39v34.13c0,4.64,3.76,8.39,8.39,8.39h232.56c4.64,0,8.39-3.76,8.39-8.39v-34.13c0-4.64-3.76-8.39-8.39-8.39Zm-8.39,34.13h-215.77v-17.34h215.77v17.34Z"/><path d="m497.09,397.3h-232.56c-4.64,0-8.39,3.76-8.39,8.39s3.76,8.39,8.39,8.39h232.56c4.64,0,8.39-3.76,8.39-8.39s-3.76-8.39-8.39-8.39Z"/><path d="m497.09,363.17h-232.56c-4.64,0-8.39,3.76-8.39,8.39s3.76,8.39,8.39,8.39h232.56c4.64,0,8.39-3.76,8.39-8.39s-3.76-8.39-8.39-8.39Z"/><path d="m264.54,345.83h55.18c4.64,0,8.39-3.76,8.39-8.39s-3.76-8.39-8.39-8.39h-55.18c-4.64,0-8.39,3.76-8.39,8.39s3.76,8.39,8.39,8.39Z"/><path d="m207.31,255.09H65.1c-4.64,0-8.39,3.76-8.39,8.39v142.2c0,4.64,3.76,8.39,8.39,8.39h142.2c4.64,0,8.39-3.76,8.39-8.39v-142.2c0-4.64-3.76-8.39-8.39-8.39Zm-71.1,88.96c-10.38,0-18.82-8.44-18.82-18.82s8.44-18.82,18.82-18.82,18.82,8.44,18.82,18.82-8.44,18.82-18.82,18.82Zm.47,20.92c18.55,0,33.83,14.22,35.53,32.33h-72c1.7-18.11,16.98-32.33,35.53-32.33h.94Zm62.24,32.33h-9.88c-1.25-19.71-13.43-36.48-30.52-44.34,8.1-6.53,13.3-16.53,13.3-27.73,0-19.64-15.98-35.61-35.61-35.61s-35.61,15.98-35.61,35.61c0,11.2,5.2,21.19,13.3,27.73-17.1,7.86-29.27,24.63-30.52,44.34h-9.88v-125.42h125.42v125.42Z"/><path d="m387.23,90.73h93.76c4.64,0,8.39-3.76,8.39-8.39v-34.13c0-4.64-3.76-8.39-8.39-8.39h-93.76c-4.64,0-8.39,3.76-8.39,8.39v34.13c0,4.64,3.76,8.39,8.39,8.39Zm8.39-34.13h76.98v17.34h-76.98v-17.34Z"/></g></svg>