<?xml version="1.0" encoding="utf-8"?>
<!-- Generator: Adobe Illustrator 27.7.0, SVG Export Plug-In . SVG Version: 6.00 Build 0)  -->
<svg version="1.1" id="Capa_2_00000040533796624861657310000004967252390320893322_"
	 xmlns="http://www.w3.org/2000/svg" xmlns:xlink="http://www.w3.org/1999/xlink" x="0px" y="0px" viewBox="0 0 58 59.3"
	 style="enable-background:new 0 0 58 59.3;" xml:space="preserve">
<style type="text/css">
	.st0{fill:#DC7F37;}
	.st1{fill:#960E53;}
	.st2{fill:#410324;}
	.st3{fill:#FFFFFF;}
</style>
<g id="Capa_2-2">
	<path class="st0" d="M20,8.1c-1.7,0-3.1,1.4-3.1,3.1c0,0.9,0.4,1.8,1.1,2.4c0.5,0.5,1.3,0.8,2,0.8c0.8,0,1.5-0.3,2-0.8
		c0.7-0.6,1.1-1.4,1.1-2.4C23.1,9.5,21.7,8.1,20,8.1z M20,9.5c0.9,0,1.7,0.8,1.7,1.7c0,0.9-0.8,1.7-1.7,1.7c-0.9,0-1.7-0.8-1.7-1.7
		C18.3,10.3,19,9.5,20,9.5z"/>
	<path class="st0" d="M22,13.5c-0.6-0.3-1.3-0.5-2-0.5c-0.7,0-1.4,0.2-2,0.5c-1.4,0.7-2.5,2.1-2.7,3.8c0,0.3,0.1,0.6,0.3,0.9
		c0.2,0.2,0.5,0.4,0.8,0.4h7.2c0.3,0,0.6-0.1,0.8-0.4c0.2-0.2,0.3-0.5,0.3-0.9C24.5,15.6,23.4,14.2,22,13.5z M16.8,17.1
		c0.3-1.5,1.6-2.6,3.2-2.6s2.9,1.1,3.2,2.6H16.8z"/>
	<path class="st0" d="M37.6,11.5c0,0.5-0.4,0.9-0.9,0.9h-9.4c-0.5,0-0.9-0.4-0.9-0.9c0-0.5,0.4-0.9,0.9-0.9h9.4
		C37.2,10.6,37.6,11,37.6,11.5z"/>
	<path class="st0" d="M35.9,16.1c0,0.5-0.4,0.9-0.9,0.9h-7.6c-0.5,0-0.9-0.4-0.9-0.9c0-0.5,0.4-0.9,0.9-0.9H35
		C35.5,15.2,35.9,15.6,35.9,16.1z"/>
	<path class="st1" d="M24.9,25.9H19c-0.4,0-0.7,0.3-0.7,0.7v5.8c0,0.4,0.3,0.7,0.7,0.7h5.8c0.4,0,0.7-0.3,0.7-0.7v-5.8
		C25.6,26.2,25.3,25.9,24.9,25.9z M24.2,31.7h-4.4v-4.4h4.4V31.7z"/>
	<path class="st1" d="M21.2,28.4h1.6c0.2,0,0.4,0.2,0.4,0.4v1.6c0,0.2-0.2,0.4-0.4,0.4h-1.6c-0.2,0-0.4-0.2-0.4-0.4v-1.6
		C20.8,28.5,21,28.4,21.2,28.4z"/>
	<path class="st1" d="M24.9,34.7H19c-0.4,0-0.7,0.3-0.7,0.7v5.8c0,0.4,0.3,0.7,0.7,0.7h5.8c0.4,0,0.7-0.3,0.7-0.7v-5.8
		C25.6,35,25.3,34.7,24.9,34.7z M24.2,40.5h-4.4v-4.4h4.4V40.5z"/>
	<path class="st1" d="M23.1,37.6v1.6c0,0.2-0.2,0.4-0.4,0.4h-1.6c-0.2,0-0.3-0.2-0.3-0.4v-1.6c0-0.2,0.2-0.3,0.3-0.3h1.6
		C22.9,37.2,23.1,37.4,23.1,37.6z"/>
	<path class="st1" d="M30.2,35.4v1.6c0,0.1,0,0.1-0.1,0.2c0,0-0.1,0.1-0.1,0.1c0,0-0.1,0.1-0.2,0.1h-1.6c-0.2,0-0.3-0.2-0.3-0.4
		v-1.6c0-0.2,0.2-0.3,0.3-0.3h1.6C30,35,30.2,35.2,30.2,35.4z"/>
	<path class="st1" d="M32.2,37.4V39c0,0.1,0,0.2-0.1,0.2c0,0,0,0,0,0c-0.1,0.1-0.2,0.1-0.2,0.1h-1.6c-0.1,0-0.2,0-0.2-0.1
		c0,0,0,0,0,0c-0.1-0.1-0.1-0.1-0.1-0.2v-1.6c0-0.1,0-0.1,0.1-0.2c0,0,0.1-0.1,0.1-0.1c0,0,0.1-0.1,0.2-0.1h1.6c0.1,0,0.2,0,0.2,0.1
		c0,0,0,0,0,0.1C32.2,37.3,32.2,37.3,32.2,37.4z"/>
	<path class="st1" d="M34.3,35.4v1.6c0,0.2-0.2,0.4-0.4,0.4h-1.6c-0.1,0-0.2,0-0.2-0.1c0,0,0,0,0-0.1c0,0-0.1-0.1-0.1-0.2v-1.6
		c0-0.2,0.2-0.3,0.3-0.3h1.6C34.1,35,34.3,35.2,34.3,35.4z"/>
	<path class="st1" d="M34.3,39.5V41c0,0.2-0.2,0.3-0.4,0.3h-1.6c-0.2,0-0.3-0.2-0.3-0.3v-1.6c0-0.1,0-0.2,0.1-0.2c0,0,0,0,0,0
		c0.1-0.1,0.2-0.1,0.2-0.1h1.6C34.1,39.1,34.3,39.3,34.3,39.5z"/>
	<path class="st1" d="M30.2,39.5V41c0,0.2-0.2,0.3-0.4,0.3h-1.6c-0.2,0-0.3-0.2-0.3-0.3v-1.6c0-0.2,0.2-0.3,0.3-0.3h1.6
		c0.1,0,0.2,0,0.2,0.1c0,0,0,0,0,0C30.1,39.3,30.2,39.4,30.2,39.5z"/>
	<path class="st1" d="M34.1,25.9h-5.8c-0.4,0-0.7,0.3-0.7,0.7v5.8c0,0.4,0.3,0.7,0.7,0.7h5.8c0.4,0,0.7-0.3,0.7-0.7v-5.8
		C34.8,26.2,34.5,25.9,34.1,25.9z M33.4,31.7H29v-4.4h4.4V31.7z"/>
	<path class="st1" d="M30.4,28.4H32c0.2,0,0.4,0.2,0.4,0.4v1.6c0,0.2-0.2,0.4-0.4,0.4h-1.6c-0.2,0-0.4-0.2-0.4-0.4v-1.6
		C30.1,28.5,30.2,28.4,30.4,28.4z"/>
	<path class="st1" d="M35.9,22H17c-1.3,0-2.4,1.1-2.4,2.4v18.9c0,1.3,1.1,2.4,2.4,2.4h18.9c1.3,0,2.4-1.1,2.4-2.4V24.4
		C38.3,23.1,37.2,22,35.9,22z M36.6,43.3c0,0.4-0.3,0.7-0.7,0.7H17c-0.4,0-0.7-0.3-0.7-0.7V24.4c0-0.4,0.3-0.7,0.7-0.7h18.9
		c0.4,0,0.7,0.3,0.7,0.7V43.3z"/>
	<path class="st2" d="M58,52.9v5.5c0,0.5-0.4,0.8-0.8,0.8v0H37.5c-0.3,0-0.5-0.1-0.7-0.4l-2.4-3.6l-0.1-0.1
		c-0.2-0.4-0.1-0.9,0.2-1.1s0.9-0.1,1.1,0.2l0.7,1l1.5,2.4h18.5v-4.4L53,49.8c-0.2-0.2-0.3-0.4-0.2-0.7c0,0,0.2-1.7,0-4
		c-0.2-3.8-2.2-9.5-2.2-9.6c0-0.1,0-0.2,0-0.3V19.6h-0.2c-2.7,0-4.9,2.5-5,5.7c0,0.1,0,0.1,0,0.2v0.2c0,0.5-0.4,0.8-0.8,0.8
		c-0.4,0-0.8-0.3-0.8-0.7c0,0,0-0.1,0-0.1v-0.2c0-0.1,0-0.2,0-0.3c0-1.8,0.7-3.5,1.6-4.7c1.2-1.6,3-2.6,5-2.6h1
		c0.5,0,0.8,0.4,0.8,0.8v16.4c0.3,0.9,2,6.1,2.2,9.9c0.1,1.8,0,3.2,0,3.9l3.3,3.4C57.9,52.5,58,52.7,58,52.9z"/>
	<path class="st2" d="M9.2,22.2l-0.3,0.6L7.7,24l0,0c0,0-0.1,0-0.1,0.1v0.7c0.1,0,0.1,0,0.2,0.1c0,0,0,0,0,0c0,0,0.1,0.1,0.2,0.1
		c0,0,0,0-0.1,0c-0.1,0.1-0.2,0.1-0.3,0.1v0.4c0.1,0,0.2,0.1,0.3,0.2c0.1,0,0.2,0.1,0.2,0.2c0,0,0.1,0.1,0.2,0.1c0,0,0,0,0,0
		c0.1,0.1,0.1,0.1,0.2,0.2c0.1,0.1,0.2,0.2,0.2,0.4C9,27.2,9,27.8,8.8,28.3l-0.3,0.8c-0.1,0.2-0.2,0.5-0.4,0.7C8.1,29.9,8,29.9,8,30
		c-0.1,0.1-0.3,0.2-0.4,0.3v0.5l0.2,0.1l-0.2,0.1v0.7c0.1,0.1,0.2,0.1,0.3,0.2c-0.1,0-0.2,0.1-0.3,0.1v0.5c0.4,0.2,0.8,0.6,1,1
		c0.2,0.5,0.3,1.1,0.1,1.7l-0.3,0.8c-0.2,0.4-0.4,0.8-0.8,1v0.6l0,0l0,0v0.7c0.1,0,0.2,0.1,0.3,0.2c0.6,0.3,1,0.8,1.3,1.4L9.2,22.2
		C9.2,22.2,9.2,22.2,9.2,22.2z M9.2,22.2l-0.3,0.6l-0.6,0.8c-0.1,0.1-0.2,0.1-0.2,0.2L7.7,24l0,0c0,0-0.1,0-0.1,0.1v0.7
		c0.1,0,0.1,0,0.2,0.1c0,0,0,0,0,0c0,0,0.1,0.1,0.2,0.1c0,0,0,0-0.1,0c-0.1,0.1-0.2,0.1-0.3,0.1v0.4c0.1,0,0.2,0.1,0.3,0.2
		c0.1,0,0.2,0.1,0.2,0.2c0,0,0.1,0.1,0.2,0.1c0,0,0,0,0,0c0.1,0.1,0.1,0.1,0.2,0.2c0.1,0.1,0.2,0.2,0.2,0.4C9,27.2,9,27.8,8.8,28.3
		l-0.3,0.8c-0.1,0.2-0.2,0.5-0.4,0.7C8.1,29.9,8,29.9,8,30c-0.1,0.1-0.3,0.2-0.4,0.3v0.5l0.2,0.1l-0.2,0.1v0.7
		c0.1,0.1,0.2,0.1,0.3,0.2c-0.1,0-0.2,0.1-0.3,0.1v0.5c0.4,0.2,0.8,0.6,1,1c0.2,0.5,0.3,1.1,0.1,1.7l-0.3,0.8
		c-0.2,0.4-0.4,0.8-0.8,1v0.6l0,0l0,0v0.7c0.1,0,0.2,0.1,0.3,0.2c0.6,0.3,1,0.8,1.3,1.4L9.2,22.2C9.2,22.2,9.2,22.2,9.2,22.2z
		 M8.8,36.4l-0.2,0.2L8.3,37c-0.1,0.1-0.1,0.1-0.2,0.2l-0.5,0.3c0,0,0,0,0,0L8,37.7c0.2,0.1,0.4,0.2,0.6,0.3
		c-0.2,0.2-0.5,0.4-0.8,0.5c0.6,0.3,1,0.8,1.3,1.4v-4.2L8.8,36.4z M9.2,29.4l-0.1,0.1l-0.2,0.3L8.8,30l-0.2,0.3c0,0-0.1,0.1-0.1,0.1
		c-0.1,0.1-0.2,0.1-0.2,0.2L8,30.6l-0.1,0c0,0,0,0-0.1,0l-0.2,0.1l0.1,0c0.3,0.1,0.6,0.3,0.9,0.5c-0.2,0.2-0.4,0.3-0.7,0.4
		c0,0-0.1,0-0.1,0C8,31.9,8.1,32,8.2,32.1c0.1,0.1,0.2,0.2,0.3,0.3c0.1,0.1,0.2,0.2,0.3,0.4c0.1,0.1,0.2,0.3,0.2,0.4
		c0,0.1,0.1,0.2,0.1,0.2L9.2,29.4C9.2,29.4,9.2,29.4,9.2,29.4z M9.2,22.2L9,22.6c0,0,0,0,0,0.1c0,0,0,0,0,0l0,0.1l-0.6,0.8
		c-0.1,0.1-0.2,0.1-0.2,0.2L7.7,24l0,0c0,0-0.1,0-0.1,0.1v0.7c0.1,0,0.1,0,0.2,0.1c0,0,0,0,0,0c0,0,0.1,0.1,0.2,0.1h0
		C7.9,25,8,25,8,25c0.1,0,0.1,0.1,0.2,0.1c0,0,0.1,0,0.1,0.1c0.1,0.1,0.2,0.1,0.3,0.2c0.1,0,0.1,0.1,0.1,0.1
		c0.1,0.1,0.2,0.3,0.3,0.4c0.1,0.1,0.1,0.2,0.2,0.3c0,0,0,0,0,0L9.2,22.2C9.2,22.2,9.2,22.2,9.2,22.2z M8.8,36.4l-0.2,0.2L8.3,37
		c-0.1,0.1-0.1,0.1-0.2,0.2l-0.5,0.3c0,0,0,0,0,0L8,37.7c0.2,0.1,0.4,0.2,0.6,0.3c-0.2,0.2-0.5,0.4-0.8,0.5c0.6,0.3,1,0.8,1.3,1.4
		v-4.2C9.1,36,9,36.2,8.8,36.4z M9.2,29.4l-0.1,0.1l-0.2,0.3L8.8,30l-0.2,0.3c0,0-0.1,0.1-0.1,0.1c-0.1,0.1-0.2,0.1-0.2,0.2
		c0,0-0.1,0.1-0.1,0.1l-0.1,0c0,0,0,0-0.1,0l-0.2,0.1l0.1,0c0.3,0.1,0.6,0.3,0.9,0.5c-0.2,0.2-0.4,0.3-0.7,0.4c0,0-0.1,0-0.1,0
		C8,31.9,8.1,32,8.2,32.1c0.1,0.1,0.2,0.2,0.3,0.3c0.1,0.1,0.2,0.2,0.3,0.4c0.1,0.1,0.2,0.3,0.2,0.4c0,0.1,0.1,0.2,0.1,0.2L9.2,29.4
		C9.2,29.4,9.2,29.4,9.2,29.4z M9.2,22.2L9,22.6c0,0,0,0,0,0.1c0,0,0,0,0,0c0,0,0,0,0,0l0,0.1l-0.6,0.8c-0.1,0.1-0.2,0.1-0.2,0.2
		L7.7,24l0,0c0,0-0.1,0-0.1,0.1v0.7c0.1,0,0.1,0,0.2,0.1c0,0,0,0,0,0c0,0,0.1,0.1,0.2,0.1h0C7.9,25,8,25,8,25c0.1,0,0.1,0.1,0.2,0.1
		c0,0,0.1,0,0.1,0.1c0.1,0.1,0.2,0.1,0.3,0.2c0.1,0,0.1,0.1,0.1,0.1c0.1,0.1,0.2,0.3,0.3,0.4c0.1,0.1,0.1,0.2,0.2,0.3c0,0,0,0,0,0
		L9.2,22.2C9.2,22.2,9.2,22.2,9.2,22.2z M8.8,36.4l-0.2,0.2L8.3,37c-0.1,0.1-0.1,0.1-0.2,0.2l-0.5,0.3c0,0,0,0,0,0L8,37.7
		c0.2,0.1,0.4,0.2,0.6,0.3c-0.2,0.2-0.5,0.4-0.8,0.5c0.6,0.3,1,0.8,1.3,1.4v-4.2C9.1,36,9,36.2,8.8,36.4z M9.2,29.4l-0.1,0.1
		l-0.2,0.3L8.8,30l-0.2,0.3c0,0-0.1,0.1-0.1,0.1c-0.1,0.1-0.2,0.1-0.2,0.2c0,0-0.1,0.1-0.1,0.1l-0.1,0c0,0,0,0-0.1,0l-0.2,0.1l0.1,0
		c0.3,0.1,0.6,0.3,0.9,0.5c-0.2,0.2-0.4,0.3-0.7,0.4c0,0-0.1,0-0.1,0C8,31.9,8.1,32,8.2,32.1c0.1,0.1,0.2,0.2,0.3,0.3
		c0.1,0.1,0.2,0.2,0.3,0.4c0.1,0.1,0.2,0.3,0.2,0.4c0,0.1,0.1,0.2,0.1,0.2L9.2,29.4C9.2,29.4,9.2,29.4,9.2,29.4z M9.2,22.2L9,22.6
		c0,0,0,0,0,0.1c0,0,0,0,0,0c0,0,0,0,0,0l0,0.1l-0.6,0.8c-0.1,0.1-0.2,0.1-0.2,0.2L7.7,24l0,0c0,0-0.1,0-0.1,0.1v0.7
		c0.1,0,0.1,0,0.2,0.1c0,0,0,0,0,0c0,0,0.1,0.1,0.2,0.1h0C7.9,25,8,25,8,25c0.1,0,0.1,0.1,0.2,0.1c0,0,0.1,0,0.1,0.1
		c0.1,0.1,0.2,0.1,0.3,0.2c0.1,0,0.1,0.1,0.1,0.1c0.1,0.1,0.2,0.3,0.3,0.4c0.1,0.1,0.1,0.2,0.2,0.3c0,0,0,0,0,0L9.2,22.2
		C9.2,22.2,9.2,22.2,9.2,22.2z M8.8,36.4l-0.2,0.2L8.3,37c-0.1,0.1-0.1,0.1-0.2,0.2l-0.5,0.3c0,0,0,0,0,0L8,37.7
		c0.2,0.1,0.4,0.2,0.6,0.3c-0.2,0.2-0.5,0.4-0.8,0.5c0.6,0.3,1,0.8,1.3,1.4v-4.2C9.1,36,9,36.2,8.8,36.4z M9.2,29.4l-0.1,0.1
		l-0.2,0.3L8.8,30l-0.2,0.3c0,0-0.1,0.1-0.1,0.1c-0.1,0.1-0.2,0.1-0.2,0.2c0,0-0.1,0.1-0.1,0.1l-0.1,0c0,0,0,0-0.1,0l-0.2,0.1l0.1,0
		c0.3,0.1,0.6,0.3,0.9,0.5c-0.2,0.2-0.4,0.3-0.7,0.4c0,0-0.1,0-0.1,0C8,31.9,8.1,32,8.2,32.1c0.1,0.1,0.2,0.2,0.3,0.3
		c0.1,0.1,0.2,0.2,0.3,0.4c0.1,0.1,0.2,0.3,0.2,0.4c0,0.1,0.1,0.2,0.1,0.2L9.2,29.4C9.2,29.4,9.2,29.4,9.2,29.4z M9.2,22.2L9,22.6
		c0,0,0,0,0,0.1c0,0,0,0,0,0c0,0,0,0,0,0l0,0.1l-0.6,0.8c-0.1,0.1-0.2,0.1-0.2,0.2L7.7,24l0,0c0,0-0.1,0-0.1,0.1v0.7
		c0.1,0,0.1,0,0.2,0.1c0,0,0,0,0,0c0,0,0.1,0.1,0.2,0.1h0C7.9,25,8,25,8,25c0.1,0,0.1,0.1,0.2,0.1c0,0,0.1,0,0.1,0.1
		c0.1,0.1,0.2,0.1,0.3,0.2c0.1,0,0.1,0.1,0.1,0.1c0.1,0.1,0.2,0.3,0.3,0.4c0.1,0.1,0.1,0.2,0.2,0.3c0,0,0,0,0,0L9.2,22.2
		C9.2,22.2,9.2,22.2,9.2,22.2z M8.8,36.4l-0.2,0.2L8.3,37c-0.1,0.1-0.1,0.1-0.2,0.2l-0.5,0.3c0,0,0,0,0,0L8,37.7
		c0.2,0.1,0.4,0.2,0.6,0.3c-0.2,0.2-0.5,0.4-0.8,0.5c0.6,0.3,1,0.8,1.3,1.4v-4.2C9.1,36,9,36.2,8.8,36.4z M9.2,29.4l-0.1,0.1
		l-0.2,0.3L8.8,30l-0.2,0.3c0,0-0.1,0.1-0.1,0.1c-0.1,0.1-0.2,0.1-0.2,0.2c0,0-0.1,0.1-0.1,0.1l-0.1,0c0,0,0,0-0.1,0l-0.2,0.1l0.1,0
		c0.3,0.1,0.6,0.3,0.9,0.5c-0.2,0.2-0.4,0.3-0.7,0.4c0,0-0.1,0-0.1,0C8,31.9,8.1,32,8.2,32.1c0.1,0.1,0.2,0.2,0.3,0.3
		c0.1,0.1,0.2,0.2,0.3,0.4c0.1,0.1,0.2,0.3,0.2,0.4c0,0.1,0.1,0.2,0.1,0.2L9.2,29.4C9.2,29.4,9.2,29.4,9.2,29.4z M9.2,22.2L9,22.6
		c0,0,0,0,0,0.1c0,0,0,0,0,0c0,0,0,0,0,0l0,0.1l-0.6,0.8c-0.1,0.1-0.2,0.1-0.2,0.2L7.7,24l0,0c0,0-0.1,0-0.1,0.1v0.7
		c0.1,0,0.1,0,0.2,0.1c0,0,0,0,0,0c0,0,0.1,0.1,0.2,0.1h0C7.9,25,8,25,8,25c0.1,0,0.1,0.1,0.2,0.1c0,0,0.1,0,0.1,0.1
		c0.1,0.1,0.2,0.1,0.3,0.2c0.1,0,0.1,0.1,0.1,0.1c0.1,0.1,0.2,0.3,0.3,0.4c0.1,0.1,0.1,0.2,0.2,0.3c0,0,0,0,0,0L9.2,22.2
		C9.2,22.2,9.2,22.2,9.2,22.2z M8.8,36.4l-0.2,0.2L8.3,37c-0.1,0.1-0.1,0.1-0.2,0.2l-0.5,0.3c0,0,0,0,0,0L8,37.7
		c0.2,0.1,0.4,0.2,0.6,0.3c-0.2,0.2-0.5,0.4-0.8,0.5c0.6,0.3,1,0.8,1.3,1.4v-4.2C9.1,36,9,36.2,8.8,36.4z M9.2,29.4l-0.1,0.1
		l-0.2,0.3L8.8,30l-0.2,0.3c0,0-0.1,0.1-0.1,0.1c-0.1,0.1-0.2,0.1-0.2,0.2c0,0-0.1,0.1-0.1,0.1l-0.1,0c0,0,0,0-0.1,0l-0.2,0.1l0.1,0
		c0.3,0.1,0.6,0.3,0.9,0.5c-0.2,0.2-0.4,0.3-0.7,0.4c0,0-0.1,0-0.1,0C8,31.9,8.1,32,8.2,32.1c0.1,0.1,0.2,0.2,0.3,0.3
		c0.1,0.1,0.2,0.2,0.3,0.4c0.1,0.1,0.2,0.3,0.2,0.4c0,0.1,0.1,0.2,0.1,0.2L9.2,29.4C9.2,29.4,9.2,29.4,9.2,29.4z M9.2,22.2L9,22.6
		c0,0,0,0,0,0.1c0,0,0,0,0,0c0,0,0,0,0,0l0,0.1l-0.6,0.8c-0.1,0.1-0.2,0.1-0.2,0.2L7.7,24l0,0c0,0-0.1,0-0.1,0.1v0.7
		c0.1,0,0.1,0,0.2,0.1c0,0,0,0,0,0c0,0,0.1,0.1,0.2,0.1h0C7.9,25,8,25,8,25c0.1,0,0.1,0.1,0.2,0.1c0,0,0.1,0,0.1,0.1
		c0.1,0.1,0.2,0.1,0.3,0.2c0.1,0,0.1,0.1,0.1,0.1c0.1,0.1,0.2,0.3,0.3,0.4c0.1,0.1,0.1,0.2,0.2,0.3c0,0,0,0,0,0L9.2,22.2
		C9.2,22.2,9.2,22.2,9.2,22.2z M8.7,36.7L8.3,37c-0.1,0.1-0.1,0.1-0.2,0.2l-0.5,0.3c0,0,0,0,0,0L8,37.7c0.2,0.1,0.4,0.2,0.6,0.3
		c-0.2,0.2-0.5,0.4-0.8,0.5c0.6,0.3,1,0.8,1.3,1.4v-4.2C9.1,36,9,36.2,8.8,36.4L8.7,36.7z M9.1,29.5l-0.2,0.3L8.8,30l-0.2,0.3
		c0,0-0.1,0.1-0.1,0.1c-0.1,0.1-0.2,0.1-0.2,0.2c0,0-0.1,0.1-0.1,0.1l-0.1,0c0,0,0,0-0.1,0l-0.2,0.1l0.1,0c0.3,0.1,0.6,0.3,0.9,0.5
		c-0.2,0.2-0.4,0.3-0.7,0.4c0,0-0.1,0-0.1,0C8,31.9,8.1,32,8.2,32.1c0.1,0.1,0.2,0.2,0.3,0.3c0.1,0.1,0.2,0.2,0.3,0.4
		c0.1,0.1,0.2,0.3,0.2,0.4c0,0.1,0.1,0.2,0.1,0.2v-4.1c0,0,0,0,0,0L9.1,29.5z M9.2,22.2L9,22.6c0,0,0,0,0,0.1c0,0,0,0,0,0
		c0,0,0,0,0,0l0,0.1l-0.6,0.8c-0.1,0.1-0.2,0.1-0.2,0.2L7.7,24l0,0c0,0-0.1,0-0.1,0.1v0.7c0.1,0,0.1,0,0.2,0.1c0,0,0,0,0,0
		c0,0,0.1,0.1,0.2,0.1h0C7.9,25,8,25,8,25c0.1,0,0.1,0.1,0.2,0.1c0,0,0.1,0,0.1,0.1c0.1,0.1,0.2,0.1,0.3,0.2c0.1,0,0.1,0.1,0.1,0.1
		c0.1,0.1,0.2,0.3,0.3,0.4c0.1,0.1,0.1,0.2,0.2,0.3c0,0,0,0,0,0L9.2,22.2C9.2,22.2,9.2,22.2,9.2,22.2z M43.6,3.2
		C42.2,1.1,40.5,0,38.7,0H14.3c-3.8,0-6.8,3.1-6.8,6.8v12.1c0.4,0.2,0.8,0.6,1,1c0.2,0.5,0.3,1.1,0.1,1.7l-0.3,0.8
		c-0.2,0.4-0.4,0.8-0.8,1v2.1c0.1,0,0.2,0.1,0.3,0.2c0.1,0,0.2,0.1,0.2,0.2c0,0,0.1,0.1,0.2,0.1c0,0,0,0,0,0
		c0.1,0.1,0.1,0.1,0.2,0.2c0.1,0.1,0.2,0.2,0.2,0.4C9,27.2,9,27.8,8.8,28.3l-0.3,0.8c-0.1,0.2-0.2,0.5-0.4,0.7C8.1,29.9,8,29.9,8,30
		c-0.1,0.1-0.3,0.2-0.4,0.3v2.1c0.4,0.2,0.8,0.6,1,1c0.2,0.5,0.3,1.1,0.1,1.7l-0.3,0.8c-0.2,0.4-0.4,0.8-0.8,1v2.2
		c0.5,0.2,0.9,0.6,1.2,1.1C9,40.7,9,41.3,8.8,41.9l-0.3,0.8c-0.2,0.5-0.5,0.9-1,1.2v4.6c0,3.8,3,6.8,6.8,6.8h24.3
		c3.8,0,6.8-3,6.8-6.8V8.9C45.5,7.1,44.7,4.9,43.6,3.2z M43.8,48.5c0,0.1,0,0.2,0,0.3c0,0.6-0.1,1.1-0.4,1.6
		c-0.8,1.9-2.6,3.2-4.8,3.2H14.3c-2.2,0-4-1.3-4.8-3.2c-0.2-0.5-0.3-1.1-0.4-1.6c0-0.1,0-0.2,0-0.3V6.8c0-2.9,2.3-5.2,5.2-5.2h24.3
		c2.8,0,5.2,4.5,5.2,7.3V48.5z M9.2,22.2L9,22.6c0,0,0,0,0,0.1c0,0,0,0,0,0c0,0,0,0,0,0l0,0.1l-0.6,0.8c-0.1,0.1-0.2,0.1-0.2,0.2
		L7.7,24l0,0c0,0-0.1,0-0.1,0.1v0.7c0.1,0,0.1,0,0.2,0.1c0,0,0,0,0,0c0,0,0.1,0.1,0.2,0.1h0C7.9,25,8,25,8,25c0.1,0,0.1,0.1,0.2,0.1
		c0,0,0.1,0,0.1,0.1c0.1,0.1,0.2,0.1,0.3,0.2c0.1,0,0.1,0.1,0.1,0.1c0.1,0.1,0.2,0.3,0.3,0.4c0.1,0.1,0.1,0.2,0.2,0.3c0,0,0,0,0,0
		L9.2,22.2C9.2,22.2,9.2,22.2,9.2,22.2z M9.2,29.4l-0.1,0.1l-0.2,0.3L8.8,30l-0.2,0.3c0,0-0.1,0.1-0.1,0.1c-0.1,0.1-0.2,0.1-0.2,0.2
		c0,0-0.1,0.1-0.1,0.1l-0.1,0c0,0,0,0-0.1,0l-0.2,0.1l0.1,0c0.3,0.1,0.6,0.3,0.9,0.5c-0.2,0.2-0.4,0.3-0.7,0.4c0,0-0.1,0-0.1,0
		C8,31.9,8.1,32,8.2,32.1c0.1,0.1,0.2,0.2,0.3,0.3c0.1,0.1,0.2,0.2,0.3,0.4c0.1,0.1,0.2,0.3,0.2,0.4c0,0.1,0.1,0.2,0.1,0.2L9.2,29.4
		C9.2,29.4,9.2,29.4,9.2,29.4z M8.8,36.4l-0.2,0.2L8.3,37c-0.1,0.1-0.1,0.1-0.2,0.2l-0.5,0.3c0,0,0,0,0,0L8,37.7
		c0.2,0.1,0.4,0.2,0.6,0.3c-0.2,0.2-0.5,0.4-0.8,0.5c0.6,0.3,1,0.8,1.3,1.4v-4.2C9.1,36,9,36.2,8.8,36.4z M9.2,22.2L9,22.6
		c0,0,0,0,0,0.1c0,0,0,0,0,0c0,0,0,0,0,0l0,0.1l-0.6,0.8c-0.1,0.1-0.2,0.1-0.2,0.2L7.7,24l0,0c0,0-0.1,0-0.1,0.1v0.7
		c0.1,0,0.1,0,0.2,0.1c0,0,0,0,0,0c0,0,0.1,0.1,0.2,0.1h0C7.9,25,8,25,8,25c0.1,0,0.1,0.1,0.2,0.1c0,0,0.1,0,0.1,0.1
		c0.1,0.1,0.2,0.1,0.3,0.2c0.1,0,0.1,0.1,0.1,0.1c0.1,0.1,0.2,0.3,0.3,0.4c0.1,0.1,0.1,0.2,0.2,0.3c0,0,0,0,0,0L9.2,22.2
		C9.2,22.2,9.2,22.2,9.2,22.2z M9.2,29.4l-0.1,0.1l-0.2,0.3L8.8,30l-0.2,0.3c0,0-0.1,0.1-0.1,0.1c-0.1,0.1-0.2,0.1-0.2,0.2
		c0,0-0.1,0.1-0.1,0.1l-0.1,0c0,0,0,0-0.1,0l-0.2,0.1l0.1,0c0.3,0.1,0.6,0.3,0.9,0.5c-0.2,0.2-0.4,0.3-0.7,0.4c0,0-0.1,0-0.1,0
		C8,31.9,8.1,32,8.2,32.1c0.1,0.1,0.2,0.2,0.3,0.3c0.1,0.1,0.2,0.2,0.3,0.4c0.1,0.1,0.2,0.3,0.2,0.4c0,0.1,0.1,0.2,0.1,0.2L9.2,29.4
		C9.2,29.4,9.2,29.4,9.2,29.4z M8.8,36.4l-0.2,0.2L8.3,37c-0.1,0.1-0.1,0.1-0.2,0.2l-0.5,0.3c0,0,0,0,0,0L8,37.7
		c0.2,0.1,0.4,0.2,0.6,0.3c-0.2,0.2-0.5,0.4-0.8,0.5c0.6,0.3,1,0.8,1.3,1.4v-4.2C9.1,36,9,36.2,8.8,36.4z M9.2,22.2L9,22.6
		c0,0,0,0,0,0.1c0,0,0,0,0,0c0,0,0,0,0,0l0,0.1l-0.6,0.8c-0.1,0.1-0.2,0.1-0.2,0.2L7.7,24l0,0c0,0-0.1,0-0.1,0.1v0.7
		c0.1,0,0.1,0,0.2,0.1c0,0,0,0,0,0c0,0,0.1,0.1,0.2,0.1h0C7.9,25,8,25,8,25c0.1,0,0.1,0.1,0.2,0.1c0,0,0.1,0,0.1,0.1
		c0.1,0.1,0.2,0.1,0.3,0.2c0.1,0,0.1,0.1,0.1,0.1c0.1,0.1,0.2,0.3,0.3,0.4c0.1,0.1,0.1,0.2,0.2,0.3c0,0,0,0,0,0L9.2,22.2
		C9.2,22.2,9.2,22.2,9.2,22.2z M9.2,29.4l-0.1,0.1l-0.2,0.3L8.8,30l-0.2,0.3c0,0-0.1,0.1-0.1,0.1c-0.1,0.1-0.2,0.1-0.2,0.2
		c0,0-0.1,0.1-0.1,0.1l-0.1,0c0,0,0,0-0.1,0l-0.2,0.1l0.1,0c0.3,0.1,0.6,0.3,0.9,0.5c-0.2,0.2-0.4,0.3-0.7,0.4c0,0-0.1,0-0.1,0
		C8,31.9,8.1,32,8.2,32.1c0.1,0.1,0.2,0.2,0.3,0.3c0.1,0.1,0.2,0.2,0.3,0.4c0.1,0.1,0.2,0.3,0.2,0.4c0,0.1,0.1,0.2,0.1,0.2L9.2,29.4
		C9.2,29.4,9.2,29.4,9.2,29.4z M8.8,36.4l-0.2,0.2L8.3,37c-0.1,0.1-0.1,0.1-0.2,0.2l-0.5,0.3c0,0,0,0,0,0L8,37.7
		c0.2,0.1,0.4,0.2,0.6,0.3c-0.2,0.2-0.5,0.4-0.8,0.5c0.6,0.3,1,0.8,1.3,1.4v-4.2C9.1,36,9,36.2,8.8,36.4z M9.2,22.2L9,22.6
		c0,0,0,0,0,0.1c0,0,0,0,0,0c0,0,0,0,0,0l0,0.1l-0.6,0.8c-0.1,0.1-0.2,0.1-0.2,0.2L7.7,24l0,0c0,0-0.1,0-0.1,0.1v0.7
		c0.1,0,0.1,0,0.2,0.1c0,0,0,0,0,0c0,0,0.1,0.1,0.2,0.1h0C7.9,25,8,25,8,25c0.1,0,0.1,0.1,0.2,0.1c0,0,0.1,0,0.1,0.1
		c0.1,0.1,0.2,0.1,0.3,0.2c0.1,0,0.1,0.1,0.1,0.1c0.1,0.1,0.2,0.3,0.3,0.4c0.1,0.1,0.1,0.2,0.2,0.3c0,0,0,0,0,0L9.2,22.2
		C9.2,22.2,9.2,22.2,9.2,22.2z M9.2,29.4l-0.1,0.1l-0.2,0.3L8.8,30l-0.2,0.3c0,0-0.1,0.1-0.1,0.1c-0.1,0.1-0.2,0.1-0.2,0.2
		c0,0-0.1,0.1-0.1,0.1l-0.1,0c0,0,0,0-0.1,0l-0.2,0.1l0.1,0c0.3,0.1,0.6,0.3,0.9,0.5c-0.2,0.2-0.4,0.3-0.7,0.4c0,0-0.1,0-0.1,0
		C8,31.9,8.1,32,8.2,32.1c0.1,0.1,0.2,0.2,0.3,0.3c0.1,0.1,0.2,0.2,0.3,0.4c0.1,0.1,0.2,0.3,0.2,0.4c0,0.1,0.1,0.2,0.1,0.2L9.2,29.4
		C9.2,29.4,9.2,29.4,9.2,29.4z M8.8,36.4l-0.2,0.2L8.3,37c-0.1,0.1-0.1,0.1-0.2,0.2l-0.5,0.3c0,0,0,0,0,0L8,37.7
		c0.2,0.1,0.4,0.2,0.6,0.3c-0.2,0.2-0.5,0.4-0.8,0.5c0.6,0.3,1,0.8,1.3,1.4v-4.2C9.1,36,9,36.2,8.8,36.4z M9.2,22.2L9,22.6
		c0,0,0,0,0,0.1c0,0,0,0,0,0c0,0,0,0,0,0l0,0.1l-0.6,0.8c-0.1,0.1-0.2,0.1-0.2,0.2L7.7,24l0,0c0,0-0.1,0-0.1,0.1v0.7
		c0.1,0,0.1,0,0.2,0.1c0,0,0,0,0,0c0,0,0.1,0.1,0.2,0.1h0C7.9,25,8,25,8,25c0.1,0,0.1,0.1,0.2,0.1c0,0,0.1,0,0.1,0.1
		c0.1,0.1,0.2,0.1,0.3,0.2c0.1,0,0.1,0.1,0.1,0.1c0.1,0.1,0.2,0.3,0.3,0.4c0.1,0.1,0.1,0.2,0.2,0.3c0,0,0,0,0,0L9.2,22.2
		C9.2,22.2,9.2,22.2,9.2,22.2z M9.2,29.4l-0.1,0.1l-0.2,0.3L8.8,30l-0.2,0.3c0,0-0.1,0.1-0.1,0.1c-0.1,0.1-0.2,0.1-0.2,0.2
		c0,0-0.1,0.1-0.1,0.1l-0.1,0c0,0,0,0-0.1,0l-0.2,0.1l0.1,0c0.3,0.1,0.6,0.3,0.9,0.5c-0.2,0.2-0.4,0.3-0.7,0.4c0,0-0.1,0-0.1,0
		C8,31.9,8.1,32,8.2,32.1c0.1,0.1,0.2,0.2,0.3,0.3c0.1,0.1,0.2,0.2,0.3,0.4c0.1,0.1,0.2,0.3,0.2,0.4c0,0.1,0.1,0.2,0.1,0.2L9.2,29.4
		C9.2,29.4,9.2,29.4,9.2,29.4z M8.8,36.4l-0.2,0.2L8.3,37c-0.1,0.1-0.1,0.1-0.2,0.2l-0.5,0.3c0,0,0,0,0,0L8,37.7
		c0.2,0.1,0.4,0.2,0.6,0.3c-0.2,0.2-0.5,0.4-0.8,0.5c0.6,0.3,1,0.8,1.3,1.4v-4.2C9.1,36,9,36.2,8.8,36.4z M9.2,22.2L9,22.6
		c0,0,0,0,0,0.1c0,0,0,0,0,0c0,0,0,0,0,0l0,0.1l-0.6,0.8c-0.1,0.1-0.2,0.1-0.2,0.2L7.7,24l0,0c0,0-0.1,0-0.1,0.1v0.7
		c0.1,0,0.1,0,0.2,0.1c0,0,0,0,0,0c0,0,0.1,0.1,0.2,0.1h0C7.9,25,8,25,8,25c0.1,0,0.1,0.1,0.2,0.1c0,0,0.1,0,0.1,0.1
		c0.1,0.1,0.2,0.1,0.3,0.2c0.1,0,0.1,0.1,0.1,0.1c0.1,0.1,0.2,0.3,0.3,0.4c0.1,0.1,0.1,0.2,0.2,0.3c0,0,0,0,0,0L9.2,22.2
		C9.2,22.2,9.2,22.2,9.2,22.2z M9.2,29.4l-0.1,0.1l-0.2,0.3L8.8,30l-0.2,0.3c0,0-0.1,0.1-0.1,0.1c-0.1,0.1-0.2,0.1-0.2,0.2L8,30.6
		l-0.1,0c0,0,0,0-0.1,0l-0.2,0.1l0.1,0c0.3,0.1,0.6,0.3,0.9,0.5c-0.2,0.2-0.4,0.3-0.7,0.4c0,0-0.1,0-0.1,0C8,31.9,8.1,32,8.2,32.1
		c0.1,0.1,0.2,0.2,0.3,0.3c0.1,0.1,0.2,0.2,0.3,0.4c0.1,0.1,0.2,0.3,0.2,0.4c0,0.1,0.1,0.2,0.1,0.2L9.2,29.4
		C9.2,29.4,9.2,29.4,9.2,29.4z M8.8,36.4l-0.2,0.2L8.3,37c-0.1,0.1-0.1,0.1-0.2,0.2l-0.5,0.3c0,0,0,0,0,0L8,37.7
		c0.2,0.1,0.4,0.2,0.6,0.3c-0.2,0.2-0.5,0.4-0.8,0.5c0.6,0.3,1,0.8,1.3,1.4v-4.2C9.1,36,9,36.2,8.8,36.4z M9.2,22.2l-0.3,0.6
		l-0.6,0.8c-0.1,0.1-0.2,0.1-0.2,0.2L7.7,24l0,0c0,0-0.1,0-0.1,0.1v0.7c0.1,0,0.1,0,0.2,0.1c0,0,0,0,0,0c0,0,0.1,0.1,0.2,0.1h0
		C7.9,25,8,25,8,25c0.1,0,0.1,0.1,0.2,0.1c0,0,0.1,0,0.1,0.1c0.1,0.1,0.2,0.1,0.3,0.2c0.1,0,0.1,0.1,0.1,0.1
		c0.1,0.1,0.2,0.3,0.3,0.4c0.1,0.1,0.1,0.2,0.2,0.3c0,0,0,0,0,0L9.2,22.2C9.2,22.2,9.2,22.2,9.2,22.2z M9.2,29.4l-0.1,0.1l-0.2,0.3
		L8.8,30l-0.2,0.3c0,0-0.1,0.1-0.1,0.1c-0.1,0.1-0.2,0.1-0.2,0.2L8,30.6l-0.1,0c0,0,0,0-0.1,0l-0.2,0.1l0.1,0
		c0.3,0.1,0.6,0.3,0.9,0.5c-0.2,0.2-0.4,0.3-0.7,0.4c0,0-0.1,0-0.1,0C8,31.9,8.1,32,8.2,32.1c0.1,0.1,0.2,0.2,0.3,0.3
		c0.1,0.1,0.2,0.2,0.3,0.4c0.1,0.1,0.2,0.3,0.2,0.4c0,0.1,0.1,0.2,0.1,0.2L9.2,29.4C9.2,29.4,9.2,29.4,9.2,29.4z M8.8,36.4l-0.2,0.2
		L8.3,37c-0.1,0.1-0.1,0.1-0.2,0.2l-0.5,0.3c0,0,0,0,0,0L8,37.7c0.2,0.1,0.4,0.2,0.6,0.3c-0.2,0.2-0.5,0.4-0.8,0.5
		c0.6,0.3,1,0.8,1.3,1.4v-4.2L8.8,36.4z M9.2,22.2l-0.3,0.6L7.7,24l0,0c0,0-0.1,0-0.1,0.1v0.7c0.1,0,0.1,0,0.2,0.1c0,0,0,0,0,0
		c0,0,0.1,0.1,0.2,0.1c0,0,0,0-0.1,0c-0.1,0.1-0.2,0.1-0.3,0.1v0.4c0.1,0,0.2,0.1,0.3,0.2c0.1,0,0.2,0.1,0.2,0.2
		c0,0,0.1,0.1,0.2,0.1c0,0,0,0,0,0c0.1,0.1,0.1,0.1,0.2,0.2c0.1,0.1,0.2,0.2,0.2,0.4C9,27.2,9,27.8,8.8,28.3l-0.3,0.8
		c-0.1,0.2-0.2,0.5-0.4,0.7C8.1,29.9,8,29.9,8,30c-0.1,0.1-0.3,0.2-0.4,0.3v0.5l0.2,0.1l-0.2,0.1v0.7c0.1,0.1,0.2,0.1,0.3,0.2
		c-0.1,0-0.2,0.1-0.3,0.1v0.5c0.4,0.2,0.8,0.6,1,1c0.2,0.5,0.3,1.1,0.1,1.7l-0.3,0.8c-0.2,0.4-0.4,0.8-0.8,1v0.6l0,0l0,0v0.7
		c0.1,0,0.2,0.1,0.3,0.2c0.6,0.3,1,0.8,1.3,1.4L9.2,22.2C9.2,22.2,9.2,22.2,9.2,22.2z"/>
	<path class="st3" d="M56.4,53.2v4.4H37.9l-1.5-2.4h2.3c3.8,0,6.8-3,6.8-6.8V25.3c0.1-3.2,2.3-5.7,5-5.7h0.2v15.8c0,0.1,0,0.2,0,0.3
		c0,0.1,2,5.7,2.2,9.6c0.1,2.3,0,3.9,0,4c0,0.2,0.1,0.5,0.2,0.7L56.4,53.2z"/>
	<path class="st3" d="M43.8,25.2V8.9c0-2.8-2.4-7.3-5.2-7.3H34c-0.1,1.9-1.7,3.5-3.7,3.5v0h-7.6c-2,0-3.6-1.5-3.7-3.5h-4.7
		c-2.8,0-5.2,2.3-5.2,5.2v11.5c0.3,0.3,0.5,0.6,0.7,1c0.4,0.9,0.5,1.9,0.1,2.8l-0.3,0.8c-0.1,0.4-0.3,0.7-0.5,1v0.9
		c0.4,0.3,0.7,0.7,0.9,1.2c0.4,0.9,0.5,1.9,0.1,2.8l-0.3,0.8c-0.2,0.5-0.4,0.8-0.7,1.2v0.9c0.3,0.3,0.5,0.6,0.7,1
		c0.4,0.9,0.5,1.9,0.1,2.8l-0.3,0.8c-0.1,0.4-0.3,0.7-0.5,1v1c0.4,0.3,0.7,0.7,0.9,1.2c0.4,0.9,0.5,1.9,0.1,2.8l-0.3,0.8
		c-0.2,0.5-0.4,0.8-0.7,1.2v4c0,0.1,0,0.2,0,0.3h34.6c0-0.1,0-0.2,0-0.3V25.8c0,0,0-0.1,0-0.1v-0.2C43.8,25.4,43.8,25.3,43.8,25.2z
		 M27.3,10.6h9.4c0.5,0,0.9,0.4,0.9,0.9c0,0.5-0.4,0.9-0.9,0.9h-9.4c-0.5,0-0.9-0.4-0.9-0.9C26.5,11,26.8,10.6,27.3,10.6z
		 M35.9,16.1c0,0.5-0.4,0.9-0.9,0.9h-7.6c-0.5,0-0.9-0.4-0.9-0.9c0-0.5,0.4-0.9,0.9-0.9H35C35.5,15.2,35.9,15.6,35.9,16.1z
		 M17.9,13.6c-0.7-0.6-1.1-1.4-1.1-2.4c0-1.7,1.4-3.1,3.1-3.1c1.7,0,3.1,1.4,3.1,3.1c0,0.9-0.4,1.8-1.1,2.4c1.4,0.7,2.5,2.1,2.7,3.8
		c0,0.3-0.1,0.6-0.3,0.9c-0.2,0.2-0.5,0.4-0.8,0.4h-7.2c-0.3,0-0.6-0.1-0.8-0.4c-0.2-0.2-0.3-0.5-0.3-0.9
		C15.5,15.6,16.5,14.2,17.9,13.6z M38.3,43.3c0,1.3-1.1,2.4-2.4,2.4H17c-1.3,0-2.4-1.1-2.4-2.4V24.4c0-1.3,1.1-2.4,2.4-2.4h18.9
		c1.3,0,2.4,1.1,2.4,2.4V43.3z"/>
	<path class="st3" d="M21.6,11.2c0,0.9-0.8,1.7-1.7,1.7c-0.9,0-1.7-0.8-1.7-1.7c0-0.9,0.8-1.7,1.7-1.7C20.9,9.5,21.6,10.3,21.6,11.2
		z"/>
	<path class="st3" d="M23.2,17.1h-6.4c0.3-1.5,1.6-2.6,3.2-2.6S22.9,15.6,23.2,17.1z"/>
	<path class="st3" d="M35.9,23.7H17c-0.4,0-0.7,0.3-0.7,0.7v18.9c0,0.4,0.3,0.7,0.7,0.7h18.9c0.4,0,0.7-0.3,0.7-0.7V24.4
		C36.6,24,36.3,23.7,35.9,23.7z M25.6,41.2c0,0.4-0.3,0.7-0.7,0.7H19c-0.4,0-0.7-0.3-0.7-0.7v-5.8c0-0.4,0.3-0.7,0.7-0.7h5.8
		c0.4,0,0.7,0.3,0.7,0.7V41.2z M25.6,32.4c0,0.4-0.3,0.7-0.7,0.7H19c-0.4,0-0.7-0.3-0.7-0.7v-5.8c0-0.4,0.3-0.7,0.7-0.7h5.8
		c0.4,0,0.7,0.3,0.7,0.7V32.4z M34.3,36.9c0,0.2-0.2,0.4-0.4,0.4h-1.6c-0.1,0-0.2,0-0.2-0.1c0,0,0.1,0.1,0.1,0.2V39
		c0,0.1,0,0.2-0.1,0.2c0.1-0.1,0.2-0.1,0.2-0.1h1.6c0.2,0,0.4,0.2,0.4,0.3V41c0,0.2-0.2,0.3-0.4,0.3h-1.6c-0.2,0-0.3-0.2-0.3-0.3
		v-1.6c0-0.1,0-0.2,0.1-0.2c-0.1,0.1-0.2,0.1-0.2,0.1h-1.6c-0.1,0-0.2,0-0.2-0.1c0.1,0.1,0.1,0.1,0.1,0.2V41c0,0.2-0.2,0.3-0.4,0.3
		h-1.6c-0.2,0-0.3-0.2-0.3-0.3v-1.6c0-0.2,0.2-0.3,0.3-0.3h1.6c0.1,0,0.2,0,0.2,0.1c-0.1-0.1-0.1-0.1-0.1-0.2v-1.6
		c0-0.1,0-0.1,0.1-0.2c0,0-0.1,0.1-0.2,0.1h-1.6c-0.2,0-0.3-0.2-0.3-0.4v-1.6c0-0.2,0.2-0.3,0.3-0.3h1.6c0.2,0,0.4,0.2,0.4,0.3v1.6
		c0,0.1,0,0.1-0.1,0.2c0,0,0.1-0.1,0.2-0.1h1.6c0.1,0,0.2,0,0.2,0.1c0,0-0.1-0.1-0.1-0.2v-1.6c0-0.2,0.2-0.3,0.3-0.3h1.6
		c0.2,0,0.4,0.2,0.4,0.3V36.9z M34.8,32.4c0,0.4-0.3,0.7-0.7,0.7h-5.8c-0.4,0-0.7-0.3-0.7-0.7v-5.8c0-0.4,0.3-0.7,0.7-0.7h5.8
		c0.4,0,0.7,0.3,0.7,0.7V32.4z"/>
	<path class="st3" d="M19.8,36.1v4.4h4.4v-4.4H19.8z M23.1,39.1c0,0.2-0.2,0.4-0.4,0.4h-1.6c-0.2,0-0.3-0.2-0.3-0.4v-1.6
		c0-0.2,0.2-0.3,0.3-0.3h1.6c0.2,0,0.4,0.2,0.4,0.3V39.1z"/>
	<path class="st3" d="M43.4,50.4c-0.8,1.9-2.6,3.2-4.8,3.2H14.3c-2.2,0-4-1.3-4.8-3.2H43.4z"/>
	<path class="st2" d="M44.8,49.6c0,0.5-0.4,0.8-0.8,0.8H9.1c-0.4,0-0.8-0.4-0.8-0.8s0.4-0.8,0.8-0.8H44
		C44.4,48.8,44.8,49.1,44.8,49.6z"/>
	<path class="st2" d="M19,0.1v1.3c0,0.1,0,0.1,0,0.2c0.1,1.9,1.7,3.5,3.7,3.5h7.6v0c2,0,3.6-1.5,3.7-3.5c0-0.1,0-0.1,0-0.2V0.1H19z
		 M30.3,3.5h-7.6c-1,0-1.9-0.8-2-1.7h11.7C32.2,2.7,31.3,3.5,30.3,3.5z"/>
	<path class="st3" d="M32.3,1.7c-0.2,1-1,1.7-2,1.7h-7.6c-1,0-1.9-0.8-2-1.7H32.3z"/>
	<path class="st3" d="M9.2,39.9c-0.3-0.6-0.8-1.1-1.3-1.4c-0.1-0.1-0.2-0.1-0.3-0.2c-0.1,0-0.1-0.1-0.2-0.1l-0.9-0.3l-0.9-0.3
		C5,37.4,4.5,37.4,4,37.4c-0.4,0-0.8,0.2-1.2,0.4c-0.7,0.4-1.3,1-1.6,1.8c-0.6,1.8,0.3,3.7,2,4.3L5,44.6c0.4,0.1,0.8,0.2,1.1,0.2
		c0.5,0,0.9-0.1,1.4-0.3c0.7-0.3,1.3-0.8,1.6-1.5c0.1-0.1,0.1-0.2,0.2-0.4C9.7,41.6,9.6,40.7,9.2,39.9z M8.8,41.9l-0.3,0.8
		c-0.2,0.5-0.5,0.9-1,1.2c-0.1,0-0.1,0.1-0.2,0.1c-0.5,0.2-1.1,0.3-1.7,0.1l-2.6-0.9c-0.5-0.2-1-0.6-1.2-1.1
		c-0.2-0.5-0.3-1.1-0.1-1.7l0.3-0.8c0.2-0.5,0.6-1,1.1-1.2c0.1-0.1,0.3-0.1,0.4-0.1L5,38.6c0.4,0.1,0.8,0.2,1.2,0.2
		c0.1,0,0.3,0,0.4,0l0.8,0.3c0,0,0,0,0.1,0c0.5,0.2,0.9,0.6,1.2,1.1C9,40.7,9,41.3,8.8,41.9z"/>
	<path class="st2" d="M10,39.6c-0.2-0.5-0.5-0.9-0.9-1.2C9,38.2,8.8,38.1,8.6,38c-0.2-0.1-0.4-0.2-0.6-0.3l-0.4-0.1l0,0l-0.7-0.3
		c-0.4,0.1-0.8,0.1-1.3-0.1l-1.8-0.7h0c-0.4,0-0.8,0.2-1.1,0.3l0,0C2.3,37,2,37.2,1.8,37.4c-0.5,0.4-0.9,1-1.1,1.6l-0.3,0.8
		c-0.3,0.9-0.3,1.9,0.1,2.8c0.4,0.9,1.1,1.5,2.1,1.9l2.6,0.9c0.4,0.1,0.8,0.2,1.2,0.2c0.4,0,0.7-0.1,1.1-0.2c0.2,0,0.3-0.1,0.5-0.2
		c0.5-0.2,0.8-0.5,1.2-0.9c0.3-0.4,0.5-0.8,0.7-1.2l0.3-0.8C10.5,41.4,10.5,40.4,10,39.6z M8.8,41.9l-0.3,0.8
		c-0.2,0.5-0.5,0.9-1,1.2c-0.1,0-0.1,0.1-0.2,0.1c-0.5,0.2-1.1,0.3-1.7,0.1l-2.6-0.9c-0.5-0.2-1-0.6-1.2-1.1
		c-0.2-0.5-0.3-1.1-0.1-1.7l0.3-0.8c0.2-0.5,0.6-1,1.1-1.2c0.1-0.1,0.3-0.1,0.4-0.1C3.8,38,4,38,4.1,38c0.2,0,0.5,0,0.7,0.1l1.8,0.7
		l0.8,0.3c0,0,0,0,0.1,0c0.5,0.2,0.9,0.6,1.2,1.1C9,40.7,9,41.3,8.8,41.9z"/>
	<path class="st3" d="M8.8,41.9l-0.3,0.8c-0.2,0.5-0.5,0.9-1,1.2c-0.1,0-0.1,0.1-0.2,0.1c-0.5,0.2-1.1,0.3-1.7,0.1l-2.6-0.9
		c-0.5-0.2-1-0.6-1.2-1.1c-0.2-0.5-0.3-1.1-0.1-1.7l0.3-0.8c0.2-0.5,0.6-1,1.1-1.2c0.1-0.1,0.3-0.1,0.4-0.1L5,38.6
		c0.4,0.1,0.8,0.2,1.2,0.2c0.1,0,0.3,0,0.4,0l0.8,0.3c0,0,0,0,0.1,0c0.5,0.2,0.9,0.6,1.2,1.1C9,40.7,9,41.3,8.8,41.9z"/>
	<path class="st3" d="M9.2,33.4c0-0.1-0.1-0.2-0.1-0.2c-0.1-0.1-0.1-0.3-0.2-0.4c-0.1-0.1-0.2-0.2-0.3-0.4c-0.1-0.1-0.2-0.2-0.3-0.3
		C8.1,32,8,31.9,7.9,31.8h0c-0.1-0.1-0.2-0.2-0.3-0.2c-0.1-0.1-0.2-0.1-0.4-0.2l-0.6-0.2l-1.2-0.4c-0.5-0.2-1-0.2-1.5-0.2
		c-0.4,0-0.8,0.2-1.2,0.4c-0.7,0.4-1.3,1-1.6,1.9c-0.6,1.6,0.1,3.3,1.5,4.1C2.7,37,2.9,37,3.1,37.1L4,37.4l0.9,0.3
		c0.4,0.1,0.8,0.2,1.1,0.2c0.2,0,0.3,0,0.4,0c0.4,0,0.8-0.2,1.1-0.3l0,0c0,0,0,0,0,0l0.5-0.3c0.1-0.1,0.1-0.1,0.2-0.2l0.3-0.4
		l0.2-0.2l0.4-0.7C9.4,34.9,9.4,34.2,9.2,33.4z M8.6,35.1l-0.3,0.8c-0.2,0.4-0.4,0.8-0.8,1c-0.2,0.2-0.5,0.3-0.7,0.3
		c-0.4,0.1-0.8,0.1-1.3-0.1l-1.8-0.7h0l-0.8-0.3c-0.5-0.2-1-0.6-1.2-1.1c-0.2-0.5-0.3-1.1-0.1-1.7l0.3-0.8c0.2-0.5,0.6-1,1.1-1.2
		c0.1-0.1,0.3-0.1,0.4-0.2h0l1.7,0.6C5.6,32,6,32.1,6.4,32.1c0.1,0,0.2,0,0.3,0c0,0,0,0,0,0l0.5,0.2c0.1,0,0.2,0.1,0.2,0.1
		c0.4,0.2,0.8,0.6,1,1C8.8,33.9,8.8,34.5,8.6,35.1z"/>
	<path class="st2" d="M6.8,37.3l0.7,0.3v-0.6C7.3,37.1,7.1,37.2,6.8,37.3z M6.8,37.3l0.7,0.3v-0.6C7.3,37.1,7.1,37.2,6.8,37.3z
		 M9.9,32.7c-0.2-0.4-0.4-0.7-0.7-1c-0.1-0.2-0.3-0.3-0.5-0.4c-0.3-0.2-0.5-0.3-0.9-0.5l-0.1,0l-0.2-0.1l-0.6-0.2h0
		c-0.4,0.1-0.8,0.1-1.2-0.1l-2.1-0.8h0c-0.4,0-0.7,0.1-1.1,0.3c0,0-0.1,0-0.1,0c-0.2,0.1-0.5,0.2-0.7,0.4c-0.5,0.4-1,1-1.2,1.7
		L0.2,33c-0.3,0.9-0.3,1.9,0.1,2.8c0.3,0.7,0.8,1.2,1.5,1.6c0.2,0.1,0.4,0.2,0.6,0.3l0.4,0.1l0.8,0.3L5,38.6
		c0.4,0.1,0.8,0.2,1.2,0.2c0.1,0,0.3,0,0.4,0c0.3,0,0.6-0.1,0.9-0.2c0.1,0,0.2-0.1,0.3-0.1c0.3-0.1,0.5-0.3,0.8-0.5
		c0.2-0.2,0.4-0.4,0.6-0.6c0.2-0.3,0.4-0.6,0.5-1l0.3-0.8C10.3,34.6,10.3,33.6,9.9,32.7z M8.3,35.9c-0.2,0.4-0.4,0.8-0.8,1
		c-0.2,0.2-0.5,0.3-0.7,0.3c-0.4,0.1-0.8,0.1-1.3-0.1l-1.8-0.7h0l-0.8-0.3c-0.5-0.2-1-0.6-1.2-1.1c-0.2-0.5-0.3-1.1-0.1-1.7l0.3-0.8
		c0.2-0.5,0.6-1,1.1-1.2c0.1-0.1,0.3-0.1,0.4-0.2h0c0.2,0,0.3,0,0.5,0c0.2,0,0.5,0,0.7,0.1l2.1,0.7c0,0,0,0,0,0l0.5,0.2
		c0.1,0,0.2,0.1,0.2,0.1c0.4,0.2,0.8,0.6,1,1c0.2,0.5,0.3,1.1,0.1,1.7L8.3,35.9z M6.8,37.3l0.7,0.3v-0.6C7.3,37.1,7.1,37.2,6.8,37.3
		z"/>
	<path class="st3" d="M8.6,35.1l-0.3,0.8c-0.2,0.4-0.4,0.8-0.8,1c-0.2,0.2-0.5,0.3-0.7,0.3c-0.4,0.1-0.8,0.1-1.3-0.1l-1.8-0.7h0
		l-0.8-0.3c-0.5-0.2-1-0.6-1.2-1.1c-0.2-0.5-0.3-1.1-0.1-1.7l0.3-0.8c0.2-0.5,0.6-1,1.1-1.2c0.1-0.1,0.3-0.1,0.4-0.2h0l1.7,0.6
		C5.6,32,6,32.1,6.4,32.1c0.1,0,0.2,0,0.3,0c0,0,0,0,0,0l0.5,0.2c0.1,0,0.2,0.1,0.2,0.1c0.4,0.2,0.8,0.6,1,1
		C8.8,33.9,8.8,34.5,8.6,35.1z"/>
	<path class="st3" d="M9.2,26.3C9.2,26.3,9.2,26.3,9.2,26.3c0-0.1-0.1-0.2-0.2-0.3c-0.1-0.2-0.2-0.3-0.3-0.4c0,0-0.1-0.1-0.1-0.1
		c-0.1-0.1-0.2-0.2-0.3-0.2c0,0-0.1,0-0.1-0.1c-0.1,0-0.1-0.1-0.2-0.1C8,25,7.9,25,7.9,25h0c0,0-0.1-0.1-0.2-0.1c0,0,0,0,0,0
		c-0.1,0-0.1-0.1-0.2-0.1c-0.1,0-0.2-0.1-0.2-0.1l-0.7-0.3L5.5,24c-0.6-0.2-1.2-0.2-1.7-0.1C3.4,24,3,24.1,2.7,24.3
		c-0.7,0.4-1.2,1-1.5,1.8c-0.5,1.5,0,3.1,1.3,3.9c0.2,0.2,0.5,0.3,0.7,0.4l0.6,0.2h0L5,31c0.4,0.1,0.8,0.2,1.1,0.2
		c0.1,0,0.2,0,0.4,0c0.3,0,0.7-0.1,1-0.3l0.2-0.1l0.2-0.1c0,0,0,0,0.1,0l0.1,0l0.1-0.1c0.1,0,0.2-0.1,0.2-0.2c0,0,0.1-0.1,0.1-0.1
		L8.8,30l0.1-0.1l0.2-0.3l0.1-0.1c0,0,0,0,0,0v0c0.1-0.1,0.1-0.2,0.2-0.4C9.7,28.1,9.6,27.1,9.2,26.3z M8.8,28.3l-0.3,0.8
		c-0.1,0.2-0.2,0.5-0.4,0.7C8.1,29.9,8,29.9,8,30c-0.1,0.1-0.3,0.2-0.4,0.3c-0.1,0-0.1,0.1-0.2,0.1c-0.1,0.1-0.3,0.1-0.4,0.2h0
		c-0.4,0.1-0.8,0.1-1.2-0.1l-2.1-0.8h0l-0.5-0.2c-0.5-0.2-1-0.6-1.2-1.1c-0.2-0.5-0.3-1.1-0.1-1.7l0.3-0.8c0.2-0.5,0.6-1,1.1-1.2
		c0.1,0,0.2-0.1,0.3-0.1L5,25.1c0.4,0.2,0.8,0.2,1.2,0.2c0.2,0,0.4,0,0.5,0l0.7,0.2c0,0,0,0,0.1,0c0.1,0,0.2,0.1,0.3,0.2
		c0.1,0,0.2,0.1,0.2,0.2c0,0,0.1,0.1,0.2,0.1c0,0,0,0,0,0c0.1,0.1,0.1,0.1,0.2,0.2c0.1,0.1,0.2,0.2,0.2,0.4C9,27.2,9,27.8,8.8,28.3z
		"/>
	<path class="st2" d="M7.4,30.4c-0.1,0.1-0.3,0.1-0.4,0.2l0.6,0.2v-0.5C7.5,30.4,7.4,30.4,7.4,30.4z M7.4,30.4
		c-0.1,0.1-0.3,0.1-0.4,0.2l0.6,0.2v-0.5C7.5,30.4,7.4,30.4,7.4,30.4z M10,26c-0.2-0.5-0.5-0.9-0.9-1.2c-0.2-0.1-0.3-0.3-0.5-0.4
		c-0.2-0.1-0.4-0.2-0.7-0.3L7.7,24l-0.1,0l-0.6-0.2c-0.4,0.1-0.9,0.1-1.4,0l-2-0.7c-0.3,0-0.7,0.1-1,0.3c0,0,0,0-0.1,0
		c-0.3,0.1-0.5,0.3-0.8,0.5c-0.5,0.4-0.8,0.9-1.1,1.5l-0.3,0.8c-0.3,0.9-0.3,1.9,0.1,2.8c0.3,0.6,0.7,1.1,1.2,1.4
		c0.3,0.2,0.6,0.3,0.9,0.5l0.1,0l0.8,0.3h0l1.7,0.6C5.6,32,6,32.1,6.4,32.1c0.1,0,0.2,0,0.3,0c0,0,0,0,0,0C7,32,7.3,32,7.5,31.9
		c0.1,0,0.2-0.1,0.3-0.1h0c0,0,0.1,0,0.1,0c0.2-0.1,0.5-0.2,0.7-0.4C8.8,31.2,9,31,9.2,30.9c0.3-0.4,0.5-0.8,0.7-1.2l0.3-0.8
		C10.5,27.9,10.5,26.9,10,26z M8.5,29.2c-0.1,0.2-0.2,0.5-0.4,0.7C8.1,29.9,8,29.9,8,30c-0.1,0.1-0.3,0.2-0.4,0.3
		c-0.1,0-0.1,0.1-0.2,0.1c-0.1,0.1-0.3,0.1-0.4,0.2h0c-0.4,0.1-0.8,0.1-1.2-0.1l-2.1-0.8h0l-0.5-0.2c-0.5-0.2-1-0.6-1.2-1.1
		c-0.2-0.5-0.3-1.1-0.1-1.7l0.3-0.8c0.2-0.5,0.6-1,1.1-1.2c0.1,0,0.2-0.1,0.3-0.1c0.2-0.1,0.4-0.1,0.7-0.1c0.2,0,0.5,0,0.7,0.1
		l2,0.7l0.7,0.2c0,0,0,0,0.1,0c0.1,0,0.2,0.1,0.3,0.2c0.1,0,0.2,0.1,0.2,0.2c0.1,0,0.1,0.1,0.2,0.1c0,0,0,0,0,0
		c0.1,0.1,0.1,0.1,0.2,0.2c0.1,0.1,0.2,0.2,0.2,0.4C9,27.2,9,27.8,8.8,28.3L8.5,29.2z M7.4,30.4c-0.1,0.1-0.3,0.1-0.4,0.2l0.6,0.2
		v-0.5C7.5,30.4,7.4,30.4,7.4,30.4z"/>
	<path class="st3" d="M8.8,28.3l-0.3,0.8c-0.1,0.2-0.2,0.5-0.4,0.7C8.1,29.9,8,29.9,8,30c-0.1,0.1-0.3,0.2-0.4,0.3
		c-0.1,0-0.1,0.1-0.2,0.1c-0.1,0.1-0.3,0.1-0.4,0.2h0c-0.4,0.1-0.8,0.1-1.2-0.1l-2.1-0.8h0l-0.5-0.2c-0.5-0.2-1-0.6-1.2-1.1
		c-0.2-0.5-0.3-1.1-0.1-1.7l0.3-0.8c0.2-0.5,0.6-1,1.1-1.2c0.1,0,0.2-0.1,0.3-0.1L5,25.1c0.4,0.2,0.8,0.2,1.2,0.2c0.2,0,0.4,0,0.5,0
		l0.7,0.2c0,0,0,0,0.1,0c0.1,0,0.2,0.1,0.3,0.2c0.1,0,0.2,0.1,0.2,0.2c0,0,0.1,0.1,0.2,0.1c0,0,0,0,0,0c0.1,0.1,0.1,0.1,0.2,0.2
		c0.1,0.1,0.2,0.2,0.2,0.4C9,27.2,9,27.8,8.8,28.3z"/>
	<path class="st3" d="M9.2,20c-0.3-0.8-0.8-1.5-1.6-1.9C7.4,18,7.3,18,7.1,17.9l-1.8-0.6c-1.8-0.6-3.7,0.3-4.3,2
		c-0.6,1.5,0.1,3.2,1.5,4c0.2,0.1,0.4,0.2,0.6,0.3l0.7,0.3l1,0.4c0.4,0.1,0.8,0.2,1.1,0.2c0.2,0,0.4,0,0.6-0.1c0,0,0,0,0,0
		c0.3-0.1,0.6-0.2,0.9-0.3c0,0,0.1,0,0.1-0.1l0,0l0.4-0.3c0.1-0.1,0.2-0.1,0.2-0.2l0.6-0.8l0-0.1c0,0,0,0,0,0c0,0,0,0,0,0h0
		c0,0,0,0,0-0.1l0.1-0.4c0,0,0,0,0,0C9.4,21.5,9.4,20.7,9.2,20z M7.5,23.5c-0.2,0.1-0.4,0.2-0.6,0.3c-0.4,0.1-0.9,0.1-1.4,0l-2-0.7
		l-0.6-0.2c-0.5-0.2-1-0.6-1.2-1.1c-0.2-0.5-0.3-1.1-0.1-1.7l0.3-0.8c0.2-0.6,0.6-1,1.1-1.2c0.3-0.1,0.6-0.2,0.9-0.2
		c0.2,0,0.5,0,0.7,0.1l2.6,0.9c0.1,0,0.2,0.1,0.2,0.1c0.4,0.2,0.8,0.6,1,1c0.2,0.5,0.3,1.1,0.1,1.7l-0.3,0.8
		C8.2,22.9,7.9,23.2,7.5,23.5z"/>
	<path class="st2" d="M9.9,19.3c-0.2-0.4-0.4-0.7-0.7-1c-0.4-0.4-0.8-0.7-1.4-0.9l-0.3-0.1l-2.3-0.8c-0.9-0.3-1.9-0.3-2.8,0.1
		c-0.9,0.4-1.6,1.1-1.9,2.1l-0.3,0.8c-0.3,0.9-0.3,1.9,0.1,2.8c0.3,0.6,0.8,1.2,1.4,1.6C2,24,2.2,24.1,2.4,24.2l0.3,0.1l0.8,0.3
		L5,25.1c0.4,0.2,0.8,0.2,1.2,0.2c0.2,0,0.4,0,0.5,0c0.2,0,0.5-0.1,0.7-0.2c0.1,0,0.2-0.1,0.3-0.1c0,0,0,0,0.1,0h0
		c0.3-0.1,0.5-0.3,0.8-0.5c0.2-0.2,0.4-0.3,0.5-0.5c0.2-0.3,0.4-0.6,0.5-1l0.3-0.8C10.3,21.2,10.3,20.2,9.9,19.3z M8.6,21.6
		l-0.3,0.8c-0.2,0.4-0.4,0.8-0.8,1c-0.2,0.1-0.4,0.2-0.6,0.3c-0.4,0.1-0.9,0.1-1.4,0l-2-0.7l-0.6-0.2c-0.5-0.2-1-0.6-1.2-1.1
		c-0.2-0.5-0.3-1.1-0.1-1.7l0.3-0.8c0.2-0.6,0.6-1,1.1-1.2c0.3-0.1,0.6-0.2,0.9-0.2c0.2,0,0.5,0,0.7,0.1l2.6,0.9
		c0.1,0,0.2,0.1,0.2,0.1c0.4,0.2,0.8,0.6,1,1C8.8,20.4,8.8,21,8.6,21.6z"/>
	<path class="st3" d="M8.6,21.6l-0.3,0.8c-0.2,0.4-0.4,0.8-0.8,1c-0.2,0.1-0.4,0.2-0.6,0.3c-0.4,0.1-0.9,0.1-1.4,0l-2-0.7l-0.6-0.2
		c-0.5-0.2-1-0.6-1.2-1.1c-0.2-0.5-0.3-1.1-0.1-1.7l0.3-0.8c0.2-0.6,0.6-1,1.1-1.2c0.3-0.1,0.6-0.2,0.9-0.2c0.2,0,0.5,0,0.7,0.1
		l2.6,0.9c0.1,0,0.2,0.1,0.2,0.1c0.4,0.2,0.8,0.6,1,1C8.8,20.4,8.8,21,8.6,21.6z"/>
</g>
</svg>
