<?xml version="1.0" encoding="utf-8"?>
<!-- Generator: Adobe Illustrator 27.7.0, SVG Export Plug-In . SVG Version: 6.00 Build 0)  -->
<svg version="1.1" id="Capa_2_00000016068450939829963030000002773994908396282809_"
	 xmlns="http://www.w3.org/2000/svg" xmlns:xlink="http://www.w3.org/1999/xlink" x="0px" y="0px" viewBox="0 0 64.3 52.6"
	 style="enable-background:new 0 0 64.3 52.6;" xml:space="preserve">
<style type="text/css">
	.st0{fill:#960E53;}
	.st1{fill:#410324;}
	.st2{fill:#DC7F37;}
	.st3{fill:#FFFFFF;}
</style>
<g id="Capa_2-2">
	<path class="st0" d="M28.1,22.3v-1.6h-0.9l0.3-1.5H26l-0.3,1.5h-0.9l0.3-1.5h-1.5l-0.3,1.5h-1.2v1.6H23l-0.2,1h-1.2v1.5h0.9
		l-0.2,1.5h1.5l0.2-1.5H25l-0.2,1.5h1.5l0.2-1.5h1.2v-1.5h-0.9l0.2-1H28.1z M25.3,23.3h-0.9l0.2-1h0.9L25.3,23.3z"/>
	<path class="st0" d="M35.3,21.4c-0.1-0.5-0.3-0.8-0.6-1.2c-0.2-0.3-0.6-0.6-0.9-0.8s-0.8-0.3-1.3-0.3s-0.9,0.1-1.3,0.3
		c-0.4,0.2-0.7,0.5-0.9,0.8c-0.2,0.3-0.4,0.7-0.6,1.2c-0.1,0.4-0.2,0.9-0.2,1.4c0,0.5,0.1,0.9,0.2,1.4c0.1,0.5,0.3,0.8,0.6,1.2
		c0.2,0.3,0.6,0.6,0.9,0.8c0.4,0.2,0.8,0.3,1.3,0.3s0.9-0.1,1.3-0.3c0.4-0.2,0.7-0.5,0.9-0.8c0.2-0.3,0.4-0.7,0.6-1.2
		s0.2-0.9,0.2-1.4C35.5,22.3,35.4,21.9,35.3,21.4z M33.6,23.6c-0.1,0.2-0.1,0.4-0.2,0.6c-0.1,0.2-0.2,0.3-0.4,0.4
		c-0.1,0.1-0.3,0.1-0.5,0.1c-0.3,0-0.6-0.2-0.8-0.5c-0.2-0.3-0.3-0.8-0.3-1.4c0-0.6,0.1-1.1,0.3-1.4c0.2-0.3,0.5-0.5,0.8-0.5
		c0.3,0,0.6,0.2,0.8,0.5c0.2,0.3,0.3,0.8,0.3,1.4C33.7,23.1,33.6,23.4,33.6,23.6z"/>
	<path class="st0" d="M42.5,21.4c-0.1-0.5-0.3-0.8-0.6-1.2c-0.2-0.3-0.6-0.6-0.9-0.8s-0.8-0.3-1.3-0.3c-0.5,0-0.9,0.1-1.3,0.3
		c-0.4,0.2-0.7,0.5-0.9,0.8c-0.2,0.3-0.4,0.7-0.6,1.2c-0.1,0.4-0.2,0.9-0.2,1.4c0,0.5,0.1,0.9,0.2,1.4c0.1,0.5,0.3,0.8,0.6,1.2
		c0.2,0.3,0.6,0.6,0.9,0.8c0.4,0.2,0.8,0.3,1.3,0.3c0.5,0,0.9-0.1,1.3-0.3c0.4-0.2,0.7-0.5,0.9-0.8c0.2-0.3,0.4-0.7,0.6-1.2
		c0.1-0.4,0.2-0.9,0.2-1.4C42.7,22.3,42.7,21.9,42.5,21.4z M40.8,23.6c-0.1,0.2-0.1,0.4-0.2,0.6c-0.1,0.2-0.2,0.3-0.4,0.4
		c-0.1,0.1-0.3,0.1-0.5,0.1c-0.3,0-0.6-0.2-0.8-0.5c-0.2-0.3-0.3-0.8-0.3-1.4c0-0.6,0.1-1.1,0.3-1.4c0.2-0.3,0.5-0.5,0.8-0.5
		c0.3,0,0.6,0.2,0.9,0.5c0.2,0.3,0.3,0.8,0.3,1.4C40.9,23.1,40.9,23.4,40.8,23.6z"/>
	<path class="st0" d="M49.8,21.4c-0.1-0.5-0.3-0.8-0.6-1.2c-0.2-0.3-0.6-0.6-0.9-0.8s-0.8-0.3-1.3-0.3s-0.9,0.1-1.3,0.3
		s-0.7,0.5-0.9,0.8c-0.2,0.3-0.4,0.7-0.6,1.2c-0.1,0.4-0.2,0.9-0.2,1.4c0,0.5,0.1,0.9,0.2,1.4c0.1,0.5,0.3,0.8,0.6,1.2
		c0.2,0.3,0.6,0.6,0.9,0.8c0.4,0.2,0.8,0.3,1.3,0.3s0.9-0.1,1.3-0.3c0.4-0.2,0.7-0.5,0.9-0.8c0.2-0.3,0.4-0.7,0.6-1.2
		s0.2-0.9,0.2-1.4C50,22.3,49.9,21.9,49.8,21.4z M48.1,23.6c-0.1,0.2-0.1,0.4-0.2,0.6c-0.1,0.2-0.2,0.3-0.4,0.4
		c-0.1,0.1-0.3,0.1-0.5,0.1c-0.3,0-0.6-0.2-0.8-0.5c-0.2-0.3-0.3-0.8-0.3-1.4c0-0.6,0.1-1.1,0.3-1.4c0.2-0.3,0.5-0.5,0.8-0.5
		s0.6,0.2,0.8,0.5c0.2,0.3,0.3,0.8,0.3,1.4C48.2,23.1,48.2,23.4,48.1,23.6z"/>
	<path class="st0" d="M57.1,21.4c-0.1-0.5-0.3-0.8-0.6-1.2c-0.2-0.3-0.6-0.6-0.9-0.8s-0.8-0.3-1.3-0.3s-0.9,0.1-1.3,0.3
		c-0.4,0.2-0.7,0.5-0.9,0.8c-0.2,0.3-0.4,0.7-0.6,1.2c-0.1,0.4-0.2,0.9-0.2,1.4c0,0.5,0.1,0.9,0.2,1.4c0.1,0.5,0.3,0.8,0.6,1.2
		c0.2,0.3,0.6,0.6,0.9,0.8c0.4,0.2,0.8,0.3,1.3,0.3s0.9-0.1,1.3-0.3c0.4-0.2,0.7-0.5,0.9-0.8c0.2-0.3,0.4-0.7,0.6-1.2
		s0.2-0.9,0.2-1.4C57.3,22.3,57.2,21.9,57.1,21.4z M55.4,23.6c-0.1,0.2-0.1,0.4-0.2,0.6c-0.1,0.2-0.2,0.3-0.4,0.4
		c-0.1,0.1-0.3,0.1-0.5,0.1c-0.3,0-0.6-0.2-0.8-0.5c-0.2-0.3-0.3-0.8-0.3-1.4c0-0.6,0.1-1.1,0.3-1.4c0.2-0.3,0.5-0.5,0.8-0.5
		c0.3,0,0.6,0.2,0.8,0.5c0.2,0.3,0.3,0.8,0.3,1.4C55.5,23.1,55.4,23.4,55.4,23.6z"/>
	<path class="st1" d="M40.5,9.7h-1.8c0-0.1,0-0.2,0-0.4V7.9h1.7v1.2C40.4,9.3,40.4,9.5,40.5,9.7z"/>
	<path class="st1" d="M33.4,9.7h-1.8c0.1-0.2,0.1-0.4,0.1-0.6V7.9h1.7v1.4C33.3,9.5,33.3,9.6,33.4,9.7z"/>
	<path class="st1" d="M26.4,9.7h-1.9c0-0.1,0-0.2,0-0.4V7.9h1.8v1.2C26.3,9.3,26.3,9.5,26.4,9.7z"/>
	<path class="st1" d="M42.6,43.4L42.6,43.4c0,0.1,0,0.1,0,0.2c0,0,0,0.1,0,0.2c-0.1,0.3-0.5,0.6-0.8,0.6h-37c-2.6,0-4.7-1.8-4.7-4
		V11.9c0-2.2,2.1-4,4.7-4h14.5v1.4c0,0.1,0,0.2,0,0.4H4.7c-1.6,0-2.9,1-2.9,2.2v28.4c0,1.2,1.3,2.2,2.9,2.2h37
		c0.3,0,0.6,0.2,0.8,0.4c0.1,0.1,0.1,0.2,0.1,0.3C42.6,43.3,42.6,43.3,42.6,43.4z"/>
	<path class="st1" d="M64.3,11.9v28.4c0,2.2-2.1,4-4.6,4h-9.8c-0.2,0-0.3,0-0.4-0.1C49.1,44,49,43.7,49,43.4v0c0-0.1,0-0.3,0.1-0.4
		c0.2-0.3,0.5-0.5,0.8-0.5h9.8c1.6,0,2.8-1,2.8-2.2V11.9c0-1.2-1.3-2.2-2.8-2.2H45.6c0.1-0.2,0.1-0.4,0.1-0.6V7.9h14
		C62.2,7.9,64.3,9.7,64.3,11.9z"/>
	<path class="st2" d="M11.9,17C9.8,17,8,18.8,8,20.9c0,1.2,0.5,2.2,1.3,2.9c0.7,0.6,1.6,1,2.5,1c1,0,1.9-0.4,2.5-1
		c0.8-0.7,1.3-1.8,1.3-2.9C15.8,18.8,14,17,11.9,17z M11.9,18.8c1.1,0,2.1,0.9,2.1,2.1C14,22,13,23,11.9,23c-1.2,0-2.1-0.9-2.1-2.1
		C9.8,19.7,10.8,18.8,11.9,18.8z"/>
	<path class="st2" d="M17.8,28.5c-0.2-2.1-1.5-3.8-3.3-4.7c-0.8-0.4-1.6-0.6-2.5-0.6c-0.9,0-1.8,0.2-2.5,0.6
		c-1.8,0.9-3.1,2.6-3.3,4.7c0,0.4,0.1,0.8,0.3,1.1c0.3,0.3,0.6,0.5,1,0.5h9c0.4,0,0.8-0.2,1-0.5C17.7,29.3,17.8,28.9,17.8,28.5z
		 M7.9,28.3c0.4-1.9,2.1-3.2,4-3.2c1.9,0,3.6,1.4,4,3.2H7.9z"/>
	<path class="st3" d="M24.8,2.7L24.8,2.7c-0.6-1-1.7-1.6-2.9-1.6h0c-1.9,0-3.5,1.6-3.5,3.5v4.2c0,0.3,0,0.6,0.1,0.8
		c0.4,1.5,1.8,2.7,3.4,2.7h0c1.3,0,2.4-0.7,3-1.8c0.2-0.3,0.3-0.6,0.4-0.9c0.1-0.3,0.1-0.5,0.1-0.8V4.6C25.4,3.9,25.2,3.2,24.8,2.7z
		 M22.3,11.5h-0.9c-1.1,0-2-0.8-2.2-1.8c0-0.1,0-0.2,0-0.4V4.1c0-1.2,1-2.2,2.2-2.2h0.9c1.2,0,2.2,1,2.2,2.2v5.2c0,0.1,0,0.2,0,0.4
		C24.3,10.7,23.4,11.5,22.3,11.5z"/>
	<path class="st1" d="M25.9,2.6c-0.1-0.4-0.3-0.7-0.6-1c-0.7-0.9-1.8-1.4-3-1.4h-0.9c-2.2,0-3.9,1.8-3.9,3.9v5.2c0,0.1,0,0.2,0,0.4
		c0.2,2,1.9,3.5,3.9,3.5h0.9c1.3,0,2.5-0.6,3.2-1.6c0.2-0.3,0.4-0.7,0.5-1v0c0.1-0.3,0.2-0.5,0.2-0.8c0-0.1,0-0.2,0-0.4V4.1
		C26.2,3.6,26.1,3.1,25.9,2.6z M22.3,11.5h-0.9c-1.1,0-2-0.8-2.2-1.8c0-0.1,0-0.2,0-0.4V4.1c0-1.2,1-2.2,2.2-2.2h0.9
		c1.2,0,2.2,1,2.2,2.2v5.2c0,0.1,0,0.2,0,0.4C24.3,10.7,23.4,11.5,22.3,11.5z"/>
	<path class="st3" d="M24.5,4.1v5.2c0,0.1,0,0.2,0,0.4c-0.2,1-1.1,1.8-2.2,1.8h-0.9c-1.1,0-2-0.8-2.2-1.8c0-0.1,0-0.2,0-0.4V4.1
		c0-1.2,1-2.2,2.2-2.2h0.9C23.5,2,24.5,2.9,24.5,4.1z"/>
	<path class="st3" d="M32,2.5L32,2.5c-0.6-1-1.7-1.7-3-1.7h0c-1.3,0-2.4,0.7-3,1.8c-0.3,0.5-0.5,1.1-0.5,1.8v4.2
		c0,0.4,0.1,0.7,0.2,1.1c0.1,0.3,0.2,0.6,0.4,0.8v0c0.6,1,1.7,1.6,2.9,1.6h0c1.2,0,2.2-0.6,2.9-1.5c0.2-0.3,0.4-0.6,0.5-0.9
		c0.1-0.3,0.2-0.7,0.2-1.1V4.4C32.5,3.7,32.3,3.1,32,2.5z M31.6,9.1c0,0.2,0,0.4-0.1,0.6c-0.3,0.9-1.1,1.6-2.1,1.6h-0.9
		c-1,0-1.8-0.7-2.1-1.6c-0.1-0.2-0.1-0.4-0.1-0.6V3.9c0-1.2,1-2.2,2.2-2.2h0.9c1.2,0,2.2,1,2.2,2.2V9.1z"/>
	<path class="st1" d="M33.1,2.6c-0.1-0.4-0.3-0.7-0.5-1c-0.7-1-1.9-1.6-3.2-1.6h-0.9c-1.3,0-2.5,0.7-3.2,1.6c-0.2,0.3-0.4,0.7-0.5,1
		v0c-0.1,0.4-0.2,0.8-0.2,1.2v5.2c0,0.2,0,0.4,0,0.6c0,0.3,0.1,0.6,0.3,0.9c0.1,0.4,0.3,0.7,0.6,1c0.7,0.9,1.8,1.4,3,1.4h0.9
		c1.2,0,2.2-0.5,3-1.4c0.2-0.3,0.5-0.6,0.6-1c0,0,0,0,0,0c0.1-0.3,0.2-0.6,0.3-1c0-0.2,0-0.4,0-0.6V3.9C33.3,3.5,33.2,3,33.1,2.6z
		 M31.6,9.1c0,0.2,0,0.4-0.1,0.6c-0.3,0.9-1.1,1.6-2.1,1.6h-0.9c-1,0-1.8-0.7-2.1-1.6c-0.1-0.2-0.1-0.4-0.1-0.6V3.9
		c0-1.2,1-2.2,2.2-2.2h0.9c1.2,0,2.2,1,2.2,2.2V9.1z"/>
	<path class="st3" d="M31.6,3.9v5.2c0,0.2,0,0.4-0.1,0.6c-0.3,0.9-1.1,1.6-2.1,1.6h-0.9c-1,0-1.8-0.7-2.1-1.6
		c-0.1-0.2-0.1-0.4-0.1-0.6V3.9c0-1.2,1-2.2,2.2-2.2h0.9C30.6,1.7,31.6,2.7,31.6,3.9z"/>
	<path class="st3" d="M38.9,2.6c-0.6-0.9-1.7-1.5-2.9-1.5c-1.2,0-2.3,0.6-2.9,1.5c-0.4,0.6-0.6,1.3-0.6,2v4.2c0,0.3,0,0.6,0.1,0.8
		c0.1,0.3,0.2,0.7,0.4,1c0,0,0,0,0,0c0.1,0.2,0.3,0.5,0.5,0.7c0.6,0.6,1.5,1,2.5,1c1.3,0,2.4-0.7,3-1.7v0c0.2-0.3,0.3-0.6,0.4-1
		c0.1-0.3,0.1-0.5,0.1-0.8V4.6C39.5,3.9,39.3,3.2,38.9,2.6z M38.6,9.3c0,0.1,0,0.2,0,0.4c-0.2,1-1.1,1.8-2.2,1.8h-0.9
		c-1.1,0-2-0.8-2.2-1.8c0-0.1,0-0.2,0-0.4V4.1c0-1.2,1-2.2,2.2-2.2h0.9c1.2,0,2.2,1,2.2,2.2V9.3z"/>
	<path class="st1" d="M40,2.5C40,2.5,40,2.5,40,2.5c-0.2-0.4-0.4-0.7-0.6-1c-0.7-0.8-1.8-1.4-3-1.4h-0.9c-1.2,0-2.2,0.5-3,1.4
		c-0.3,0.3-0.5,0.6-0.6,0.9v0c-0.2,0.5-0.3,1-0.3,1.6v5.2c0,0.1,0,0.2,0,0.4c0,0.3,0.1,0.6,0.2,0.9c0.1,0.4,0.3,0.7,0.5,1
		c0.7,1,1.8,1.6,3.1,1.6h0.9c1.3,0,2.4-0.6,3.1-1.6c0.2-0.3,0.4-0.6,0.5-1c0.1-0.3,0.2-0.6,0.2-0.9c0-0.1,0-0.2,0-0.4V4.1
		C40.4,3.6,40.2,3,40,2.5z M38.6,9.3c0,0.1,0,0.2,0,0.4c-0.2,1-1.1,1.8-2.2,1.8h-0.9c-1.1,0-2-0.8-2.2-1.8c0-0.1,0-0.2,0-0.4V4.1
		c0-1.2,1-2.2,2.2-2.2h0.9c1.2,0,2.2,1,2.2,2.2V9.3z"/>
	<path class="st3" d="M38.6,4.1v5.2c0,0.1,0,0.2,0,0.4c-0.2,1-1.1,1.8-2.2,1.8h-0.9c-1.1,0-2-0.8-2.2-1.8c0-0.1,0-0.2,0-0.4V4.1
		c0-1.2,1-2.2,2.2-2.2h0.9C37.7,2,38.6,2.9,38.6,4.1z"/>
	<path class="st3" d="M43,0.9c-1.3,0-2.4,0.7-3,1.7c0,0,0,0,0,0c-0.3,0.5-0.5,1.2-0.5,1.8v4.2c0,0.4,0.1,0.7,0.2,1.1
		c0.1,0.3,0.3,0.7,0.5,0.9c0.1,0.2,0.2,0.3,0.4,0.5c0.6,0.6,1.5,1,2.5,1c1.6,0,2.9-1,3.3-2.5c0.1-0.3,0.2-0.7,0.2-1.1V4.4
		C46.5,2.4,45,0.9,43,0.9z M45.7,9.1c0,0.2,0,0.4-0.1,0.6c-0.3,0.9-1.1,1.6-2.1,1.6h-0.9c-1,0-1.8-0.7-2.1-1.6
		c-0.1-0.2-0.1-0.4-0.1-0.6V3.9c0-1.2,1-2.2,2.2-2.2h0.9c1.2,0,2.2,1,2.2,2.2V9.1z"/>
	<path class="st1" d="M43.5,0h-0.9c-1.3,0-2.4,0.6-3.1,1.6c-0.2,0.3-0.4,0.6-0.5,1c-0.2,0.4-0.2,0.9-0.2,1.3v5.2c0,0.2,0,0.4,0,0.6
		c0,0.3,0.2,0.7,0.3,1v0c0.2,0.3,0.4,0.7,0.6,1c0.7,0.8,1.8,1.4,3,1.4h0.9c2,0,3.6-1.4,3.9-3.3c0-0.2,0-0.4,0-0.6V3.9
		C47.4,1.7,45.6,0,43.5,0z M45.7,9.1c0,0.2,0,0.4-0.1,0.6c-0.3,0.9-1.1,1.6-2.1,1.6h-0.9c-1,0-1.8-0.7-2.1-1.6
		c-0.1-0.2-0.1-0.4-0.1-0.6V3.9c0-1.2,1-2.2,2.2-2.2h0.9c1.2,0,2.2,1,2.2,2.2V9.1z"/>
	<path class="st3" d="M45.7,3.9v5.2c0,0.2,0,0.4-0.1,0.6c-0.3,0.9-1.1,1.6-2.1,1.6h-0.9c-1,0-1.8-0.7-2.1-1.6
		c-0.1-0.2-0.1-0.4-0.1-0.6V3.9c0-1.2,1-2.2,2.2-2.2h0.9C44.7,1.7,45.7,2.7,45.7,3.9z"/>
	<path class="st3" d="M49,39.5v3.9h-0.9v-3.9c0-0.7-0.6-1.2-1.2-1.2H36.4c0.4,2.4,2.5,4.2,5.1,4.2h0.2c0.3,0,0.6,0.2,0.8,0.4
		c0.1,0.1,0.1,0.2,0.1,0.3c0,0,0,0.1,0,0.1h-1.1c-1.1,0-2.2-0.3-3.1-0.9c-1.8-1-3-3-3-5.2h11.5C48.1,37.3,49,38.3,49,39.5z"/>
	<path class="st1" d="M50,39.5v3.9c0,0.4-0.2,0.7-0.5,0.8c-0.1,0-0.2,0.1-0.4,0.1c-0.5,0-0.8-0.3-0.9-0.8c0,0,0-0.1,0-0.1v-3.9
		c0-0.7-0.6-1.2-1.2-1.2H36.4c0.4,2.4,2.5,4.2,5.1,4.2h0.2c0.3,0,0.6,0.2,0.8,0.4c0.1,0.1,0.1,0.2,0.1,0.3c0,0,0,0.1,0,0.1v0
		c0,0.1,0,0.1,0,0.2c0,0,0,0.1,0,0.2c-0.1,0.3-0.5,0.6-0.8,0.6h-0.2c-1.8,0-3.4-0.7-4.6-1.8c-1.4-1.3-2.3-3.1-2.3-5.2
		c0-0.5,0.4-0.9,0.9-0.9h11.5C48.6,36.4,50,37.8,50,39.5z"/>
	<path class="st3" d="M48.2,43.5v7.4H20.3v-6.5h21.3c0.4,0,0.7-0.2,0.8-0.6c0,0,0-0.1,0-0.2c0-0.1,0-0.1,0-0.2v0c0,0,0-0.1,0-0.1
		c0-0.1,0-0.2-0.1-0.3c-0.1-0.3-0.4-0.4-0.8-0.4h-0.2c-2.5,0-4.6-1.8-5.1-4.2h10.5c0.7,0,1.2,0.6,1.2,1.2L48.2,43.5
		C48.2,43.4,48.2,43.4,48.2,43.5z"/>
	<path class="st1" d="M50,40.7v11.1c0,0.5-0.4,0.9-0.9,0.9l0,0H19.5c-0.5,0-0.9-0.4-0.9-0.9v-8.1c0-0.5,0.4-0.9,0.9-0.9
		s0.9,0.4,0.9,0.9v7.2h27.8V40.7c0-0.5,0.4-0.9,0.9-0.9h0C49.5,39.8,49.9,40.1,50,40.7C50,40.6,50,40.6,50,40.7z"/>
	<path class="st2" d="M17.7,33.6c0,0.5-0.4,0.9-0.9,0.9H7c-0.5,0-0.9-0.4-0.9-0.9s0.4-0.9,0.9-0.9h9.8
		C17.2,32.7,17.7,33.1,17.7,33.6z"/>
	<path class="st3" d="M59.7,9.7H47.3c-0.3,1.9-1.9,3.3-3.9,3.3h-0.9c-1.2,0-2.2-0.5-3-1.4c-0.7,1-1.9,1.6-3.1,1.6h-0.9
		c-1.3,0-2.4-0.6-3.1-1.6c-0.7,0.8-1.8,1.4-3,1.4h-0.9c-1.2,0-2.3-0.5-3-1.4c-0.7,1-1.9,1.6-3.2,1.6h-0.9c-2,0-3.7-1.5-3.9-3.5H4.7
		c-1.6,0-2.9,1-2.9,2.2v28.4c0,1.2,1.3,2.2,2.9,2.2h32.2c-1.4-1.3-2.3-3.1-2.3-5.2c0-0.5,0.4-0.9,0.9-0.9h11.5c1.7,0,3,1.4,3,3v1.1
		c0,0,0,0.1,0,0.1v1.8h9.7c1.6,0,2.8-1,2.8-2.2V11.9C62.5,10.7,61.2,9.7,59.7,9.7z M16.8,34.5H7c-0.5,0-0.9-0.4-0.9-0.9
		s0.4-0.9,0.9-0.9h9.8c0.5,0,0.9,0.4,0.9,0.9S17.3,34.5,16.8,34.5z M17.4,29.6c-0.3,0.3-0.6,0.5-1,0.5h-9c-0.4,0-0.8-0.2-1-0.5
		C6.1,29.3,6,28.9,6,28.5c0.2-2.1,1.5-3.8,3.3-4.7C8.5,23.1,8,22.1,8,20.9c0-2.1,1.7-3.9,3.9-3.9c2.1,0,3.9,1.7,3.9,3.9
		c0,1.2-0.5,2.2-1.3,2.9c1.8,0.9,3.1,2.6,3.3,4.7C17.8,28.9,17.7,29.3,17.4,29.6z M51.5,21.4c0.1-0.4,0.3-0.8,0.6-1.2
		c0.2-0.3,0.6-0.6,0.9-0.8c0.4-0.2,0.8-0.3,1.3-0.3s0.9,0.1,1.3,0.3s0.7,0.5,0.9,0.8c0.2,0.3,0.4,0.7,0.6,1.2
		c0.1,0.4,0.2,0.9,0.2,1.4c0,0.5-0.1,0.9-0.2,1.4s-0.3,0.8-0.6,1.2c-0.2,0.3-0.6,0.6-0.9,0.8c-0.4,0.2-0.8,0.3-1.3,0.3
		s-0.9-0.1-1.3-0.3c-0.4-0.2-0.7-0.5-0.9-0.8c-0.2-0.3-0.4-0.7-0.6-1.2c-0.1-0.4-0.2-0.9-0.2-1.4C51.3,22.3,51.3,21.9,51.5,21.4z
		 M44.2,21.4c0.1-0.4,0.3-0.8,0.6-1.2c0.2-0.3,0.6-0.6,0.9-0.8s0.8-0.3,1.3-0.3s0.9,0.1,1.3,0.3s0.7,0.5,0.9,0.8
		c0.2,0.3,0.4,0.7,0.6,1.2c0.1,0.4,0.2,0.9,0.2,1.4c0,0.5-0.1,0.9-0.2,1.4s-0.3,0.8-0.6,1.2c-0.2,0.3-0.6,0.6-0.9,0.8
		c-0.4,0.2-0.8,0.3-1.3,0.3s-0.9-0.1-1.3-0.3c-0.4-0.2-0.7-0.5-0.9-0.8c-0.2-0.3-0.4-0.7-0.6-1.2c-0.1-0.4-0.2-0.9-0.2-1.4
		C44,22.3,44.1,21.9,44.2,21.4z M36.9,21.4c0.1-0.4,0.3-0.8,0.6-1.2c0.2-0.3,0.6-0.6,0.9-0.8c0.4-0.2,0.8-0.3,1.3-0.3
		c0.5,0,0.9,0.1,1.3,0.3s0.7,0.5,0.9,0.8c0.2,0.3,0.4,0.7,0.6,1.2c0.1,0.4,0.2,0.9,0.2,1.4c0,0.5-0.1,0.9-0.2,1.4
		c-0.1,0.4-0.3,0.8-0.6,1.2c-0.2,0.3-0.6,0.6-0.9,0.8c-0.4,0.2-0.8,0.3-1.3,0.3c-0.5,0-0.9-0.1-1.3-0.3c-0.4-0.2-0.7-0.5-0.9-0.8
		c-0.2-0.3-0.4-0.7-0.6-1.2c-0.1-0.4-0.2-0.9-0.2-1.4C36.8,22.3,36.8,21.9,36.9,21.4z M29.7,21.4c0.1-0.4,0.3-0.8,0.6-1.2
		c0.2-0.3,0.6-0.6,0.9-0.8c0.4-0.2,0.8-0.3,1.3-0.3s0.9,0.1,1.3,0.3s0.7,0.5,0.9,0.8c0.2,0.3,0.4,0.7,0.6,1.2
		c0.1,0.4,0.2,0.9,0.2,1.4c0,0.5-0.1,0.9-0.2,1.4s-0.3,0.8-0.6,1.2c-0.2,0.3-0.6,0.6-0.9,0.8c-0.4,0.2-0.8,0.3-1.3,0.3
		s-0.9-0.1-1.3-0.3c-0.4-0.2-0.7-0.5-0.9-0.8c-0.2-0.3-0.4-0.7-0.6-1.2c-0.1-0.4-0.2-0.9-0.2-1.4C29.5,22.3,29.5,21.9,29.7,21.4z
		 M21.7,23.3h1.2l0.2-1h-0.9v-1.6h1.2l0.3-1.5h1.5l-0.3,1.5h0.9l0.3-1.5h1.5l-0.3,1.5h0.9v1.6H27l-0.2,1h0.9v1.5h-1.2l-0.2,1.5h-1.5
		l0.2-1.5h-0.9l-0.2,1.5h-1.5l0.2-1.5h-0.9V23.3z M56.9,30.7H22.8c-0.5,0-0.9-0.4-0.9-0.9s0.4-0.9,0.9-0.9h34.1
		c0.5,0,0.9,0.4,0.9,0.9S57.4,30.7,56.9,30.7z"/>
	<polygon class="st3" points="25.5,22.3 25.3,23.3 24.3,23.3 24.5,22.3 	"/>
	<path class="st3" d="M55.5,22.8c0,0.3,0,0.6-0.1,0.8c-0.1,0.2-0.1,0.4-0.2,0.6c-0.1,0.2-0.2,0.3-0.4,0.4c-0.1,0.1-0.3,0.1-0.5,0.1
		c-0.3,0-0.6-0.2-0.8-0.5c-0.2-0.3-0.3-0.8-0.3-1.4c0-0.6,0.1-1.1,0.3-1.4c0.2-0.3,0.5-0.5,0.8-0.5c0.3,0,0.6,0.2,0.8,0.5
		C55.3,21.7,55.5,22.2,55.5,22.8z"/>
	<path class="st3" d="M48.2,22.8c0,0.3,0,0.6-0.1,0.8c-0.1,0.2-0.1,0.4-0.2,0.6c-0.1,0.2-0.2,0.3-0.4,0.4c-0.1,0.1-0.3,0.1-0.5,0.1
		c-0.3,0-0.6-0.2-0.8-0.5c-0.2-0.3-0.3-0.8-0.3-1.4c0-0.6,0.1-1.1,0.3-1.4c0.2-0.3,0.5-0.5,0.8-0.5s0.6,0.2,0.8,0.5
		C48.1,21.7,48.2,22.2,48.2,22.8z"/>
	<path class="st3" d="M40.9,22.8c0,0.3,0,0.6-0.1,0.8c-0.1,0.2-0.1,0.4-0.2,0.6c-0.1,0.2-0.2,0.3-0.4,0.4c-0.1,0.1-0.3,0.1-0.5,0.1
		c-0.3,0-0.6-0.2-0.8-0.5c-0.2-0.3-0.3-0.8-0.3-1.4c0-0.6,0.1-1.1,0.3-1.4c0.2-0.3,0.5-0.5,0.8-0.5c0.3,0,0.6,0.2,0.9,0.5
		C40.8,21.7,40.9,22.2,40.9,22.8z"/>
	<path class="st3" d="M33.7,22.8c0,0.3,0,0.6-0.1,0.8c-0.1,0.2-0.1,0.4-0.2,0.6c-0.1,0.2-0.2,0.3-0.4,0.4c-0.1,0.1-0.3,0.1-0.5,0.1
		c-0.3,0-0.6-0.2-0.8-0.5c-0.2-0.3-0.3-0.8-0.3-1.4c0-0.6,0.1-1.1,0.3-1.4c0.2-0.3,0.5-0.5,0.8-0.5c0.3,0,0.6,0.2,0.8,0.5
		C33.5,21.7,33.7,22.2,33.7,22.8z"/>
	<path class="st3" d="M15.9,28.3h-8c0.4-1.9,2.1-3.2,4-3.2C13.8,25.1,15.5,26.4,15.9,28.3z"/>
	<path class="st3" d="M14,20.9C14,22,13,23,11.9,23c-1.2,0-2.1-0.9-2.1-2.1c0-1.2,0.9-2.1,2.1-2.1C13,18.8,14,19.7,14,20.9z"/>
	<path class="st0" d="M57.8,29.8c0,0.5-0.4,0.9-0.9,0.9H22.8c-0.5,0-0.9-0.4-0.9-0.9s0.4-0.9,0.9-0.9h34.1
		C57.4,28.9,57.8,29.3,57.8,29.8z"/>
</g>
</svg>
