<svg id="Layer_1" enable-background="new 0 0 66 66" height="512" viewBox="0 0 66 66" width="512" xmlns="http://www.w3.org/2000/svg"><g style="fill:none;stroke:#000;stroke-width:2;stroke-linecap:round;stroke-linejoin:round;stroke-miterlimit:10"><g><g><path d="m46.5 26.2c0-.1 0-.1 0 0 0-7.7-6.2-13.9-13.8-13.9s-13.8 6.2-13.8 13.8v.1"/><path d="m29.7 26.2h-10.9c-1.2 0-2.2 1-2.2 2.2v2.3"/><path d="m48.9 30.8v-2.3c0-1.2-1-2.2-2.2-2.2h-11.4"/><g><path d="m32.2 11.3v-9.2"/><path d="m41.5 8.2c-3.1-1.7-6.1 1.7-9.2 0 0-1.9 0-3.7 0-5.6 3.1 1.7 6.1-1.7 9.2 0z"/></g></g><path d="m2 59.4h62v4.4h-62z"/><g><g><path d="m48.5 36.8v5.1h-31.5v-5.1"/><path d="m17 59.4v-5.1h31.5v5.1"/><path d="m24.3 41.9v12.4"/><path d="m19.7 54.3v-12.4"/><path d="m45.8 41.9v12.4"/><path d="m41.2 54.3v-12.4"/><path d="m35 41.9v12.4"/><path d="m30.5 54.3v-12.4"/><path d="m15.9 36.8 16.8-12.5 16.9 12.5h-1.1z"/></g><path d="m34.6 31.6c0 1-.8 1.9-1.9 1.9-1 0-1.9-.8-1.9-1.9 0-1 .8-1.9 1.9-1.9 1 0 1.9.9 1.9 1.9z"/></g></g><g><path d="m22.2 59.4h-19.2v-28.6h21.3"/><path d="m41.4 30.8h21.6v28.6h-19.2"/></g><g><g><path d="m12.6 42.7h-5.4v-6.1c0-1.5 1.2-2.7 2.7-2.7 1.5 0 2.7 1.2 2.7 2.7z"/><path d="m12.6 55h-5.4v-6.1c0-1.5 1.2-2.7 2.7-2.7 1.5 0 2.7 1.2 2.7 2.7z"/></g><g><path d="m58.8 42.7h-5.4v-6.1c0-1.5 1.2-2.7 2.7-2.7 1.5 0 2.7 1.2 2.7 2.7z"/><path d="m58.8 55h-5.4v-6.1c0-1.5 1.2-2.7 2.7-2.7 1.5 0 2.7 1.2 2.7 2.7z"/></g></g></g></svg>