<svg height="496pt" viewBox="0 0 496 496" width="496pt" xmlns="http://www.w3.org/2000/svg"><path d="m64 48h16v336h-16zm0 0"/><path d="m208 32c-61.761719 0-112 50.238281-112 112s50.238281 112 112 112 112-50.238281 112-112-50.238281-112-112-112zm94.550781 96h-4.847656c-7.144531 0-13.457031-4.550781-15.757813-11.480469-2.496093-7.488281-9.480468-12.519531-17.386718-12.519531-9.125 0-16.558594-7.433594-16.558594-16.558594 0-3.28125.960938-6.464844 2.785156-9.183594l9.695313-14.546874c21.910156 14.367187 37.542969 37.449218 42.070312 64.289062zm-190.550781 16c0-38.648438 23.007812-71.953125 56-87.160156v13.265625c0 14.078125 7.824219 26.742187 20.425781 33.046875 7.132813 3.574218 11.574219 10.75 11.574219 18.734375v4.21875c0 7.984375-4.441406 15.167969-11.574219 18.734375-12.601562 6.3125-20.425781 18.976562-20.425781 33.046875v5.722656c0 7.320313-3.894531 14.191406-10.167969 17.957031l-17.464843 10.480469c-17.503907-17.398437-28.367188-41.472656-28.367188-68.046875zm105.855469 95.496094 11.472656-57.351563c.710937-3.570312 3.863281-6.144531 7.488281-6.144531h11.550782c4.207031 0 7.632812 3.425781 7.632812 7.632812 0 7.917969 3.9375 15.269532 10.519531 19.664063l10.648438 7.09375c-15.335938 15.984375-36.078125 26.722656-59.3125 29.105469zm69.496093-41.542969-11.953124-7.96875c-2.125-1.425781-3.398438-3.800781-3.398438-6.351563 0-13.03125-10.601562-23.632812-23.632812-23.632812h-11.550782c-11.222656 0-20.976562 7.992188-23.167968 19l-12.136719 60.671875c-17.785157-1.199219-34.253907-7.191406-48.085938-16.792969l12.636719-7.582031c11.066406-6.640625 17.9375-18.785156 17.9375-31.6875v-5.722656c0-7.984375 4.441406-15.167969 11.574219-18.734375 12.601562-6.304688 20.425781-18.96875 20.425781-33.039063v-4.21875c0-14.078125-7.824219-26.742187-20.425781-33.046875-7.132813-3.574218-11.574219-10.75-11.574219-18.734375v-18.953125c7.6875-1.992187 15.703125-3.160156 24-3.160156 13.640625 0 26.59375 2.902344 38.351562 8.046875l-8.878906 13.320313c-3.585937 5.367187-5.472656 11.609374-5.472656 18.074218 0 17.949219 14.609375 32.558594 32.558594 32.558594 1 0 1.882812.632812 2.25 1.734375 4.449218 13.320313 16.855468 22.265625 30.894531 22.265625h6.296875c0 19.992188-6.160156 38.558594-16.648438 53.953125zm0 0"/><path d="m496 96h-144v-96h-312c-22.054688 0-40 17.945312-40 40v416c0 22.054688 17.945312 40 40 40h312v-16h-16c-13.230469 0-24-10.769531-24-24s10.769531-24 24-24h16v-96h144zm-16 83.054688-19.574219 9.792968c-7.664062 3.832032-12.425781 11.535156-12.425781 20.097656v24.628907c0 6.355469-3.160156 12.242187-8.441406 15.769531-9.742188 6.496094-15.558594 17.367188-15.558594 29.082031v3.109375c0 3.570313-2.902344 6.464844-6.472656 6.464844h-16.582032c-2.472656 0-4.6875-1.367188-5.792968-3.574219-3.824219-7.664062-11.527344-12.425781-20.097656-12.425781h-23.054688v-33.441406l19.335938-3.863282c11.976562-2.398437 20.664062-13 20.664062-25.214843v-10.953125c0-4.617188 3.289062-8.625 7.800781-9.527344l11.527344-2.296875c11.976563-2.398437 20.664063-13 20.664063-25.214844 0-8.617187-4.28125-16.617187-11.449219-21.390625l-8.230469-5.488281c-2.695312-1.808594-4.3125-4.824219-4.3125-8.089844v-14.519531h72zm-88-67.054688v14.519531c0 8.617188 4.28125 16.617188 11.449219 21.390625l8.230469 5.488282c2.703124 1.800781 4.320312 4.816406 4.320312 8.082031 0 4.617187-3.289062 8.625-7.800781 9.527343l-11.527344 2.296876c-11.984375 2.398437-20.671875 13-20.671875 25.214843v10.953125c0 4.617188-3.289062 8.625-7.808594 9.527344l-16.191406 3.246094v-110.246094zm-87.792969 368h-264.207031c-13.230469 0-24-10.769531-24-24s10.769531-24 24-24h264.207031c-5.078125 6.703125-8.207031 14.960938-8.207031 24s3.128906 17.296875 8.207031 24zm-224.207031-64v-16h-16v16h-24c-9 0-17.3125 2.984375-24 8.015625v-384.015625c0-13.230469 10.769531-24 24-24h24v16h16v-16h256v400zm272-96v-32h23.054688c2.472656 0 4.6875 1.367188 5.792968 3.574219 3.824219 7.664062 11.527344 12.425781 20.097656 12.425781h16.582032c12.394531 0 22.472656-10.078125 22.472656-22.472656v-3.113282c0-6.351562 3.160156-12.238281 8.441406-15.765624 9.742188-6.488282 15.558594-17.359376 15.558594-29.074219v-24.628907c0-2.472656 1.367188-4.6875 3.574219-5.792968l12.425781-6.207032v123.054688zm0 0"/><path d="m96 272h224v16h-224zm0 0"/><path d="m96 304h16v16h-16zm0 0"/><path d="m128 304h192v16h-192zm0 0"/><path d="m304 336h16v16h-16zm0 0"/><path d="m96 336h192v16h-192zm0 0"/><path d="m96 368h144v16h-144zm0 0"/><path d="m448 288h16v16h-16zm0 0"/><path d="m368 128h16v16h-16zm0 0"/><path d="m152 104h16v16h-16zm0 0"/><path d="m128 144h16v16h-16zm0 0"/></svg>