<svg id="Capa_1" enable-background="new 0 0 512 512" height="512" viewBox="0 0 512 512" width="512" xmlns="http://www.w3.org/2000/svg"><g><path d="m416.723 125.905c-41.1-41.388-95.426-64.98-153.502-66.791-5.029-33.413-33.928-59.114-68.721-59.114-38.322 0-69.5 31.178-69.5 69.5 0 9.143 2.311 18.47 5.74 27.288-29.823 19.841-54.771 46.668-72.317 77.882-18.922 33.662-28.923 71.986-28.923 110.83 0 60.5 23.56 117.38 66.34 160.16s99.66 66.34 160.16 66.34 117.38-23.56 160.16-66.34 66.34-99.66 66.34-160.16c0-60.201-23.36-116.879-65.777-159.595zm-222.223-110.905c30.051 0 54.5 24.449 54.5 54.5 0 14.64-8.599 34.523-23.592 54.552-13.694 18.293-26.929 28.813-30.925 29.905-3.993-1.048-17.227-11.508-30.92-29.824-14.975-20.029-23.563-39.942-23.563-54.633 0-30.051 24.449-54.5 54.5-54.5zm-123.445 373h12.445c15.164 0 27.5-12.336 27.5-27.5 0-6.893 5.607-12.5 12.5-12.5h5.975c2.225 17.597 13.718 35.051 20.86 44.428 3.413 4.48 21.049 26.83 33.165 26.83 12.005 0 29.67-22.345 33.089-26.824 7.167-9.388 18.699-26.855 20.933-44.434h10.978c6.893 0 12.5 5.607 12.5 12.5v45.567c0 9.375 4.701 18.009 12.575 23.098l14.709 9.505c3.579 2.312 5.716 6.237 5.716 10.499v44.405c-12.331 2.246-25.03 3.426-38 3.426-79.455 0-148.804-44.048-184.945-109zm112.424 16.093c-3.317-1.476-12.511-8.948-22.394-22.332-10.8-14.626-16.994-29.063-16.994-39.61 0-21.73 17.679-39.409 39.409-39.409s39.409 17.679 39.409 39.409c0 10.512-6.206 24.932-17.025 39.561-9.888 13.369-19.084 20.877-22.405 22.381zm258.026-17.093h-33.651c-4.142 0-7.5 3.358-7.5 7.5s3.358 7.5 7.5 7.5h24.576c-28.476 42.981-72.212 75.01-123.43 88.274v-41.106c0-9.375-4.701-18.009-12.575-23.097l-14.709-9.505c-3.579-2.312-5.716-6.238-5.716-10.499v-45.567c0-15.164-12.336-27.5-27.5-27.5h-11.376c-4.366-25.657-26.742-45.258-53.624-45.258s-49.259 19.601-53.624 45.258h-6.376c-15.164 0-27.5 12.336-27.5 27.5 0 6.893-5.607 12.5-12.5 12.5h-20.035c-12.173-26.68-18.965-56.311-18.965-87.5 0-5.202.209-10.368.58-15.5h32.92c14.336 0 26-11.664 26-26v-13c0-6.065 4.935-11 11-11 4.142 0 7.5-3.358 7.5-7.5s-3.358-7.5-7.5-7.5c-14.336 0-26 11.664-26 26v13c0 6.065-4.935 11-11 11h-31.298c8.41-58.46 40.779-110.706 90.402-144.445 5.144 9.647 10.979 18.023 15.482 23.934 2.69 3.532 26.724 34.511 41.914 34.511 15.042 0 39.12-30.973 41.816-34.504 9.699-12.707 25.564-36.776 27.489-60.344 19.508.714 38.359 4.09 56.194 9.788v27.06c0 6.065-4.935 11-11 11h-9c-14.336 0-26 11.664-26 26v9c0 6.065-4.935 11-11 11h-10c-14.336 0-26 11.664-26 26v37c0 6.065-4.935 11-11 11h-18c-6.065 0-11-4.935-11-11 0-14.336-11.664-26-26-26h-11c-4.142 0-7.5 3.358-7.5 7.5s3.358 7.5 7.5 7.5h11c6.065 0 11 4.935 11 11 0 14.336 11.664 26 26 26h18c14.336 0 26-11.664 26-26v-37c0-6.065 4.935-11 11-11h10c14.336 0 26-11.664 26-26v-9c0-6.065 4.935-11 11-11h9c14.336 0 26-11.664 26-26v-21.626c56.55 22.936 101.076 69.693 121.047 127.626h-30.387c-2.604-27.593-25.895-49.258-54.159-49.258-30.001 0-54.409 24.408-54.409 54.409 0 10.977 4.229 22.242 9.34 31.849h-16.431c-14.336 0-26 11.664-26 26v33.857c0 14.269 11.608 25.932 25.877 26l16.175.076c6.037.028 10.948 4.963 10.948 11v25.067c0 14.336 11.664 26 26 26h9.854c4.142 0 7.5-3.358 7.5-7.5s-3.358-7.5-7.5-7.5h-9.854c-6.065 0-11-4.935-11-11v-25.067c0-14.269-11.608-25.932-25.877-26l-16.174-.076c-6.037-.029-10.948-4.963-10.948-11v-33.857c0-6.065 4.935-11 11-11h25.804c.885 1.234 1.736 2.383 2.532 3.428 3.413 4.48 21.049 26.83 33.165 26.83 12.005 0 29.67-22.345 33.089-26.824 6.622-8.675 16.969-24.248 20.267-40.434h35.741c4.497 17.105 6.903 35.035 6.903 53.5-.002 36.758-9.435 71.352-25.997 101.5zm-70.026-102.907c-3.317-1.476-12.511-8.948-22.394-22.332-10.8-14.626-16.994-29.063-16.994-39.61 0-21.73 17.679-39.409 39.409-39.409s39.409 17.679 39.409 39.409c0 10.512-6.206 24.932-17.025 39.561-9.888 13.369-19.084 20.877-22.405 22.381z"/><path d="m394 220.5c0-12.407-10.093-22.5-22.5-22.5s-22.5 10.093-22.5 22.5 10.093 22.5 22.5 22.5 22.5-10.093 22.5-22.5zm-22.5 7.5c-4.136 0-7.5-3.364-7.5-7.5s3.364-7.5 7.5-7.5 7.5 3.364 7.5 7.5-3.364 7.5-7.5 7.5z"/><path d="m206 340.5c0-12.407-10.093-22.5-22.5-22.5s-22.5 10.093-22.5 22.5 10.093 22.5 22.5 22.5 22.5-10.093 22.5-22.5zm-22.5 7.5c-4.136 0-7.5-3.364-7.5-7.5s3.364-7.5 7.5-7.5 7.5 3.364 7.5 7.5-3.364 7.5-7.5 7.5z"/><path d="m194.5 92c12.407 0 22.5-10.093 22.5-22.5s-10.093-22.5-22.5-22.5-22.5 10.093-22.5 22.5 10.093 22.5 22.5 22.5zm0-30c4.136 0 7.5 3.364 7.5 7.5s-3.364 7.5-7.5 7.5-7.5-3.364-7.5-7.5 3.364-7.5 7.5-7.5z"/></g></svg>