<?xml version="1.0" encoding="UTF-8"?><svg id="Capa_1" xmlns="http://www.w3.org/2000/svg" viewBox="0 0 512 512"><defs><style>.cls-1{fill:#3a3a3a;stroke-width:0px;}</style></defs><path class="cls-1" d="m502.75,606.1l-24.86-3.34-33.88-6.28.23,7.95-31.02-5.09-24.79-19.54.02-19.03,6.21-24.39,13.33-17.86h21.87l.17.1,17.11,10.22.08.26,6.18,20.13h8.87l60.92-43.07.05,12.97,3.6,3.63-23.74,38.27-.36,45.07Zm-60.19-11.32l36.25,6.72,22.55,2.99.35-43.87.1-.17,23.26-37.5-3.22-3.25-.04-10.84-59.08,41.77h-10.35l-6.4-20.86-16.47-9.84h-20.78l-12.83,17.18-6.04,23.92v18.09l23.96,18.89,28.98,4.75-.23-7.99Z"/><path class="cls-1" d="m553.42,71.28l-12.01-17.66h-9.69l3.57-30.71-29.13-32.63-23.86-41.54-4.91-31.56,5.57-38.33-6.26-23.47,11.86,8.16.07-15.13,6.44-17.16,79.8-35,95.26-95.26,32.72,11.9-48.02,59.31,12.28,34.1,45.52,42.02-.02,46.04-6.28,30.71-13.45,49.98-48.35,64.47-.3.11-90.8,31.67Zm-19.35-19.75h8.45l11.73,17.24,88.98-31.04,47.85-63.8,13.21-49.36,6.25-30.55v-44.81l-45.22-41.74-.09-.24-12.76-35.45,46.91-57.95-28.71-10.44-94.59,94.59-.18.08-79.17,34.72-6.06,16.16v18.55l-10.47-7.2,4.91,18.41-5.59,38.45,4.83,31.06,23.58,40.92,29.56,33.08-3.41,29.31Z"/><path class="cls-1" d="m344.74,639.84l-14.41-2.85v-64.79l1.97-2.67-1.96-24.71-19.19-46.91,39.62-19.39,2.53,55.91,2.75,37.18h-11.3v68.23Zm-13.01-4.01l11.6,2.3v-67.93h11.2l-2.64-35.69-2.43-53.79-36.51,17.87,18.78,46.01,2.01,25.34-2.01,2.72v63.17Z"/><path class="cls-1" d="m350.41,646.73l-7.07-7.47v-69.07h11.2l-2.64-35.69-4.27-92.04,18.81,7.38h10.76l30.13-22.6,13.39,5.66-15.85,21.14,1.55,30.82,24.28,18.47-.31,16.57h-21.66l-12.83,17.18-6.04,23.92v49.09l-3.64,5.91,3.89,7.13h-7.23l-5.74,9.85-9.03-.12-4.12,6.94-9.36-.75-1.25,3.97-2.96,3.67Zm-5.67-8.03l5.58,5.89,1.87-2.31,1.41-4.69,9.62.77,4.08-6.89,9.02.12,5.74-9.84h5.66l-3.14-5.76,3.86-6.27.02-48.96,6.21-24.39,13.33-17.86h20.99l.27-14.48-24.23-18.44-1.61-31.98,15.08-20.11-10.99-4.65-29.86,22.4-11.62-.05-16.92-6.64,4.17,89.85,2.75,37.18h-11.3v67.1Z"/><path class="cls-1" d="m331.38,573.13h-3.17l-55-.53-6.28-18.46,6.95-7.13-.35-24.69,7.17-5.05-10.35-6.45,12.29-26.34-20.17-11.5,3.44-4.53-27.56,1.47-1.56,28.99-8.48,8.63,5.63-.61-4.09,12.68-11.23-5.03-3.58-15.51-11.97,5.17-6.82.18-11.29-11.83-10.24-7.58-5.64-11.45-6.31-5.59.53-6.38-5.3-5.91,59.84-55.92.37.09,55.63,13.44,70.62-13.59,4.59,43.77,1.74,34.72v1.88s-37.87,18.54-37.87,18.54l18.78,46.01,2.01,25.34-2.36,3.19Zm-57.15-1.93l56.44.52,1.62-2.2-1.96-24.71-19.19-46.91,38.26-18.73v-.97l-1.74-34.65-4.43-42.21-69.41,13.36-55.56-13.42-58.28,54.47,4.78,5.34-.52,6.28,6.05,5.43,5.55,11.27,10.06,7.46,10.95,11.45,6.06-.16,13.13-5.73,3.8,16.48,9.16,4.11,2.94-9.12-7.38.8,10.86-11.06,1.6-29.72,31.85-1.7-4.3,5.67,19.91,11.35-12.32,26.39,11.09,6.91-8.3,5.85.35,24.53-6.76,6.93,5.68,16.7Z"/><path class="cls-1" d="m377.67,451.26l-11.62-.05-18.33-7.19-4.66-44.39,35.14,7.41,30.18,7.87-.25,13.49-30.46,22.85Zm-11.23-1.41h10.76l29.54-22.15.22-11.7-29.1-7.59-33.2-7,4.37,41.62,17.41,6.83Z"/><path class="cls-1" d="m258.11,511.61l-6.9-3.36-10.41-1.08-5.4-8.38,1.63-30.21,31.85-1.7-4.3,5.67,19.91,11.35-12.76,27.35-13.61.37Zm-16.49-5.77l10.09,1.09,6.7,3.26,12.4-.34,11.85-25.39-20.17-11.5,3.44-4.53-27.56,1.47-1.54,28.5,4.79,7.43Z"/><path class="cls-1" d="m462.73,550.63h-10.35l-6.4-20.86-16.98-10.14v-3.21l.28-12.37-24.23-18.44-1.61-31.98,15.57-20.76,1.68-3.96,34.88,6.74.15.16,12.59,13.2,21.62,4.52.13.38,11.28,33.05,22.27,20.62-.71.5-60.18,42.55Zm-9.31-1.41h8.87l59.11-41.79-21.26-19.69-11.26-33.01-21.27-4.44-.15-.16-12.59-13.2-33.32-6.44-1.36,3.14-15.32,20.42,1.55,30.82,24.28,18.48-.3,15.47,16.76,10.01.08.26,6.18,20.13Z"/><path class="cls-1" d="m489.77,454.93l-22.17-4.63-.15-.16-12.94-13.56.27-27.03h23.52l35.43-15.48,49.45,5.47,7.2,38.88-11.09,9.61-44.05-5.39-19.95,2.26-5.52,10.04Zm-21.45-5.92l20.72,4.33,5.37-9.77,20.83-2.36h.08s43.52,5.33,43.52,5.33l10.01-8.67-6.86-37.06-48.04-5.31-35.35,15.45h-22.42l-.25,25.06,12.4,12.99Z"/><path class="cls-1" d="m478.59,410.95h-11.45l.76-10.46.48-41.09,58.4-1.18,2.16-3.93-15.22-19.76-29.81-.69-25.8,6.27-2.61-37.81-29.16-25.6,40.38-43.02,38.32,39.51,47.37,8.49,13.7,81.23-.02.13-4.67,24.02,1.99,13.9-49.46-5.47-35.35,15.45Zm-9.94-1.41h9.64l35.43-15.48,48.03,5.31-1.76-12.34.02-.12,4.66-24.01-13.49-80.01-46.84-8.39-.16-.16-37.45-38.61-38.37,40.88,28.5,25.02,2.54,36.72,24.36-5.92h.09s30.57.71,30.57.71l16.19,21.02-3,5.45-57.85,1.17-.46,39.79-.65,8.97Z"/><path class="cls-1" d="m468.64,360.8l-10.9-22.04,26.02-6.32h.09s30.57.71,30.57.71l16.19,21.02-3,5.45-58.97,1.19Zm-8.86-21.09l9.73,19.67,57.27-1.15,2.16-3.93-15.22-19.76-29.81-.69-24.13,5.87Z"/><path class="cls-1" d="m455.91,437.14l-34.37-6.64-1.55,3.64-13.27-5.62.28-13.29,4.92-13.84,43.97,1.44.29,7.39-.27,26.92Zm-35.22-8.24l33.83,6.54.26-25.2-.24-6.05-41.63-1.37-4.54,12.77-.22,12.01,11.1,4.7,1.44-3.39Z"/><path class="cls-1" d="m468.55,410.95h-13.75l-.29-7.41v-22.97l-44.21-51.19,29.23-42.97,17.33,15.22.02.29,2.57,37.13,10.33,20.88v.17s-.47,40.43-.47,40.43l-.75,10.42Zm-12.4-1.41h11.09l.66-9.07.47-40.22-10.31-20.97-2.56-36.97-15.7-13.79-27.73,40.76,43.85,50.76v23.46l.24,6.04Z"/><path class="cls-1" d="m455.92,404.23l-44.19-1.45-.54-18.42-32.51-24.09,6.82-10.58-6.81-13.09,13.38-7.11,13.73,1.67,5.57-2.69.35.41,44.2,51.17v24.19Zm-42.82-2.81l41.41,1.36v-22.21l-43.51-50.37-4.97,2.4-13.7-1.67-11.76,6.25,6.54,12.57-6.54,10.16,32,23.72.52,17.78Z"/><path class="cls-1" d="m79.78,269.92h-.29s-72.13-.53-72.13-.53l-1.94-4.79,6.59-11.76.47-5.85-7.31-3.13-.54-7.9-10.14-9.97-2.1-7.71-8.63-7.58-1.08-5.4-9.03-16.47,1.02-5.63-6.57-5.09-7.29-1.5.56-9.75.86-7.57-3.61-7.34v-23.92l60.74-21.19,32.13-42.84,9.25-34.56,23.37,31.64,8.1,15.23v.16s2.33,75.01,2.33,75.01l59.22,23.97-8.24,29.96-.13.13-65.6,64.36Zm-71.47-1.93l70.9.52,65.05-63.82,7.81-28.39-58.9-23.84-.02-.46-2.34-75.3-7.89-14.86-21.58-29.21-8.64,32.11-32.47,43.3-.2.07-60,20.93v22.6l3.65,7.42-.9,7.94-.49,8.49,6.42,1.32,7.5,5.81-1.09,5.98,8.92,16.33,1.01,5.04,8.59,7.54,2.12,7.76,10.25,10.07.52,7.57,7.45,3.19-.66,7.29-6.34,11.31,1.34,3.29Z"/><path class="cls-1" d="m445.42,31.75h-.56l-12.09-51.09h-43.61l11.17-40.31h118.91l-6.89,18.2,5.43,3.02,2.47-8.92,7,33.67-53.11,44.36-16.88,1.07h-11.86Zm.56-1.41h11.26l16.37-1.04,52.11-43.53-5.65-27.16-1.4,5.05-8.05-4.48,6.6-17.43h-115.81l-10.39,37.5h42.87l12.09,51.09Z"/><path class="cls-1" d="m293.89,49.37l-8.92-8.73.02-.31,1.05-23.62-6.19-23.3,26.33.71,7.73-53.77h14.32v17.94l41.35,32.52-9.55,15.76-39.9,42.75-15.02-17.11-11.21,17.17Zm11.05-19.49l15.22,17.34,38.79-41.56,8.78-14.52-40.91-32.17v-17.22h-11.69l-7.74,53.8-25.7-.69,5.76,21.69v.11s-1.05,23.42-1.05,23.42l7.25,7.09,11.29-17.28Z"/><path class="cls-1" d="m-40.95,129.38l-8.06-11.86h-6.51l2.4-20.63-19.56-21.91-16.02-27.9-3.3-21.2L-88.26.15l-4.2-15.76,7.97,5.48.05-10.16,4.32-11.53,53.59-23.5,63.97-63.97,21.97,7.99-32.25,39.83,8.24,22.9,30.57,28.22V10.56s-4.23,20.62-4.23,20.62l-9.03,33.56-32.47,43.3-.2.07-60.98,21.27Zm-12.99-13.26h5.68l7.87,11.58,59.75-20.84,32.13-42.84,8.87-33.15,4.2-20.51v-30.09l-30.37-28.03-.06-.16-8.57-23.81,31.5-38.91-19.28-7.01L-25.74-54.14l-.12.05-53.16,23.32-4.07,10.85V-7.46l-7.03-4.84L-86.83.06l-3.75,25.82,3.24,20.86,15.83,27.48,19.85,22.21-2.29,19.69Z"/><path class="cls-1" d="m91.21,77.44l-8.29-15.6-22.63-30.63,4.27-20.86v-30.09l-30.37-28.03-.06-.16-8.57-23.81,32.44-40.07,66.1,24.73-.95,28,8.49,19.34-7.5,18.75,7.57,17.98-20.22,20.22,2.81,14.05-8.94,9.35,2.36,28.82-16.51,8.01Zm-29.41-46.56l22.31,30.22,7.71,14.49,14.43-6.99-2.33-28.49,8.87-9.28-2.82-14.07,20.09-20.09-7.43-17.64,7.5-18.74-8.38-19.09.93-27.31-64.21-24.02-31.31,38.67,8.24,22.9,30.57,28.22V10.56s-4.17,20.32-4.17,20.32Z"/><path class="cls-1" d="m165.8,64.54l-24.63-3.36.02-.64,1.75-43.37-12.65-19.97-7.67-18.18,7.79-19.47,19.11.31,2.87,37.54,23.42-2.27,7.22,25.01v28.83h-17.23v15.57Zm-23.18-4.58l21.77,2.97v-15.37h17.23v-27.32l-6.84-23.6-23.69,2.3-2.88-37.69-16.86-.28-7.21,18.03,7.39,17.55,12.84,20.24v.22s-1.74,42.95-1.74,42.95Z"/><path class="cls-1" d="m235.12,89.4h-7.27l-.2-.2-40.57-40.22h-5.45v-28.73l-7-24.16-1.57-10.91,25.39,4.68.17.24,24.15,35.58-.92,19.75,29.4,4-3.26,16.16-12.86,23.81Zm-6.69-1.41h5.85l12.41-22.97,2.88-14.4-29.19-3.97.96-20.56-23.73-34.95-22.89-4.22,1.27,8.88,7.04,24.36v27.42h4.63l.2.2,40.57,40.22Z"/><path class="cls-1" d="m285.44,66.62l-14.04-.95-24.89.3,3.07-15.35-29.19-3.97.96-20.56-24.65-36.31,46.11.48,38.51,3.21,6.13,23.08v.11s-1.05,23.42-1.05,23.42l8.34,8.16-11.19,12.5,1.89,5.88Zm-14-2.35l12.03.81-1.5-4.67,10.83-12.1-7.83-7.66.02-.31,1.05-23.62-5.82-21.92-37.47-3.12-43.37-.45,23.4,34.47-.92,19.75,29.4,4-3.02,15.12,23.21-.28Z"/><path class="cls-1" d="m142.57,61.31l-10.59-.53-7.29-25.89-11.75-3.29-2.97-14.85,21.04-21.04,13.36,21.08v.22s-1.79,44.3-1.79,44.3Zm-9.51-1.88l8.16.41,1.72-42.66-12.18-19.23-19.27,19.27,2.65,13.27,11.68,3.27,7.23,25.67Z"/><path class="cls-1" d="m106.35,69.97l-2.44-29.87,9.41-9.85,12.51,3.5,7.55,26.8-27.03,9.42Zm-.99-29.36l2.24,27.43,24.06-8.39-6.98-24.76-10.93-3.06-8.4,8.78Z"/><path class="cls-1" d="m152.79,176.59l-.14-.06-59.48-24.08-.02-.46-2.36-75.92,15.88-7.7,25.75-8.98,9.51.48,23.71,3.23,9.13,29.93-6.73,2.06-12.61,23.1-.69,17.99,20.28,39.42-22.23.99Zm-58.25-25.09l58.49,23.68,19.73-.88-19.45-37.8.72-18.69.08-.14,12.97-23.75,5.93-1.81-8.45-27.72-22.76-3.1-9.18-.46-25.41,8.86-14.98,7.27,2.31,74.55Z"/><path class="cls-1" d="m173.85,176.4l-20.53-39.92.72-18.69.08-.14,12.97-23.75,7.21-2.2,6.04,14.57,29.31.18,3.19,21.34v13.01s-26.15,13.64-26.15,13.64l-12.85,21.96Zm-19.11-40.23l19.19,37.31,11.76-20.1,25.76-13.43v-12.05l-3.01-20.04-29.04-.18-5.91-14.25-5.44,1.66-12.61,23.1-.69,17.99Z"/><path class="cls-1" d="m239.98,129.23l-28.44-.65-3.1-20.73-29.04-.18-6.15-14.84-8.84-29.1v-16.17h23.26l.2.2,40.57,40.22h6.9l4.64,41.24Zm-27.22-2.03l25.64.58-4.32-38.39h-6.22l-.2-.2-40.57-40.22h-21.27v14.66l8.76,28.73,5.77,13.92,29.31.18,3.11,20.75Z"/><path class="cls-1" d="m334.23,247.45l-32.15-39.95,29-5.13h27.78s-6.46,28.36-6.46,28.36l-18.17,16.71Zm-29.57-38.98l29.72,36.92,16.75-15.4,5.97-26.23h-25.9l-26.54,4.7Z"/><path class="cls-1" d="m297.75,208.69h-1.15l7.78-15.07,26.2-9.84,24.24,2.12,6.19,1.17.02,8.24-2.52,8.45h-27.24l-27.77,4.91h-5.75Zm1.15-1.41h4.47l27.83-4.92h26.25l2.16-7.25v-6.87s-4.99-.95-4.99-.95l-23.85-2.09-25.4,9.54-6.47,12.54Z"/><path class="cls-1" d="m304.81,194.96l-16.82-10.02-1.7-7.3,13.65,1.64,33.54,4.91-28.67,10.77Zm-15.58-10.92l15.72,9.37,22.93-8.62-28.12-4.12-11.64-1.4,1.11,4.77Z"/><path class="cls-1" d="m355.67,187.39l-25.09-2.2-43.85-6.09-7.08-14.71,30.38-.83.12.04,13.95,4.55h26.93l4.64,19.24Zm-24.91-3.59l23.09,2.02-3.92-16.26-26.15-.03-13.95-4.54-27.97.77,5.81,12.07,43.09,5.98Z"/><path class="cls-1" d="m293.17,132.09l-54.61-2.91-4.57-40.62,12.96-23.99,24.52-.3h.03s13.27.9,13.27.9l17.85,18.03-9.44,48.89Zm-53.35-4.25l52.2,2.78,9.07-46.96-16.95-17.12-12.71-.86-23.64.29-12.35,22.88,4.39,39Z"/><path class="cls-1" d="m345.13,146.6l-53.24-2.39v-12.99s9.2-47.56,9.2-47.56l-17.26-17.43-1.87-5.82,11.28-12.6,11.69-17.92,15.73,17.92,34.91,33.86h35.22v31.77l-33.97,13.09-11.69,20.08Zm-51.84-3.74l51.05,2.29,11.51-19.77,33.53-12.92v-29.4h-34.39l-.2-.2-35.15-34.1-14.55-16.57-10.74,16.45-10.81,12.09,1.52,4.73,17.54,17.72-9.31,48.23v11.45Z"/><path class="cls-1" d="m390.63,83.07h-35.63l-.2-.2-35.65-34.58,40.55-43.44.45.93,32.81,68.43-2.31,8.86Zm-35.06-1.41h33.97l1.91-7.31L359.32,7.32l-38.2,40.93,34.46,33.42Z"/><path class="cls-1" d="m428.97,64.34l-45.17-5.96-25.09-52.34,9.44-15.61,21.77-11.18h43.97l12.32,52.04-12.93,11.81-4.3,21.25Zm-44.23-7.26l43.11,5.69,4.13-20.41,12.66-11.56-11.87-50.15h-42.51l-21.12,10.85-8.84,14.62,24.43,50.96Z"/><path class="cls-1" d="m351.38,169.55l-27.6-.03-13.95-4.54-29.51.81-2.62-5.48,14.57-17.49,53.02,2.38,6.09,24.35Zm-27.27-1.41h25.47l-5.4-21.59-51.27-2.3-13.55,16.26,1.83,3.84,28.84-.79.12.04,13.95,4.55Z"/><path class="cls-1" d="m421.96,118.69l-32.57-5.14.02-31.36,2.04-7.84-8.38-17.49,44.78,5.91,4.13-20.41,13.17-12.03h12.56l20.72,52.17-16.27,18.72-19.55-12.06h-19.35l-1.32,29.53Zm-31.16-6.34l29.83,4.71,1.3-29.3h21.09l18.87,11.64,14.92-17.17-20.06-50.48h-11.06l-12.43,11.35-4.3,21.25-43.51-5.74,7.48,15.61-2.15,8.25v29.89Z"/><path class="cls-1" d="m552.62,283.14l-48.27-8.64-.16-.16-31.27-32.23,4.3-4.82,44.46-74.36,41.62,6.74v.61s-2.15,91.24-2.15,91.24l-11.79-4.62,3.25,26.26Zm-47.58-9.95l45.94,8.23-3.31-26.71,12.12,4.75,2.07-88.61-39.47-6.39-44.05,73.65-3.51,3.94,30.2,31.13Z"/><path class="cls-1" d="m563.14,171.06l-41.78-6.76-.47-7.93-37.92-3.74-3.11-21.5-7.2-11.88,45.78-3.15.22.18,47.49,39.17-3.02,15.61Zm-40.44-7.97l39.32,6.36,2.6-13.45-46.63-38.46-42.92,2.95,6.17,10.29,2.97,20.55,38.02,3.75.47,8.01Z"/><path class="cls-1" d="m566.21,157.31l-48.21-39.77-44.5,3.06-12.34-20.36,16.24-18.68,37.95,12.41h41.18l6.75,21.04,2.92,42.29Zm-47.75-41.21l.22.18,45.9,37.86-2.69-38.94-6.38-19.82-40.49-.04-37.17-12.16-14.95,17.2,11.36,18.75,44.2-3.04Z"/><path class="cls-1" d="m556.99,95.38l-41.96-.04-37.93-12.41-.12-.31-20.75-52.23,17.38-1.1,53.33-44.55,14.99,72.07,7.54,15.2,7.52,23.35Zm-41.63-1.41h39.7l-6.89-21.42-7.6-15.35-14.53-69.86-51.89,43.34-15.91,1.01,19.91,50.12,37.2,12.17Z"/><path class="cls-1" d="m473.9,243.11l-7.88-8.12v-52.26l.09-.16,17.1-31.35,39.03,3.85.52,8.78-44.41,74.25-4.44,5Zm-6.47-8.69l6.43,6.63,3.36-3.76,44.11-73.77-.42-7.15-36.91-3.64-16.57,30.37v51.33Z"/><path class="cls-1" d="m419.44,236.54v-17.51l13.76-15.22,34.23,21.08v10.51l-47.99,1.15Zm1.41-16.97v15.53l45.17-1.08v-8.35l-32.56-20.05-12.61,13.95Z"/><path class="cls-1" d="m467.43,226.53l-34.86-21.47,2.77-19.04,17.5-3.81h14.59v44.32Zm-33.34-22.18l31.93,19.66v-40.4h-13.11l-16.32,3.57-2.5,17.17Z"/><path class="cls-1" d="m435.57,187.41l-10.85-22.84-5.28-10.85v-10.98l65.26,8.68-17.56,32.2h-14.23l-17.35,3.79Zm-14.72-34.01l5.14,10.57,10.37,21.83,16.48-3.59h13.47l16.18-29.67-61.64-8.2v9.05Z"/><path class="cls-1" d="m427.59,277.43l-27.42-6.19-.15-.27-16.9-30.2,10.45-4.59,26.54-1.05,48.27-1.15-40.8,43.47Zm-26.5-7.43l26.02,5.88,37.95-40.43-44.9,1.07-26.4,1.05-8.66,3.85,15.99,28.58Z"/><path class="cls-1" d="m357.53,249.15l-6.49-18.74.05-.2,6.22-27.35,2.5-8.37,19.4.47,1.82-8.84,44.65-22.82,11.01,23.18-2.7,18.53-13.14,14.55v16.93l-27.08,1.08-9.37,4.16-26.86,7.42Zm-5.03-18.82l5.93,17.12,25.5-7.03,9.65-4.24,25.87-1.03v-16.12l13.22-14.63,2.57-17.68-10.21-21.49-42.76,21.85-1.93,9.33-19.5-.47-2.18,7.31-6.16,27.08Z"/><path class="cls-1" d="m380.35,196.4l-20.72-.5v-7.66s-5.44-1.03-5.44-1.03l-4.38-18.19-5.81-23.24,11.87-20.38,34.16-13.16,32.01,5.05-1.17,26.28v9.84l5.44,11.19-44.02,22.49-1.93,9.33Zm-19.32-1.87l18.18.44,1.82-8.84,43.39-22.17-4.98-10.24v-10.21s1.12-25.03,1.12-25.03l-30.39-4.79-33.34,12.85-11.33,19.46,5.67,22.69,4.17,17.32,5.68,1.08v7.45Z"/><path class="cls-1" d="m484.43,152.79l-65.01-8.64,2.51-56.39h21.09l19.52,12.04,18.71,30.98,3.18,22.01Zm-63.55-9.87l61.89,8.23-2.89-20.03-18.36-30.31-18.89-11.65h-19.35l-2.39,53.76Z"/><path class="cls-1" d="m408.11,416.3l-30.82-8.04,1.68-49.54,33.61,24.91.54,18.58-.05.12-4.96,13.97Zm-29.37-9.12l28.48,7.43,4.48-12.63-.51-17.63-30.9-22.9-1.55,45.73Z"/><path class="cls-1" d="m273.83,414.71l-56.62-13.68.17-.69,14.98-59.46,44.89-12.29,7.63,2.31,11.96-.88,12.43,3.91,20,2.31,9.12,27.89,14.11-.16,3.38-9.49,24.47,5.05-1.66,49.06-34.84-7.35-70.03,13.48Zm-54.91-14.71l54.94,13.27,70.01-13.47.14.03,33.34,7.03,1.56-46.21-22.11-4.56-3.3,9.26-16.12.19-9.16-28.01-19.24-2.23-12.31-3.85-11.95.88-7.49-2.26-43.7,11.97-14.61,57.97Z"/><path class="cls-1" d="m159.02,456.66l-14.6-12.87,1.84-10.13-37.02-14.2-9.41-25.86-17.79-11.98-12.01-15.51,11.68-1.36,4.72,5.41,1.26-5.66-5-6.09-8.82-1.42-10.48-4.76-.11-.15-11.34-15.5-11.09-2.96,4.63-5.97-5.35-13.96,2.29-5.28-7.91-10.47,2.79-14.42-12.11-9.46-7.09,5.91-11.98-11.98,73.08.54,65.79-64.55,18.44,27.75,45.19,14.3,3.85,30.77h15.74l6.63-8.37,36.01-7.6,1.27,15.29,8.13,7.6-.02.33-2.11,37.79-.19,8.06-44.4,12.16-14.83,58.86-1.35,1.26-58.33,54.51Zm-13.08-13.4l13.05,11.5,58.44-54.62,14.93-59.26,44.19-12.1.16-7.04,2.09-37.49-8.04-7.52-1.19-14.24-33.95,7.17-6.73,8.5h-17.66l-3.89-31.11-44.81-14.18-.14-.21-17.64-26.54-64.99,63.77h-.29s-69.94-.52-69.94-.52l8.64,8.64,6.97-5.81,13.68,10.69-2.83,14.65,8.03,10.62-2.39,5.5,5.43,14.16-3.81,4.92,9.53,2.54,11.52,15.75,10.06,4.57,9.08,1.43,5.78,7.03-2.02,9.04-6.06-6.95-8.47.99,10.42,13.45,17.91,12.02,9.34,25.69,37.51,14.39-1.91,10.49Z"/><path class="cls-1" d="m228.89,278.18h-17.66l-4.08-32.64,10.69,3.38,32.35-36.86,14,16.94.03.17,6.82,33.03-35.42,7.47-6.73,8.5Zm-16.42-1.41h15.74l6.63-8.37,34.54-7.29-6.5-31.49-12.72-15.4-31.87,36.31-9.47-3,3.65,29.23Z"/><path class="cls-1" d="m218.29,250.54l-55.75-17.64-.14-.21-18.28-27.51,8.25-29.98,21.59-.96,38.27,9.55h43.33l-.02,6.76-4.72,22.92-32.53,37.07Zm-10.09-4.67l9.64,3.05,31.68-36.1,4.63-22.48v-5.14l-42.18-.02-38.16-9.53-20.36.91-7.81,28.38,17.79,26.77,44.76,14.16Z"/><path class="cls-1" d="m254.16,191.25v-6.05l-42.18-.02-39.17-9.78,12.88-22.02,25.76-13.43v-12.77l27.76.63,54.09,2.88v13.11l-13.94,16.72,8.53,17.78,1.57,6.76-35.3,6.19Zm-41.92-7.46h43.33v5.78l32.19-5.65-1.22-5.24-8.83-18.38,14.19-17.03v-11.27l-52.74-2.81-26.3-.6v12.19l-26.15,13.64-11.73,20.05,37.27,9.3Z"/><path class="cls-1" d="m286.09,230.02h-22.89l-13.78-16.69,4.85-23.53,34.48-6.05,17.06,10.17-7.43,14.39-12.28,21.71Zm-22.23-1.41h21.41l11.87-20.97,6.81-13.19-15.48-9.22-33.02,5.79-4.52,21.94,12.93,15.66Z"/><path class="cls-1" d="m276.67,322.52l2.13-38.25-8.04-7.52-1.25-15.03-6.84-33.1h22.6l12.07-21.33h6.37l31.25,38.83.04.16,8.63,40.34,7.19,7.19-10.66,8.96-.49,12.39-31.25-3.1-20.01,9.83-11.74.63Zm-4.55-46.42l8.13,7.6-.02.33-2.07,37.01,10.03-.54,19.97-9.87.2.02,29.96,2.97.45-11.52,9.96-8.38-6.4-6.4-.04-.2-8.64-40.38-30.62-38.04h-4.88l-12.07,21.33h-21.69l6.5,31.5,1.22,14.58Z"/><path class="cls-1" d="m337.38,365.55l-9.16-28.01-19.24-2.23-12.31-3.85-11.95.88-8.2-2.48.2-8.74,11.46-.61,19.97-9.87.2.02,30.95,3.07,11.75,11.89-4.22,4.91,10.25,24.75-3.59,10.09-16.12.19Zm-40.54-35.52l12.43,3.91,20,2.31,9.12,27.89,14.11-.16,3.09-8.66-10.37-25.05,3.94-4.58-10.48-10.61-30.25-3-20.01,9.83-10.31.55-.15,6.37,6.92,2.09,11.96-.88Z"/><path class="cls-1" d="m379.96,360.88l-24.13-4.98-10.62-25.65,3.94-4.58-10.87-11.01.49-12.57,9.96-8.38-6.4-6.4-.04-.2-8.76-40.94,18.55-17.05,5.8,16.76h0s.76,2.18.76,2.18l3.96,17.97,15.52,14.45-10.09,20.01,11.68,4.81.62,31.41,6.79,13.05-7.16,11.12Zm-23.11-6.2l22.45,4.63,6.2-9.62-6.57-12.62v-.16s-.61-30.65-.61-30.65l-12.23-5.04,10.3-20.42-15.07-14.03-4.03-18.32-5.84-16.84-16.38,15.06,8.54,39.95,7.19,7.19-10.66,8.96-.44,11.34,11.36,11.49-4.22,4.91,10,24.16Z"/><path class="cls-1" d="m378.95,338.05l-.63-31.79-12.23-5.04,10.3-20.42-15.07-14.03-4.17-18.97,27.31-7.53,16.64,29.74,26.59,6.01,12.91,11.34-28.94,42.53-5.63,2.72-13.7-1.67-13.38,7.11Zm-10.92-37.55l11.68,4.81.6,30.43,11.75-6.25,13.73,1.67,4.92-2.38,28.02-41.2-11.71-10.28-26.85-6.07-.15-.27-16.25-29.05-24.96,6.88,3.79,17.24,15.52,14.45-10.09,20.01Z"/></svg>