<svg id="Capa_1" enable-background="new 0 0 500.925 500.925" height="512" viewBox="0 0 500.925 500.925" width="512" xmlns="http://www.w3.org/2000/svg"><g><path d="m327.96 121.071-112.444 29.017c7.747-17.883 12.946-36.675 12.946-54.927 0-52.472-40.816-95.161-90.986-95.161-64.827-.007-107.066 68.267-85.246 129.915l-49.268-12.715v335.982l169.995 43.871 155.002-40 170.002 43.871v-335.982zm-67.872 210.131-31.382-26.259 39.756-40.219v-97.317l46.588-12.022 7.749 66.527 58.755 12.945-4.869 34.086-48.604 9.589zm125.72-126.126-35.683-7.863-4.736-40.661 45.667 11.785zm82.154 76.439v104.6l-57.338-21.16-49.202-62.422zm0-30.579-60.095 11.855 12.416-86.913 47.679 12.304zm-330.486-220.936c33.628 0 60.987 29.231 60.987 65.161 1.625 33.517-32.982 88.547-60.869 119.085-27.339-30.467-62.796-86.589-61.104-119.085-.001-35.93 27.357-65.161 60.986-65.161zm-70.604 134.677c23.04 43.967 57.653 80.074 59.827 82.319l10.637 10.987 10.78-10.848c1.829-1.84 26.581-27.004 48.134-61.092l42.213-10.894v77.25l-75.138 76.012-130.363-42.858v-129.628zm28.171 172.866-32.056 34.019h-30.025v-54.429zm-62.081 92.399v-28.38h42.976l50.576-53.672 45.086 14.823 35.943-36.361 34.919 29.218v92.565l-69.505 17.937zm294.998-3.871-55.498 14.322v-81.212l.186.24 59.241-45.891 60.411 76.64 75.662 27.923v44.107z"/><path d="m119.253 75.843h37.434v30h-37.434z"/></g></svg>