<svg id="_x33_0" enable-background="new 0 0 62 62" height="512" viewBox="0 0 62 62" width="512" xmlns="http://www.w3.org/2000/svg"><g><path d="m58.604 42c-.204 0-.405.02-.604.049v-23.698l-8-3.556v-10.795h-2v9.906l-4-1.778v-4.128h-2v3.239l-4-1.778v12.539h-4.764c.498-1.615.764-3.29.764-5 0-9.374-7.626-17-17-17s-17 7.626-17 17 7.626 17 17 17c2.423 0 4.811-.526 7-1.515v14.792l-.411.235c-.519-.899-1.479-1.512-2.589-1.512h-21v16h21c1.302 0 2.402-.839 2.816-2h24.015c2.937 0 5.695-1.438 7.377-3.844l6.325-9.051.061-.1c.266-.493.406-1.05.406-1.609 0-1.873-1.523-3.396-3.396-3.396zm-2.604-22.351v23.261c-.283.223-.542.48-.762.773l-3.538 4.716c-.438.584-1.037 1.01-1.7 1.281v-7.68h4v-6h-4v-1.414l-.586-.586h4.586v-6h-10.586l-2-2h10.586v-6h-12v-7.461zm-14 24.535v-2.184h-2v2h-2v-2h-2v2h-2v-2h-2v2.008c-.676.009-1.346.098-2 .257v-8.265h18v14h-5.026c.635-.838 1.026-1.87 1.026-3 0-1.302-.839-2.402-2-2.816zm-3-17.77 7.586 7.586h-15.172zm11 11.586h2v2h-2zm-4.586-8h6.586v2h-4.586zm-5.414-6v-2h10v2zm-8.862-2h-1.138v-4h-2v4h-2.602c.368-1.522.602-3.179.602-5s-.234-3.478-.602-5h5.727c.556 1.567.875 3.245.875 5 0 1.718-.296 3.397-.862 5zm-14.138 9.742c-1.176-.953-3.966-3.548-5.651-7.742h11.301c-1.684 4.194-4.474 6.789-5.65 7.742zm-7-14.742c0-1.831.256-3.496.668-5h12.665c.411 1.504.667 3.169.667 5s-.256 3.496-.668 5h-12.664c-.412-1.504-.668-3.169-.668-5zm7-14.742c1.176.953 3.966 3.548 5.651 7.742h-11.302c1.685-4.194 4.475-6.789 5.651-7.742zm13.256 7.742h-5.441c-1.239-3.515-3.211-6.069-4.797-7.695 4.445.912 8.172 3.798 10.238 7.695zm-16.275-7.695c-1.585 1.626-3.558 4.18-4.797 7.695h-5.44c2.066-3.897 5.793-6.783 10.237-7.695zm-11.106 9.695h5.727c-.368 1.522-.602 3.179-.602 5s.234 3.478.602 5h-5.727c-.556-1.567-.875-3.245-.875-5s.319-3.433.875-5zm.869 12h5.441c1.239 3.515 3.211 6.069 4.797 7.695-4.445-.912-8.172-3.798-10.238-7.695zm16.279 7.691c1.269-1.302 2.784-3.196 3.977-5.707v4.277c-1.253.662-2.591 1.145-3.977 1.43zm5.977-7.691h12v.586l-1.414 1.414h-8.586v2h6.586l-2 2h-4.586v2h2.586l-2.586 2.586v10.433c-.112.058-.231.103-.341.166l-1.659.949zm-4 35c0 .552-.449 1-1 1h-19v-12h19c.551 0 1 .448 1 1zm37.856-12.986-6.288 8.996c-1.308 1.872-3.453 2.99-5.737 2.99h-23.831v-8.42l4.651-2.658c1.057-.603 2.258-.922 3.474-.922h8.875c.551 0 1 .448 1 1 0 1.654-1.346 3-3 3h-5v2h14.5c1.878 0 3.672-.897 4.8-2.4l3.538-4.716c.414-.554 1.075-.884 1.766-.884.77 0 1.396.626 1.396 1.396 0 .213-.05.425-.144.618z"/><path d="m32 38h2v2h-2z"/><path d="m36 38h2v2h-2z"/><path d="m40 38h2v2h-2z"/><path d="m44 42h2v2h-2z"/><path d="m44 38h2v2h-2z"/></g></svg>