<?xml version="1.0" encoding="UTF-8"?><svg id="Capa_2" xmlns="http://www.w3.org/2000/svg" xmlns:xlink="http://www.w3.org/1999/xlink" viewBox="0 0 739.49 796.32"><defs><style>.cls-1{fill:#fff;}.cls-2,.cls-3{fill:#410324;}.cls-4{clip-path:url(#clippath-2);}.cls-5{fill:#dc7f37;}.cls-6{clip-path:url(#clippath-1);}.cls-7{fill:#e1e1e1;}.cls-8{opacity:.3;}.cls-9{fill-rule:evenodd;}.cls-9,.cls-10{fill:#1a2e35;}.cls-11{clip-path:url(#clippath);}.cls-12{fill:#375a64;}.cls-13{clip-path:url(#clippath-3);}.cls-3{opacity:.42;}.cls-14{fill:#960e53;}</style><clipPath id="clippath"><path class="cls-14" d="m728.27,417.41h0c-11.93,8.39-28.4,5.52-36.79-6.41l-62.44-88.77v-14.13s-7.76-4.8-7.76-4.8l35.9-25.25,2.59,9.07,14.49,7.6,60.42,85.9c8.39,11.93,5.52,28.4-6.41,36.79Z"/></clipPath><clipPath id="clippath-1"><rect class="cls-14" x="51.52" y="217.97" width="40.05" height="164.39" transform="translate(38.53 -6.64) rotate(7.26)"/></clipPath><clipPath id="clippath-2"><circle class="cls-1" cx="297.54" cy="279.18" r="18.71"/></clipPath><clipPath id="clippath-3"><circle class="cls-1" cx="382.63" cy="279.19" r="18.71"/></clipPath></defs><g id="Capa_1-2"><rect class="cls-12" x="605.04" y="183.58" width="11.9" height="126.22" transform="translate(-36.34 369.7) rotate(-32.75)"/><path class="cls-2" d="m634.61,326.6h16.49v38.45c0,1.01-.82,1.83-1.83,1.83h-12.83c-1.01,0-1.83-.82-1.83-1.83v-38.45h0Z" transform="translate(1193.68 826.44) rotate(-167.29)"/><path class="cls-14" d="m728.27,417.41h0c-11.93,8.39-28.4,5.52-36.79-6.41l-62.44-88.77v-14.13s-7.76-4.8-7.76-4.8l35.9-25.25,2.59,9.07,14.49,7.6,60.42,85.9c8.39,11.93,5.52,28.4-6.41,36.79Z"/><g class="cls-11"><ellipse class="cls-3" cx="626.09" cy="265.9" rx="74.69" ry="53.36" transform="translate(-44.33 380.93) rotate(-32.75)"/></g><path class="cls-1" d="m701.85,411.8c-.24.17-14.14-19.17-31.04-43.19-16.9-24.03-30.41-43.65-30.16-43.82s14.14,19.17,31.04,43.2c16.9,24.02,30.4,43.64,30.16,43.81Z"/><path class="cls-1" d="m711.4,405.55c-.24.17-14.01-18.98-30.74-42.77-16.74-23.8-30.11-43.23-29.87-43.4s14.01,18.98,30.75,42.78c16.73,23.79,30.11,43.22,29.86,43.39Z"/><path class="cls-1" d="m722.16,398.89c-.24.17-14-18.96-30.72-42.73-16.72-23.78-30.08-43.19-29.84-43.36s13.99,18.96,30.72,42.74c16.72,23.77,30.08,43.18,29.84,43.35Z"/><path class="cls-1" d="m730.68,391.47c-.24.17-13.96-18.91-30.64-42.62s-30-43.08-29.76-43.25,13.96,18.91,30.64,42.63c16.68,23.71,30,43.07,29.76,43.24Z"/><circle class="cls-14" cx="56.65" cy="417" r="56.64"/><path class="cls-1" d="m19.99,404.87h60.5v92.58c0,1.8-1.46,3.26-3.26,3.26H23.25c-1.8,0-3.26-1.46-3.26-3.26v-92.58h0Z" transform="translate(42.81 908.3) rotate(-172.74)"/><rect class="cls-14" x="51.52" y="217.97" width="40.05" height="164.39" transform="translate(38.53 -6.64) rotate(7.26)"/><g class="cls-6"><circle class="cls-3" cx="88.54" cy="209.17" r="56.64"/></g><polygon class="cls-3" points="46.22 340.42 48.64 351.43 50.11 358.11 77.76 367.86 42.31 363.33 46.22 340.42"/><circle class="cls-14" cx="83.65" cy="205.13" r="56.64"/><path class="cls-1" d="m58.61,118.61h60.64v85.66c0,5.57-4.52,10.08-10.08,10.08h-40.47c-5.57,0-10.08-4.52-10.08-10.08v-85.66h0Z" transform="translate(21.77 -9.91) rotate(7.26)"/><path class="cls-5" d="m459.72,458.12l-9.49,38.87s192.9,22.12,224.02-108.17l-36.89-7.23s-27.09,87.18-177.65,76.53Z"/><path class="cls-5" d="m659.63,333.19h24.82v37.24c0,1.68-1.36,3.04-3.04,3.04h-18.73c-1.68,0-3.04-1.36-3.04-3.04v-37.24h0Z" transform="translate(1249.87 845.86) rotate(-167.29)"/><rect class="cls-5" x="631.62" y="353.51" width="42.11" height="15.9" transform="translate(1209.82 857.66) rotate(-167.29)"/><rect class="cls-10" x="641.44" y="347.59" width="25.69" height="57.17" transform="translate(1181.51 -163.85) rotate(104.42)"/><path class="cls-12" d="m672.99,394.03c.46.17,2.14-5.29,3.83-12.06,1.69-6.78,2.78-12.34,2.5-12.41-.29-.07-1.85,5.37-3.54,12.15-.85,3.38-1.57,6.46-2.07,8.69-.19.9-.38,1.78-.57,2.65-.13.64-.17.94-.15.98Z"/><path class="cls-12" d="m663.03,391.46c.46.17,2.14-5.29,3.83-12.06,1.69-6.78,2.78-12.34,2.5-12.41-.29-.07-1.85,5.37-3.54,12.15-.85,3.38-1.57,6.46-2.07,8.69-.19.9-.38,1.78-.57,2.65-.13.64-.17.94-.15.98Z"/><path class="cls-12" d="m652.86,389.29c.46.17,2.14-5.29,3.83-12.06,1.69-6.78,2.78-12.34,2.5-12.41-.29-.07-1.85,5.37-3.54,12.15-.85,3.38-1.57,6.46-2.07,8.69-.19.9-.38,1.78-.57,2.65-.13.64-.17.94-.15.98Z"/><path class="cls-12" d="m643.09,386.34c.46.17,2.14-5.29,3.83-12.06,1.69-6.78,2.78-12.34,2.5-12.41-.29-.07-1.85,5.37-3.54,12.15-.85,3.38-1.57,6.46-2.07,8.69-.19.9-.38,1.78-.57,2.65-.13.64-.17.94-.15.98Z"/><path class="cls-12" d="m633.54,384.39c.46.17,2.14-5.29,3.83-12.06,1.69-6.78,2.78-12.34,2.5-12.41-.29-.07-1.85,5.37-3.54,12.15-.85,3.38-1.57,6.46-2.07,8.69-.19.91-.38,1.78-.57,2.65-.13.64-.17.94-.15.98Z"/><path class="cls-10" d="m667.82,407.22c-.01.06.3.17.98.36l1.15.32-1.05-.63c-2.16-1.29-9.04-4.78-17.43-8.3-5.18-2.18-9.95-3.97-13.43-5.16-3.48-1.2-5.68-1.82-5.72-1.68-.05.14,2.05,1.02,5.46,2.4,3.41,1.38,8.11,3.27,13.28,5.44,8.37,3.51,15.36,6.71,17.71,7.6l.1-.3c-.7-.09-1.03-.1-1.04-.05Z"/><path class="cls-10" d="m659.77,424.81c.15-.25-7.6-5.22-17.32-11.08-9.72-5.87-17.72-10.42-17.88-10.16-.15.25,7.6,5.22,17.32,11.08,9.72,5.87,17.72,10.42,17.88,10.16Z"/><path class="cls-10" d="m645.24,444.36c.19-.23-6.91-6.5-15.85-14.01-8.95-7.51-16.35-13.42-16.54-13.19-.19.23,6.91,6.5,15.85,14.01,8.94,7.51,16.35,13.42,16.54,13.19Z"/><path class="cls-10" d="m626.08,460.16c.23-.19-5.53-7.48-12.85-16.28-7.33-8.8-13.45-15.78-13.68-15.59-.23.19,5.53,7.48,12.85,16.28,7.33,8.8,13.45,15.78,13.68,15.59Z"/><path class="cls-10" d="m605.95,473.11c.25-.15-4.33-8.12-10.23-17.78-5.9-9.67-10.89-17.38-11.15-17.22-.25.15,4.32,8.12,10.23,17.78,5.9,9.66,10.89,17.38,11.15,17.22Z"/><path class="cls-10" d="m583.34,482.33c.14-.05-.45-2.21-1.47-5.69-1.14-3.81-2.52-8.44-4.04-13.56-1.52-5.12-2.9-9.75-4.03-13.56-1.04-3.47-1.74-5.6-1.88-5.57-.14.04.29,2.24,1.15,5.77.86,3.52,2.15,8.37,3.73,13.67,1.58,5.3,3.14,10.06,4.35,13.48,1.21,3.42,2.05,5.5,2.19,5.46Z"/><path class="cls-10" d="m561.58,486.99c.15-.04-.28-2.09-1-5.4-.72-3.31-1.71-7.87-2.71-12.93-.99-5.06-1.8-9.66-2.38-13-.58-3.33-.96-5.4-1.11-5.38-.14.02-.03,2.12.36,5.49.39,3.37,1.08,8.01,2.07,13.1,1,5.08,2.11,9.64,3.03,12.91.91,3.27,1.6,5.26,1.74,5.22Z"/><path class="cls-10" d="m540.01,493.63c.14,0,.33-2.21.43-5.79.1-3.58.09-8.54-.15-14-.24-5.47-.66-10.4-1.07-13.96-.41-3.56-.79-5.75-.93-5.73-.15.02-.04,2.23.17,5.8.22,3.57.51,8.5.75,13.95.24,5.45.36,10.38.46,13.96.1,3.57.18,5.79.33,5.79Z"/><path class="cls-10" d="m519.57,495c.3.03,1.5-8.47,2.69-19,1.19-10.53,1.92-19.09,1.63-19.12-.29-.03-1.5,8.47-2.69,19-1.19,10.53-1.92,19.09-1.62,19.12Z"/><path class="cls-10" d="m499.47,496.85c.15.02.57-2.06,1.15-5.44.57-3.38,1.29-8.07,2.02-13.26.73-5.19,1.33-9.89,1.71-13.3.38-3.41.54-5.53.39-5.55-.15-.02-.58,2.07-1.15,5.45-.57,3.38-1.29,8.07-2.02,13.25-.73,5.18-1.33,9.88-1.71,13.29-.38,3.41-.54,5.53-.4,5.56Z"/><path class="cls-10" d="m480.28,497.38c.29.08,2.9-8.46,5.85-19.06,2.94-10.61,5.1-19.27,4.81-19.35-.29-.08-2.9,8.45-5.85,19.06-2.94,10.61-5.1,19.27-4.81,19.35Z"/><path class="cls-10" d="m465.1,495.81c.13.05.98-1.88,2.12-5.09,1.14-3.2,2.54-7.69,3.8-12.73,1.25-5.04,2.12-9.66,2.62-13.03.5-3.36.66-5.46.52-5.48-.15-.02-.58,2.03-1.27,5.35-.69,3.32-1.67,7.89-2.92,12.9-1.25,5.01-2.53,9.51-3.48,12.76-.95,3.25-1.54,5.27-1.39,5.32Z"/><path class="cls-1" d="m464.87,461.18s.16.07.5.16c.4.1.88.22,1.48.37,1.31.29,3.22.82,5.74,1.26,5,1.01,12.32,2.11,21.44,2.62,9.11.53,20.04.28,32-1.43,11.96-1.69,24.92-4.98,37.87-10.18,12.91-5.29,24.51-11.96,34.27-19.08,9.78-7.11,17.79-14.54,23.96-21.26,6.18-6.72,10.67-12.61,13.55-16.81,1.5-2.06,2.5-3.78,3.24-4.9.33-.52.59-.95.8-1.3.18-.3.26-.45.24-.46-.02,0-.13.13-.34.4-.24.33-.53.74-.89,1.24-.8,1.08-1.85,2.75-3.4,4.78-2.98,4.12-7.54,9.92-13.77,16.54-6.21,6.63-14.24,13.96-23.99,20.98-9.73,7.03-21.27,13.63-34.09,18.88-12.86,5.16-25.73,8.46-37.61,10.19-11.88,1.75-22.75,2.08-31.82,1.65-9.08-.41-16.39-1.39-21.4-2.27-2.52-.37-4.44-.84-5.76-1.06-.61-.11-1.1-.2-1.5-.27-.34-.05-.52-.07-.52-.05Z"/><path class="cls-2" d="m30.51,333.46h16.49v38.45c0,1.01-.82,1.83-1.83,1.83h-12.83c-1.01,0-1.83-.82-1.83-1.83v-38.45h0Z" transform="translate(103.49 703.39) rotate(175.77)"/><path class="cls-5" d="m76.01,341.36h24.82v37.24c0,1.68-1.36,3.04-3.04,3.04h-18.73c-1.68,0-3.04-1.36-3.04-3.04v-37.24h0Z" transform="translate(1.68 723.41) rotate(-152.78)"/><polygon class="cls-5" points="32.02 374.3 89.62 385.38 92.66 369.77 30.79 357.72 32.02 374.3"/><path class="cls-5" d="m179.1,445.95s-32.49,66.23-89.87,33.15c-42.11-24.28-11.79-89.76-11.79-89.76l-44.26-.46s-29.2,79.29,19.2,120.41c54.67,46.46,124.27,31.23,156.64-40.72l-29.93-22.62Z"/><polygon class="cls-10" points="83.62 404.38 92.66 380.09 31.44 366.26 25.78 391.32 83.62 404.38"/><path class="cls-12" d="m75.73,402.48c.44.2,2.56-5.1,4.8-11.71,2.24-6.62,3.79-12.07,3.5-12.16-.28-.09-2.28,5.21-4.52,11.82-1.12,3.3-2.09,6.31-2.77,8.49-.27.89-.53,1.74-.78,2.59-.18.63-.24.92-.23.97Z"/><path class="cls-12" d="m66,400.01c.45.17,2.17-5.28,3.9-12.04,1.73-6.77,2.86-12.32,2.57-12.39-.29-.07-1.88,5.36-3.61,12.13-.87,3.38-1.61,6.45-2.12,8.68-.2.9-.39,1.78-.58,2.64-.13.64-.17.94-.16.98Z"/><path class="cls-12" d="m55.46,398.24c.46.15,1.98-5.36,3.47-12.17,1.49-6.83,2.42-12.42,2.13-12.48-.29-.06-1.69,5.43-3.18,12.25-.75,3.41-1.38,6.5-1.81,8.75-.17.91-.33,1.79-.49,2.66-.11.65-.14.94-.12.99Z"/><path class="cls-12" d="m45.6,395.58c.46.15,1.98-5.36,3.47-12.17,1.49-6.83,2.42-12.42,2.13-12.48-.29-.06-1.69,5.43-3.18,12.25-.75,3.41-1.38,6.5-1.81,8.75-.17.91-.33,1.79-.49,2.66-.11.65-.14.94-.12.99Z"/><path class="cls-12" d="m36,393.92c.46.15,1.98-5.36,3.47-12.17,1.49-6.83,2.42-12.42,2.13-12.48-.29-.06-1.69,5.43-3.18,12.25-.75,3.41-1.38,6.5-1.81,8.75-.17.91-.33,1.79-.49,2.66-.11.65-.14.94-.12.99Z"/><path class="cls-10" d="m202.5,481.43c.08-.12-1.61-1.5-4.47-3.58-2.86-2.08-6.89-4.84-11.48-7.67-4.6-2.83-8.87-5.19-12.02-6.81-3.14-1.62-5.14-2.5-5.21-2.38-.07.14,1.8,1.26,4.84,3.04,3.04,1.78,7.24,4.24,11.82,7.06,4.57,2.82,8.66,5.47,11.62,7.38,2.96,1.92,4.81,3.08,4.9,2.96Z"/><path class="cls-10" d="m190.89,498.61c.19-.23-6.65-6.42-15.27-13.82-8.63-7.41-15.78-13.24-15.98-13.01-.19.23,6.64,6.41,15.27,13.83,8.63,7.41,15.78,13.23,15.97,13.01Z"/><path class="cls-10" d="m170.23,519.36c.12-.09-1.22-2.18-3.46-5.51-2.42-3.6-5.43-8.07-8.75-13.01-3.31-4.95-6.3-9.43-8.72-13.03-2.24-3.33-3.66-5.37-3.79-5.29-.12.08,1.07,2.26,3.15,5.7,2.08,3.44,5.05,8.13,8.46,13.22,3.42,5.09,6.63,9.62,9.02,12.84,2.39,3.23,3.96,5.16,4.08,5.08Z"/><path class="cls-10" d="m143.53,532.43c.29-.07-2.1-10.27-5.33-22.77-3.23-12.51-6.09-22.58-6.38-22.51-.29.07,2.1,10.27,5.33,22.77,3.23,12.5,6.09,22.58,6.38,22.5Z"/><path class="cls-10" d="m114.12,535.1c.3.01,1.01-10.39,1.58-23.22.58-12.84.81-23.26.51-23.27-.3-.01-1.01,10.38-1.58,23.23-.58,12.84-.81,23.26-.51,23.27Z"/><path class="cls-10" d="m86.1,530c.15.04,1.02-2.48,2.37-6.56,1.44-4.38,3.24-9.89,5.24-15.98,2.02-6.09,3.84-11.59,5.29-15.97,1.34-4.09,2.14-6.64,1.99-6.69-.14-.05-1.18,2.4-2.71,6.43-1.53,4.03-3.53,9.64-5.59,15.88-2.06,6.25-3.78,11.95-4.94,16.1-1.16,4.15-1.78,6.75-1.64,6.79Z"/><path class="cls-10" d="m61.73,514.77c.11.09,1.88-1.69,4.57-4.74,2.69-3.05,6.28-7.37,10.03-12.32,3.74-4.95,6.92-9.59,9.12-13.01,2.2-3.42,3.43-5.61,3.31-5.69-.13-.08-1.59,1.96-3.94,5.26-2.35,3.3-5.62,7.85-9.35,12.79-3.73,4.93-7.21,9.31-9.75,12.48-2.54,3.16-4.1,5.13-3.99,5.23Z"/><path class="cls-10" d="m40.49,495.61c.18.23,8.23-5.76,17.97-13.39,9.74-7.63,17.49-14,17.31-14.24-.18-.23-8.23,5.76-17.97,13.39-9.74,7.63-17.49,14-17.31,14.24Z"/><path class="cls-10" d="m27.65,470.77c.12.27,9.27-3.55,20.44-8.54,11.17-4.99,20.12-9.25,20-9.53-.12-.27-9.27,3.55-20.44,8.54-11.17,4.99-20.12,9.25-20,9.53Z"/><path class="cls-10" d="m24.94,437.78c.03.3,9.4-.43,20.93-1.62,11.53-1.19,20.85-2.4,20.82-2.69-.03-.3-9.4.43-20.93,1.62-11.53,1.19-20.85,2.4-20.82,2.69Z"/><path class="cls-10" d="m26.54,410.11c-.04.29,9.39,1.68,21.04,3.1,11.66,1.42,21.14,2.33,21.18,2.03.04-.29-9.39-1.68-21.05-3.1-11.66-1.42-21.14-2.33-21.17-2.03Z"/><g class="cls-8"><path d="m120.54,488.57c14.39.21,25.13-5.6,32.39-11.21,8.26-6.37,12.6-11.97,12.6-11.97.72,14.28-9.94,27.48-22.87,33.6-12.93,6.12-28.5,5.21-41.61-.52-6.21-2.71-12.04-6.51-16.42-11.67s-8.26-12.11-8.23-18.89c0,0,2.69,3.98,8.18,8.09,7.75,5.8,20.68,12.34,35.96,12.57Z"/></g><path class="cls-12" d="m439.3,245.75h17.59c7.7,0,13.95,6.25,13.95,13.95v37.5c0,7.7-6.25,13.95-13.95,13.95h-17.59v-65.4h0Z" transform="translate(.73 -1.19) rotate(.15)"/><path class="cls-10" d="m439.17,311.16v-.05s.17-65.45.17-65.45h.05s2.73,0,2.73,0c7.67.02,14.88,3.01,20.31,8.43l.07.07c5.44,5.46,8.42,12.72,8.4,20.43l-.02,7.79c-.02,7.71-3.04,14.95-8.5,20.38-5.46,5.44-12.72,8.42-20.43,8.4h-2.78Zm.27-65.4l-.17,65.3h2.68c7.68.03,14.91-2.95,20.35-8.36,5.45-5.42,8.46-12.63,8.47-20.31l.02-7.79c.02-7.68-2.95-14.91-8.37-20.35l-.07-.07c-5.41-5.4-12.59-8.38-20.24-8.4h-2.68Z"/><path class="cls-12" d="m214.13,243.39h17.59c7.7,0,13.95,6.25,13.95,13.95v37.5c0,7.7-6.25,13.95-13.95,13.95h-17.59v-65.4h0Z" transform="translate(448.84 560.96) rotate(-177.76)"/><path class="cls-10" d="m222.41,300.94c-.28-.28-.55-.56-.82-.85-5.23-5.66-7.95-13.02-7.65-20.72l.31-7.78c.3-7.7,3.58-14.83,9.24-20.06,5.66-5.23,13.02-7.95,20.72-7.65l2.78.11v.05s-2.56,65.4-2.56,65.4h-.05s-2.73-.11-2.73-.11c-7.31-.29-14.09-3.26-19.24-8.39Zm21.8-56.96c-7.67-.3-15.01,2.41-20.65,7.62-5.64,5.22-8.91,12.31-9.21,19.99l-.31,7.78c-.3,7.67,2.41,15.01,7.62,20.65.27.29.54.57.82.85,5.13,5.12,11.89,8.08,19.17,8.36l2.68.11,2.55-65.25-2.68-.1Z"/><rect class="cls-12" x="265.57" y="184.09" width="5.17" height="42.72" transform="translate(-20.52 30) rotate(-6.17)"/><path class="cls-2" d="m275.94,179.46c.62,5.78-3.56,10.98-9.34,11.6-5.78.62-10.98-3.56-11.6-9.34-.62-5.78,3.56-10.98,9.34-11.6,5.78-.62,10.98,3.56,11.6,9.34Z"/><rect class="cls-5" x="262.76" y="199.5" width="154.54" height="204.81" rx="16.5" ry="16.5" transform="translate(37.25 641.16) rotate(-89.85)"/><polygon class="cls-12" points="412.36 224.82 421.44 209.27 411.64 202.28 418.1 190.95 421.48 193.06 416.94 201.47 426.45 208.69 417.35 224.84 412.36 224.82"/><path class="cls-2" d="m266.15,247.72h147.86c7.71,0,13.96,6.26,13.96,13.96v35.21c0,7.71-6.26,13.96-13.96,13.96h-147.86c-7.71,0-13.96-6.26-13.96-13.96v-35.21c0-7.71,6.26-13.96,13.96-13.96Z" transform="translate(.72 -.87) rotate(.15)"/><path class="cls-2" d="m396.95,319.66s.41-.06,1.21-.11c.8-.1,2-.03,3.54-.33,3.08-.37,7.67-1.42,12.85-4.3,2.56-1.47,5.25-3.4,7.83-5.91,2.52-2.56,4.91-5.69,6.8-9.44,1.89-3.73,3.25-8.08,3.68-12.81.06-1.19.11-2.39.17-3.61,0-1.23,0-2.48,0-3.75,0-2.54,0-5.11-.36-7.72-.7-5.21-2.61-10.52-5.8-15.3-3.27-4.7-7.73-8.93-13.23-11.76-2.74-1.43-5.72-2.49-8.83-3.21-3.14-.65-6.34-.9-9.68-.85-6.66,0-13.52-.02-20.55-.03-28.13-.06-59.05-.12-91.5-.19-7.98.07-15.9,2.64-22,7.52-3.07,2.39-5.73,5.26-7.89,8.43-2.15,3.19-3.68,6.72-4.7,10.34-.55,1.81-.82,3.67-1.09,5.52-.13,1.87-.27,3.71-.24,5.6.02,3.77-.18,7.48.48,11.05,1.1,7.18,4.52,13.78,9.27,18.81,4.75,5.05,10.84,8.59,17.22,10.16,1.58.49,3.21.63,4.81.91,1.62.12,3.21.23,4.83.25,3.23.01,6.41.03,9.54.04,12.5.06,24.16.11,34.8.16,21.24.13,38.45.23,50.38.3,5.92.06,10.52.1,13.7.14,1.54.03,2.72.05,3.56.06.8.02,1.21.06,1.21.06,0,0-.41.04-1.21.05-.84.01-2.03.03-3.56.04-3.17.02-7.78.04-13.7.07-11.94,0-29.14.02-50.38.04-10.64,0-22.29-.02-34.8-.02-3.13,0-6.31,0-9.54-.01-1.61,0-3.28-.12-4.93-.24-1.64-.28-3.32-.43-4.93-.92-6.55-1.6-12.82-5.22-17.71-10.39-4.89-5.16-8.42-11.94-9.56-19.33-.68-3.7-.48-7.48-.51-11.21-.03-1.87.11-3.8.24-5.71.28-1.9.55-3.82,1.12-5.68,1.05-3.73,2.63-7.37,4.84-10.65,2.22-3.27,4.96-6.22,8.12-8.68,6.28-5.03,14.44-7.68,22.66-7.75,32.46.1,63.37.19,91.5.28,7.03.03,13.89.05,20.55.08,3.32-.04,6.69.22,9.88.9,3.19.75,6.24,1.84,9.04,3.31,5.63,2.92,10.18,7.27,13.5,12.09,3.24,4.9,5.17,10.34,5.86,15.67.36,2.66.35,5.3.33,7.82,0,1.26-.01,2.51-.02,3.75-.06,1.24-.13,2.46-.19,3.67-.47,4.82-1.88,9.24-3.83,13.02-1.94,3.79-4.4,6.95-6.98,9.53-2.64,2.52-5.37,4.45-7.99,5.91-5.27,2.86-9.92,3.85-13.03,4.15-1.55.27-2.76.16-3.56.22-.8.02-1.21,0-1.21,0Z"/><path class="cls-2" d="m433.59,185.34c-.02,5.82-4.74,10.52-10.56,10.5-5.82-.01-10.52-4.74-10.5-10.56.01-5.82,4.74-10.52,10.56-10.5,5.82.02,10.52,4.74,10.5,10.56Z"/><path class="cls-10" d="m276.01,379.01c-.07,0-.15-.83-.23-2.35-.08-1.51-.15-3.7-.22-6.4-.14-5.41-.25-12.87-.29-21.12-.04-8.25,0-15.72.1-21.13.1-5.39.3-8.79.52-8.75.05.07.07.81.11,2.35.03,1.74.08,3.88.13,6.4.06,5.66.13,13,.21,21.12.04,8.25.03,15.71-.02,21.12-.05,2.52-.09,4.66-.12,6.4-.05,1.51-.12,2.35-.19,2.35Z"/><path class="cls-10" d="m402.96,378.44c-.07,0-.15-.83-.23-2.35-.08-1.51-.15-3.7-.22-6.4-.14-5.41-.25-12.87-.29-21.12-.04-8.25,0-15.72.1-21.13.1-5.39.3-8.79.52-8.75.05.07.07.81.11,2.35.03,1.74.08,3.88.13,6.4.06,5.66.13,13,.21,21.12.04,8.25.03,15.71-.02,21.12-.05,2.52-.09,4.66-.12,6.4-.05,1.51-.12,2.35-.19,2.35Z"/><rect class="cls-10" x="285.78" y="327.97" width="107.7" height="11.82" transform="translate(-2.99 3.07) rotate(-.52)"/><path class="cls-10" d="m268.58,331.18c-.92.85-2.35.79-3.19-.12-.85-.92-.79-2.35.12-3.19.92-.85,2.35-.79,3.19.12s.79,2.35-.12,3.19Z"/><path class="cls-10" d="m267.92,356.22c-.92.85-2.35.79-3.19-.12-.85-.92-.79-2.35.12-3.19.92-.85,2.35-.79,3.19.12s.79,2.35-.12,3.19Z"/><path class="cls-10" d="m413.05,329.74c-.92.85-2.35.79-3.19-.12-.85-.92-.79-2.35.12-3.19.92-.85,2.35-.79,3.19.12s.79,2.35-.12,3.19Z"/><path class="cls-10" d="m412.39,354.78c-.92.85-2.35.79-3.19-.12-.85-.92-.79-2.35.12-3.19.92-.85,2.35-.79,3.19.12s.79,2.35-.12,3.19Z"/><path class="cls-1" d="m219.92,285.97c-.17-.03.19-2.46-.39-6.37-.24-1.96-.68-4.28-.86-6.94-.2-2.66.14-5.68,1.16-8.6,2.05-5.92,6.32-10.04,9.76-12.07,1.72-1.07,3.27-1.61,4.33-1.96,1.09-.28,1.7-.39,1.71-.32.07.21-2.39.72-5.64,2.92-3.22,2.13-7.2,6.15-9.15,11.79-2.11,5.64-.84,11.16-.56,15.11.39,4-.24,6.49-.37,6.45Z"/><path class="cls-1" d="m400.8,231.81c0,.3-30.51.13-68.12-.38-37.63-.51-68.12-1.16-68.11-1.45,0-.3,30.5-.13,68.13.38,37.61.51,68.11,1.16,68.1,1.45Z"/><path class="cls-1" d="m258.63,184.26c-.1.06-.76-.76-1.1-2.4-.34-1.6-.21-4.08,1.2-6.27,1.43-2.19,3.64-3.32,5.24-3.66,1.63-.36,2.65-.1,2.64.02,0,.17-.99.19-2.43.71-1.42.49-3.3,1.61-4.55,3.52-1.23,1.91-1.48,4.09-1.35,5.58.12,1.52.5,2.43.35,2.5Z"/><path class="cls-1" d="m415.91,189c-.1.06-.81-.84-1.11-2.62-.32-1.73-.05-4.42,1.66-6.67,1.74-2.24,4.27-3.17,6.02-3.31,1.8-.16,2.85.3,2.81.41-.03.17-1.09,0-2.7.34-1.59.31-3.78,1.27-5.28,3.22-1.5,1.96-1.86,4.31-1.76,5.93.09,1.64.52,2.63.36,2.7Z"/><path class="cls-1" d="m459.54,255.96c-.24.23-2.93-2.76-7.37-4.63-4.41-1.94-8.43-1.84-8.42-2.18-.08-.26,4.17-.86,8.85,1.19,4.7,2,7.18,5.49,6.94,5.62Z"/><path class="cls-1" d="m243.15,351.43c-.3,0-.38-9.69-.19-21.63.19-11.94.59-21.62.89-21.61.3,0,.38,9.69.19,21.63-.19,11.94-.59,21.61-.89,21.61Z"/><rect class="cls-5" x="234.8" y="639.94" width="88.36" height="125.24"/><path class="cls-10" d="m229.4,763.02h99.16c3.15,0,5.7,2.56,5.7,5.7v7.19h-110.57v-7.19c0-3.15,2.56-5.7,5.7-5.7Z"/><rect class="cls-5" x="213.62" y="775.92" width="134.2" height="20.4"/><path class="cls-10" d="m322.73,751.41c0,.3-19.59.54-43.75.54s-43.75-.24-43.75-.54,19.58-.54,43.75-.54,43.75.24,43.75.54Z"/><path class="cls-10" d="m322.73,736.52c0,.3-19.59.54-43.75.54s-43.75-.24-43.75-.54,19.58-.54,43.75-.54,43.75.24,43.75.54Z"/><path class="cls-10" d="m322.73,721.89c0,.3-19.59.54-43.75.54s-43.75-.24-43.75-.54,19.58-.54,43.75-.54,43.75.24,43.75.54Z"/><path class="cls-10" d="m322.73,707c0,.3-19.59.54-43.75.54s-43.75-.24-43.75-.54,19.58-.54,43.75-.54,43.75.24,43.75.54Z"/><path class="cls-10" d="m322.73,692.37c0,.3-19.59.54-43.75.54s-43.75-.24-43.75-.54,19.58-.54,43.75-.54,43.75.24,43.75.54Z"/><path class="cls-10" d="m322.73,677.48c0,.3-19.59.54-43.75.54s-43.75-.24-43.75-.54,19.58-.54,43.75-.54,43.75.24,43.75.54Z"/><path class="cls-10" d="m322.73,662.85c0,.3-19.59.54-43.75.54s-43.75-.24-43.75-.54,19.58-.54,43.75-.54,43.75.24,43.75.54Z"/><path class="cls-10" d="m322.73,647.96c0,.3-19.59.54-43.75.54s-43.75-.24-43.75-.54,19.58-.54,43.75-.54,43.75.24,43.75.54Z"/><g class="cls-8"><polygon points="234.8 657.39 322.73 654.95 322.73 642.18 234 642.18 234.8 657.39"/></g><rect class="cls-5" x="373.2" y="639.94" width="88.36" height="125.24"/><path class="cls-10" d="m367.8,763.02h99.16c3.15,0,5.7,2.56,5.7,5.7v7.19h-110.57v-7.19c0-3.15,2.56-5.7,5.7-5.7Z"/><rect class="cls-5" x="352.02" y="775.92" width="134.2" height="20.4"/><path class="cls-10" d="m461.13,751.41c0,.3-19.59.54-43.75.54s-43.75-.24-43.75-.54,19.58-.54,43.75-.54,43.75.24,43.75.54Z"/><path class="cls-10" d="m461.13,736.52c0,.3-19.59.54-43.75.54s-43.75-.24-43.75-.54,19.58-.54,43.75-.54,43.75.24,43.75.54Z"/><path class="cls-10" d="m461.13,721.89c0,.3-19.59.54-43.75.54s-43.75-.24-43.75-.54,19.58-.54,43.75-.54,43.75.24,43.75.54Z"/><path class="cls-10" d="m461.13,707c0,.3-19.59.54-43.75.54s-43.75-.24-43.75-.54,19.58-.54,43.75-.54,43.75.24,43.75.54Z"/><path class="cls-10" d="m461.13,692.37c0,.3-19.59.54-43.75.54s-43.75-.24-43.75-.54,19.58-.54,43.75-.54,43.75.24,43.75.54Z"/><path class="cls-10" d="m461.13,677.48c0,.3-19.59.54-43.75.54s-43.75-.24-43.75-.54,19.58-.54,43.75-.54,43.75.24,43.75.54Z"/><path class="cls-10" d="m461.13,662.85c0,.3-19.59.54-43.75.54s-43.75-.24-43.75-.54,19.58-.54,43.75-.54,43.75.24,43.75.54Z"/><path class="cls-10" d="m461.13,647.96c0,.3-19.59.54-43.75.54s-43.75-.24-43.75-.54,19.58-.54,43.75-.54,43.75.24,43.75.54Z"/><g class="cls-8"><polygon points="373.2 657.39 461.13 654.95 461.13 642.18 372.4 642.18 373.2 657.39"/></g><path class="cls-2" d="m188.05,424.26h11.3v104.31h-11.3c-4.95,0-8.96-4.02-8.96-8.96v-86.38c0-4.95,4.02-8.96,8.96-8.96Z"/><path class="cls-2" d="m497.94,424.26h11.39c4.9,0,8.88,3.98,8.88,8.88v86.55c0,4.9-3.98,8.88-8.88,8.88h-11.39v-104.31h0Z"/><rect class="cls-5" x="194.01" y="403.9" width="308.5" height="227.13" rx="14.12" ry="14.12"/><path class="cls-1" d="m387.51,428.03c-39.05,0-70.7,31.65-70.7,70.7h141.4c0-39.05-31.65-70.7-70.7-70.7Z"/><path class="cls-7" d="m444.46,495.29c2.97-.03,5.66-.03,7.61.01,1.95.04,3.15.11,3.15.2,0,.09-1.2.17-3.15.23-1.95.06-4.63.09-7.61.09-2.97-.03-5.66-.05-7.6-.07-.97-.03-1.76-.05-2.31-.06-.54-.02-.85-.05-.85-.08,0-.03.3-.06.84-.09.54-.02,1.33-.05,2.3-.09,1.95-.04,4.63-.09,7.6-.14Z"/><path class="cls-7" d="m439.52,473.93c5.36-2.56,9.83-4.37,9.98-4.04.15.33-4.12,2.56-9.54,4.99-5.42,2.43-9.89,4.24-9.98,4.04-.09-.2,4.18-2.43,9.54-4.99Z"/><path class="cls-7" d="m426.26,456.45c3.92-4.46,7.31-7.89,7.58-7.65.26.24-2.78,3.98-6.79,8.35-4.01,4.37-7.41,7.8-7.57,7.65-.17-.15,2.88-3.89,6.79-8.35Z"/><path class="cls-7" d="m407.35,445.29c2.02-5.59,3.92-10.02,4.25-9.9.33.12-1.13,4.72-3.26,10.26-2.13,5.54-4.03,9.97-4.25,9.89-.21-.08,1.25-4.68,3.26-10.26Z"/><path class="cls-7" d="m385.68,441.61c-.06-5.94.18-10.76.53-10.76.35,0,.58,4.82.53,10.76-.06,5.94-.29,10.75-.53,10.75-.23,0-.47-4.81-.53-10.75Z"/><path class="cls-7" d="m364.08,445.65c-2.13-5.55-3.59-10.14-3.26-10.26s2.23,4.31,4.25,9.9c2.01,5.58,3.47,10.18,3.26,10.26-.21.08-2.12-4.35-4.24-9.89Z"/><path class="cls-7" d="m345.36,457.16c-4.02-4.38-7.06-8.12-6.79-8.35.27-.24,3.66,3.19,7.58,7.65,3.92,4.46,6.96,8.2,6.79,8.35-.17.15-3.56-3.27-7.58-7.65Z"/><path class="cls-7" d="m332.44,474.89c-5.42-2.43-9.69-4.66-9.54-4.99s4.62,1.48,9.98,4.04c5.36,2.56,9.63,4.79,9.54,4.99-.09.2-4.56-1.61-9.98-4.03Z"/><path class="cls-7" d="m327.94,495.81c-2.97,0-5.66-.03-7.61-.09-1.95-.06-3.15-.14-3.15-.23,0-.09,1.2-.16,3.15-.2,1.95-.04,4.64-.04,7.61-.01,2.97.06,5.66.11,7.6.14.97.04,1.76.07,2.3.09.54.03.84.06.84.09,0,.03-.3.05-.85.08-.54.02-1.33.04-2.31.06-1.95.02-4.63.04-7.6.07Z"/><path class="cls-1" d="m269.63,440.42c0,5.18-4.2,9.38-9.38,9.38s-9.38-4.2-9.38-9.38,4.2-9.38,9.38-9.38,9.38,4.2,9.38,9.38Z"/><path class="cls-2" d="m269.63,468.71c0,5.18-4.2,9.38-9.38,9.38s-9.38-4.2-9.38-9.38,4.2-9.38,9.38-9.38,9.38,4.2,9.38,9.38Z"/><path class="cls-10" d="m447.47,611.44s-.03-.61-.04-1.76c-.01-1.18-.02-2.87-.04-5.07-.02-4.47-.06-10.99-.1-19.37-.05-16.78-.12-40.98-.21-70.82l.4.4c-50.53.04-118.21.08-192.4.14h-.01l.54-.54c-.01,34.21-.02,67.03-.03,97.01l-.51-.51c56.1.1,104.13.18,138.18.24,17.03.06,30.56.11,39.86.14,4.63.03,8.2.05,10.66.06,1.19.01,2.11.02,2.76.03.62.01.96.03.96.03,0,0-.29.02-.9.03-.64,0-1.54.02-2.7.03-2.43.01-5.97.04-10.55.06-9.28.03-22.77.08-39.75.14-34.13.06-82.28.14-138.52.24h-.51s0-.51,0-.51c0-29.98-.02-62.8-.03-97.01v-.54s.54,0,.54,0h.01c74.19.05,141.87.1,192.4.14h.4s0,.4,0,.4c-.09,29.94-.16,54.23-.21,71.06-.04,8.34-.08,14.84-.1,19.28-.02,2.17-.03,3.83-.04,4.99-.01,1.12-.04,1.67-.04,1.67Z"/><path class="cls-10" d="m225.84,630.59h244.83v7.86c0,3.44-2.79,6.23-6.23,6.23h-232.37c-3.44,0-6.23-2.79-6.23-6.23v-7.86h0Z"/><g class="cls-8"><path d="m426.9,528.04c-.38,2.64,1.46,5.37,4,6.15,2.54.78,5.51-.36,7-2.57,1.49-2.21,1.47-5.28.1-7.56.04,1.74-.48,3.52-1.62,4.84-1.14,1.31-2.93,2.09-4.65,1.83s-3.26-1.66-3.5-3.39"/></g><path class="cls-7" d="m437.93,525.74c0,3.15-2.55,5.71-5.71,5.71s-5.71-2.55-5.71-5.71,2.55-5.71,5.71-5.71,5.71,2.55,5.71,5.71Z"/><path class="cls-10" d="m437.93,525.74c-.09,0-.12-.51-.38-1.34-.26-.82-.86-2-2.1-2.89-1.2-.89-3.14-1.37-5-.66-1.84.65-3.41,2.61-3.39,4.89-.02,2.28,1.55,4.24,3.39,4.89,1.85.71,3.79.23,5-.66,1.24-.89,1.84-2.07,2.1-2.89.27-.83.29-1.34.38-1.34.06,0,.18.51.02,1.44-.15.91-.69,2.29-2.05,3.39-1.31,1.1-3.56,1.78-5.8.99-2.21-.72-4.16-3.07-4.13-5.83-.03-2.76,1.92-5.11,4.13-5.82,2.23-.79,4.49-.12,5.8.99,1.36,1.1,1.89,2.48,2.05,3.39.16.93.03,1.45-.02,1.44Z"/><path class="cls-10" d="m434.86,523.3c.1.29-1.25.99-2.5,2.31-1.27,1.29-1.93,2.67-2.22,2.58-.28-.05-.02-1.82,1.45-3.32,1.46-1.52,3.21-1.84,3.27-1.56Z"/><path class="cls-10" d="m434.86,527.52c-.26.17-1.21-.87-2.61-1.81-1.39-.95-2.71-1.45-2.65-1.75.04-.28,1.66-.23,3.25.86,1.6,1.08,2.26,2.56,2.01,2.7Z"/><g class="cls-8"><path d="m429.57,598.65c-.38,2.64,1.46,5.37,4,6.15,2.54.78,5.51-.36,7-2.57,1.49-2.21,1.47-5.28.1-7.56.04,1.74-.48,3.52-1.62,4.84-1.14,1.31-2.93,2.09-4.65,1.83-1.72-.26-3.26-1.66-3.5-3.39"/></g><circle class="cls-7" cx="434.91" cy="596.35" r="5.71"/><path class="cls-10" d="m440.61,596.35c-.09,0-.12-.51-.38-1.34-.26-.82-.86-2-2.1-2.89-1.2-.89-3.14-1.37-5-.66-1.84.65-3.41,2.61-3.39,4.89-.02,2.28,1.55,4.24,3.39,4.89,1.85.71,3.79.23,5-.66,1.24-.89,1.84-2.07,2.1-2.89.27-.83.29-1.34.38-1.34.06,0,.18.51.02,1.44-.15.91-.69,2.29-2.05,3.39-1.31,1.1-3.56,1.78-5.8.99-2.21-.72-4.16-3.07-4.13-5.83-.03-2.76,1.92-5.11,4.13-5.82,2.23-.79,4.49-.12,5.8.99,1.36,1.1,1.89,2.48,2.05,3.39.16.93.03,1.45-.02,1.44Z"/><path class="cls-10" d="m437.54,593.91c.1.29-1.25.99-2.5,2.31-1.27,1.29-1.93,2.67-2.22,2.58-.28-.05-.02-1.82,1.45-3.32,1.46-1.52,3.21-1.84,3.27-1.56Z"/><path class="cls-10" d="m437.54,598.13c-.26.17-1.21-.87-2.61-1.81-1.39-.95-2.71-1.45-2.65-1.75.04-.28,1.66-.23,3.25.86,1.6,1.08,2.26,2.56,2.01,2.7Z"/><g class="cls-8"><path d="m263.59,527.95c-.38,2.64,1.46,5.37,4,6.15,2.54.78,5.51-.36,7-2.57s1.47-5.28.1-7.56c.04,1.74-.48,3.52-1.62,4.84-1.14,1.31-2.93,2.09-4.65,1.83-1.72-.26-3.26-1.66-3.5-3.39"/></g><circle class="cls-7" cx="268.92" cy="525.66" r="5.71"/><path class="cls-10" d="m274.63,525.66c-.09,0-.12-.51-.38-1.34-.26-.82-.86-2-2.1-2.89-1.2-.89-3.14-1.37-5-.66-1.84.65-3.41,2.61-3.39,4.89-.02,2.28,1.55,4.24,3.39,4.89,1.85.71,3.79.23,5-.66,1.24-.89,1.84-2.07,2.1-2.89.27-.83.29-1.34.38-1.34.06,0,.18.51.02,1.44-.15.91-.69,2.29-2.05,3.39-1.31,1.1-3.56,1.78-5.8.99-2.21-.72-4.16-3.07-4.13-5.83-.03-2.76,1.92-5.11,4.13-5.82,2.23-.79,4.49-.12,5.8.99,1.36,1.1,1.89,2.48,2.05,3.39.16.93.03,1.45-.02,1.44Z"/><path class="cls-10" d="m271.55,523.21c.1.29-1.25.99-2.5,2.31-1.27,1.29-1.93,2.67-2.22,2.58-.28-.05-.02-1.81,1.45-3.32,1.46-1.52,3.21-1.84,3.27-1.56Z"/><path class="cls-10" d="m271.55,527.43c-.26.17-1.21-.87-2.61-1.81-1.39-.95-2.71-1.45-2.65-1.75.04-.28,1.66-.23,3.25.86,1.6,1.08,2.26,2.56,2.01,2.7Z"/><g class="cls-8"><path d="m262.38,597.95c-.38,2.64,1.46,5.37,4,6.15,2.54.78,5.51-.36,7-2.57,1.49-2.21,1.47-5.28.1-7.56.04,1.74-.48,3.52-1.62,4.84-1.14,1.31-2.93,2.09-4.65,1.83-1.72-.26-3.26-1.66-3.5-3.39"/></g><circle class="cls-7" cx="267.71" cy="595.65" r="5.71"/><path class="cls-10" d="m273.42,595.65c-.09,0-.12-.51-.38-1.34-.26-.82-.86-2-2.1-2.89-1.2-.89-3.14-1.37-5-.66-1.84.65-3.41,2.61-3.39,4.89-.02,2.28,1.55,4.24,3.39,4.89,1.85.71,3.79.23,5-.66,1.24-.89,1.84-2.07,2.1-2.89.27-.83.29-1.34.38-1.34.06,0,.18.51.02,1.44-.15.91-.69,2.29-2.05,3.39-1.31,1.1-3.56,1.78-5.8.99-2.21-.72-4.16-3.07-4.13-5.83-.03-2.76,1.92-5.11,4.13-5.82,2.23-.79,4.49-.12,5.8.99,1.36,1.1,1.89,2.48,2.05,3.39.16.93.03,1.45-.02,1.44Z"/><path class="cls-10" d="m270.34,593.21c.1.29-1.25.99-2.5,2.31-1.27,1.29-1.93,2.67-2.22,2.58-.28-.05-.02-1.81,1.45-3.32,1.46-1.52,3.21-1.84,3.27-1.56Z"/><path class="cls-10" d="m270.34,597.43c-.26.17-1.21-.87-2.61-1.81-1.39-.95-2.71-1.45-2.65-1.75.04-.28,1.66-.23,3.25.86,1.6,1.08,2.26,2.56,2.01,2.7Z"/><g class="cls-8"><path d="m255.06,611.96c22.35,4.85,48.44,5.04,72.58,3.87,11.61-.56,24.35-1.29,33.63,5.7,2.04,1.54,4.42,3.53,6.81,2.64,3.48-1.29,3.61-7.65,7.32-7.78,1.86-.06,3.27,1.71,3.87,3.47.6,1.76.75,3.7,1.7,5.29.95,1.6,3.21,2.68,4.68,1.55,2.35-1.8-.36-5.66.53-8.49.92-2.93,5.09-3.17,7.94-2.01,2.85,1.16,5.63,3.17,8.67,2.72,2.18-.32,3.95-1.86,5.84-3,5.43-3.31,12.14-3.51,18.5-3.62,6.71-.12,13.63-.75,20.35-.87l-192.42.52Z"/></g><path class="cls-10" d="m408.93,539.1s-.36.16-1.05.37c-.7.2-1.73.46-2.99,1-2.57.96-6.08,2.84-10.07,5.71-4.03,2.81-8.48,6.69-14.11,10.12-2.83,1.68-6.01,3.19-9.56,3.97-3.54.88-7.31.71-11.03.82-7.53-.08-14.13,3.07-19.83,6.12-5.75,3.07-10.91,5.87-14.98,8.62-4.09,2.72-7.07,5.37-8.98,7.35-1.9,1.98-2.81,3.21-2.89,3.15-.03-.02.17-.34.59-.94.41-.61,1.08-1.45,1.99-2.49,1.83-2.08,4.77-4.86,8.85-7.69,4.06-2.86,9.21-5.74,14.94-8.86,2.88-1.55,5.95-3.14,9.34-4.35,3.36-1.25,7.14-1.93,10.93-1.97,3.78-.11,7.45.06,10.84-.78,3.4-.74,6.5-2.17,9.28-3.79,5.55-3.32,10.06-7.14,14.18-9.89,4.08-2.82,7.72-4.63,10.36-5.48,1.31-.48,2.37-.68,3.09-.82.72-.14,1.09-.2,1.1-.16Z"/><path class="cls-10" d="m359.99,555.46c-.02.13-2.33-.12-5.99-.92-3.66-.8-8.66-2.21-13.98-4.34-5.32-2.14-9.91-4.57-13.11-6.53-3.2-1.95-5.04-3.37-4.97-3.48.09-.14,2.07,1.05,5.34,2.82,3.27,1.77,7.87,4.07,13.13,6.19,5.26,2.11,10.17,3.62,13.76,4.6,3.59.98,5.84,1.5,5.81,1.66Z"/><path class="cls-14" d="m391.04,488.04c1.57-.84,47.98-15.76,47.98-15.76l-44.35,24.87-3.63-9.1Z"/><path class="cls-10" d="m386.2,483.04c-8.66,0-15.69,7.02-15.69,15.69h31.38c0-8.66-7.02-15.69-15.69-15.69Z"/><path class="cls-10" d="m228.41,630.59c-.3,0-.54-50.43-.54-112.63s.24-112.64.54-112.64.54,50.42.54,112.64-.24,112.63-.54,112.63Z"/><path class="cls-10" d="m473.83,630.59c-.3,0-.54-50.43-.54-112.63s.24-112.64.54-112.64.54,50.42.54,112.64-.24,112.63-.54,112.63Z"/><circle class="cls-10" cx="218.11" cy="433.44" r="2.41"/><circle class="cls-10" cx="218.11" cy="478.64" r="2.41"/><circle class="cls-10" cx="218.11" cy="523.84" r="2.41"/><circle class="cls-10" cx="218.11" cy="569.03" r="2.41"/><circle class="cls-10" cx="218.11" cy="614.23" r="2.41"/><circle class="cls-10" cx="486.45" cy="433.44" r="2.41"/><circle class="cls-10" cx="486.45" cy="478.64" r="2.41"/><circle class="cls-10" cx="486.45" cy="523.84" r="2.41"/><circle class="cls-10" cx="486.45" cy="569.03" r="2.41"/><circle class="cls-10" cx="486.45" cy="614.23" r="2.41"/><rect class="cls-12" x="288.2" y="379.03" width="105.52" height="24.87"/><path class="cls-10" d="m295.81,403.9c-.3,0-.54-5.37-.54-12s.24-12,.54-12,.54,5.37.54,12-.24,12-.54,12Z"/><path class="cls-10" d="m306.65,403.9c-.3,0-.54-5.37-.54-12s.24-12,.54-12,.54,5.37.54,12-.24,12-.54,12Z"/><path class="cls-10" d="m317.48,403.9c-.3,0-.54-5.37-.54-12s.24-12,.54-12,.54,5.37.54,12-.24,12-.54,12Z"/><path class="cls-10" d="m328.32,403.9c-.3,0-.54-5.37-.54-12s.24-12,.54-12,.54,5.37.54,12-.24,12-.54,12Z"/><path class="cls-10" d="m339.15,403.9c-.3,0-.54-5.37-.54-12s.24-12,.54-12,.54,5.37.54,12-.24,12-.54,12Z"/><path class="cls-10" d="m349.98,403.9c-.3,0-.54-5.37-.54-12s.24-12,.54-12,.54,5.37.54,12-.24,12-.54,12Z"/><path class="cls-10" d="m360.82,403.9c-.3,0-.54-5.37-.54-12s.24-12,.54-12,.54,5.37.54,12-.24,12-.54,12Z"/><path class="cls-10" d="m371.65,403.9c-.3,0-.54-5.37-.54-12s.24-12,.54-12,.54,5.37.54,12-.24,12-.54,12Z"/><path class="cls-10" d="m382.49,403.9c-.3,0-.54-5.37-.54-12s.24-12,.54-12,.54,5.37.54,12-.24,12-.54,12Z"/><g class="cls-8"><path d="m518.2,457.8c2.55,12.93,4.92,25.11,7.48,38.04-2.53.31-7.49.8-7.49.8-.06-12.39.08-26.46.02-38.84"/></g><path class="cls-1" d="m201.15,428.13c.3,0-.02,38.57-.7,86.12-.69,47.57-1.48,86.12-1.78,86.11-.3,0,.02-38.56.7-86.13.69-47.55,1.48-86.11,1.78-86.1Z"/><path class="cls-1" d="m246.05,605.67c-.3,0-.54-19.2-.54-42.89s.24-42.89.54-42.89.54,19.2.54,42.89-.24,42.89-.54,42.89Z"/><path class="cls-1" d="m448.85,410.85c0,.3-47.34.54-105.72.54s-105.73-.24-105.73-.54,47.33-.54,105.73-.54,105.72.24,105.72.54Z"/><path class="cls-1" d="m314.04,12.86v24.82c-6.48,5.53-29.85,26.05-29.85,26.05h29.85v19.53c0,6.91,6.4,12.54,14.34,12.6l165.48,1.36c8.05.07,14.62-5.6,14.62-12.6V12.86c0-6.96-6.48-12.6-14.48-12.6h-165.48c-8,0-14.48,5.64-14.48,12.6Z"/><path class="cls-10" d="m314.04,12.86s0-.48.06-1.41c.13-.92.39-2.32,1.27-3.98.41-.84,1.06-1.7,1.85-2.6.83-.86,1.84-1.74,3.11-2.51,1.28-.75,2.79-1.39,4.5-1.78,1.71-.42,3.63-.46,5.6-.44,15.89-.02,38.86-.05,67.24-.09,14.19-.01,29.74-.02,46.43-.03,8.35,0,16.98,0,25.87-.01,4.45,0,8.96,0,13.53,0,2.29,0,4.59,0,6.9,0,1.16,0,2.32,0,3.49,0,.59.02,1.19.03,1.78.09.59.09,1.19.12,1.76.27,4.67.93,8.78,4.03,10.43,8.07.45.99.68,2.06.84,3.12.09,1.08.08,2.13.08,3.19,0,2.11,0,4.24,0,6.38,0,8.55,0,17.28,0,26.17,0,8.89,0,17.93,0,27.11,0,2.29,0,4.6,0,6.91,0,1.16,0,2.31,0,3.48-.03,1.18-.21,2.37-.6,3.51-.78,2.27-2.28,4.38-4.36,5.96-1.02.81-2.18,1.48-3.42,1.99-1.23.54-2.58.88-3.93,1.09-1.3.21-2.64.19-3.91.18l-3.85-.03c-2.57-.02-5.12-.04-7.67-.06-5.1-.04-10.17-.08-15.2-.13-10.07-.08-19.99-.17-29.75-.25-19.52-.17-38.39-.33-56.4-.48-18.01-.16-35.18-.31-51.3-.45-4.12-.02-8.09-1.63-10.74-4.2-2.71-2.54-4.01-6.02-3.86-9.32,0-6.54.01-12.83.02-18.86l.24.21c-10.86-.01-20.75-.02-29.85-.03h-.5s.35-.31.35-.31c12.1-10.53,22.1-19.22,29.9-26.01l-.04.08c.03-8.06.05-14.26.06-18.46.02-2.09.03-3.68.03-4.75.01-1.07.04-1.61.04-1.61,0,0,.02.54.04,1.61,0,1.08.02,2.67.03,4.75.01,4.2.04,10.4.06,18.46v.05s-.04.04-.04.04c-7.78,6.81-17.74,15.53-29.8,26.09l-.15-.31c9.1,0,18.99-.02,29.85-.03h.24s0,.21,0,.21c0,6.02.01,12.32.02,18.86-.14,3.23,1.12,6.55,3.74,9,2.56,2.47,6.38,4.02,10.35,4.03,16.12.13,33.29.26,51.3.4,18.01.14,36.88.29,56.4.45,9.76.08,19.69.16,29.75.24,5.03.04,10.1.08,15.2.12,2.55.02,5.11.04,7.67.06l3.85.03c1.3,0,2.55.03,3.8-.17,5.25-.73,9.75-4.25,11.2-8.64.37-1.09.54-2.22.58-3.36,0-1.16,0-2.31,0-3.47,0-2.31,0-4.61,0-6.91,0-9.18,0-18.22,0-27.11,0-8.89,0-17.62,0-26.17,0-2.14,0-4.26,0-6.38,0-1.06.01-2.12-.07-3.13-.16-1.02-.37-2.03-.81-2.99-1.58-3.87-5.52-6.84-10-7.74-2.22-.51-4.57-.31-6.89-.35-2.32,0-4.62,0-6.9,0-4.57,0-9.08,0-13.53,0-8.89,0-17.52,0-25.87-.01-16.69-.01-32.24-.02-46.43-.03-28.38-.04-51.35-.07-67.24-.09-1.99-.03-3.85,0-5.55.41-1.69.38-3.18,1-4.45,1.73-1.26.75-2.26,1.61-3.09,2.46-.78.88-1.44,1.73-1.86,2.56-1.73,3.33-1.32,5.38-1.45,5.34Z"/><path class="cls-2" d="m358.6,45.69c0-7.87,6.13-13.7,14.49-13.7s14.49,5.79,14.49,13.7-6.17,13.7-14.49,13.7-14.49-5.83-14.49-13.7Zm22.78,0c0-5.03-3.56-8.48-8.29-8.48s-8.29,3.44-8.29,8.48,3.56,8.48,8.29,8.48,8.29-3.44,8.29-8.48Z"/><path class="cls-2" d="m390.27,48.76c0-6.13,4.73-10.48,11.2-10.48s11.16,4.35,11.16,10.48-4.69,10.48-11.16,10.48-11.2-4.35-11.2-10.48Zm16.38,0c0-3.52-2.23-5.64-5.18-5.64s-5.22,2.12-5.22,5.64,2.27,5.64,5.22,5.64,5.18-2.12,5.18-5.64Z"/><path class="cls-2" d="m438.73,48.76c0,6.39-4.43,10.48-10.14,10.48-2.53,0-4.62-.79-6.13-2.46v9.5h-5.9v-27.7h5.64v2.35c1.48-1.78,3.67-2.65,6.39-2.65,5.71,0,10.14,4.09,10.14,10.48Zm-5.98,0c0-3.52-2.23-5.64-5.18-5.64s-5.18,2.12-5.18,5.64,2.23,5.64,5.18,5.64,5.18-2.12,5.18-5.64Z"/><path class="cls-2" d="m440.7,57.04l1.97-4.24c1.82,1.17,4.58,1.97,7.08,1.97,2.72,0,3.75-.72,3.75-1.85,0-3.33-12.3.08-12.3-8.06,0-3.86,3.48-6.58,9.42-6.58,2.8,0,5.9.64,7.83,1.78l-1.97,4.2c-2.01-1.13-4.01-1.51-5.86-1.51-2.65,0-3.78.83-3.78,1.89,0,3.48,12.3.11,12.3,8.14,0,3.78-3.52,6.47-9.61,6.47-3.44,0-6.92-.95-8.82-2.19Z"/><path class="cls-2" d="m461.88,55.79c0-1.93,1.51-3.37,3.63-3.37s3.63,1.44,3.63,3.37-1.51,3.44-3.63,3.44-3.63-1.55-3.63-3.44Zm.11-23.35h7.04l-1.17,17.29h-4.69l-1.17-17.29Z"/><path class="cls-9" d="m15.09,54.74c1.07-4.33,2.71-8.43,4.84-12.24l-6.68-10.21,14.04-14.5,10.42,6.34c3.73-2.25,7.78-4.02,12.07-5.24l2.5-11.94,20.18-.33,2.89,11.85c4.33,1.07,8.44,2.72,12.24,4.84l10.21-6.68,14.5,14.04-6.34,10.43c2.25,3.73,4.02,7.78,5.24,12.07l11.94,2.5.33,20.18-11.85,2.89c-1.07,4.33-2.72,8.44-4.84,12.24l6.68,10.21-14.04,14.5-10.43-6.34c-3.73,2.25-7.78,4.02-12.07,5.24l-2.5,11.94-20.18.33-2.89-11.85c-4.33-1.07-8.44-2.72-12.24-4.84l-10.21,6.68-14.5-14.04,6.34-10.43c-2.25-3.73-4.02-7.78-5.24-12.07l-11.94-2.5-.33-20.18,11.85-2.89h0Zm26.6,11.44c.2,11.96,10.05,21.49,22,21.3,11.96-.2,21.49-10.05,21.3-22-.2-11.96-10.05-21.49-22-21.3-11.96.2-21.49,10.05-21.3,22Z"/><path class="cls-9" d="m65.81,169.43c.67-1.95,1.59-3.78,2.72-5.45l-2.68-4.98,7.05-6.14,4.56,3.34c1.81-.89,3.75-1.55,5.78-1.94l1.63-5.41,9.32.65.86,5.58c1.95.67,3.78,1.59,5.45,2.72l4.98-2.68,6.14,7.05-3.34,4.56c.89,1.81,1.55,3.75,1.94,5.78l5.41,1.63-.65,9.32-5.58.86c-.67,1.95-1.59,3.78-2.72,5.45l2.68,4.98-7.05,6.14-4.56-3.34c-1.81.89-3.75,1.55-5.78,1.94l-1.63,5.41-9.32-.65-.86-5.58c-1.95-.67-3.78-1.59-5.45-2.72l-4.98,2.68-6.14-7.05,3.34-4.56c-.89-1.81-1.55-3.75-1.94-5.78l-5.41-1.63.65-9.32,5.58-.86h0Zm11.82,6.33c-.38,5.52,3.79,10.31,9.31,10.7,5.52.38,10.31-3.79,10.69-9.31.38-5.52-3.79-10.31-9.31-10.7-5.52-.38-10.31,3.79-10.7,9.31Z"/><path class="cls-9" d="m137.77,115.82c.92-2.83,2.21-5.48,3.8-7.91l-3.96-7.11,10.03-8.98,6.64,4.71c2.59-1.32,5.37-2.31,8.28-2.91l2.23-7.83,13.45.74,1.36,8.02c2.83.92,5.48,2.21,7.91,3.81l7.11-3.96,8.98,10.03-4.72,6.64c1.32,2.59,2.31,5.37,2.91,8.28l7.83,2.23-.74,13.45-8.02,1.36c-.92,2.83-2.21,5.49-3.8,7.91l3.96,7.11-10.03,8.98-6.64-4.72c-2.59,1.32-5.37,2.31-8.28,2.91l-2.23,7.83-13.45-.74-1.36-8.02c-2.83-.92-5.48-2.21-7.91-3.81l-7.11,3.96-8.98-10.03,4.71-6.64c-1.32-2.59-2.31-5.37-2.91-8.28l-7.83-2.23.74-13.45,8.02-1.36h0Zm17.16,8.88c-.44,7.97,5.66,14.78,13.63,15.22,7.97.44,14.78-5.66,15.22-13.63.44-7.97-5.66-14.78-13.63-15.22-7.97-.44-14.78,5.66-15.22,13.63Z"/><circle class="cls-1" cx="297.54" cy="279.18" r="18.71"/><g class="cls-4"><circle class="cls-14" cx="291.54" cy="271.18" r="14.74"/></g><circle class="cls-1" cx="301.32" cy="274.68" r="6.86"/><ellipse class="cls-2" cx="304.47" cy="298.96" rx="20.78" ry="10.24" transform="translate(-42.34 50.36) rotate(-8.84)"/><path class="cls-1" d="m52.05,319.37c-.3-.03.59-9.68,1.98-21.54,1.39-11.86,2.75-21.45,3.05-21.41.29.03-.59,9.68-1.98,21.54-1.39,11.86-2.75,21.45-3.05,21.41Z"/><path class="cls-1" d="m94.78,256.46c-.03-.33,4.68-1.25,9.72-3.5,5.08-2.18,9.42-5.34,9.71-5.13.29.11-3.77,3.76-9.16,6.08-5.36,2.37-10.34,2.8-10.27,2.54Z"/><path class="cls-1" d="m108.02,404.57c-.33.03-1.49-4.67-3.82-9.67-2.27-5.05-5.39-8.27-5.18-8.56.1-.29,3.71,2.65,6.12,8,2.46,5.32,3.14,10.31,2.87,10.24Z"/><path class="cls-12" d="m583.29,192.62l-10.11,6.28-14.11-7.08c-1.07-.53-1.85-1.5-2.15-2.66l-8.49-32.42,8.11-4.95,24.76,22.3c.83.75,1.32,1.8,1.37,2.92l.62,15.6Z"/><circle class="cls-1" cx="382.63" cy="279.19" r="18.71"/><g class="cls-13"><circle class="cls-14" cx="376.63" cy="271.19" r="14.74"/></g><circle class="cls-1" cx="386.4" cy="274.69" r="6.86"/><ellipse class="cls-2" cx="389.56" cy="298.97" rx="20.78" ry="10.24" transform="translate(-41.33 63.44) rotate(-8.84)"/><path class="cls-1" d="m579.98,187.86c-.33-.03-.66-5.55-1.56-9.4-1.11-3.4-4.21-5.06-3.95-5.25.15-.21,4.14,1.71,4.98,4.98.93,3.96.78,9.78.53,9.68Z"/><path class="cls-1" d="m631.39,307.19c-.06-.33,8.89-5.04,13.38-7.99,5.61-3.39,12.92-9.9,13.19-9.7.26.08-7.26,7.3-12.62,10.61-4.85,3.21-13.99,7.35-13.95,7.08Z"/></g></svg>