<?xml version="1.0" encoding="UTF-8"?><svg id="Capa_1" xmlns="http://www.w3.org/2000/svg" viewBox="0 0 257.45 85.74"><defs><style>.cls-1{fill:#fff;stroke-width:0px;}</style></defs><path class="cls-1" d="m25.31,43.05v.38c0,.56.2,1.16.61,1.8.41.64,1.02,1.23,1.84,1.76.82.54,1.87.98,3.15,1.34,1.28.36,2.79.54,4.53.54,2.86,0,4.85-.4,5.95-1.19,1.1-.79,1.65-1.62,1.65-2.49,0-1.28-.79-2.38-2.38-3.3-1.59-.92-4.19-1.99-7.83-3.22-2.4-.77-4.9-1.67-7.48-2.72-2.58-1.05-4.95-2.34-7.1-3.87-2.15-1.53-3.93-3.4-5.33-5.6-1.41-2.2-2.11-4.83-2.11-7.9,0-2.86.58-5.43,1.73-7.71,1.15-2.27,2.76-4.22,4.83-5.83,2.07-1.61,4.54-2.85,7.4-3.72C27.63.44,30.78,0,34.2,0s6.71.45,9.71,1.34c2.99.9,5.57,2.19,7.75,3.87,2.17,1.69,3.89,3.72,5.14,6.1,1.25,2.38,1.88,5.05,1.88,8.02v.84h-14.96v-.54c0-.72-.19-1.46-.58-2.22-.38-.77-.96-1.46-1.73-2.07-.77-.61-1.73-1.11-2.88-1.5-1.15-.38-2.49-.58-4.03-.58-2.61,0-4.48.42-5.6,1.27-1.13.84-1.69,1.78-1.69,2.8,0,1.18.75,2.17,2.26,2.99,1.51.82,4.05,1.84,7.63,3.07,2.04.72,4.37,1.6,6.98,2.65,2.61,1.05,5.05,2.38,7.33,3.99,2.27,1.61,4.19,3.58,5.75,5.91,1.56,2.33,2.34,5.13,2.34,8.4,0,2.92-.6,5.49-1.8,7.71-1.2,2.22-2.87,4.08-4.99,5.56-2.12,1.48-4.63,2.61-7.52,3.38-2.89.77-6.05,1.15-9.47,1.15s-6.92-.41-10.01-1.23c-3.1-.82-5.78-2.01-8.06-3.57-2.28-1.56-4.07-3.49-5.37-5.79-1.3-2.3-1.96-4.91-1.96-7.83v-.69h14.96Z"/><path class="cls-1" d="m64.65,1.16h45.95v14.88h-30.61v8.59h25.16v13.89h-25.16v7.67h30.61v14.81h-45.95V1.16Z"/><path class="cls-1" d="m132.69,1.16v59.84h-15.34V1.16h15.34Z"/><path class="cls-1" d="m147.13,34.03l-.17-.27c-.36-.47-.93-.75-1.53-.75-1.06,0-1.92.86-1.92,1.92s.86,1.92,1.92,1.92,1.93-.86,1.93-1.92c0-.32-.08-.64-.23-.9Z"/><path class="cls-1" d="m151.94,44.21c-1.06,0-1.92.86-1.92,1.92s.86,1.93,1.92,1.93,1.92-.87,1.92-1.93-.86-1.92-1.92-1.92Z"/><path class="cls-1" d="m161.91,45.98c-1.06,0-1.92.87-1.92,1.93s.86,1.92,1.92,1.92,1.92-.86,1.92-1.92-.86-1.93-1.92-1.93Z"/><path class="cls-1" d="m199.39,19c-1.66-3.76-3.94-7.05-6.83-9.86-.65-.63-1.32-1.23-2.02-1.79-.06,1.84-1.33,3.38-3.03,3.85v10.1h1.92l2,16.67-2,3.91,2.11,2.12-2.11,2.08-1.92-1.22,2.54,7.41,2.2,1.04c.1-.09.21-.19.31-.29,2.89-2.81,5.17-6.1,6.83-9.86,1.66-3.76,2.49-7.79,2.49-12.08s-.83-8.33-2.49-12.08Z"/><path class="cls-1" d="m185.25,11.19h0c-.33-.1-.64-.23-.93-.4.29.18.6.31.93.4Z"/><path class="cls-1" d="m182.94,57.68l-3.04-.61-1.94-3.05-3.71-2.28-.71-2.51-11.49,6.82c.09.33.13.67.13,1.02,0,1.47-.76,2.76-1.92,3.51,3.15,1.05,6.44,1.57,9.86,1.57,4.35,0,8.45-.82,12.31-2.46.65-.27,1.28-.56,1.89-.87l-1.38-1.14Z"/><path class="cls-1" d="m158.02,55.14c-1.06,0-1.92.87-1.92,1.93s.86,1.92,1.92,1.92,1.93-.86,1.93-1.92-.87-1.93-1.93-1.93Z"/><path class="cls-1" d="m183.54,12.81c.16.3.28.61.37.94-.08-.33-.21-.64-.37-.94Z"/><path class="cls-1" d="m183.91,13.75c.09.34.13.68.13,1.04,0,1.91-1.28,3.51-3.02,4.01h-.01v.02s-.05.02-.08.02c.03.03.05.05.08.07h.01s0-.09,0-.09c1.75-.49,3.04-2.1,3.04-4.01,0-.37-.05-.72-.15-1.06Z"/><path class="cls-1" d="m176.99,4.53c.6.72.95,1.64.95,2.65.01,1.89-1.27,3.52-3.01,4t-.02.01v4.31h.02v-4.3c1.75-.48,3.04-2.1,3.04-4,0-1.01-.37-1.95-.98-2.67Z"/><path class="cls-1" d="m169.13,11.15c.35.2.67.44.95.72-.28-.29-.6-.53-.95-.72Z"/><path class="cls-1" d="m170.08,11.87c.74.75,1.21,1.79,1.21,2.93v.05h.02v-.04c0-1.15-.47-2.19-1.23-2.94Z"/><path class="cls-1" d="m171.28,47.96l-10.35,6.15c-.75-.75-1.77-1.2-2.91-1.2-2.29,0-4.16,1.86-4.16,4.16,0,.21.02.42.05.62-2.25-1.31-4.3-2.87-6.15-4.67-2.89-2.81-5.18-6.1-6.87-9.86s-2.53-7.79-2.53-12.08.84-8.33,2.53-12.08c.13-.29.27-.59.41-.87l7.6,4.13,1.49-1.38,2.75,2.33,1.98,1.5.37,2.08.19.34-1.56.99-5.87,3.76c-.77-.71-1.77-1.11-2.82-1.11-2.29,0-4.16,1.87-4.16,4.16s1.87,4.16,4.16,4.16,4.17-1.87,4.17-4.16c0-.39-.05-.77-.17-1.15l4.43-2.83,2.95-1.89,2.6,4.5-.83.51c-.76-.84-1.87-1.37-3.09-1.37-.54,0-1.05.1-1.52.29-1.54.6-2.64,2.11-2.64,3.87,0,2.29,1.87,4.16,4.16,4.16.53,0,1.03-.1,1.49-.28,1.57-.6,2.68-2.11,2.68-3.88,0-.27-.03-.53-.08-.78l.95-.58.14.23-.53,1.8,2.45.44.05.09-5.08,3.42-2.62,1.77c-.76-.79-1.83-1.28-3-1.28-2.3,0-4.16,1.87-4.16,4.16s1.86,4.16,4.16,4.16,4.16-1.86,4.16-4.16c0-.31-.03-.61-.11-.89l3.15-2.13,4.66-3.13,1.86,3.11.24.17-1.7,1.18c-.66-.44-1.44-.69-2.29-.69-.57,0-1.12.11-1.61.32-1.49.63-2.55,2.11-2.55,3.84,0,2.29,1.87,4.16,4.16,4.16s4.16-1.87,4.16-4.16c0-.38-.05-.75-.16-1.1-.05-.23-.14-.46-.24-.67l2.19-1.52,1.09.76,1.17,1.96,1.16.62Z"/><path class="cls-1" d="m202.86,1.16h52.63v14.88h-18.64v44.96h-15.34V16.04h-18.64V1.16Z"/><path class="cls-1" d="m11.62,71.25v.05c0,.07.03.15.08.23.05.08.13.16.24.23.11.07.24.13.41.17.17.05.36.07.59.07.37,0,.63-.05.77-.16s.21-.21.21-.33c0-.17-.1-.31-.31-.43-.21-.12-.55-.26-1.02-.42-.31-.1-.64-.22-.98-.36-.34-.14-.65-.3-.93-.5-.28-.2-.51-.44-.69-.73-.18-.29-.27-.63-.27-1.03,0-.37.07-.71.23-1,.15-.3.36-.55.63-.76s.59-.37.96-.49.78-.17,1.23-.17.88.06,1.27.17c.39.12.73.29,1.01.5.28.22.51.49.67.79.16.31.24.66.24,1.04v.11h-1.95v-.07c0-.09-.02-.19-.08-.29s-.12-.19-.23-.27c-.1-.08-.22-.15-.38-.2-.15-.05-.32-.08-.52-.08-.34,0-.58.06-.73.17-.15.11-.22.23-.22.37,0,.15.1.28.29.39.2.11.53.24.99.4.27.09.57.21.91.34.34.14.66.31.96.52.3.21.55.47.75.77.2.3.31.67.31,1.1,0,.38-.08.71-.24,1s-.37.53-.65.72-.6.34-.98.44c-.38.1-.79.15-1.23.15s-.9-.05-1.31-.16c-.4-.11-.75-.26-1.05-.47-.3-.2-.53-.46-.7-.75s-.25-.64-.25-1.02v-.09h1.95Z"/><path class="cls-1" d="m20.27,65.79v7.8h-2v-7.8h2Z"/><path class="cls-1" d="m24.41,71.25v.05c0,.07.03.15.08.23.05.08.13.16.24.23.11.07.24.13.41.17.17.05.36.07.59.07.37,0,.63-.05.77-.16s.21-.21.21-.33c0-.17-.1-.31-.31-.43-.21-.12-.55-.26-1.02-.42-.31-.1-.64-.22-.98-.36-.34-.14-.65-.3-.93-.5-.28-.2-.51-.44-.69-.73-.18-.29-.27-.63-.27-1.03,0-.37.07-.71.23-1,.15-.3.36-.55.63-.76s.59-.37.96-.49.78-.17,1.23-.17.88.06,1.27.17c.39.12.73.29,1.01.5.28.22.51.49.67.79.16.31.24.66.24,1.04v.11h-1.95v-.07c0-.09-.02-.19-.08-.29s-.12-.19-.23-.27c-.1-.08-.22-.15-.38-.2-.15-.05-.32-.08-.52-.08-.34,0-.58.06-.73.17-.15.11-.22.23-.22.37,0,.15.1.28.29.39.2.11.53.24.99.4.27.09.57.21.91.34.34.14.66.31.96.52.3.21.55.47.75.77.2.3.31.67.31,1.1,0,.38-.08.71-.24,1s-.37.53-.65.72-.6.34-.98.44c-.38.1-.79.15-1.23.15s-.9-.05-1.31-.16c-.4-.11-.75-.26-1.05-.47-.3-.2-.53-.46-.7-.75s-.25-.64-.25-1.02v-.09h1.95Z"/><path class="cls-1" d="m30.58,65.79h6.86v1.94h-2.43v5.86h-2v-5.86h-2.43v-1.94Z"/><path class="cls-1" d="m39.46,65.79h5.99v1.94h-3.99v1.12h3.28v1.81h-3.28v1h3.99v1.93h-5.99v-7.8Z"/><path class="cls-1" d="m47.72,73.59v-7.8h2.01l2.25,4.93,2.26-4.93h2.01v7.8h-1.99v-3.67l-1.62,3.37h-1.31l-1.62-3.37v3.67h-1.99Z"/><path class="cls-1" d="m63.29,65.79l3.15,7.8h-2.18l-.43-1.14h-3.07l-.43,1.14h-2.18l3.16-7.8h1.98Zm-.99,2.56l-.86,2.29h1.71l-.85-2.29Z"/><path class="cls-1" d="m71.93,65.79h5.99v1.94h-3.99v1.12h3.28v1.81h-3.28v1h3.99v1.93h-5.99v-7.8Z"/><path class="cls-1" d="m81.83,71.25v.05c0,.07.03.15.08.23.05.08.13.16.24.23.11.07.24.13.41.17.17.05.36.07.59.07.37,0,.63-.05.77-.16s.21-.21.21-.33c0-.17-.1-.31-.31-.43-.21-.12-.55-.26-1.02-.42-.31-.1-.64-.22-.98-.36-.34-.14-.65-.3-.93-.5-.28-.2-.51-.44-.69-.73-.18-.29-.27-.63-.27-1.03,0-.37.07-.71.23-1,.15-.3.36-.55.63-.76s.59-.37.96-.49.78-.17,1.23-.17.88.06,1.27.17c.39.12.73.29,1.01.5.28.22.51.49.67.79.16.31.24.66.24,1.04v.11h-1.95v-.07c0-.09-.02-.19-.08-.29s-.12-.19-.23-.27c-.1-.08-.22-.15-.38-.2-.15-.05-.32-.08-.52-.08-.34,0-.58.06-.73.17-.15.11-.22.23-.22.37,0,.15.1.28.29.39.2.11.53.24.99.4.27.09.57.21.91.34.34.14.66.31.96.52.3.21.55.47.75.77.2.3.31.67.31,1.1,0,.38-.08.71-.24,1s-.37.53-.65.72-.6.34-.98.44c-.38.1-.79.15-1.23.15s-.9-.05-1.31-.16c-.4-.11-.75-.26-1.05-.47-.3-.2-.53-.46-.7-.75s-.25-.64-.25-1.02v-.09h1.95Z"/><path class="cls-1" d="m88,65.79h6.86v1.94h-2.43v5.86h-2v-5.86h-2.43v-1.94Z"/><path class="cls-1" d="m100.22,65.79l3.15,7.8h-2.18l-.43-1.14h-3.07l-.43,1.14h-2.18l3.16-7.8h1.98Zm-.99,2.56l-.86,2.29h1.71l-.85-2.29Z"/><path class="cls-1" d="m103.59,65.79h6.86v1.94h-2.43v5.86h-2v-5.86h-2.43v-1.94Z"/><path class="cls-1" d="m115.81,65.79l3.15,7.8h-2.18l-.43-1.14h-3.07l-.43,1.14h-2.18l3.16-7.8h1.98Zm-.99,2.56l-.86,2.29h1.71l-.85-2.29Z"/><path class="cls-1" d="m120.86,65.79h1.99v5.87h3.74v1.93h-5.73v-7.8Z"/><path class="cls-1" d="m132.43,65.79h3.62c.61,0,1.14.1,1.6.31.46.21.85.49,1.16.84.31.36.54.77.69,1.25.16.47.24.97.24,1.5s-.08,1.04-.24,1.51c-.16.47-.39.89-.69,1.24s-.69.63-1.16.84c-.46.21-1,.31-1.6.31h-3.62v-7.8Zm2,1.94v3.93h1.47c.3,0,.56-.05.79-.14s.42-.23.57-.41c.15-.17.27-.38.34-.62.08-.24.12-.51.12-.8,0-.59-.15-1.06-.46-1.42-.31-.36-.76-.54-1.36-.54h-1.47Z"/><path class="cls-1" d="m141.91,65.79h5.99v1.94h-3.99v1.12h3.28v1.81h-3.28v1h3.99v1.93h-5.99v-7.8Z"/><path class="cls-1" d="m156.28,65.79v7.8h-2v-7.8h2Z"/><path class="cls-1" d="m158.78,73.59v-7.8h1.7l3.48,4.36v-4.36h1.99v7.8h-1.69l-3.48-4.35v4.35h-2Z"/><path class="cls-1" d="m168.45,65.79h5.79v1.94h-3.8v1.38h3.19v1.81h-3.19v2.67h-1.99v-7.8Z"/><path class="cls-1" d="m176.03,69.69c0-.56.11-1.08.33-1.58.22-.49.52-.92.89-1.28.38-.37.82-.66,1.32-.87.5-.21,1.04-.32,1.59-.32s1.1.11,1.61.32c.5.21.94.5,1.32.87.38.37.67.79.89,1.28.22.49.32,1.02.32,1.58s-.11,1.08-.32,1.58c-.22.49-.51.92-.89,1.29-.38.37-.82.66-1.32.87-.5.21-1.04.32-1.61.32s-1.09-.11-1.59-.32c-.5-.21-.94-.5-1.32-.87-.38-.37-.67-.79-.89-1.29-.22-.49-.33-1.01-.33-1.58Zm2.02,0c0,.29.06.57.17.83.11.26.26.49.46.67.19.19.42.34.67.45s.53.17.83.17.58-.05.83-.17.48-.26.67-.45c.19-.19.34-.42.45-.67s.17-.54.17-.83-.05-.57-.17-.83-.26-.48-.45-.67c-.19-.19-.41-.34-.67-.45-.26-.11-.54-.17-.83-.17s-.57.06-.83.17c-.26.11-.48.26-.67.45s-.34.42-.46.67c-.11.26-.17.54-.17.83Z"/><path class="cls-1" d="m190.25,65.79c.5,0,.93.07,1.3.22.37.15.67.35.91.62.24.26.42.56.53.91.12.35.18.71.18,1.1,0,.27-.03.54-.1.8s-.16.5-.28.73c-.13.22-.29.43-.48.61-.19.18-.42.33-.68.46l1.69,2.36h-2.39l-1.48-2.09h-1.02v2.09h-1.99v-7.8h3.81Zm-1.82,1.82v2.08h1.71c.2,0,.37-.03.51-.08.14-.06.25-.13.34-.22.09-.09.15-.2.19-.33s.06-.26.06-.39c0-.3-.08-.55-.25-.75-.17-.2-.45-.3-.85-.3h-1.71Z"/><path class="cls-1" d="m195.4,73.59v-7.8h2.01l2.25,4.93,2.26-4.93h2.01v7.8h-1.99v-3.67l-1.62,3.37h-1.31l-1.62-3.37v3.67h-1.99Z"/><path class="cls-1" d="m210.97,65.79l3.15,7.8h-2.18l-.43-1.14h-3.07l-.43,1.14h-2.18l3.16-7.8h1.98Zm-.99,2.56l-.86,2.29h1.71l-.85-2.29Z"/><path class="cls-1" d="m222.99,71.5c-.17.33-.39.64-.64.91-.25.27-.54.51-.86.71-.32.2-.67.35-1.04.46-.37.11-.76.17-1.16.17-.56,0-1.09-.11-1.6-.32-.5-.21-.94-.5-1.32-.87-.38-.37-.68-.79-.9-1.29s-.33-1.01-.33-1.58.11-1.08.33-1.58c.22-.49.52-.92.9-1.28.38-.37.82-.66,1.32-.87.5-.21,1.04-.32,1.6-.32.4,0,.78.05,1.15.17s.72.26,1.04.46.61.43.86.7c.25.27.47.57.64.9l-1.82.82c-.17-.33-.43-.6-.76-.8-.33-.2-.7-.31-1.11-.31-.29,0-.57.06-.83.17-.26.11-.48.26-.67.45s-.35.42-.46.67c-.11.26-.17.54-.17.83s.05.57.17.83c.11.26.26.49.46.67.19.19.42.34.67.45s.53.17.83.17c.42,0,.79-.1,1.12-.3.33-.2.58-.47.75-.81l1.83.8Z"/><path class="cls-1" d="m226.99,65.79v7.8h-2v-7.8h2Z"/><path class="cls-1" d="m229.12,69.69c0-.56.11-1.08.33-1.58.22-.49.52-.92.9-1.28.38-.37.82-.66,1.32-.87.5-.21,1.03-.32,1.59-.32s1.1.11,1.6.32c.5.21.94.5,1.32.87.38.37.67.79.89,1.28.22.49.33,1.02.33,1.58s-.11,1.08-.33,1.58c-.22.49-.51.92-.89,1.29-.38.37-.82.66-1.32.87-.5.21-1.04.32-1.6.32s-1.09-.11-1.59-.32c-.5-.21-.94-.5-1.32-.87-.38-.37-.67-.79-.9-1.29-.22-.49-.33-1.01-.33-1.58Zm2.02,0c0,.29.05.57.17.83s.26.49.46.67c.19.19.42.34.67.45s.53.17.83.17.58-.05.83-.17.48-.26.67-.45c.19-.19.34-.42.45-.67.11-.26.17-.54.17-.83s-.06-.57-.17-.83c-.11-.26-.26-.48-.45-.67s-.41-.34-.67-.45c-.26-.11-.54-.17-.83-.17s-.57.06-.83.17c-.26.11-.48.26-.67.45s-.34.42-.46.67-.17.54-.17.83Zm.35-5.44l2.6-1.85.97,1.68-2.9,1.33-.67-1.16Z"/><path class="cls-1" d="m239.53,73.59v-7.8h1.7l3.48,4.36v-4.36h1.99v7.8h-1.69l-3.48-4.35v4.35h-2Z"/><path class="cls-1" d="m0,77.79h3.44c.52,0,.97.08,1.35.24.38.16.7.38.96.66.25.28.44.6.56.96.12.36.19.74.19,1.13,0,.41-.06.8-.19,1.17-.12.37-.31.69-.56.97-.25.28-.57.5-.96.66-.38.16-.83.25-1.35.25h-1.44v1.77H0v-7.8Zm2,1.82v2.39h1.33c.42,0,.72-.12.89-.35.17-.23.26-.52.26-.86,0-.15-.02-.3-.06-.45s-.11-.27-.2-.38c-.09-.11-.21-.2-.36-.26-.15-.06-.32-.1-.53-.1h-1.33Z"/><path class="cls-1" d="m12.44,77.79l3.15,7.8h-2.18l-.43-1.14h-3.07l-.43,1.14h-2.18l3.16-7.8h1.98Zm-.99,2.56l-.86,2.29h1.71l-.85-2.29Z"/><path class="cls-1" d="m21.3,77.79c.5,0,.93.07,1.3.22s.67.35.91.62c.24.26.42.56.53.91s.18.71.18,1.1c0,.27-.03.54-.1.8s-.16.5-.28.73c-.13.22-.29.43-.48.61-.19.18-.42.33-.68.46l1.69,2.36h-2.39l-1.48-2.09h-1.02v2.09h-1.99v-7.8h3.81Zm-1.82,1.82v2.08h1.71c.2,0,.37-.03.51-.08s.25-.13.34-.22c.09-.09.15-.2.19-.33s.06-.26.06-.39c0-.3-.08-.55-.25-.75-.17-.2-.45-.3-.85-.3h-1.71Z"/><path class="cls-1" d="m30.99,77.79l3.15,7.8h-2.18l-.43-1.14h-3.07l-.43,1.14h-2.18l3.16-7.8h1.98Zm-.99,2.56l-.86,2.29h1.71l-.85-2.29Z"/><path class="cls-1" d="m39.63,77.79h5.99v1.94h-3.99v1.12h3.28v1.81h-3.28v1h3.99v1.93h-5.99v-7.8Z"/><path class="cls-1" d="m47.89,77.79h1.99v5.87h3.74v1.93h-5.73v-7.8Z"/><path class="cls-1" d="m59.09,81.69c0-.56.11-1.08.33-1.58.22-.49.52-.92.9-1.28.38-.37.82-.66,1.32-.87.5-.21,1.04-.32,1.6-.32s1.1.11,1.6.32c.5.21.94.5,1.32.87.38.37.67.79.89,1.28.22.49.32,1.02.32,1.58s-.11,1.08-.32,1.58c-.22.49-.51.92-.89,1.29-.38.37-.82.66-1.32.87-.5.21-1.04.32-1.6.32s-1.09-.11-1.6-.32c-.5-.21-.94-.5-1.32-.87-.38-.37-.68-.79-.9-1.29-.22-.49-.33-1.01-.33-1.58Zm2.02,0c0,.29.06.57.17.83s.26.49.46.67c.19.19.42.34.67.45s.53.17.83.17.58-.05.83-.17c.26-.11.48-.26.67-.45.19-.19.34-.42.45-.67.11-.26.17-.54.17-.83s-.06-.57-.17-.83c-.11-.26-.26-.48-.45-.67s-.41-.34-.67-.45c-.26-.11-.54-.17-.83-.17s-.57.06-.83.17c-.26.11-.48.26-.67.45s-.35.42-.46.67-.17.54-.17.83Z"/><path class="cls-1" d="m73.31,77.79c.5,0,.93.07,1.3.22s.67.35.91.62c.24.26.42.56.53.91s.18.71.18,1.1c0,.27-.03.54-.1.8s-.16.5-.28.73c-.13.22-.29.43-.48.61-.19.18-.42.33-.68.46l1.69,2.36h-2.39l-1.48-2.09h-1.02v2.09h-1.99v-7.8h3.81Zm-1.82,1.82v2.08h1.71c.2,0,.37-.03.51-.08s.25-.13.34-.22c.09-.09.15-.2.19-.33s.06-.26.06-.39c0-.3-.08-.55-.25-.75-.17-.2-.45-.3-.85-.3h-1.71Z"/><path class="cls-1" d="m78.46,77.79h3.62c.61,0,1.14.1,1.6.31.46.21.85.49,1.15.84.31.36.54.77.69,1.25.16.47.24.97.24,1.5s-.08,1.04-.24,1.51c-.16.47-.39.89-.69,1.24s-.69.63-1.15.84c-.46.21-1,.31-1.6.31h-3.62v-7.8Zm2,1.94v3.93h1.47c.3,0,.56-.05.79-.14s.42-.23.57-.41c.15-.17.27-.38.34-.62.08-.24.12-.51.12-.8,0-.59-.15-1.06-.46-1.42-.31-.36-.76-.54-1.36-.54h-1.47Z"/><path class="cls-1" d="m87.94,77.79h5.99v1.94h-3.99v1.12h3.28v1.81h-3.28v1h3.99v1.93h-5.99v-7.8Z"/><path class="cls-1" d="m96.2,85.59v-7.8h1.7l3.48,4.36v-4.36h1.99v7.8h-1.69l-3.48-4.35v4.35h-2Z"/><path class="cls-1" d="m110.41,77.79l3.15,7.8h-2.18l-.43-1.14h-3.07l-.43,1.14h-2.18l3.16-7.8h1.98Zm-.99,2.56l-.86,2.29h1.71l-.85-2.29Z"/><path class="cls-1" d="m115.46,85.59v-7.8h2.01l2.25,4.93,2.26-4.93h2.01v7.8h-1.99v-3.67l-1.62,3.37h-1.31l-1.62-3.37v3.67h-1.99Z"/><path class="cls-1" d="m128.49,77.79v7.8h-2v-7.8h2Z"/><path class="cls-1" d="m130.99,77.79h5.99v1.94h-3.99v1.12h3.28v1.81h-3.28v1h3.99v1.93h-5.99v-7.8Z"/><path class="cls-1" d="m139.25,85.59v-7.8h1.7l3.48,4.36v-4.36h1.99v7.8h-1.69l-3.48-4.35v4.35h-2Z"/><path class="cls-1" d="m148.44,77.79h6.86v1.94h-2.43v5.86h-2v-5.86h-2.43v-1.94Z"/><path class="cls-1" d="m156.95,81.69c0-.56.11-1.08.33-1.58.22-.49.52-.92.9-1.28.38-.37.82-.66,1.32-.87.5-.21,1.04-.32,1.6-.32s1.1.11,1.6.32c.5.21.94.5,1.32.87.38.37.67.79.89,1.28.22.49.33,1.02.33,1.58s-.11,1.08-.33,1.58-.51.92-.89,1.29c-.38.37-.82.66-1.32.87-.5.21-1.04.32-1.6.32s-1.09-.11-1.6-.32c-.5-.21-.94-.5-1.32-.87-.38-.37-.68-.79-.9-1.29s-.33-1.01-.33-1.58Zm2.02,0c0,.29.05.57.17.83.11.26.26.49.46.67.19.19.42.34.67.45s.53.17.83.17.58-.05.83-.17c.26-.11.48-.26.67-.45s.34-.42.45-.67c.11-.26.17-.54.17-.83s-.06-.57-.17-.83c-.11-.26-.26-.48-.45-.67-.19-.19-.41-.34-.67-.45-.26-.11-.54-.17-.83-.17s-.57.06-.83.17c-.26.11-.48.26-.67.45s-.35.42-.46.67c-.11.26-.17.54-.17.83Z"/><path class="cls-1" d="m170.67,77.79h6.86v1.94h-2.43v5.86h-2v-5.86h-2.43v-1.94Z"/><path class="cls-1" d="m179.55,77.79h5.99v1.94h-3.99v1.12h3.28v1.81h-3.28v1h3.99v1.93h-5.99v-7.8Z"/><path class="cls-1" d="m191.62,77.79c.5,0,.93.07,1.3.22.37.15.67.35.91.62.24.26.42.56.53.91.12.35.18.71.18,1.1,0,.27-.03.54-.1.8s-.16.5-.28.73c-.13.22-.29.43-.48.61-.19.18-.42.33-.68.46l1.69,2.36h-2.39l-1.48-2.09h-1.02v2.09h-1.99v-7.8h3.81Zm-1.82,1.82v2.08h1.71c.2,0,.37-.03.51-.08.14-.06.25-.13.34-.22.09-.09.15-.2.19-.33s.06-.26.06-.39c0-.3-.08-.55-.25-.75-.17-.2-.45-.3-.85-.3h-1.71Z"/><path class="cls-1" d="m200.58,77.79c.5,0,.93.07,1.3.22.37.15.67.35.91.62.24.26.42.56.53.91.12.35.18.71.18,1.1,0,.27-.03.54-.1.8s-.16.5-.28.73c-.13.22-.29.43-.48.61-.19.18-.42.33-.68.46l1.69,2.36h-2.39l-1.48-2.09h-1.02v2.09h-1.99v-7.8h3.81Zm-1.82,1.82v2.08h1.71c.2,0,.37-.03.51-.08.14-.06.25-.13.34-.22.09-.09.15-.2.19-.33s.06-.26.06-.39c0-.3-.08-.55-.25-.75-.17-.2-.45-.3-.85-.3h-1.71Z"/><path class="cls-1" d="m207.73,77.79v7.8h-2v-7.8h2Z"/><path class="cls-1" d="m209.75,77.79h6.86v1.94h-2.43v5.86h-2v-5.86h-2.43v-1.94Z"/><path class="cls-1" d="m218.26,81.69c0-.56.11-1.08.33-1.58.22-.49.52-.92.89-1.28.38-.37.82-.66,1.32-.87.5-.21,1.04-.32,1.59-.32s1.1.11,1.6.32c.5.21.94.5,1.32.87.38.37.67.79.89,1.28.22.49.33,1.02.33,1.58s-.11,1.08-.33,1.58c-.22.49-.51.92-.89,1.29-.38.37-.82.66-1.32.87-.5.21-1.04.32-1.6.32s-1.09-.11-1.59-.32c-.5-.21-.94-.5-1.32-.87-.38-.37-.67-.79-.89-1.29-.22-.49-.33-1.01-.33-1.58Zm2.02,0c0,.29.06.57.17.83.11.26.26.49.46.67.19.19.42.34.67.45s.53.17.83.17.58-.05.83-.17.48-.26.67-.45c.19-.19.34-.42.45-.67.11-.26.17-.54.17-.83s-.06-.57-.17-.83c-.11-.26-.26-.48-.45-.67s-.41-.34-.67-.45c-.26-.11-.54-.17-.83-.17s-.57.06-.83.17c-.26.11-.48.26-.67.45s-.34.42-.46.67c-.11.26-.17.54-.17.83Z"/><path class="cls-1" d="m232.48,77.79c.5,0,.93.07,1.3.22s.67.35.91.62c.24.26.42.56.54.91.12.35.17.71.17,1.1,0,.27-.03.54-.09.8-.06.26-.16.5-.29.73-.13.22-.29.43-.48.61-.19.18-.42.33-.68.46l1.69,2.36h-2.39l-1.48-2.09h-1.02v2.09h-1.99v-7.8h3.81Zm-1.82,1.82v2.08h1.71c.2,0,.37-.03.51-.08.14-.06.25-.13.34-.22.09-.09.15-.2.19-.33s.06-.26.06-.39c0-.3-.08-.55-.25-.75-.17-.2-.45-.3-.85-.3h-1.71Z"/><path class="cls-1" d="m239.63,77.79v7.8h-2v-7.8h2Z"/><path class="cls-1" d="m246.67,77.79l3.15,7.8h-2.18l-.43-1.14h-3.07l-.43,1.14h-2.18l3.16-7.8h1.98Zm-.99,2.56l-.86,2.29h1.71l-.85-2.29Z"/><path class="cls-1" d="m251.72,77.79h1.99v5.87h3.74v1.93h-5.73v-7.8Z"/><path class="cls-1" d="m165.23,7.2c0-2.17-1.66-3.95-3.77-4.14,2.1.21,3.74,1.98,3.74,4.14,0,1.26-.56,2.4-1.46,3.18.91-.76,1.49-1.9,1.49-3.18Z"/><path class="cls-1" d="m162.99,7.2c0,1.06-.87,1.92-1.92,1.92s-1.93-.86-1.93-1.92.87-1.92,1.93-1.92,1.92.86,1.92,1.92Z"/><path class="cls-1" d="m169.13,11.15c.35.2.67.44.95.72-.28-.29-.6-.53-.95-.72Zm.95.72c.74.75,1.21,1.79,1.21,2.93v.05c-.02,1.88-1.29,3.47-3.02,3.97,1.74-.48,3.02-2.08,3.04-3.97v-.04c0-1.15-.47-2.19-1.23-2.94Z"/><path class="cls-1" d="m169.07,14.81v.04c-.02,1.04-.87,1.89-1.92,1.89-.81,0-1.51-.51-1.79-1.23-.08-.22-.13-.45-.13-.7,0-1.06.86-1.92,1.92-1.92s1.92.86,1.92,1.92Z"/><path class="cls-1" d="m176.99,4.53c.6.72.95,1.64.95,2.65.01,1.89-1.27,3.52-3.01,4t-.02.01v.02s.01,0,.02,0c1.75-.48,3.04-2.1,3.04-4,0-1.01-.37-1.95-.98-2.67Z"/><path class="cls-1" d="m175.74,7.2c0,1.06-.87,1.92-1.93,1.92s-1.92-.86-1.92-1.92.86-1.92,1.92-1.92,1.93.86,1.93,1.92Z"/><path class="cls-1" d="m177.65,18.31c.34.22.71.4,1.12.51v-.02c-.4-.11-.77-.27-1.12-.49Zm5.89-5.5c.16.3.28.61.37.94-.08-.33-.21-.64-.37-.94Zm.37.94c.09.34.13.68.13,1.04,0,1.91-1.28,3.51-3.02,4.01h-.01v.02h.01c1.75-.49,3.04-2.1,3.04-4.01,0-.37-.05-.72-.15-1.06Z"/><path class="cls-1" d="m181.82,14.81c0,1.06-.86,1.93-1.92,1.93s-1.93-.87-1.93-1.93.87-1.92,1.93-1.92,1.92.86,1.92,1.92Z"/><path class="cls-1" d="m184.32,10.79c.29.18.6.31.93.4h0c-.33-.1-.64-.23-.93-.4Z"/><path class="cls-1" d="m188.31,7.2c0,1.06-.86,1.92-1.92,1.92s-1.93-.86-1.93-1.92.87-1.92,1.93-1.92,1.92.86,1.92,1.92Z"/><path class="cls-1" d="m157.42,36.86c0,.97-.73,1.78-1.67,1.89-.08.02-.17.03-.26.03-1.05,0-1.92-.86-1.92-1.92,0-.65.33-1.22.82-1.57.31-.22.69-.35,1.1-.35,1.06,0,1.93.86,1.93,1.92Z"/><rect class="cls-1" x="168.26" y="18.82" width=".01" height="1.38"/><path class="cls-1" d="m174.93,11.18v10.11h-.01v-5.79s-.01-4.31-.01-4.31t.02-.01Z"/><path class="cls-1" d="m181.02,18.8v2.48h-.01v-2.37s-.05-.04-.08-.07c.03,0,.05-.01.08-.02v-.02h.01Z"/><path class="cls-1" d="m185.26,21.28h-4.25v-2.48h.01c1.74-.5,3.02-2.1,3.02-4.01,0-.36-.04-.7-.13-1.04-.09-.33-.21-.64-.37-.94-.39-.7-.96-1.28-1.66-1.66-.3-.16-.61-.29-.94-.37-.34-.1-.69-.15-1.06-.15-2.3,0-4.16,1.88-4.16,4.17,0,.34.04.68.13,1,.09.37.23.71.41,1.03.18.33.4.63.66.89.13.13.26.25.4.36.11.08.22.16.33.23.35.22.72.38,1.12.49v2.48h-3.84s-.01.01-.01.01v-5.79s-.01-4.31-.01-4.31t.02-.01c1.74-.48,3.02-2.11,3.01-4,0-1.01-.35-1.93-.95-2.65-.08-.1-.17-.2-.27-.29-.37-.36-.8-.66-1.29-.87-.12-.06-.24-.1-.37-.14-.01-.01-.03-.01-.04-.01-.25-.08-.51-.14-.78-.16-.15-.02-.31-.03-.46-.03-2.29,0-4.16,1.86-4.16,4.16.01.98.35,1.88.93,2.59.08.12.18.23.3.34.1.11.22.21.34.31.09.08.19.15.29.21.18.12.36.23.56.32.2.09.41.17.63.23v10.1s-.84,0-.84,0l-3.56-1.09h-.01v-1.38h.01c1.73-.5,3-2.09,3.02-3.97v-.05c0-1.14-.47-2.18-1.21-2.93-.28-.28-.6-.52-.95-.72-.27-.14-.55-.26-.85-.34-.21-.06-.42-.1-.64-.13-.17-.02-.34-.03-.51-.03-.42,0-.83.06-1.22.19-.11.03-.21.07-.31.11-1.54.6-2.63,2.11-2.63,3.86,0,.53.1,1.04.29,1.5.12.3.27.6.46.86.18.27.39.51.63.72.47.44,1.04.76,1.67.93v.68l-3.85-1.19v-7.1s-.01,0-.01,0c.11-.03.22-.06.32-.1.3-.11.59-.25.85-.42.14-.1.28-.2.41-.3.9-.78,1.47-1.92,1.46-3.18,0-2.16-1.64-3.93-3.74-4.14-.14-.01-.28-.02-.42-.02-.28,0-.55.03-.81.09-.41.08-.79.21-1.15.41-1.31.7-2.21,2.08-2.21,3.67.01,1.9,1.3,3.52,3.06,4v6.42s-15.44-4.77-15.44-4.77c.98-1.31,2.06-2.55,3.25-3.7,2.88-2.81,6.25-5.05,10.12-6.69,3.86-1.64,7.93-2.46,12.22-2.47,4.35,0,8.46.81,12.32,2.44.73.31,1.45.64,2.14,1-1.39.67-2.34,2.09-2.34,3.74,0,.53.1,1.04.3,1.5.1.28.24.54.4.78.36.55.85,1.01,1.42,1.33.29.17.6.3.93.39h0s.01,10.1.01,10.1Z"/><path class="cls-1" d="m184.35,58.8c.31-.15.62-.3.92-.46l-.91.47h-.01Z"/></svg>