<?xml version="1.0" encoding="UTF-8"?><svg id="Capa_1" xmlns="http://www.w3.org/2000/svg" viewBox="0 0 651.41 705.11"><defs><style>.cls-1{opacity:.25;}.cls-2{opacity:.8;}.cls-3{fill:#778288;}.cls-3,.cls-4,.cls-5,.cls-6,.cls-7,.cls-8,.cls-9,.cls-10,.cls-11,.cls-12,.cls-13{stroke-width:0px;}.cls-4{fill:#965427;}.cls-5{fill:#960e53;}.cls-6{fill:#3a3a3a;}.cls-7{fill:#094c3f;}.cls-8{fill:#217abf;}.cls-9{fill:#237469;}.cls-10{fill:#16537c;}.cls-11{fill:#dc7f37;}.cls-12{fill:#603;}.cls-13{fill:#fff;}</style></defs><rect class="cls-13" x="-37.45" y="-68.56" width="723.13" height="941.33"/><g class="cls-1"><polygon class="cls-3" points="660.59 618.77 642.29 618.73 635.04 616.53 632.27 613.13 624.16 613.6 613.94 593.26 610.67 590.95 615.62 582.16 619.13 578.65 613.01 562.8 614.11 555.75 607.28 551.34 603.66 545.61 603.89 539.71 589.41 525.09 589.38 517.28 575.19 504.14 575.11 503.92 567.52 481.68 571.53 474.39 585.53 472.8 585.64 472.82 614.05 476.29 620.28 470.9 615.75 446.45 614.49 437.62 617.57 421.76 608.66 368.9 606.3 349.89 614.38 353.06 615.75 294.88 617.58 285.45 615.75 258.93 606.76 231.01 601.73 220.79 588.63 157.82 588.07 159.86 581.91 156.44 586.84 143.4 644.41 141.25 644.41 92.61 670.61 92.61 670.61 94.46 646.26 94.46 646.26 143.04 588.14 145.2 584.21 155.6 586.91 157.11 588.89 149.96 603.52 220.3 608.5 230.37 617.59 258.69 619.44 285.56 617.59 295.16 616.17 355.75 608.52 352.75 610.49 368.63 619.45 421.78 619.42 421.94 616.37 437.67 617.58 446.15 622.29 471.6 614.65 478.23 614.24 478.18 585.52 474.67 572.69 476.12 569.54 481.86 576.79 503.1 591.23 516.47 591.26 524.33 605.77 538.98 605.53 545.1 608.63 550.01 616.13 554.85 614.92 562.6 621.29 579.11 617.02 583.38 613.1 590.4 615.38 592.02 625.27 611.68 633.11 611.23 636.12 614.93 642.7 616.92 660.59 616.92 660.59 618.77"/><polygon class="cls-3" points="510.3 145.23 379.6 145.23 360.74 139.41 327.47 126.98 284.61 110.95 271.06 106.02 171.46 68.09 163.42 64.69 138.15 54.52 35.64 15.44 36.62 -.06 42.92 -9.4 -22.32 -7.15 -22.39 -9 46.48 -11.37 38.44 .56 37.57 14.2 138.83 52.8 164.12 62.98 172.15 66.38 271.7 104.29 285.25 109.21 361.33 137.66 379.88 143.38 587.49 143.38 644.41 141.25 644.41 92.61 670.61 92.61 670.61 94.46 646.26 94.46 646.26 143.04 587.53 145.23 510.3 145.23"/><path class="cls-3" d="m97.65,523.54l-11.37-7.5-5.26-11.17-11.75,5.88,20.3-28.27.39-4.06-5.74-3.83,9.08-20.02-5.83-5.83v-5.93h-4.39v-8.8l-10.07-3.13-19.47-28.87-4.47,1.12-6.61-5.84-2.71-12.89-7.37-1.56-23.67-29.71-8.72-4.69-12.1-2.06.31-1.82,12.4,2.11,9.32,5.02,23.5,29.49,7.89,1.67,2.84,13.47,5.42,4.79,4.78-1.19,19.83,29.4,10.74,3.34v8.31h4.39v7.02l6.19,6.19-8.96,19.75,5.36,3.57-.54,5.65-16.23,22.6,6.75-3.37,5.84,12.41,10.37,6.84,117.22-14.08-3.69-4.15.46-17.76-6.97-10.46,2.53-15.89-3.54-4.13-10.96,2.06-11.1-7.9-.24-12.1-6.13-16.34-4.85-5.46-5.94,4.8-6.36-5.8,1.41-3.99-6.63-7.42-3.86,6.86-5.57-1.17-2.33-6.73,1.83-10.99-10.99-17.76,3.09-4.99-.97-3.29-57.61-52.83-3.43,3.89-9.72-7.93-2.54-11.09-8-6.4-.09-.17-13.78-26.62,3.95-26.95-4.15-18.94-1.82-33.99-11-7.26,1.43-6.91-5.3-6.99.06-.39,6.97-46.18,7.44-9.24-3.87-9.03-27.97-27.07L.27,63.73l3.26-3.25,13.91,13.03c.68-3.84,2.55-11.65,2.96-13.37l-3.15-13.93-5.9-7.87,10.52-11,2.4-13.44h11.47L36.62-.06l6.29-9.34L-22.32-7.15l-.06-1.85,68.87-2.37L38.44.56l-.96,15.18h-11.65l-2.22,12.46-9.83,10.27,5.2,6.93,3.33,14.74-.05.21c-1.29,5.35-3.21,13.77-3.21,15.04v2.13l-15.47-14.49-.91.91,3.91,5.76,28.04,27.12,4.45,10.39-7.82,9.72-6.84,45.3,5.34,7.04-1.35,6.5,10.73,7.08,1.87,34.84,4.18,19.05-3.91,26.69,13.41,25.92,8.19,6.55,2.55,11.1,7.85,6.41,3.5-3.97,59.38,54.45,1.35,4.57-2.92,4.72,10.75,17.38-1.87,11.21,1.83,5.29,3.22.68,4.46-7.93,9.09,10.16-1.37,3.87,4.28,3.91,6.08-4.91,6.25,7.03,6.36,16.96.23,11.48,9.7,6.9,11.24-2.11,4.79,5.59-2.55,16.02,6.9,10.35-.46,17.62,5.56,6.25-121.4,14.59Z"/><path class="cls-3" d="m275.66,815.08l-1.79-.46,4.83-18.63.92-32.35-10.77-35.75-7.94-9.52-4.37-4.12-.7-6.29-10.4-11.72h-2.58l-2.81,3.83-14.85-10.71-41.66-33.28-2.37-8.29-5.16-9.88-10.29,2.98,3.58-6.08,9.09-7.27,1.53-11.56-7.92-12.89,2.84-1.89-.39-5.47-6.42-4.01-2.77,2.42.73,3.26,5.79,3.86-1.76,6.53v7.89l4.47,5.88-2.32,9.54-6.14,1.37-1,11.28-15.69-10.38-13.91,13.91-16.17-12.25-3.22-13.33-15.59-8.34-6.39,3.79-22.11-20.48-4.7,1.12-18.85-9.18v-20.41l-25.89-16.26-5.09-8.63-4.63,1.03v-4.61l1.5-3-2.83-1.13-1.6,4-6.38-7.17-6.63-2.13-5.6-12.72,4.33-2.33,5.09,4.6,13.3.49,15.88,4.6,16.71,1.83,5.42-.43,13.28-10.25,5.6.93-2.94,9.57,7.67,9.86,8.37,4.18,2.96,4.74,6.83-7.49,6.75,3.6,2.46-4.75-6.09-5.11-4.45,2.73-6.21,2.33-6.8-9.32-.53-5.01,3.47-4.55-3.68-4.26-2.15-.33-5.23,6.26v-11.75l10.61-5.3,5.84,12.41,10.37,6.84,120.15-14.44-1.61,12.5,16.21,23.02,26.79,16.31,1.89,11.36,9.06,16.02v6.05l8.12,6.8,15.46,6.62-5.25,8,1.72,7.95,12.77,14.86-1.71-8.16,4.36-2.8,26.27,22.93v13.8l10.26,2.57-1.67,14.07,8.98,11.28v6.45l4.65,17.91-3.46,15.24,5.62,18.21,9.23,6.92,6.63,18.3,13.37,3.58-1.99,7.48,7.92,14.94-1.63.87-8.26-15.58,1.71-6.4-12.52-3.35-6.78-18.69-9.27-6.95-5.94-19.25,3.47-15.28-4.6-17.82v-5.92l-9.06-11.38,1.57-13.22-10.08-2.52v-14.41l-24.59-21.46-2.12,1.36,3.74,17.84,13.42,13.66-9.22,4.61-8.32-11.02-6.85-9.78,4.82-7.57-12.42-14.46-1.98-9.16,4.46-6.8-13.78-5.95-8.89-7.45v-6.43l-8.98-15.88-1.81-10.84-26.39-16.07-.11-.16-16.74-23.76,1.4-10.85-118.47,14.23-11.37-7.5-5.26-11.17-7.89,3.95v5.51l2.63-3.15,3.86.59,5.11,5.91-3.93,5.16.4,3.78,5.68,7.79,4.81-1.8,5.35-3.31,8.25,6.92-4.01,7.73-7.13-3.8-7.5,8.23-3.98-6.36-8.28-4.14-8.52-10.95,2.6-8.47-2.72-.45-13.08,10.1-6.14.49h-.09s-17.04-1.89-17.04-1.89l-15.84-4.59-13.63-.47-4.62-4.18-1.68.9,4.58,10.4,6.32,2.03,4.72,5.31,1.18-2.94,6.42,2.57-2.2,4.4v1.87l3.69-.82,5.55,9.4,26.37,16.57v20.28l17.22,8.39,5.01-1.19,21.82,20.21,6.1-3.61,17.24,9.23,3.26,13.49,14.35,10.88,13.84-13.84,14.37,9.5.85-9.53,6.34-1.41,1.84-7.57-4.32-5.68.03-8.88,1.45-5.37-5.31-3.54-1.12-5.06,4.63-4.05,8.38,5.24.53,7.48-2.25,1.5,7.34,11.93-1.71,12.95-9.41,7.53-1.05,1.78,7.28-2.11,5.97,11.48,2.23,7.81,41.16,32.88,13.32,9.61,2.28-3.11h4.35l11.34,12.79.69,6.2,3.99,3.78,8.21,9.86,10.96,36.39v.15s-.96,32.81-.96,32.81l-4.86,18.73Zm23.11-170.43l6.12,8.74,7.38,9.76,5.57-2.79-12.02-12.23-2.3-10.96-4.76,7.47Z"/><path class="cls-3" d="m656.63,815.57l-7.13-7.13v-3.31l-1.89-2.46-3.27,8.33-18.86-16.44-7.03-1.87-3.25-4.13-5.78.94-6.36-10.38.91-5.35-3.09.59-4.5-3.26-2.36.29,1.01,5.17-6.72,4.74-1.4-3.84c-1.14.14-3.41.41-5.17.63.35.3.85.67,1.34.96l2.86,1.72h-8.83l-7.24-7.96,9.24-4.99,5.38,3.63.63-5.17,2.73-2.42v-3.84l-2.12-.68-4.82,6.42-6.8,3.57-7.9-4.58-6.88-7.24.73,6.3h-25.95l19.39-4.08c-1-2.93-2.08-5.9-2.4-6.39-.44-.46-2.11-2.52-9.78-12.87l-.09-.13-3.68-11.83,3.39-11.07,12.89-24.15-.21,4.13c-.01.24-.2,4.05-.38,7.06,2.24-3.76,6.07-10.53,8.67-15.18l.26-.47h3.63v6.92l4.16,3.84v-3.74l1.56-2.12-5.69-4.23,5.48-2.13,7.17-9.26,10.22-3.78,31.8-33.14h1.53l3.64-5.31,1.28-10.31,8.29-10.92,7.46,2.26h17.9v1.85l-18.3-.04-6.36-1.93-7.21,9.5-1.27,10.27-4.45,6.48h-1.71l-31.55,32.88-10.12,3.74-7.16,9.24-2.84,1.1,4.48,3.33-2.29,3.12v7.36l-7.86-7.26v-5.88h-.69c-10.32,18.49-10.52,18.43-11.46,18.12l-.72-.24.08-.81c.08-.62.24-3.47.39-6.27l-8.95,16.76-3.13,10.28,3.41,10.98c3.37,4.54,8.78,11.78,9.46,12.5.3.23.86,1.04,3.22,8.13l.33.98-4.04.85h6.11l-1.12-9.73,10.6,11.16,6.69,3.84,5.53-2.9,5.36-7.14,4.66,1.48v6.02l-2.82,2.51-.91,7.47-6.95-4.69-6.17,3.33,5.09,5.61h2.04c-.41-.51-.57-1-.48-1.45s.45-1.02,1.61-1.17c2.47-.31,6.33-.77,6.33-.77l.73-.09,1.07,2.94,3.76-2.66-1.15-5.93,5.04-.63,4.44,3.22,4.93-.95-1.25,7.29,5.35,8.73,5.63-.91,3.54,4.5,6.85,1.83,17.21,15,3.51-8.93,4.27,5.55v3.17l6.59,6.59-1.31,1.31Zm-105.53-62.22s.06.07.13.12c-.03-.02-.06-.05-.13-.12Z"/></g><g class="cls-2"><path class="cls-11" d="m579.05,678.89l10.17-3.76,31.68-33.01h1.62l4.05-5.9,1.27-10.29,7.75-10.21-2.89-3.55-7.98.46-10.06-20-2.77-1.97,4.39-7.86,3.93-3.93-6.24-16.19,1.16-7.4-7.17-4.62-3.35-5.32.23-6.01-12.25-12.37-15.49,24.97-.23,29.25-15.38-2.04-23.28-4.32.15,5.24-19.73-3.24-16.03-12.64v20.04l-2.47,4.01,2.31,4.24h-4.24l-3.78,6.47-5.93-.08-2.7,4.55,6.4,7.4v3.31l-4.62.23,7.32,12.95,1.16,5.09,2.77,3.24-.23,4.16,6.94,7.4,9.02,3.7,2.54-4.16,3.93-.46,2.54-2.77,2.08,2.08,5.32,4.39,2.08-1.39-6.01-5.55,2.77-2.31,4.16,2.77.92,2.08h4.16l.46,4.86,6.24,7.4,8.79,9.48.92,22.43,5.09-9.71,6.01,5.32,1.16,4.39,4.16-1.62,7.17-9.25"/><path class="cls-4" d="m553.51,698.47l-1.25-30.2-8.28-8.94-6.71-7.95-.33-3.48h-1.25l1.07.99-5.96,3.97-6.81-5.64-.37-.37-1.49,1.63-3.67.43-2.98,4.88-11.31-4.64-7.96-8.49.23-4.22-2.54-2.97-1.21-5.31-9-15.91,6.17-.31v-.25l-6.92-8.01,4.23-7.13,5.92.08,3.77-6.46h1.67l-1.09-2,2.83-4.59v-24.15l19.31,15.22,16.37,2.69-.16-5.3,26.03,4.83,12.72,1.69.22-27.28,17.38-28.01,15.02,15.17-.24,6.3,2.7,4.28,8,5.16-1.29,8.27,6.56,17.01-4.77,4.77-3.22,5.77,1.55,1.1,9.63,19.16,7.64-.44,4.78,5.88-8.47,11.16-1.26,10.23-5.05,7.36h-1.85l-31.36,32.68-10.05,3.71-7.15,9.23-7.17,2.79-1.64-6.22-3.28-2.9-7.72,14.74Zm6.36-22.11l8.75,7.74.68,2.57,1.15-.45,7.18-9.27,10.3-3.8,31.99-33.33h1.39l3.04-4.43,1.28-10.35,7.02-9.26-1-1.22-8.31.48-10.48-20.84-4-2.83,5.56-9.96,3.09-3.09-5.92-15.36,1.02-6.53-6.34-4.09-4.01-6.36.22-5.72-9.49-9.57-13.6,21.93-.25,31.22-18.09-2.41-20.46-3.79.15,5.18-23.09-3.79-12.76-10.06v15.93l-2.11,3.42,3.54,6.48h-6.81l-3.79,6.49-5.95-.08-1.17,1.97,5.87,6.79v6.37l-3.08.15,5.65,9.98,1.1,4.86,3.01,3.51-.23,4.1,5.92,6.31,6.73,2.76,2.1-3.44,4.19-.49,3.59-3.92,1.54,1.54,4.62-3.85,6.16,4.1.59,1.32h4.76l.59,6.23,5.74,6.81,9.33,10.07.6,14.66,2.45-4.68Z"/></g><g class="cls-2"><polygon class="cls-11" points="474.09 601.23 465.41 599.51 461.21 595.93 454.79 596.39 440.11 582.97 436.58 582.34 439.42 578.36 435.26 572.04 428.99 566.41 428.99 561.56 465.52 561.9 468.05 558.48 466.64 540.77 454.84 511.91 479.25 499.96 478.08 474.62 475.43 449.43 494.74 453.5 512.42 458.11 512.27 466.14 523.86 471.04 525.01 468.32 544.88 472.17 553.25 480.94 566.77 483.76 573.99 504.92 587.99 517.89 588.02 525.66 589.65 527.31 574.78 551.28 574.56 578.56 561.84 576.87 535.81 572.04 535.96 577.34 519.59 574.66 500.28 559.43 500.28 583.59 497.46 588.18 498.54 590.17 496.87 590.17 493.11 596.63 487.18 596.55 484.54 601.01 477.87 600.48 476.79 604.07 474.09 601.23"/><path class="cls-4" d="m478.07,452.35l16.14,3.41,15.87,4.14-.09,4.64-.06,3.13,2.88,1.22,8.02,3.39,4.25,1.8,1.33-3.12,17.31,3.35,7.36,7.72.99,1.04,1.41.29,11.53,2.41,6.61,19.36.38,1.11.86.79,12.84,11.89.02,5.82v1.89s1.02,1.02,1.02,1.02l-13.57,21.87-.68,1.1v1.3s-.2,24.01-.2,24.01l-10.07-1.34-.31-.06-22.85-4.24-5.63-1.04.16,5.36-13.02-2.14-15.09-11.9-7.49-5.9v28.27l-1.78,2.89-1.41,2.28.3.55-.88,1.5-2.42,4.15-3.24-.04-2.67-.03-1.36,2.3-1.23,2.07-3.37-.27-3.72-.3-.47,1.57-.46-.49-1.45-.29-7.37-1.46-3.01-2.57-1.44-1.23-1.89.13-4.49.32-13.45-12.3-.99-.9-.59-.11,1.64-2.29-1.74-2.65-3.12-4.74-.33-.5-.44-.4-5.29-4.75v-1.48l33.02.3,2.36.02,1.4-1.9,1.31-1.77,1.03-1.39-.14-1.72-1.31-16.49-.06-.72-.27-.67-10.85-26.52,21.11-10.33,2.73-1.33-.14-3.03-1.1-23.76v-.13s-.02-.13-.02-.13l-.08-.8-2.22-21.17m-5.26-5.84l2.88,27.49.08.8,1.1,23.76-25,12.23,12.49,30.52,1.31,16.49-1.31,1.77-37.69-.35v8.21l6.82,6.13,3.12,4.74-4.05,5.66,6.47,1.16,14.91,13.64,6.47-.46,3.93,3.35,8.56,1.7,4.16,4.39,1.62-2,.85-2.81,6.24.5,2.7-4.55,5.93.08,3.78-6.47h4.24l-2.31-4.24,2.47-4.01v-20.04l16.03,12.64,19.73,3.24-.15-5.24,22.85,4.24.43.08,15.38,2.04.23-29.25,15.49-24.97-2.24-2.26-.03-7.83-14.32-13.26-7.46-21.85-14.1-2.95-8.38-8.79-22.43-4.34-.98,2.31-8.02-3.39.15-8.29-19.5-5.09-22.47-4.74h0Z"/></g><g class="cls-2"><path class="cls-11" d="m462.51,557.73l-34.51-.33-3.14-9.25,4.25-4.36-.23-15.98,6.57-4.63-9.89-6.16-8.66.23-4.4-2.14-6.15-.64-4.12-6.4-10.15,10.33-2.38-10.32-9.92,4.33-3.1.08-6.83-7.15-6.47-4.8-3.66-7.44-3.62-3.21.34-4.03-2.64-2.94,36.79-34.38,36.11,8.72,44.47-8.56,2.75,26.23,1.13,22.45-25.54,12.5,13.03,31.86,1.23,15.52-.35.47h-.92Zm-70.08-37.84l-.04-.18,4.83-.52-.8,2.49-3.98-1.78Z"/><path class="cls-4" d="m391.13,450.57l34.75,8.4.78.19.79-.15,42.09-8.1,2.54,24.18,1.06,21.18-22.89,11.2-3.11,1.52,1.31,3.2,12.27,29.99,1.09,13.69-32.48-.31-2.36-6.93,2.92-3,1.07-1.1-.02-1.54-.2-14.23,3.49-2.46,4.56-3.21-4.74-2.95-7.05-4.39-.94-.59-1.11.03-7.65.21-3.69-1.8-.59-.29-.65-.07-4.94-.51-2.39-3.71-2.51-3.89-3.24,3.3-6.16,6.27-1.12-4.86-1-4.34-4.08,1.78-7.55,3.3-1.92.05-6.15-6.44-.22-.23-.25-.19-5.99-4.44-3.3-6.71-.32-.65-.54-.48-2.66-2.35.19-2.31.13-1.59-1.06-1.19-.9-1,34.74-32.47m81.67-4.06l-46.05,8.86-36.69-8.86-38.85,36.3,3.31,3.7-.35,4.16,4.05,3.58,3.7,7.51,6.71,4.97,7.28,7.63,4.28-.12,8.21-3.58,2.43,10.52,6.71,3.01,2.31-7.17-4.28.46,6.36-6.47,3.35,5.2,6.71.69,4.51,2.2,8.56-.23,7.05,4.39-5.09,3.58.23,16.19-4.51,4.62,3.93,11.56,35.84.35h1.85l1.31-1.77-1.31-16.49-12.49-30.52,25.04-12.25v-.92l-1.14-22.81-2.97-28.29h0Z"/></g><g class="cls-2"><polygon class="cls-5" points="555.37 477.13 546.97 468.33 522.5 463.6 521.65 465.59 516.49 463.41 516.61 456.67 519.75 447.84 519.37 434.69 498.82 419.46 502.86 413.2 498.82 405.43 504.95 402.17 513.93 403.27 518.33 401.14 538.26 371.84 530.38 364.91 553.64 340.13 577.67 364.91 607.96 370.33 616.63 421.74 613.55 437.6 614.83 446.54 619.27 470.54 613.76 475.33 585.53 471.87 570.95 473.53 567.57 479.68 555.37 477.13"/><path class="cls-12" d="m553.66,342.81l2.01,2.07,20.27,20.89.83.86,1.17.21,28.42,5.09,8.4,49.8-2.96,15.22-.12.61.09.62,1.23,8.63v.08s.02.07.02.07l4.24,22.89-4.09,3.55-27.19-3.33-.43-.05-.43.05-13.41,1.52-1.9.22-.92,1.68-2.26,4.12-10.3-2.15-7.59-7.95-.82-.85-1.16-.22-22.43-4.34-2.94-.57-.71,1.67-2.31-.98.1-5.18,2.92-8.22.23-.65-.02-.69-.35-11.91-.05-1.8-1.44-1.07-18.43-13.66,2.52-3.91,1.16-1.81-.99-1.91-2.7-5.19,4-2.13,7.86.96,1.08.13.98-.47,3.47-1.68.89-.43.56-.82,18.73-27.54,1.84-2.7-2.46-2.16-5.22-4.59,20.63-21.98m-.04-5.36l-25.9,27.59,8.1,7.11-18.73,27.54-3.47,1.68-9.02-1.1-8.27,4.39,4.39,8.44-4.39,6.82,21.21,15.72.35,11.91-3.12,8.79-.15,8.29,8.02,3.39.98-2.31,22.43,4.34,8.38,8.79,14.1,2.95,3.58-6.51,13.41-1.52,28.83,3.53,6.94-6.01-4.62-24.97-1.23-8.63,3.08-15.88-8.94-53.03-30.98-5.55-20.27-20.89-4.7-4.85h0Z"/></g><g class="cls-2"><polygon class="cls-5" points="579.5 361.48 553.59 334.77 527.09 363 511.36 359.45 500.18 339.48 483.27 344.15 479.93 334.49 483.88 317.11 485.48 311.74 485.47 304.97 481.49 304.22 478.96 293.7 475.36 279.31 482.28 267.42 503.41 259.27 525.49 262.76 526.36 243.11 537.37 243.11 550.89 251.45 562.92 237.62 550.03 205.18 559.04 204.61 591.74 177.3 600.87 221.21 605.9 231.35 614.83 259.11 616.65 285.39 614.82 294.86 613.49 351.72 605.2 348.47 607.43 366.48 579.5 361.48"/><path class="cls-12" d="m590.56,180.7l8.45,40.66.1.46.21.43,4.86,9.8,4.64,14.43,4.18,12.98,1.79,25.81-1.76,9.08-.06.31v.31s-1.27,54.06-1.27,54.06l-2.94-1.15-5.79-2.27.76,6.17,1.54,12.44-24.87-4.45-19.44-20.04-4.7-4.85-2.7-2.78-2.65,2.83-24.45,26.05-13.9-3.14-10.06-17.98-1.42-2.53-2.8.77-13.84,3.82-2.6-7.51,3.82-16.81,1.51-5.05.16-.52v-.54s-.01-4.97-.01-4.97v-3.06s-3.01-.57-3.01-.57l-1.3-.25-2.26-9.39-3.41-13.65,6.22-10.68,20.06-7.73,19.54,3.08,4.09.64.18-4.13.7-15.81h8.71l11.74,7.24,2.67,1.65,2.06-2.37,10.26-11.8,1.48-1.7-.83-2.09-11.53-29.02,5.86-.37,1.21-.08.93-.78,29.87-24.95m2.37-6.8l-34.6,28.9-10.95.69,13.41,33.76-10.26,11.8-12.63-7.79h-13.3l-.86,19.35-20.52-3.24-22.2,8.56-7.63,13.1,3.78,15.11,2.81,11.68,3.65.69v4.97s-1.53,5.16-1.53,5.16l-4.08,17.96,3.59,10.35.5,1.44,17.19-4.74,10.87,19.42,17.57,3.97,25.9-27.59,4.7,4.85,20.27,20.89,30.98,5.55-2.16-17.42,7.86,3.08,1.39-59.35,1.85-9.56-1.85-26.74-4.32-13.41-4.73-14.69-4.98-10.05-9.71-46.71h0Z"/></g><g class="cls-2"><polygon class="cls-5" points="447.06 318.03 445.51 318.03 449.61 310.1 438.09 303.24 437.29 299.84 432.97 290.85 432.02 288.86 440.93 278.16 440.93 269.65 447.17 237.34 435.35 225.4 434.7 223.36 441.33 215.95 447.47 206.55 455.86 216.1 479.57 239.1 501.36 239.1 501.36 256.1 479.74 264.43 471.4 278.75 475.36 294.58 478.45 307.41 481.78 308.04 481.78 311.21 480.3 316.17 476.33 333.63 466.72 342.46 447.06 318.03"/><path class="cls-12" d="m447.69,209.6l6.73,7.67.1.11.11.1,23.12,22.43,1.08,1.04h20.69v13.88l-19.83,7.64-1.21.47-.65,1.12-7.63,13.1-.76,1.3.36,1.46,3.77,15.08,2.81,11.68.56,2.32,2.35.45.65.12v1.37s-1.38,4.64-1.38,4.64l-.04.12-.03.12-3.83,16.84-7.73,7.11-17.87-22.2-.74-.92,2.14-4.14,1.6-3.09-2.99-1.78-9.35-5.57-.57-2.44-.09-.4-.18-.37-4.23-8.8-.44-.92,7.73-9.28.86-1.03v-9l6.02-31.18.37-1.92-1.37-1.39-10.82-10.93-.2-.61,5.83-6.51.19-.21.15-.24,4.73-7.25m-.43-6.1l-7.4,11.33-7.24,8.09,1.12,3.47,11.45,11.56-6.09,31.52v8.02l-9.25,11.1,1.46,3.06,4.24,8.81.92,3.97,10.7,6.38-4.69,9.08h3.7l20.35,25.28,11.48-10.56,4.08-17.96,1.54-5.16v-4.97s-3.66-.69-3.66-.69l-2.81-11.68-3.78-15.11,7.63-13.1,22.2-8.56v-20.12h-22.89l-23.12-22.43-9.94-11.33h0Z"/></g><g class="cls-2"><polygon class="cls-9" points="505.06 255.79 505.06 235.4 481.07 235.4 458.54 213.55 447.04 200.44 439.54 211.93 436.42 208.88 437.09 193.81 433.72 181.13 450.01 181.57 455.1 146.15 584.81 146.15 580.76 156.86 588.37 161.09 590.89 173.19 557.6 200.99 544.71 201.81 558.65 236.89 550.16 246.66 538.42 239.41 522.82 239.41 521.97 258.46 505.06 255.79"/><path class="cls-7" d="m582.14,148l-2.54,6.71-1.13,2.99,2.79,1.55,4.43,2.47,1.04.58,2.12,10.19-31.97,26.7-9.74.62-5.09.32,1.88,4.74,12.58,31.67-6.72,7.73-9.96-6.14-.89-.55h-17.89l-.16,3.53-.68,15.21-13.31-2.1v-20.65h-25.09l-21.94-21.28-9.84-11.22-3.21-3.66-2.66,4.08-4.94,7.56-.91-.9.62-13.96.03-.57-.15-.55-2.66-10.02,12.16.33,3.29.09.47-3.26,4.63-32.2h125.43m5.36-3.7h-133.99l-5.09,35.38-17.11-.46,3.93,14.8-.69,15.61,5.32,5.2,7.4-11.33,9.94,11.33,23.12,22.43h22.89v20.12l20.52,3.24.86-19.35h13.3l12.63,7.79,10.26-11.8-13.41-33.76,10.95-.69,34.6-28.9-4.16-20.01-1.27,4.59-4.43-2.47,4.43-11.72h0Z"/></g><g class="cls-2"><path class="cls-9" d="m187.71,156.68l-11.35-11.02-6.4,4.04-26.52-7.13v-15.96l-29.44-18.07-9.1,12.01v4.06l-13.75-1.82-36.61-28.47-8.81-3.04-8.15-4.98c-7.42-4.27-15.89-9.61-17.57-11.34.26-1.94,1.73-8.53,3.14-14.4l.1-.42-3.42-15.14-4.85-6.46,9.48-9.91,2.14-11.97h9.67l101.57,38.72,25.25,10.16,7.99,3.38,96.97,36.93-39.66,39.66-33.98,14.9-6.69-3.75Z"/><path class="cls-7" d="m35.92,18.52l101.22,38.59,25.22,10.15,7.99,3.38.06.03.06.02,94.24,35.89-37.06,37.06-.33.33-32.82,14.4-5.68-3.18-10.14-9.84-2.09-2.03-2.46,1.56-4.49,2.83-24.37-6.55v-15.57l-1.76-1.08-27.13-16.65-2.86-1.75-2.03,2.67-7.71,10.17-.75.99v2.57l-11.16-1.47-1.98-1.54-33.99-26.44-.48-.38-.58-.2-8.33-2.87-7.98-4.88-.04-.03-.04-.02c-6.41-3.69-13.89-8.35-16.46-10.42.47-2.6,1.77-8.35,2.95-13.25l.2-.84-.19-.84-3.24-14.34-.17-.77-.47-.63-3.67-4.89,8.01-8.37.77-.81.2-1.1,1.77-9.9h7.78m.68-3.7h-11.56l-2.31,12.95-10.17,10.64,5.55,7.4,3.24,14.34s-3.24,13.41-3.24,15.26,18.5,12.49,18.5,12.49l8.32,5.09,8.71,3.01,33.99,26.44,2.77,2.16,16.34,2.16v-5.55l7.71-10.17,27.13,16.65v16.34l28.67,7.71,5.86-3.7,10.48,10.17,7.71,4.32,35.15-15.41.82-.82,41.1-41.1-99.58-37.92-8.02-3.39-25.28-10.17L36.61,14.82h0Z"/></g><g class="cls-2"><polygon class="cls-9" points="310.18 281.77 308.71 234.54 317.71 230.18 334.07 224.48 339.8 224.76 357.08 227.12 357.08 216.68 368.41 216.68 368.41 196.07 363.75 179.98 362.86 173.77 362.86 141.03 379.46 146.15 451.36 146.15 446.81 177.79 428.88 177.3 433.37 194.22 432.65 210.37 437.3 214.91 430.52 222.48 432.1 227.37 443.17 238.56 437.57 267.54 404.06 265.75 384.32 265.3 384.32 274.28 367.77 282.91 359.92 296.34 347.53 296.89 310.18 281.77"/><path class="cls-7" d="m364.71,143.54l13.94,4.3.53.16h70.05l-4.01,27.89-13.82-.37-4.95-.13,1.27,4.78,3.79,14.25-.67,15.04-.07,1.65,1.18,1.16,2.79,2.73-4.88,5.46-1.42,1.58.65,2.02,1.12,3.47.27.84.62.63,10.07,10.17-5.11,26.44-31.91-1.7h-.06s-.06,0-.06,0l-17.78-.4-3.78-.09v9.75l-15.08,7.86-.94.49-.54.92-7.08,12.1-10.98.49-35.86-14.52-1.39-44.83,7.82-3.79,15.92-5.55,5.29.26,15.1,2.06,4.2.57v-10.71h11.33v-22.72l-.15-.5-4.55-15.7-.85-5.96v-30.1m-3.7-5.01v35.38l.92,6.47,4.62,15.95v18.5h-11.33v10.17l-15.26-2.08-6.17-.31-16.8,5.86-10.17,4.93,1.54,49.64,38.85,15.72,13.8-.62,8.09-13.83,17.07-8.9v-8.21l17.78.4,35.13,1.87,6.09-31.52-11.45-11.56-1.12-3.47,7.24-8.09-5.32-5.2.69-15.61-3.93-14.8,17.11.46,5.09-35.38h-73.76l-18.73-5.78h0Z"/></g><g class="cls-2"><polygon class="cls-9" points="253.04 357.96 252.76 357.27 256.8 350.06 257.29 344.06 252.25 341.9 251.94 337.24 245.09 330.51 243.68 325.37 238.07 320.44 237.45 317.31 231.73 306.88 232.51 302.61 226.65 298.07 223.29 297.38 223.54 293.02 224.18 287.45 221.74 282.49 221.74 267.05 215.63 258.06 212.72 258.06 214.11 246.04 200.74 231.08 190.52 213.35 188.46 200.1 190.94 183.04 189.67 178.26 193.37 180.81 193.37 170.23 195.76 163.87 230.51 148.63 271.85 107.29 284.3 111.82 327.14 127.85 359.16 139.81 359.16 174.03 360.12 180.76 364.71 196.59 364.71 212.98 353.38 212.98 353.38 222.88 340.14 221.07 333.53 220.74 316.29 226.76 304.94 232.26 306.56 284.3 344.99 299.86 340.28 316.98 298.18 358.29 253.04 357.96"/><path class="cls-7" d="m272.32,109.43l11.32,4.12,42.85,16.03,30.81,11.51v33.07l.04.26.92,6.47.04.26.07.25,4.48,15.45v14.27h-11.33v9.64l-11.06-1.51-.16-.02h-.16s-6.17-.32-6.17-.32l-.72-.04-.68.24-16.8,5.86-.2.07-.19.09-10.17,4.93-2.16,1.05.07,2.4,1.54,49.64.07,2.41,2.23.9,35.79,14.49-4.14,15.06-41.2,40.43-41.9-.31,2.7-4.81.4-.7.07-.81.35-4.28.21-2.65-2.45-1.05-2.78-1.19-.19-2.83-.1-1.4-1-.98-5.99-5.89-1.12-4.12-.29-1.07-.84-.73-4.72-4.14-.45-2.24-.11-.56-.27-.5-5.27-9.6.46-2.52.4-2.21-1.78-1.38-4.62-3.58-.68-.53-.84-.17-1.37-.28.16-2.72.57-4.98.12-1.08-.48-.97-2.01-4.08v-15.58l-.64-.94-5.24-7.71-1.1-1.62h-1.81l1.06-9.13.19-1.65-1.11-1.24-12.69-14.2-9.95-17.26-1.97-12.64,2.39-16.41.11-.75-.08-.31,2.48,1.7v-13.76l1.99-5.31,33.72-14.79.64-.28.49-.49,40.26-40.26m-.95-4.28l-41.93,41.93-35.15,15.41-2.77,7.4v7.4l-4.93-3.39,2.47,9.25-2.47,16.96,2.16,13.87,10.48,18.19,12.95,14.49-1.54,13.26h4.01l5.24,7.71v15.3l2.39,4.86-.58,5.09-.35,6.01,4.51.92,4.62,3.58-.69,3.82,5.9,10.75.69,3.47,5.66,4.97,1.39,5.09,6.71,6.59.35,5.09,4.86,2.08-.35,4.28-4.28,7.63,1.08,2.66,47.13.35,43.01-42.2,5.28-19.19-38.85-15.72-1.54-49.64,10.17-4.93,16.8-5.86,6.17.31,15.26,2.08v-10.17h11.33v-18.5l-4.62-15.95-.92-6.47v-35.38l-33.22-12.41-42.85-16.03-13.57-4.93h0Z"/></g><g class="cls-2"><polygon class="cls-8" points="464.25 402.96 450.3 401.34 442.04 398.74 434.17 399.32 430.87 398.32 430.95 394.76 432.39 369.1 426.96 364.02 426.2 354.91 421.69 333.08 413.17 322.77 416.12 308.5 416.12 302.57 386.4 302.57 363.85 296.95 370.43 285.7 388.02 276.53 388.02 269.09 403.92 269.45 437.23 271.22 437.23 276.82 427.66 288.31 429.63 292.45 433.78 301.07 434.84 305.61 444.72 311.5 439.44 321.73 445.29 321.73 466.32 347.86 477.18 337.87 480.91 348.63 498.37 343.82 508.93 362.7 526.85 366.74 533.37 372.46 515.83 398.24 513.3 399.46 504.24 398.36 493.84 403.89 498.59 413 495.46 417.85 479.81 414.62 477.51 421.09 470.21 421.17 464.25 402.96"/><path class="cls-10" d="m389.87,270.98l13.95.32,31.57,1.68v3.17l-8.39,10.07-1.52,1.82,1.02,2.14,1.47,3.07,4.06,8.44.83,3.57.36,1.53,1.35.81,7.71,4.59-3.09,5.98-2.79,5.4h8l19.24,23.9,2.48,3.08,2.91-2.67,7.33-6.74,2.24,6.46,1.14,3.28,3.34-.92,14.39-3.97,9.45,16.89.81,1.44,1.61.36,16.65,3.76,4.93,4.33-15.64,22.99-.69,1.02-1.6.77-7.94-.97-1.16-.14-1.03.55-8.27,4.39-3.24,1.72,1.69,3.25.66,1.26,2.74,5.27-1.86,2.88-12.83-2.65-3.15-.65-1.08,3.03-.58,1.62-.75,2.12-4.65.05-5.17-15.8-.74-2.25-2.35-.27-12.6-1.46-7.76-2.44-.67-.21-.71.05-7.18.53-1.62-.49.05-2.1,1.38-24.8.1-1.73-1.26-1.18-4.28-4-.69-8.29-.02-.22-.05-.22-4.39-21.27-.19-.9-.59-.71-7.66-9.27,2.72-13.22.08-.37v-7.97h-31.34l-19.93-4.98,5.06-8.65,16.13-8.41,1.99-1.04v-6.67m-3.7-3.78v8.21l-17.07,8.9-8.09,13.83,25.16,6.28h28.09v3.89l-3.08,14.95,8.79,10.64,4.39,21.27.81,9.71,5.32,4.97-1.39,24.86-.08,3.39-.04,1.58,4.97,1.5,7.86-.58,8.09,2.54,12.95,1.5,6.01,18.38,9.94-.12,1.62-4.55.58-1.62,15.32,3.16,4.39-6.82-3.74-7.18-.66-1.26,8.27-4.39,9.02,1.1,3.47-1.68,1.25-1.84,17.48-25.7-8.1-7.11-17.57-3.97-10.87-19.42-17.19,4.74-4.08-11.79-11.48,10.56-20.35-25.28h-3.7l4.69-9.08-10.7-6.38-.92-3.97-4.24-8.81-1.46-3.06,9.25-11.1v-8.02l-35.13-1.87-17.78-.4h0Z"/></g><g class="cls-2"><path class="cls-8" d="m344.13,474.1l1.32-7.26-25.15-9.65-6.08-16.73-11.97-8.03-5.21-6.73,2.41-.28,5.31,6.09,2.07-9.29-4.56-5.56-6.3-1-6.11-2.78-7.65-10.46-4.72-1.26,1.71-2.2-3.65-9.51,1.67-3.84-5.39-7.14,1.91-9.86-8.76-6.85,34.73.26,43.91-43.08,5.06-18.37,12.18-.54,25.12,6.27h26.47v1.85l-3.22,15.64,9.06,10.97,4.28,20.71.86,10.31,5.21,4.87-1.34,23.99-.15,6.44,6.65,2.01,7.85-.58,7.92,2.49,11.95,1.39,6.07,18.55,12.59-.15,2.09-5.86,13.34,2.75,20.16,14.95.31,10.66-2.44,6.86-17.86-4.66-22.92-4.84-46.02,8.86-37.27-9-38.35,35.84-7.05-6.22Zm-87.84-112.41l5.23.04-2.83,2.36-2.4-2.4Z"/><path class="cls-10" d="m360.64,301.86l24.64,6.15.44.11h24.81l-2.97,14.4-.36,1.74,1.13,1.37,8.2,9.93,4.16,20.15.79,9.49.12,1.42,1.04.97,4.05,3.79-1.29,23.13v.06s0,.06,0,.06l-.12,4.97-.07,2.81,2.69.81,4.97,1.5.66.2.68-.05,7.16-.53,7.42,2.33.33.11.35.04,10.6,1.23,5.28,16.13.84,2.58,2.72-.03,9.94-.12,2.58-.03.86-2.43,1.12-3.13,11.37,2.34,19.12,14.17.27,9.42-1.75,4.94-16.22-4.23-.08-.02-.09-.02-22.47-4.74-.73-.15-.73.14-45.26,8.71-35.91-8.67-1.94-.47-1.46,1.36-.79.74-35.61,33.27-5.01-4.41.86-4.73.55-3.02-2.86-1.1-22.93-8.8-5.59-15.37-.41-1.13-1-.67-8.42-5.65,1.03-4.6,1.08-4.84.39-1.76-1.14-1.39-3.55-4.32-.89-1.09-1.39-.22-5.36-.85-5.44-2.47-6.98-9.55-.77-1.05-1.26-.34-1.4-.37.64-.83-.74-1.94-3-7.84.94-2.16.86-1.98-1.3-1.72-4.25-5.62,1.54-7.94.43-2.22-1.78-1.39-3.59-2.81,28.53.21h1.53s1.09-1.06,1.09-1.06l43.01-42.2.71-.7.26-.96,4.57-16.6,10.57-.47m.37-3.72l-13.8.62-5.28,19.19-43.01,42.2-47.13-.35,6.78,6.78,4.62-3.85,8.48,6.63-1.85,9.56,5.24,6.94-1.54,3.55,3.55,9.25-2.77,3.58,6.78,1.81,7.55,10.33,6.78,3.08,5.86.92,3.55,4.32-1.08,4.84-3.55-4.07-6.63.77,7.4,9.56,11.72,7.86,6.17,16.96,24.51,9.4-1.23,6.78,9.09,8.02,38.06-35.57.79-.74,36.69,8.86,46.05-8.86,22.47,4.74,19.5,5.09,3.12-8.79-.35-11.91-21.21-15.72-15.32-3.16-2.2,6.17-9.94.12-6.01-18.38-12.95-1.5-8.09-2.54-7.86.58-4.97-1.5.12-4.97,1.39-24.86-5.32-4.97-.81-9.71-4.39-21.27-8.79-10.64,3.08-14.95v-3.89h-28.09l-25.16-6.28h0Z"/></g><path class="cls-6" d="m555.07,691.5l-.99-23.98-8.67-9.36-6.35-7.53-.44-4.58h-4.04l-.99-2.23-3.76-2.51-2.1,1.75,6.06,5.59-2.86,1.9-5.58-4.61-1.77-1.77-2.33,2.55-3.88.46-2.63,4.31-9.54-3.96-7.07-7.54.23-4.17-2.73-3.18-1.31-5.76h18.61v2.08h13.73l5.47-3.9v8.53h7.4v4.86h7.85l15.95,20.12h4.78l1.21,6.05,10.32,14.3-7.46,9.62-4.76,1.85-1.25-4.76-5.46-4.83-5.61,10.72Zm5.34-12.19l6.56,5.8,1.06,4.03,3.56-1.38,6.88-8.87-10.05-14-1.08-5.41h-4.47l-15.95-20.12h-8.33v-4.86h-7.4v-7.66l-4.25,3.03h-14.95v-2.08h-16.53l1,4.41,2.82,3.29-.23,4.15,6.73,7.18,8.56,3.51,2.45-4.02,3.98-.47,2.75-3,2.42,2.42,5.02,4.14,1.31-.87-5.97-5.51,3.44-2.87,4.56,3.04.86,1.93h4.28l.49,5.13,6.15,7.29,8.89,9.59.86,20.87,4.56-8.71Z"/><path class="cls-6" d="m526.94,629.87h-14.95v-2.08h-17.38l-7.82-13.84,4.93-.25v-3.31l16.95-.85-.15-18.44h5.99l.11.07,9.78,5.99v8.81h3.01v12.33h4.7v7.87l-5.17,3.69Zm-14.02-.92h13.73l4.54-3.24v-6.47h-4.7v-12.33h-3.01v-9.22l-9.23-5.65h-4.8l.15,18.4-16.96.85v3.31l-4.32.22,6.82,12.06h17.77v2.08Z"/><path class="cls-6" d="m491.99,611.3l-6.76-7.82,3-5.06,5.93.08,3.77-6.47h11.51l.16,18.4-17.63.88Zm-5.63-7.92l6.03,6.98,16.29-.81-.15-16.59h-10.07l-3.78,6.48-5.94-.08-2.39,4.03Z"/><path class="cls-6" d="m571.12,668.68l-2.7-3.81-1.08-5.41h-4.47l-15.95-20.12h-8.33v-4.86h-7.4v-15.26h-4.7v-12.33h-3.01v-9.22l-9.23-5.65h-4.8v.92h-7.29l-2.57-4.71,2.54-4.12v-20.86l16.69,13.16,19.06,3.13-.15-5.25,24.21,4.49.16,17.59-5.71,3.7v20.61l14.95,9.1-.23,38.92Zm-1.81-4.09l.9,1.25.21-35.56-14.95-9.09v-21.63l5.7-3.7-.15-16.32-22.34-4.14.15,5.23-20.4-3.35-15.38-12.12v19.22l-2.39,3.89,2.05,3.76h5.81v-.92h5.99l.11.07,9.78,5.99v8.81h3.01v12.33h4.7v15.26h7.4v4.86h7.85l15.95,20.12h4.78l1.21,6.05Z"/><path class="cls-6" d="m578.88,679.44l-8.68-12.03.22-37.13-14.95-9.09v-21.63l5.7-3.7-.16-17.23,15.39,2.04.23-28.86.07-.11,15.8-25.47,12.81,12.93-.23,6.07,3.22,5.11,7.33,4.73-1.18,7.57,6.31,16.35-4.1,4.1-4.16,7.44,2.53,1.79.05.1,9.92,19.73,7.91-.46,3.27,4.02-7.89,10.4-1.27,10.28-4.25,6.19h-1.67l-31.61,32.94-10.6,3.92Zm-7.75-12.33l8.09,11.22,9.74-3.6,31.74-33.07h1.57l3.84-5.6,1.27-10.3,7.6-10.02-2.51-3.09-8.04.47-10.14-20.17-3.02-2.14,4.67-8.33,3.72-3.72-6.18-16.02,1.13-7.22-7.06-4.6-3.43-5.44.23-5.95-11.7-11.81-15.11,24.36-.23,29.64-15.37-2.04.15,16.68-5.71,3.7v20.61l14.95,9.1-.22,37.35Z"/><path class="cls-6" d="m555.07,691.5l-.99-23.98-8.67-9.36-6.35-7.53-.44-4.58h-4.04l-.99-2.23-3.76-2.51-2.1,1.75,6.06,5.59-2.86,1.9-5.58-4.61-1.77-1.77-2.33,2.55-3.88.46-2.63,4.31-9.54-3.96-7.07-7.54.23-4.17-2.73-3.18-1.31-5.76h18.61v2.08h13.73l5.47-3.9v8.53h7.4v4.86h7.85l15.95,20.12h4.78l1.21,6.05,10.32,14.3-7.46,9.62-4.76,1.85-1.25-4.76-5.46-4.83-5.61,10.72Zm5.34-12.19l6.56,5.8,1.06,4.03,3.56-1.38,6.88-8.87-10.05-14-1.08-5.41h-4.47l-15.95-20.12h-8.33v-4.86h-7.4v-7.66l-4.25,3.03h-14.95v-2.08h-16.53l1,4.41,2.82,3.29-.23,4.15,6.73,7.18,8.56,3.51,2.45-4.02,3.98-.47,2.75-3,2.42,2.42,5.02,4.14,1.31-.87-5.97-5.51,3.44-2.87,4.56,3.04.86,1.93h4.28l.49,5.13,6.15,7.29,8.89,9.59.86,20.87,4.56-8.71Z"/><path class="cls-6" d="m491.99,611.3l-6.76-7.82,3-5.06,5.93.08,3.77-6.47h11.51l.16,18.4-17.63.88Zm-5.63-7.92l6.03,6.98,16.29-.81-.15-16.59h-10.07l-3.78,6.48-5.94-.08-2.39,4.03Z"/><path class="cls-6" d="m571.12,668.68l-2.7-3.81-1.08-5.41h-4.47l-15.95-20.12h-8.33v-4.86h-7.4v-15.26h-4.7v-12.33h-3.01v-9.22l-9.23-5.65h-4.8v.92h-7.29l-2.57-4.71,2.54-4.12v-20.86l16.69,13.16,19.06,3.13-.15-5.25,24.21,4.49.16,17.59-5.71,3.7v20.61l14.95,9.1-.23,38.92Zm-1.81-4.09l.9,1.25.21-35.56-14.95-9.09v-21.63l5.7-3.7-.15-16.32-22.34-4.14.15,5.23-20.4-3.35-15.38-12.12v19.22l-2.39,3.89,2.05,3.76h5.81v-.92h5.99l.11.07,9.78,5.99v8.81h3.01v12.33h4.7v15.26h7.4v4.86h7.85l15.95,20.12h4.78l1.21,6.05Z"/><path class="cls-6" d="m578.88,679.44l-8.68-12.03.22-37.13-14.95-9.09v-21.63l5.7-3.7-.16-17.23,15.39,2.04.23-28.86.07-.11,15.8-25.47,12.81,12.93-.23,6.07,3.22,5.11,7.33,4.73-1.18,7.57,6.31,16.35-4.1,4.1-4.16,7.44,2.53,1.79.05.1,9.92,19.73,7.91-.46,3.27,4.02-7.89,10.4-1.27,10.28-4.25,6.19h-1.67l-31.61,32.94-10.6,3.92Zm-7.75-12.33l8.09,11.22,9.74-3.6,31.74-33.07h1.57l3.84-5.6,1.27-10.3,7.6-10.02-2.51-3.09-8.04.47-10.14-20.17-3.02-2.14,4.67-8.33,3.72-3.72-6.18-16.02,1.13-7.22-7.06-4.6-3.43-5.44.23-5.95-11.7-11.81-15.11,24.36-.23,29.64-15.37-2.04.15,16.68-5.71,3.7v20.61l14.95,9.1-.22,37.35Z"/><path class="cls-6" d="m577.31,581.72l-16.35-2.2-22.28-4.13.15,5.23-20.4-3.35-16.3-12.85v-12.51s4.1-16.04,4.1-16.04l8.77-11.75h14.39l.11.07,11.25,6.72.05.17,4.06,13.24h5.83l40.07-28.33.03,8.53,2.37,2.39-15.62,25.17-.23,29.64Zm-39.59-7.45l23.84,4.42,14.83,1.97.23-28.86.07-.11,15.3-24.66-2.12-2.14-.03-7.13-38.86,27.47h-6.81l-4.21-13.72-10.84-6.47h-13.67l-8.44,11.3-3.97,15.73v11.9l15.76,12.43,19.06,3.13-.15-5.25Z"/><path class="cls-6" d="m473.38,603.92l-9.48-1.88v-42.62l1.3-1.76-1.29-16.25-12.62-30.85,26.06-12.76,1.66,36.77,1.81,24.45h-7.43v44.88Zm-8.56-2.64l7.63,1.51v-44.68h7.36l-1.74-23.47-1.6-35.38-24.02,11.75,12.35,30.26,1.33,16.67-1.32,1.79v41.55Z"/><path class="cls-6" d="m477.11,608.45l-4.65-4.91v-45.43h7.36l-1.74-23.47-2.81-60.53,12.37,4.85h7.08l19.82-14.86,8.81,3.73-10.43,13.9,1.02,20.27,15.97,12.15-.21,10.9h-14.25l-8.44,11.3-3.97,15.73v32.29l-2.39,3.89,2.56,4.69h-4.75l-3.78,6.48-5.94-.08-2.71,4.57-6.16-.49-.82,2.61-1.95,2.41Zm-3.73-5.28l3.67,3.88,1.23-1.52.93-3.08,6.33.51,2.69-4.53,5.93.08,3.77-6.47h3.73l-2.07-3.79,2.54-4.12v-32.2s4.1-16.04,4.1-16.04l8.77-11.75h13.81l.18-9.52-15.94-12.13-1.06-21.04,9.92-13.23-7.23-3.06-19.64,14.73-7.65-.03-11.13-4.36,2.74,59.1,1.81,24.45h-7.43v44.13Z"/><path class="cls-6" d="m464.83,602.66l-4.55-3.88-6.48.46-.15-.13-14.81-13.55-7.06-1.26,4.29-6-2.91-4.42-6.93-6.23v-8.88l38.61.36v43.54Zm-4.24-4.83l3.31,2.83v-40.62l-36.76-.34v7.54l6.75,6.08,3.3,5.01-3.81,5.33,5.89,1.05.1.09,14.77,13.51,6.47-.46Z"/><path class="cls-6" d="m464.6,560.04h-2.08l-36.17-.35-4.13-12.14,4.57-4.69-.23-16.24,4.72-3.32-6.81-4.24,8.09-17.33-13.27-7.56,2.26-2.98-18.13.97-1.03,19.07-5.57,5.68,3.7-.4-2.69,8.34-7.39-3.31-2.35-10.2-7.87,3.4-4.48.12-7.43-7.78-6.74-4.99-3.71-7.53-4.15-3.68.35-4.19-3.48-3.89,39.36-36.78.24.06,36.59,8.84,46.45-8.94,3.02,28.79,1.15,22.84v1.24s-24.91,12.19-24.91,12.19l12.35,30.26,1.33,16.67-1.55,2.1Zm-37.59-1.27l37.12.34,1.07-1.45-1.29-16.25-12.62-30.85,25.17-12.32v-.64l-1.14-22.79-2.91-27.76-45.66,8.79-36.54-8.83-38.33,35.82,3.14,3.51-.34,4.13,3.98,3.57,3.65,7.41,6.62,4.9,7.2,7.53,3.98-.11,8.64-3.77,2.5,10.84,6.02,2.7,1.93-6-4.85.52,7.14-7.27,1.05-19.55,20.95-1.12-2.83,3.73,13.09,7.46-8.1,17.36,7.3,4.55-5.46,3.84.23,16.13-4.44,4.56,3.73,10.98Z"/><path class="cls-6" d="m495.04,479.88l-7.65-.03-12.05-4.73-3.06-29.2,23.11,4.88,19.85,5.18-.17,8.88-20.03,15.03Zm-7.39-.92h7.08l19.43-14.57.14-7.69-19.14-4.99-21.83-4.61,2.87,27.37,11.45,4.49Z"/><path class="cls-6" d="m416.4,519.58l-4.54-2.21-6.84-.71-3.55-5.51,1.07-19.87,20.95-1.12-2.83,3.73,13.09,7.46-8.39,17.99-8.95.24Zm-10.84-3.79l6.64.72,4.41,2.15,8.16-.22,7.79-16.7-13.27-7.56,2.26-2.98-18.13.97-1.01,18.74,3.15,4.89Z"/><path class="cls-6" d="m550.99,545.24h-6.81l-4.21-13.72-11.17-6.67v-2.11l.19-8.14-15.94-12.13-1.06-21.04,10.24-13.65,1.11-2.6,22.94,4.43.1.11,8.28,8.68,14.22,2.97.09.25,7.42,21.74,14.65,13.56-.47.33-39.58,27.99Zm-6.13-.92h5.83l38.88-27.49-13.98-12.95-7.41-21.71-13.99-2.92-.1-.1-8.28-8.68-21.92-4.24-.89,2.06-10.07,13.43,1.02,20.27,15.97,12.15-.2,10.17,11.03,6.58.05.17,4.06,13.24Z"/><path class="cls-6" d="m568.77,482.29l-14.58-3.05-.1-.1-8.51-8.92.18-17.78h15.47l23.3-10.18,32.53,3.6,4.74,25.57-7.29,6.32-28.98-3.54-13.12,1.49-3.63,6.6Zm-14.11-3.89l13.63,2.85,3.53-6.42,13.7-1.56h.05s28.62,3.51,28.62,3.51l6.58-5.7-4.51-24.37-31.6-3.49-23.25,10.16h-14.74l-.17,16.48,8.15,8.55Z"/><path class="cls-6" d="m561.42,453.37h-7.53l.5-6.88.31-27.02,38.41-.77,1.42-2.58-10.01-13-19.6-.46-16.97,4.12-1.72-24.87-19.18-16.84,26.56-28.29,25.21,25.98,31.16,5.58,9.01,53.43-.02.08-3.07,15.8,1.31,9.14-32.53-3.6-23.25,10.16Zm-6.54-.92h6.34l23.3-10.18,31.59,3.49-1.16-8.12v-.08s3.08-15.79,3.08-15.79l-8.87-52.62-30.81-5.52-.1-.11-24.63-25.39-25.24,26.89,18.74,16.46,1.67,24.15,16.02-3.89h.06s20.11.47,20.11.47l10.65,13.83-1.97,3.58-38.05.77-.3,26.17-.43,5.9Z"/><path class="cls-6" d="m554.87,420.39l-7.17-14.5,17.11-4.16h.06s20.11.47,20.11.47l10.65,13.83-1.97,3.58-38.79.78Zm-5.83-13.87l6.4,12.94,37.67-.76,1.42-2.58-10.01-13-19.6-.46-15.87,3.86Z"/><path class="cls-6" d="m546.5,470.59l-22.61-4.37-1.02,2.39-8.73-3.69.19-8.74,3.23-9.11,28.92.95.19,4.86-.18,17.71Zm-23.16-5.42l22.25,4.3.17-16.57-.16-3.98-27.38-.9-2.98,8.4-.15,7.9,7.3,3.09.95-2.23Z"/><path class="cls-6" d="m554.82,453.37h-9.04l-.19-4.88v-15.11l-29.08-33.67,19.23-28.26,11.4,10.01v.19s1.7,24.42,1.7,24.42l6.79,13.74v.11s-.31,26.59-.31,26.59l-.49,6.85Zm-8.16-.92h7.3l.43-5.97.31-26.45-6.78-13.79-1.68-24.32-10.33-9.07-18.24,26.81,28.84,33.39v15.43l.16,3.97Z"/><path class="cls-6" d="m546.51,448.95l-29.06-.95-.35-12.12-21.38-15.85,4.48-6.96-4.48-8.61,8.8-4.68,9.03,1.1,3.67-1.77.23.27,29.07,33.66v15.91Zm-28.16-1.85l27.24.9v-14.61l-28.62-33.13-3.27,1.58-9.01-1.1-7.73,4.11,4.3,8.27-4.3,6.68,21.05,15.6.34,11.7Z"/><path class="cls-6" d="m299.11,360.61h-.19s-47.44-.35-47.44-.35l-1.28-3.15,4.34-7.74.31-3.85-4.81-2.06-.35-5.19-6.67-6.55-1.38-5.07-5.68-4.98-.71-3.55-5.94-10.83.67-3.7-4.32-3.35-4.8-.98.37-6.41.56-4.98-2.38-4.83v-15.73l39.95-13.94,21.13-28.18,6.08-22.73,15.37,20.81,5.33,10.02v.11s1.53,49.33,1.53,49.33l38.95,15.76-5.42,19.71-.09.09-43.14,42.33Zm-47.01-1.27l46.63.34,42.78-41.98,5.14-18.67-38.74-15.68v-.3s-1.55-49.53-1.55-49.53l-5.19-9.77-14.19-19.21-5.69,21.12-21.36,28.48-.13.05-39.46,13.76v14.86l2.4,4.88-.59,5.22-.32,5.59,4.22.87,4.93,3.82-.71,3.93,5.87,10.74.66,3.31,5.65,4.96,1.39,5.1,6.74,6.63.34,4.98,4.9,2.1-.43,4.8-4.17,7.44.88,2.17Z"/><path class="cls-6" d="m539.6,203.96h-.37l-7.95-33.6h-28.68l7.35-26.51h78.21l-4.53,11.97,3.57,1.99,1.62-5.87,4.61,22.15-34.93,29.18-11.1.7h-7.8Zm.37-.92h7.4l10.77-.68,34.27-28.63-3.71-17.87-.92,3.32-5.3-2.95,4.34-11.46h-76.17l-6.83,24.66h28.2l7.95,33.6Z"/><path class="cls-6" d="m489.05,177.68l-27.46-21.59v-12.25h49.32l-7.31,26.37-14.55,7.47Zm-26.54-22.04l26.64,20.95,13.66-7.02,6.87-24.81h-47.18v10.87Z"/><path class="cls-6" d="m439.93,215.55l-5.87-5.74v-.21s.7-15.54.7-15.54l-4.07-15.33,17.32.47,5.09-35.37h9.42v11.8l27.2,21.39-6.28,10.37-26.25,28.12-9.88-11.26-7.37,11.29Zm7.27-12.82l10.01,11.4,25.51-27.34,5.78-9.55-26.91-21.16v-11.32h-7.69l-5.09,35.39-16.9-.46,3.79,14.27v.07s-.69,15.4-.69,15.4l4.77,4.66,7.42-11.37Z"/><path class="cls-6" d="m448.81,180.15l-17.52-.47-25.51-2.12,6.17-33.71h42.08l-5.22,36.31Zm-41.93-3.44l24.46,2.04,16.67.45,4.95-34.44h-40.24l-5.85,31.95Z"/><path class="cls-6" d="m406.71,177.6l-29.91-.32-16.26-3v-36.39l19.26,5.94h33.09l-6.18,33.76Zm-29.78-1.24l29.01.3,5.84-31.9-32.18-.02-18.13-5.6v34.37l15.46,2.85Z"/><path class="cls-6" d="m219.7,268.17l-5.3-7.8h-4.28l1.58-13.57-12.87-14.41-10.54-18.35-2.17-13.94,2.46-16.93-2.76-10.37,5.24,3.6.03-6.68,2.84-7.58,35.24-15.46,42.07-42.07,14.45,5.25-21.21,26.2,5.42,15.06,20.11,18.56v20.33s-2.78,13.56-2.78,13.56l-5.94,22.07-21.36,28.48-.13.05-40.11,13.99Zm-8.55-8.72h3.73l5.18,7.62,39.3-13.71,21.13-28.18,5.83-21.8,2.76-13.49v-19.79l-19.97-18.44-.04-.11-5.64-15.66,20.72-25.6-12.68-4.61-41.78,41.78-.08.04-34.97,15.34-2.68,7.14v8.19l-4.63-3.18,2.17,8.13-2.47,16.98,2.13,13.72,10.41,18.07,13.05,14.61-1.5,12.95Z"/><path class="cls-6" d="m306.63,234.01l-5.45-10.26-14.88-20.15,2.81-13.72v-19.79l-19.97-18.44-.04-.11-5.64-15.66,21.34-26.36,43.48,16.26-.62,18.42,5.58,12.72-4.94,12.34,4.98,11.83-13.3,13.3,1.85,9.24-5.88,6.15,1.55,18.95-10.86,5.27Zm-19.35-30.62l14.68,19.87,5.07,9.53,9.49-4.6-1.53-18.74,5.83-6.1-1.85-9.26,13.21-13.21-4.89-11.6,4.93-12.33-5.51-12.56.61-17.96-42.23-15.8-20.59,25.44,5.42,15.06,20.11,18.56v20.33s-2.74,13.36-2.74,13.36Z"/><path class="cls-6" d="m346.02,182.38l-1.89-24.79-11.71-.19-5.71-13.01.64-18.94,34.12,12.75v35.7l.99,6.89-16.44,1.6Zm-12.99-25.9l11.95.19,1.88,24.69,14.54-1.41-.86-6v-35.12s-32.32-12.07-32.32-12.07l-.59,17.44,5.39,12.27Z"/><path class="cls-6" d="m355.69,225.53l-16.2-2.21.02-.42,1.15-28.53-8.32-13.13-5.04-11.96,5.12-12.8,12.57.2,1.88,24.69,15.4-1.49,4.75,16.45v18.96h-11.33v10.24Zm-15.24-3.01l14.32,1.95v-10.11h11.33v-17.97l-4.5-15.52-15.58,1.51-1.89-24.79-11.09-.18-4.74,11.86,4.86,11.54,8.44,13.31v.14s-1.15,28.25-1.15,28.25Z"/><path class="cls-6" d="m401.29,241.88h-4.78l-.13-.13-26.69-26.46h-3.59v-18.89l-4.61-15.89-1.03-7.17,16.7,3.08.11.16,15.89,23.4-.6,12.99,19.34,2.63-2.15,10.63-8.46,15.66Zm-4.4-.92h3.85l8.16-15.11,1.89-9.47-19.2-2.61.63-13.53-15.6-22.99-15.05-2.78.83,5.84,4.63,16.02v18.04h3.04l.13.13,26.69,26.46Z"/><path class="cls-6" d="m434.38,226.89l-9.24-.62-16.37.2,2.02-10.1-19.2-2.61.63-13.53-16.21-23.88,30.33.32,25.33,2.11,4.03,15.18v.07s-.69,15.4-.69,15.4l5.49,5.37-7.36,8.22,1.25,3.86Zm-9.21-1.55l7.91.53-.99-3.07,7.13-7.96-5.15-5.04v-.21s.7-15.54.7-15.54l-3.83-14.41-24.65-2.05-28.52-.3,15.39,22.67-.6,12.99,19.34,2.63-1.99,9.94,15.27-.19Z"/><path class="cls-6" d="m340.41,223.4l-6.96-.35-4.8-17.03-7.73-2.16-1.95-9.77,13.84-13.84,8.79,13.87v.14s-1.18,29.14-1.18,29.14Zm-6.25-1.24l5.37.27,1.13-28.06-8.01-12.65-12.67,12.67,1.74,8.73,7.69,2.15,4.76,16.89Z"/><path class="cls-6" d="m316.59,229.1l-1.61-19.65,6.19-6.48,8.23,2.3,4.97,17.62-17.78,6.2Zm-.65-19.31l1.48,18.04,15.83-5.52-4.59-16.29-7.19-2.01-5.52,5.78Z"/><path class="cls-6" d="m347.13,299.23l-.09-.04-39.12-15.84v-.3s-1.56-49.94-1.56-49.94l10.44-5.06,16.94-5.91,6.26.31,15.59,2.12,6,19.69-4.42,1.35-8.3,15.19-.45,11.83,13.34,25.93-14.62.65Zm-38.31-16.51l38.47,15.57,12.97-.58-12.79-24.86.47-12.29.05-.1,8.53-15.62,3.9-1.19-5.56-18.23-14.97-2.04-6.04-.3-16.72,5.83-9.85,4.78,1.52,49.03Z"/><path class="cls-6" d="m360.98,299.1l-13.5-26.25.47-12.29.05-.1,8.53-15.62,4.74-1.45,3.97,9.58,19.28.12,2.1,14.03v8.56s-17.2,8.97-17.2,8.97l-8.45,14.45Zm-12.57-26.46l12.62,24.54,7.74-13.22,16.94-8.83v-7.93l-1.98-13.18-19.1-.12-3.89-9.38-3.58,1.09-8.3,15.19-.45,11.83Z"/><path class="cls-6" d="m404.48,268.08l-18.7-.43-2.04-13.64-19.1-.12-4.05-9.76-5.82-19.14v-10.64h15.3l.13.13,26.69,26.46h4.54l3.05,27.12Zm-17.9-1.33l16.87.38-2.84-25.25h-4.09l-.13-.13-26.69-26.46h-13.99v9.64l5.76,18.89,3.8,9.15,19.28.12,2.04,13.65Z"/><path class="cls-6" d="m194.27,163.01l-8-4.5-10.22-9.92-5.72,3.61-29.21-7.85v-16.44l-26.55-16.29-7.36,9.72v5.92l-16.99-2.24-3.23-2.51.27-.36,51.08-69.04,25.81,10.39.07.2,12.29,37.49,53.8,46.02-36.03,15.8Zm-7.4-5.21l7.45,4.17,34.26-15.03-52.87-45.23-.04-.12-12.26-37.41-24.75-9.96-50.39,68.1,2.32,1.8,15.69,2.07v-5.18l8.05-10.63,27.71,17v16.24l28.13,7.56,5.99-3.79,10.7,10.39Z"/><path class="cls-6" d="m87.72,123.07l-34.3-26.68-8.73-3.02-8.32-5.09c-5.62-3.23-18.72-10.97-18.72-12.88s2.9-13.91,3.22-15.26l-3.19-14.13-5.73-7.63,10.35-10.82,2.36-13.19,12.11.03,102.46,39.06-51.51,69.62Zm-42.59-30.52l8.79,3.06,33.62,26.15,50.22-67.88L36.52,15.28h-11.09l-2.27,12.7-10,10.45,5.39,7.26,3.26,14.44-.03.1c-.9,3.72-3.22,13.68-3.22,15.15.3,1.15,9.52,7.06,18.27,12.08l8.29,5.07Z"/><path class="cls-6" d="m229.47,147.71l-53.76-45.99-.04-.12-12.65-38.58,8.95,3.79,100.23,38.17-42.74,42.74Zm-52.96-46.52l52.91,45.27,41.12-41.12-98.91-37.67-7.1-3,11.97,36.52Z"/><path class="cls-6" d="m466.47,345.83l-21.15-26.27,19.08-3.37h18.27s-4.25,18.66-4.25,18.66l-11.95,10.99Zm-19.45-25.64l19.55,24.29,11.01-10.13,3.92-17.25h-17.03l-17.46,3.09Z"/><path class="cls-6" d="m442.48,320.34h-.76l5.12-9.91,17.23-6.48,15.94,1.4,4.07.77v5.42s-1.65,5.56-1.65,5.56h-17.92l-18.27,3.23h-3.78Zm.76-.92h2.94l18.31-3.24h17.27l1.42-4.77v-4.52s-3.28-.62-3.28-.62l-15.69-1.37-16.7,6.28-4.26,8.24Z"/><path class="cls-6" d="m447.12,311.31l-11.06-6.59-1.12-4.8,8.98,1.08,22.06,3.23-18.86,7.08Zm-10.25-7.18l10.34,6.16,15.08-5.67-18.5-2.71-7.66-.92.73,3.13Z"/><path class="cls-6" d="m480.57,306.33l-16.5-1.45-28.84-4-4.66-9.67,19.98-.55.08.02,9.18,2.99h17.71l3.05,12.66Zm-16.39-2.36l15.19,1.33-2.58-10.7-17.2-.02-9.17-2.99-18.4.5,3.82,7.94,28.34,3.93Z"/><path class="cls-6" d="m439.46,269.95l-35.92-1.91-3.01-26.72,8.52-15.78,16.13-.2h.02s8.73.59,8.73.59l11.74,11.86-6.21,32.16Zm-35.09-2.79l34.33,1.83,5.97-30.89-11.15-11.26-8.36-.57-15.55.19-8.13,15.05,2.89,25.65Z"/><path class="cls-6" d="m473.64,279.5l-35.02-1.57v-8.55s6.05-31.28,6.05-31.28l-11.35-11.47-1.23-3.83,7.42-8.29,7.69-11.78,10.34,11.79,22.96,22.27h23.17v20.9l-22.34,8.61-7.69,13.2Zm-34.09-2.46l33.58,1.51,7.57-13,22.05-8.5v-19.34h-22.62l-.13-.13-23.12-22.43-9.57-10.9-7.07,10.82-7.11,7.95,1,3.11,11.54,11.66-6.13,31.72v7.53Z"/><path class="cls-6" d="m503.57,237.72h-23.44l-.13-.13-23.45-22.74,26.67-28.57.29.61,21.58,45.01-1.52,5.83Zm-23.06-.92h22.35l1.25-4.81-21.14-44.09-25.13,26.92,22.66,21.98Z"/><path class="cls-6" d="m528.78,225.4l-29.71-3.92-16.5-34.42,6.21-10.27,14.32-7.36h28.92l8.1,34.22-8.51,7.77-2.83,13.97Zm-29.09-4.77l28.36,3.74,2.72-13.42,8.33-7.61-7.81-32.98h-27.96l-13.89,7.13-5.81,9.62,16.07,33.52Z"/><path class="cls-6" d="m477.75,294.6l-18.15-.02-9.17-2.99-19.41.53-1.72-3.6,9.59-11.5,34.87,1.57,4,16.02Zm-17.94-.92h16.75l-3.55-14.2-33.72-1.52-8.91,10.69,1.21,2.52,18.97-.52.08.02,9.18,2.99Z"/><path class="cls-6" d="m524.17,261.14l-21.42-3.38.02-20.63,1.34-5.15-5.51-11.5,29.45,3.89,2.72-13.42,8.66-7.91h8.26l13.63,34.31-10.7,12.31-12.86-7.93h-12.73l-.87,19.42Zm-20.5-4.17l19.62,3.09.86-19.27h13.87l12.41,7.66,9.81-11.29-13.19-33.21h-7.27l-8.17,7.47-2.83,13.97-28.62-3.78,4.92,10.27-1.42,5.42v19.66Z"/><path class="cls-6" d="m610.11,369.31l-31.75-5.69-.1-.11-20.57-21.2,2.83-3.17,29.24-48.91,27.38,4.43v.4s-1.41,60.01-1.41,60.01l-7.75-3.04,2.14,17.27Zm-31.29-6.54l30.22,5.41-2.18-17.57,7.97,3.13,1.36-58.28-25.96-4.2-28.97,48.44-2.31,2.59,19.87,20.48Z"/><path class="cls-6" d="m617.03,295.59l-27.48-4.45-.31-5.22-24.94-2.46-2.04-14.14-4.73-7.81,30.11-2.07.14.12,31.23,25.76-1.99,10.27Zm-26.6-5.24l25.86,4.19,1.71-8.85-30.67-25.3-28.23,1.94,4.06,6.77,1.95,13.51,25,2.47.31,5.27Z"/><path class="cls-6" d="m619.05,286.54l-31.71-26.16-29.27,2.01-8.11-13.39,10.68-12.29,24.96,8.16h27.08l4.44,13.84,1.92,27.82Zm-31.4-27.1l.14.12,30.19,24.9-1.77-25.61-4.2-13.04-26.63-.02-24.45-8-9.84,11.31,7.47,12.33,29.07-2Z"/><path class="cls-6" d="m612.98,245.81l-27.6-.02-24.95-8.16-.08-.2-13.65-34.35,11.43-.72,35.08-29.3,9.86,47.4,4.96,10,4.95,15.36Zm-27.38-.92h26.11l-4.53-14.09-5-10.1-9.55-45.95-34.13,28.51-10.46.66,13.1,32.96,24.47,8Z"/><path class="cls-6" d="m558.33,342.98l-5.18-5.34v-34.37l.06-.1,11.24-20.62,25.67,2.54.34,5.78-29.21,48.83-2.92,3.29Zm-4.26-5.72l4.23,4.36,2.21-2.48,29.01-48.52-.28-4.7-24.27-2.4-10.9,19.97v33.76Z"/><path class="cls-6" d="m522.52,338.66v-11.52l9.05-10.01,22.51,13.86v6.91l-31.56.75Zm.92-11.16v10.22l29.71-.71v-5.49l-21.42-13.19-8.29,9.18Z"/><path class="cls-6" d="m554.08,332.07l-22.93-14.12,1.82-12.53,11.51-2.51h9.6v29.15Zm-21.93-14.59l21,12.93v-26.57h-8.62l-10.74,2.35-1.64,11.29Z"/><path class="cls-6" d="m533.12,306.34l-7.14-15.02-3.47-7.14v-7.22l42.93,5.71-11.55,21.18h-9.36l-11.41,2.5Zm-9.68-22.37l3.38,6.95,6.82,14.36,10.84-2.36h8.86l10.65-19.52-40.54-5.39v5.96Z"/><path class="cls-6" d="m527.88,365.55l-18.03-4.07-.1-.18-11.11-19.87,6.88-3.02,17.46-.69,31.75-.76-26.83,28.59Zm-17.43-4.88l17.11,3.87,24.96-26.59-29.53.71-17.36.69-5.7,2.53,10.52,18.8Z"/><path class="cls-6" d="m481.8,346.95l-4.27-12.33.03-.13,4.09-17.99,1.64-5.5,12.76.31,1.2-5.81,29.37-15.01,7.24,15.25-1.77,12.19-8.65,9.57v11.13l-17.81.71-6.16,2.74-17.67,4.88Zm-3.31-12.38l3.9,11.26,16.77-4.62,6.35-2.79,17.01-.68v-10.6l8.7-9.62,1.69-11.63-6.71-14.13-28.12,14.37-1.27,6.13-12.83-.31-1.44,4.81-4.05,17.81Z"/><path class="cls-6" d="m496.8,312.26l-13.63-.33v-5.04s-3.58-.68-3.58-.68l-2.88-11.97-3.82-15.29,7.81-13.4,22.46-8.66,21.05,3.32-.77,17.28v6.47l3.58,7.36-28.95,14.79-1.27,6.13Zm-12.71-1.23l11.96.29,1.2-5.81,28.54-14.58-3.28-6.73v-6.72s.73-16.47.73-16.47l-19.99-3.15-21.93,8.45-7.45,12.8,3.73,14.92,2.74,11.39,3.73.71v4.9Z"/><path class="cls-6" d="m565.26,283.57l-42.76-5.69,1.65-37.09h13.87l12.84,7.92,12.3,20.38,2.09,14.48Zm-41.8-6.49l40.71,5.41-1.9-13.17-12.08-19.93-12.43-7.67h-12.73l-1.58,35.36Z"/><path class="cls-6" d="m515.06,456.89l-20.27-5.29,1.1-32.58,22.1,16.38.36,12.22-.03.08-3.26,9.19Zm-19.32-6l18.73,4.89,2.95-8.3-.34-11.6-20.33-15.06-1.02,30.08Z"/><path class="cls-6" d="m426.74,455.85l-37.24-9,.11-.45,9.85-39.11,29.52-8.08,5.02,1.52,7.86-.58,8.18,2.57,13.16,1.52,6,18.34,9.28-.11,2.22-6.24,16.09,3.32-1.09,32.27-22.92-4.83-46.06,8.86Zm-36.11-9.68l36.13,8.73,46.05-8.86.09.02,21.93,4.63,1.03-30.39-14.54-3-2.17,6.09-10.6.12-6.03-18.42-12.65-1.47-8.09-2.54-7.86.58-4.93-1.49-28.75,7.87-9.61,38.13Z"/><path class="cls-6" d="m351.23,483.43l-9.61-8.47,1.21-6.66-24.35-9.34-6.19-17.01-11.7-7.88-7.9-10.2,7.68-.89,3.1,3.56.83-3.72-3.29-4.01-5.8-.93-6.89-3.13-.07-.1-7.46-10.2-7.3-1.95,3.04-3.93-3.52-9.18,1.51-3.47-5.2-6.89,1.84-9.48-7.96-6.22-4.66,3.88-7.88-7.88,48.07.35,43.27-42.46,12.13,18.25,29.72,9.4,2.53,20.24h10.35l4.36-5.51,23.68-5,.84,10.06,5.35,5v.22s-1.4,24.86-1.4,24.86l-.12,5.3-29.21,8-9.75,38.72-.89.83-38.37,35.85Zm-8.6-8.81l8.58,7.57,38.44-35.92,9.82-38.98,29.06-7.96.11-4.63,1.38-24.65-5.29-4.95-.78-9.37-22.33,4.71-4.43,5.59h-11.62l-2.56-20.46-29.47-9.32-.09-.14-11.6-17.45-42.74,41.94h-.19s-46-.34-46-.34l5.69,5.69,4.59-3.82,9,7.03-1.86,9.63,5.28,6.99-1.57,3.62,3.57,9.32-2.51,3.24,6.27,1.67,7.58,10.36,6.62,3.01,5.97.94,3.8,4.63-1.33,5.95-3.99-4.57-5.57.65,6.85,8.85,11.78,7.9,6.15,16.9,24.67,9.46-1.26,6.9Z"/><path class="cls-6" d="m397.19,366.04h-11.62l-2.68-21.47,7.03,2.22,21.28-24.24,9.21,11.14.02.11,4.49,21.72-23.29,4.92-4.43,5.59Zm-10.8-.92h10.35l4.36-5.51,22.72-4.8-4.28-20.71-8.37-10.13-20.96,23.88-6.23-1.97,2.4,19.23Z"/><path class="cls-6" d="m390.21,347.86l-36.67-11.6-.09-.14-12.03-18.1,5.42-19.72,14.2-.63,25.17,6.28h28.5v4.45s-3.12,15.07-3.12,15.07l-21.4,24.38Zm-6.64-3.07l6.34,2.01,20.84-23.74,3.05-14.79v-3.38h-27.74s-25.1-6.28-25.1-6.28l-13.39.6-5.13,18.66,11.7,17.61,29.44,9.32Z"/><path class="cls-6" d="m413.8,308.87v-3.98h-27.74s-25.76-6.44-25.76-6.44l8.47-14.48,16.94-8.83v-8.4l18.26.42,35.58,1.89v8.62l-9.17,11,5.61,11.7,1.04,4.45-23.22,4.07Zm-27.57-4.91h28.5v3.8l21.17-3.71-.8-3.44-5.81-12.09,9.33-11.2v-7.41l-34.69-1.85-17.3-.39v8.02l-17.2,8.97-7.71,13.19,24.51,6.12Z"/><path class="cls-6" d="m434.81,334.37h-15.05l-9.07-10.97,3.19-15.48,22.68-3.98,11.22,6.69-4.89,9.46-8.08,14.28Zm-14.62-.92h14.08l7.81-13.79,4.48-8.68-10.18-6.07-21.72,3.81-2.97,14.43,8.51,10.3Z"/><path class="cls-6" d="m428.61,395.2l1.4-25.16-5.29-4.95-.82-9.89-4.5-21.77h14.86l7.94-14.03h4.19l20.56,25.54.02.11,5.67,26.53,4.73,4.73-7.01,5.9-.32,8.15-20.55-2.04-13.16,6.46-7.72.41Zm-2.99-30.53l5.35,5v.22s-1.37,24.34-1.37,24.34l6.6-.35,13.14-6.49h.13s19.71,1.97,19.71,1.97l.3-7.58,6.55-5.51-4.21-4.21-.03-.13-5.68-26.56-20.14-25.02h-3.21l-7.94,14.03h-14.27l4.28,20.72.8,9.59Z"/><path class="cls-6" d="m468.54,423.51l-6.03-18.42-12.65-1.47-8.09-2.54-7.86.58-5.39-1.63.13-5.75,7.54-.4,13.14-6.49h.13s20.36,2.03,20.36,2.03l7.73,7.82-2.78,3.23,6.74,16.28-2.36,6.64-10.6.12Zm-26.66-23.36l8.18,2.57,13.16,1.52,6,18.34,9.28-.11,2.03-5.69-6.82-16.48,2.59-3.01-6.89-6.98-19.9-1.97-13.16,6.46-6.78.36-.1,4.19,4.55,1.38,7.86-.58Z"/><path class="cls-6" d="m496.55,420.43l-15.87-3.27-6.99-16.87,2.59-3.01-7.15-7.24.32-8.27,6.55-5.51-4.21-4.21-.03-.13-5.76-26.93,12.2-11.22,3.82,11.02h0s.5,1.44.5,1.44l2.6,11.82,10.21,9.5-6.64,13.16,7.68,3.16.41,20.66,4.47,8.58-4.71,7.31Zm-15.2-4.08l14.77,3.05,4.08-6.33-4.32-8.3v-.11s-.4-20.16-.4-20.16l-8.04-3.31,6.77-13.43-9.91-9.23-2.65-12.05-3.84-11.07-10.77,9.9,5.62,26.28,4.73,4.73-7.01,5.9-.29,7.46,7.47,7.56-2.78,3.23,6.58,15.89Z"/><path class="cls-6" d="m495.88,405.42l-.41-20.91-8.04-3.31,6.77-13.43-9.91-9.23-2.74-12.48,17.96-4.95,10.94,19.56,17.49,3.95,8.49,7.46-19.03,27.97-3.7,1.79-9.01-1.1-8.8,4.68Zm-7.18-24.7l7.68,3.16.4,20.01,7.73-4.11,9.03,1.1,3.23-1.56,18.43-27.1-7.7-6.76-17.66-3.99-.1-.18-10.69-19.11-16.41,4.53,2.5,11.34,10.21,9.5-6.64,13.16Z"/></svg>