<?xml version="1.0" encoding="UTF-8"?><svg id="Capa_2" xmlns="http://www.w3.org/2000/svg" viewBox="0 0 573.94 469.78"><g id="Capa_1-2"><path d="m197.58,185.08h10.37l2.35-13.12h13.37l-2.35,13.12h8.26l2.35-13.12h13.37l-2.35,13.12h8.02v13.93h-10.45l-1.54,9.15h8.02v13.85h-10.45l-2.27,13.12h-13.37l2.27-13.12h-8.26l-2.27,13.12h-13.37l2.27-13.12h-7.94v-13.85h10.37l1.54-9.15h-7.94v-13.93Zm19.76,23.08h8.26l1.54-9.15h-8.26l-1.54,9.15Z"/><path d="m263.11,203.55c0-4.21.55-8.29,1.66-12.23,1.11-3.94,2.78-7.44,5.02-10.49,2.24-3.05,5.02-5.49,8.34-7.33,3.32-1.84,7.17-2.75,11.54-2.75s8.23.92,11.58,2.75c3.35,1.84,6.16,4.28,8.42,7.33,2.27,3.05,3.97,6.55,5.1,10.49,1.13,3.94,1.7,8.02,1.7,12.23s-.57,8.3-1.7,12.27c-1.13,3.97-2.84,7.47-5.1,10.49-2.27,3.03-5.08,5.46-8.42,7.29-3.35,1.83-7.21,2.75-11.58,2.75s-8.22-.92-11.54-2.75c-3.32-1.83-6.1-4.26-8.34-7.29-2.24-3.02-3.92-6.52-5.02-10.49-1.11-3.97-1.66-8.06-1.66-12.27Zm16.12,0c0,5.4.98,9.61,2.96,12.64,1.97,3.03,4.47,4.54,7.49,4.54,1.51,0,2.92-.39,4.21-1.17,1.29-.78,2.42-1.92,3.36-3.4.94-1.49,1.69-3.28,2.23-5.39.54-2.11.81-4.51.81-7.21,0-5.4-1.01-9.6-3.04-12.6s-4.55-4.5-7.57-4.5-5.52,1.5-7.49,4.5c-1.97,3-2.96,7.2-2.96,12.6Z"/><path d="m327.99,203.55c0-4.21.55-8.29,1.66-12.23,1.11-3.94,2.78-7.44,5.02-10.49,2.24-3.05,5.02-5.49,8.34-7.33,3.32-1.84,7.17-2.75,11.54-2.75s8.23.92,11.58,2.75c3.35,1.84,6.16,4.28,8.42,7.33,2.27,3.05,3.97,6.55,5.1,10.49,1.13,3.94,1.7,8.02,1.7,12.23s-.57,8.3-1.7,12.27c-1.13,3.97-2.84,7.47-5.1,10.49-2.27,3.03-5.08,5.46-8.42,7.29-3.35,1.83-7.21,2.75-11.58,2.75s-8.22-.92-11.54-2.75c-3.32-1.83-6.1-4.26-8.34-7.29-2.24-3.02-3.92-6.52-5.02-10.49-1.11-3.97-1.66-8.06-1.66-12.27Zm16.12,0c0,5.4.98,9.61,2.96,12.64,1.97,3.03,4.47,4.54,7.49,4.54,1.51,0,2.92-.39,4.21-1.17,1.29-.78,2.42-1.92,3.36-3.4.94-1.49,1.69-3.28,2.23-5.39.54-2.11.81-4.51.81-7.21,0-5.4-1.01-9.6-3.04-12.6s-4.55-4.5-7.57-4.5-5.52,1.5-7.49,4.5c-1.97,3-2.96,7.2-2.96,12.6Z"/><path d="m392.87,203.55c0-4.21.55-8.29,1.66-12.23,1.11-3.94,2.78-7.44,5.02-10.49,2.24-3.05,5.02-5.49,8.34-7.33s7.17-2.75,11.54-2.75,8.23.92,11.58,2.75,6.16,4.28,8.42,7.33c2.27,3.05,3.97,6.55,5.1,10.49,1.13,3.94,1.7,8.02,1.7,12.23s-.57,8.3-1.7,12.27-2.84,7.47-5.1,10.49c-2.27,3.03-5.08,5.46-8.42,7.29s-7.21,2.75-11.58,2.75-8.22-.92-11.54-2.75-6.1-4.26-8.34-7.29c-2.24-3.02-3.92-6.52-5.02-10.49-1.11-3.97-1.66-8.06-1.66-12.27Zm16.12,0c0,5.4.98,9.61,2.96,12.64,1.97,3.03,4.47,4.54,7.49,4.54,1.51,0,2.92-.39,4.21-1.17,1.3-.78,2.42-1.92,3.36-3.4s1.69-3.28,2.23-5.39c.54-2.11.81-4.51.81-7.21,0-5.4-1.01-9.6-3.04-12.6-2.02-3-4.55-4.5-7.57-4.5s-5.52,1.5-7.49,4.5c-1.97,3-2.96,7.2-2.96,12.6Z"/><path d="m457.75,203.55c0-4.21.55-8.29,1.66-12.23,1.11-3.94,2.78-7.44,5.02-10.49,2.24-3.05,5.02-5.49,8.34-7.33s7.17-2.75,11.54-2.75,8.23.92,11.58,2.75,6.16,4.28,8.42,7.33c2.27,3.05,3.97,6.55,5.1,10.49,1.13,3.94,1.7,8.02,1.7,12.23s-.57,8.3-1.7,12.27-2.84,7.47-5.1,10.49c-2.27,3.03-5.08,5.46-8.42,7.29s-7.21,2.75-11.58,2.75-8.22-.92-11.54-2.75-6.1-4.26-8.34-7.29c-2.24-3.02-3.92-6.52-5.02-10.49-1.11-3.97-1.66-8.06-1.66-12.27Zm16.12,0c0,5.4.98,9.61,2.96,12.64,1.97,3.03,4.47,4.54,7.49,4.54,1.51,0,2.92-.39,4.21-1.17,1.3-.78,2.42-1.92,3.36-3.4s1.69-3.28,2.23-5.39c.54-2.11.81-4.51.81-7.21,0-5.4-1.01-9.6-3.04-12.6-2.02-3-4.55-4.5-7.57-4.5s-5.52,1.5-7.49,4.5c-1.97,3-2.96,7.2-2.96,12.6Z"/><path d="m372.08,379.33H41.55c-14.04,0-25.46-8.76-25.46-19.53V106.04c0-10.77,11.42-19.53,25.46-19.53h117.69c-1.01-5.28-1.06-10.72-.63-16.09H41.55C18.64,70.42,0,86.4,0,106.04v253.77c0,19.64,18.64,35.61,41.55,35.61h330.53c4.44,0,8.04-3.6,8.04-8.04s-3.6-8.04-8.04-8.04Z"/><path d="m532.4,70.42h-111.8c-.47,5.36-.63,10.75-1.25,16.09h113.05c14.04,0,25.46,8.76,25.46,19.53v253.77c0,10.77-11.42,19.53-25.46,19.53h-87.43c-4.44,0-8.04,3.6-8.04,8.04s3.6,8.04,8.04,8.04h87.43c22.91,0,41.55-15.98,41.55-35.61V106.04c0-19.64-18.64-35.61-41.55-35.61Z"/><path d="m158.53,254.51c-2.05-18.71-13.7-34.18-29.73-41.79,7.35-6.36,12.02-15.74,12.02-26.2,0-19.1-15.54-34.64-34.64-34.64s-34.64,15.54-34.64,34.64c0,10.46,4.67,19.85,12.02,26.2-16.03,7.61-27.68,23.08-29.73,41.79-.38,3.5.75,7.01,3.1,9.64,2.37,2.64,5.76,4.16,9.31,4.16h79.89c3.55,0,6.94-1.52,9.31-4.16,2.36-2.63,3.49-6.14,3.1-9.64Zm-52.35-86.63c10.28,0,18.64,8.36,18.64,18.64s-8.36,18.64-18.64,18.64-18.64-8.36-18.64-18.64,8.36-18.64,18.64-18.64Zm-35.8,84.42c3.67-16.6,18.41-28.67,35.8-28.67s32.13,12.07,35.8,28.67h-71.59Z"/><path d="m199.13,118.09h-8.33c-19.25,0-34.91-15.66-34.91-34.91v-46.24c0-19.25,15.66-34.91,34.91-34.91h8.33c19.25,0,34.91,15.66,34.91,34.91v46.24c0,19.25-15.66,34.91-34.91,34.91Zm-8.33-100.67c-10.76,0-19.52,8.76-19.52,19.52v46.24c0,10.76,8.76,19.52,19.52,19.52h8.33c10.76,0,19.52-8.76,19.52-19.52v-46.24c0-10.76-8.76-19.52-19.52-19.52h-8.33Z"/><path d="m262.58,116.06h-8.33c-19.25,0-34.91-15.66-34.91-34.91v-46.24c0-19.25,15.66-34.91,34.91-34.91h8.33c19.25,0,34.91,15.66,34.91,34.91v46.24c0,19.25-15.66,34.91-34.91,34.91Zm-8.33-100.67c-10.76,0-19.52,8.76-19.52,19.52v46.24c0,10.76,8.76,19.52,19.52,19.52h8.33c10.76,0,19.52-8.76,19.52-19.52v-46.24c0-10.76-8.76-19.52-19.52-19.52h-8.33Z"/><path d="m325.34,118.09h-8.33c-19.25,0-34.91-15.66-34.91-34.91v-46.24c0-19.25,15.66-34.91,34.91-34.91h8.33c19.25,0,34.91,15.66,34.91,34.91v46.24c0,19.25-15.66,34.91-34.91,34.91Zm-8.33-100.67c-10.76,0-19.52,8.76-19.52,19.52v46.24c0,10.76,8.76,19.52,19.52,19.52h8.33c10.76,0,19.52-8.76,19.52-19.52v-46.24c0-10.76-8.76-19.52-19.52-19.52h-8.33Z"/><path d="m388.09,116.06h-8.33c-19.25,0-34.91-15.66-34.91-34.91v-46.24c0-19.25,15.66-34.91,34.91-34.91h8.33c19.25,0,34.91,15.66,34.91,34.91v46.24c0,19.25-15.66,34.91-34.91,34.91Zm-8.33-100.67c-10.76,0-19.52,8.76-19.52,19.52v46.24c0,10.76,8.76,19.52,19.52,19.52h8.33c10.76,0,19.52-8.76,19.52-19.52v-46.24c0-10.76-8.76-19.52-19.52-19.52h-8.33Z"/><path d="m437.77,395c-4.42,0-8-3.58-8-8v-34.85c0-6.11-4.97-11.08-11.08-11.08h-93.55c3.8,21.52,22.63,37.93,45.23,37.93h1.63c4.42,0,8,3.58,8,8s-3.58,8-8,8h-1.63c-34.15,0-61.93-27.78-61.93-61.93,0-4.42,3.58-8,8-8h102.25c14.93,0,27.08,12.15,27.08,27.08v34.85c0,4.42-3.58,8-8,8Z"/><path d="m437.77,469.78H173.59c-4.42,0-8-3.58-8-8v-72.74c0-4.42,3.58-8,8-8s8,3.58,8,8v64.74h248.19v-90.74c0-4.42,3.58-8,8-8s8,3.58,8,8v98.74c0,4.42-3.58,8-8,8Z"/><path d="m149.59,307.65H62.25c-4.42,0-8-3.58-8-8s3.58-8,8-8h87.34c4.42,0,8,3.58,8,8s-3.58,8-8,8Z"/><path d="m508.22,274.33H203.88c-4.42,0-8-3.58-8-8s3.58-8,8-8h304.34c4.42,0,8,3.58,8,8s-3.58,8-8,8Z"/></g></svg>