<?xml version="1.0" encoding="UTF-8"?><svg id="Capa_1" xmlns="http://www.w3.org/2000/svg" viewBox="0 0 489 240.26"><defs><style>.cls-1{fill:#db7f39;}.cls-2{fill:#1e1e1c;}.cls-3{fill:#3d1026;}</style></defs><path class="cls-2" d="m99.71,216.6h-.45s-1.23.02-1.23.02h-2.78v.54h.1c.39.04.63.11.69.22.09.1.12.41.12.92v5.21c0,.51-.03.84-.12.95-.07.09-.31.16-.69.19h-.1v.54h4.6c1.22,0,2.2-.4,2.92-1.2.73-.81,1.11-1.89,1.11-3.26s-.37-2.32-1.07-3.04c-.73-.72-1.75-1.08-3.09-1.08Zm1.58,7.02c-.47.65-1.17.98-2.09.98-.55,0-.89-.07-1.04-.2-.14-.12-.22-.42-.22-.89v-6.32h.65c1.23,0,2.1.29,2.62.83.51.52.77,1.43.77,2.71s-.23,2.26-.7,2.9Z"/><path class="cls-2" d="m110.3,223.69c-.03.47-.08.74-.16.8-.06.06-.39.1-.96.1h-.72c-.5,0-.81-.02-.92-.06-.15-.04-.23-.39-.23-1.03v-2.55h1.22c.39,0,.64.01.74.05.1.05.15.22.16.52v.11h.61v-1.87h-.6v.12c-.02.32-.06.51-.12.53-.07.02-.34.04-.79.04h-1.18v-3.26h1.84c.35,0,.58.03.68.1.1.07.15.21.15.42,0,.04.01.16.02.35v.1h.87v-1.54h-6.29v.54h.11c.4.04.62.11.7.22.08.1.12.41.12.92v5.21c0,.51-.04.84-.12.95-.08.09-.31.16-.7.19h-.11v.54h6.54v-1.61h-.87v.12Z"/><path class="cls-2" d="m29.1,222.91c-.03.63-.1.99-.19,1.08-.11.08-.54.1-1.3.1h-.96c-.66,0-1.08,0-1.22-.05-.2-.06-.31-.5-.31-1.37v-3.41h1.65c.52,0,.85,0,.99.07.13.06.21.29.21.7v.12h.82v-2.46h-.81v.13c-.01.47-.08.69-.16.73-.09.04-.44.05-1.05.05h-1.59v-4.32h2.45c.47,0,.78.02.92.12.13.07.21.25.21.56,0,.03,0,.18.02.44v.17h1.15v-2.06h-8.36v.71h.15c.52.05.84.13.94.27.1.13.16.56.16,1.24v6.94c0,.68-.06,1.09-.16,1.25-.11.14-.42.22-.94.26h-.15v.72h8.7v-2.13h-1.15v.14Z"/><path class="cls-2" d="m36.59,218.18l-.76-.44c-.63-.37-1.06-.68-1.28-.94-.22-.29-.32-.6-.32-1,0-.51.15-.96.51-1.3.34-.35.75-.53,1.24-.53.58,0,1.06.19,1.44.56.16.19.26.62.31,1.35v.13h1.15v-2.3c-1.15-.32-2.18-.49-3.08-.49-1.13,0-2.06.31-2.75.89-.69.59-1.03,1.36-1.03,2.33,0,1.24.95,2.39,2.86,3.43l.77.43c.63.34,1.05.65,1.28.95.22.3.33.67.33,1.16,0,.59-.2,1.09-.57,1.45-.38.38-.87.57-1.48.57s-1.2-.19-1.67-.57c-.23-.18-.35-.61-.39-1.3v-.17h-1.14v2.38c1.21.28,2.28.42,3.2.42,1.32,0,2.36-.29,3.14-.92.78-.62,1.17-1.46,1.17-2.49,0-.73-.21-1.35-.61-1.86-.42-.51-1.19-1.08-2.32-1.73Z"/><path class="cls-2" d="m41.01,215.88h1.13l.02-.22c0-.67.07-1.08.2-1.21.14-.11.45-.17.92-.17h1.87v8.4c0,.69-.06,1.11-.18,1.25-.12.14-.48.21-1.11.26h-.14v.72h5.23v-.71h-.14c-.65-.08-1.01-.13-1.1-.22-.08-.11-.14-.53-.18-1.31v-8.4h1.86c.47,0,.78.06.93.17.13.14.2.54.2,1.21v.22h1.15v-2.37h-10.65v2.37Z"/><path class="cls-2" d="m63.58,223.98c-.1-.11-.34-.55-.71-1.31l-4.27-9.27h-.79l-4.24,9.25c-.36.78-.59,1.22-.69,1.34-.1.1-.36.17-.78.19h-.14v.72h3.05v-.71h-.14c-.15-.03-.25-.04-.3-.04-.32,0-.48-.06-.48-.26,0-.21.14-.62.42-1.23l.58-1.23h4.79l.58,1.21c.3.66.45,1.07.44,1.24-.02.15-.34.24-.99.29h-.14v.72h4.75v-.71h-.11c-.43-.05-.69-.1-.81-.22Zm-8.16-3.29l2.01-4.43,2.08,4.43h-4.09Z"/><path class="cls-2" d="m70.79,213.48h-.6l-1.64.03h-3.71v.71h.15c.52.05.83.13.94.27.1.13.15.56.15,1.24v6.94c0,.68-.05,1.09-.16,1.25-.11.14-.41.22-.93.26h-.15v.72h6.13c1.63,0,2.92-.54,3.9-1.61.98-1.07,1.46-2.51,1.46-4.32s-.47-3.11-1.43-4.07c-.96-.94-2.32-1.42-4.1-1.42Zm2.1,9.34c-.62.86-1.55,1.27-2.77,1.27-.74,0-1.2-.08-1.38-.23-.2-.17-.29-.57-.29-1.19v-8.4h.86c1.63,0,2.79.35,3.48,1.06.67.7,1.02,1.91,1.02,3.63s-.31,2.99-.92,3.85Z"/><path class="cls-2" d="m83.41,213.23c-1.79,0-3.21.51-4.24,1.6-1.03,1.08-1.55,2.53-1.55,4.4s.52,3.29,1.55,4.37c1.03,1.07,2.45,1.6,4.24,1.6s3.2-.53,4.22-1.6c1.03-1.08,1.55-2.53,1.55-4.37s-.51-3.32-1.55-4.4c-1.02-1.09-2.44-1.6-4.22-1.6Zm2.45,9.89c-.54.87-1.36,1.31-2.45,1.31s-1.9-.44-2.45-1.31c-.53-.88-.82-2.2-.82-3.94s.29-3.02.82-3.91c.55-.84,1.35-1.3,2.45-1.3s1.91.46,2.45,1.3c.54.88.81,2.18.81,3.91s-.28,3.06-.81,3.94Z"/><path class="cls-2" d="m121.54,218.18l-.77-.44c-.63-.37-1.05-.68-1.27-.94-.23-.29-.33-.6-.33-1,0-.51.16-.96.5-1.3.34-.35.76-.53,1.24-.53.58,0,1.06.19,1.44.56.16.19.28.62.32,1.35v.13h1.16v-2.3c-1.16-.32-2.18-.49-3.07-.49-1.15,0-2.07.31-2.75.89-.7.59-1.03,1.36-1.03,2.33,0,1.24.95,2.39,2.87,3.43l.76.43c.63.34,1.06.65,1.28.95.22.3.33.67.33,1.16,0,.59-.18,1.09-.57,1.45-.38.38-.87.57-1.47.57-.64,0-1.21-.19-1.67-.57-.22-.18-.36-.61-.4-1.3v-.17h-1.14v2.38c1.2.28,2.28.42,3.21.42,1.3,0,2.35-.29,3.13-.92.79-.62,1.17-1.46,1.17-2.49,0-.73-.2-1.35-.61-1.86-.41-.51-1.19-1.08-2.31-1.73Z"/><path class="cls-2" d="m131.34,213.23c-1.79,0-3.21.51-4.24,1.6-1.03,1.08-1.55,2.53-1.55,4.4s.52,3.29,1.55,4.37c1.03,1.07,2.45,1.6,4.24,1.6s3.2-.53,4.22-1.6c1.04-1.08,1.56-2.53,1.56-4.37s-.52-3.32-1.56-4.4c-1.02-1.09-2.43-1.6-4.22-1.6Zm2.45,9.89c-.55.87-1.37,1.31-2.45,1.31s-1.9-.44-2.44-1.31c-.55-.88-.82-2.2-.82-3.94s.27-3.02.82-3.91c.53-.84,1.36-1.3,2.44-1.3s1.9.46,2.45,1.3c.54.88.8,2.18.8,3.91s-.26,3.06-.8,3.94Z"/><path class="cls-2" d="m145.96,214.22h.16c.52.05.84.13.94.27.09.13.14.56.14,1.24v6.38l-6.27-8.59h-2.87v.71h.14c.53.05.84.13.94.27.1.13.15.56.15,1.24v6.94c0,.68-.05,1.09-.16,1.25-.1.14-.4.22-.93.26h-.14v.72h3.59v-.71h-.13c-.52-.05-.84-.13-.94-.27-.11-.16-.15-.57-.15-1.25v-6.23l6.32,8.63h1.58v-9.34c0-.68.05-1.11.16-1.24.11-.14.42-.21.95-.27h.12v-.71h-3.58v.71Z"/><path class="cls-2" d="m156.54,213.23c-1.79,0-3.21.51-4.23,1.6-1.03,1.08-1.55,2.53-1.55,4.4s.52,3.29,1.55,4.37c1.02,1.07,2.44,1.6,4.23,1.6s3.2-.53,4.23-1.6c1.03-1.08,1.55-2.53,1.55-4.37s-.51-3.32-1.55-4.4c-1.02-1.09-2.43-1.6-4.23-1.6Zm2.46,9.89c-.55.87-1.36,1.31-2.46,1.31s-1.9-.44-2.44-1.31c-.56-.88-.82-2.2-.82-3.94s.26-3.02.82-3.91c.54-.84,1.36-1.3,2.44-1.3s1.9.46,2.46,1.3c.55.88.81,2.18.81,3.91s-.26,3.06-.81,3.94Z"/><path class="cls-2" d="m185.91,223.98c-.1-.11-.34-.55-.72-1.31l-4.27-9.27h-.8l-4.24,9.25c-.35.78-.58,1.22-.69,1.34-.11.1-.35.17-.77.19h-.14s-.14,0-.14,0c-.43-.03-.71-.09-.86-.2-.13-.12-.5-.55-1.04-1.29l-2.21-3.1c.72-.3,1.27-.72,1.64-1.25.36-.54.54-1.21.54-2.01,0-1.9-1.17-2.87-3.52-2.87l-.7.03-1.41.03h-3.32v.71h.15c.52.05.82.13.93.27.1.13.16.56.16,1.24v6.94c0,.68-.06,1.09-.16,1.25-.11.14-.41.22-.93.26h-.15v.72h4.55v-.71h-.15c-.42-.04-.68-.13-.76-.27-.09-.16-.14-.57-.14-1.25v-2.76h.97l3.17,4.99h6.43v-.71h-.16c-.16-.03-.25-.04-.29-.04-.32,0-.49-.06-.49-.26,0-.21.14-.62.41-1.23l.57-1.23h4.8l.57,1.21c.3.66.45,1.07.43,1.24,0,.15-.34.24-.98.29h-.14v.72h4.74v-.71h-.1c-.44-.05-.71-.1-.81-.22Zm-16.81-5.54c-.46.47-1.1.72-1.9.72h-.43v-4.88h.86c1.46,0,2.19.73,2.19,2.2,0,.82-.23,1.47-.71,1.96Zm8.65,2.25l2.02-4.43,2.08,4.43h-4.1Z"/><path class="cls-2" d="m132.3,177.88l.07-.11c-1.07.51.27,1.33.79.77.47-.5-.39-1.07-.86-.67Z"/><path class="cls-2" d="m115.84,166.82c.27.09.51.18.69.28.21.12.37.27.55.43.13.13.26.25.41.36.51.39.72.46,1.15.54.12.02.26.05.47.1.42.11.77.3,1.15.5.42.22.86.46,1.43.59.1.18.32.48.81.48.03,0,.06,0,.09,0,.4-.03.61-.33.72-.5,0,0,0,0,0,0,.06,0,.13,0,.2,0,.23.01.55.03.82-.18.03-.01.06-.02.09-.03.29-.13.43-.47.3-.77-.02-.03-.03-.06-.05-.09,0-.07,0-.13-.02-.19-.03-.2-.16-.36-.33-.45-.13-.19-.07-.45.2-1.08.04-.09.1-.19.16-.29.12-.22.25-.44.31-.65.08-.3.08-.57.08-.8,0-.14,0-.27.02-.37.06-.37.19-.73.32-1.12.12-.38.26-.76.34-1.17.04-.21.12-.45.19-.68.19-.57.4-1.23.25-1.96-.12-.62-.64-1.83-.99-2.39-.2-.33-.44-.57-.64-.77-.29-.29-.5-.51-.57-.88-.06-.29-.04-.71-.02-1.11.03-.93.07-1.89-.61-2.34-.67-.43-1.57,0-1.86.15-.26.12-.48.26-.7.39-.33.2-.6.37-.95.47-.17.05-.33.08-.47.12-.46.09-.98.2-1.49.72-.93.94-1.15,2.42-1.32,3.61-.03.18-.05.35-.08.51-.03.21-.09.43-.14.66-.14.56-.29,1.2-.21,1.8.04.31.18.57.31.81.14.26.26.49.24.7-.07.77-1.33,1.85-2.5,2.44-.25.12-.38.41-.3.68.25.91,1.2,1.24,1.97,1.51Zm1.99-4.52c.05-.56-.18-1-.37-1.35-.08-.16-.17-.33-.19-.43-.05-.38.07-.88.19-1.36.06-.26.12-.51.16-.74.03-.17.06-.35.08-.53.15-1.02.33-2.29.99-2.97.26-.27.5-.31.9-.4.19-.04.38-.08.59-.14.48-.14.85-.37,1.21-.59.21-.12.4-.24.61-.34.43-.21.63-.22.69-.22.01,0,.02,0,.02,0,.14.15.11.91.09,1.31-.02.47-.04.96.04,1.37.14.73.54,1.14.89,1.49.18.18.35.36.48.57.27.44.75,1.53.84,1.99.08.44-.06.9-.22,1.39-.08.26-.17.53-.23.81-.07.34-.18.68-.3,1.03-.14.42-.28.84-.36,1.29-.04.21-.04.42-.04.59,0,.18,0,.34-.03.48-.02.08-.13.26-.2.39-.08.15-.17.29-.22.41-.23.54-.59,1.37-.17,2.09-.12,0-.24.01-.37.05-.18.05-.31.16-.41.26-.09-.1-.23-.19-.41-.23-.49-.1-.88-.3-1.29-.52-.41-.22-.84-.45-1.4-.59-.24-.06-.4-.1-.54-.12-.28-.05-.32-.06-.66-.32-.11-.09-.21-.18-.31-.28-.21-.2-.45-.43-.8-.62-.25-.13-.55-.24-.85-.35-.31-.11-.67-.24-.93-.39,1.08-.66,2.41-1.79,2.52-3.03Z"/><path class="cls-2" d="m115.42,171.57c.05-.17,0-.36-.13-.49-.08-.08-.53-.47-1.11-.47-.28,0-.55.09-.76.28-.07.05-.11.13-.14.2-.43,1.21-.25,2.07.48,2.35.18.07.35.1.5.1.94,0,1.05-1.04,1.11-1.59.01-.15.03-.32.05-.39Zm-.99.29c-.02.2-.07.68-.16.75,0,0-.05.01-.19-.04-.16-.06-.15-.49.01-1.01.1-.03.24,0,.36.07-.01.07-.02.15-.03.23Z"/><path class="cls-2" d="m205.74,0H.7c-.39,0-.7.31-.7.7v212.56c0,19.28,17.44,19.83,19.43,19.83.2,0,.31,0,.32,0h72.99c5.63,0,9.24,5.84,9.29,5.92l.61.93c.13.2.35.32.59.32s.46-.12.58-.32l.62-.95c.04-.06,3.63-5.9,9.28-5.9h72.97s.12,0,.34,0c1.36,0,6.14-.2,10.63-2.74,4.01-2.27,8.79-7.08,8.79-17.09V.7c0-.39-.32-.7-.7-.7Zm-.7,213.26c0,7.49-2.72,12.83-8.08,15.87-4.2,2.38-8.67,2.56-9.94,2.56-.18,0-.28,0-.31,0h-72.99c-6.43,0-10.31,6.31-10.46,6.55l-.03.04v-.02c-.17-.27-4.06-6.57-10.49-6.57H19.71s-.11,0-.28,0c-3.01,0-18.03-.89-18.03-18.43V1.4h203.64v211.86Z"/><path class="cls-2" d="m18.92,190.35c0,15.77,14.34,16.23,15.97,16.23.16,0,.26,0,.26,0h59.52c4.52,0,7.42,4.68,7.43,4.69l.5.93c.12.23.36.37.62.37s.5-.14.62-.37l.48-.9s2.92-4.73,7.45-4.73h59.49s.1,0,.28,0c1.12,0,5.04-.16,8.73-2.24,3.3-1.86,7.24-5.8,7.24-13.98V19.53c0-.38-.31-.7-.7-.7H19.62c-.39,0-.7.32-.7.7v99.72l-.06.07.06.05v70.98Zm152.62,14.83c-.14,0-.21,0-.25,0h-59.53c-3.84,0-6.57,2.7-7.85,4.29v-88.99h3.39c0,.06,0,.12,0,.18-.03.5-.07,1,.27,1.66.14.28.29.47.41.62.2.26.28.38.26.92-.01.29-.14.66-.27,1.02-.15.43-.29.84-.29,1.23-.01,1.38.59,1.6,1.37,1.74.13.02.28.05.44.09,1.49.37,2.21,2.32,2.92,4.2.42,1.13.81,2.19,1.39,2.96.38.5.76,1.04,1.15,1.59.53.75,1.09,1.53,1.65,2.26.33.44.68.82,1.03,1.2.74.81,1.43,1.57,1.74,2.63.17.6-.12,1.42-.4,2.22-.35,1.01-.72,2.04-.25,2.9.83,1.55,2.29,1.4,3.35,1.28.55-.06,1.07-.12,1.36.05.82.47,1.14,1.39,1.48,2.37.16.45.32.91.53,1.33.26.5.41,1,.56,1.54.09.32.19.65.31.99.06.16.12.3.19.43.11.24.17.37.16.59,0,.09-.09.24-.17.37-.12.2-.24.42-.27.69-.05.52.1,1.02.24,1.51.08.27.16.55.21.83.03.17.04.37.06.57.06.7.13,1.57.69,2.1.2.19.49.25.78.32.14.03.39.09.46.14.1.08.24.28.35.44.08.11.15.23.23.31.11.14.29.34.49.55.12.13.29.31.43.48-2.5,2.1-4.61,4.28-6.71,6.51-.79.84-1.57,1.98-2.32,3.09-.56.81-1.09,1.58-1.58,2.19-1.5,1.81-2.57,3.27-3.28,4.44-.88,1.47-2.08,3.49-.04,5.24.65.55,1.77.61,2.76.61.23,0,.47,0,.7,0,.24,0,.49,0,.73,0,.55,0,2.58-.34,3.14-.48l.39-.09c2.69-.61,2.99-.68,5.9-2.07.03,0,.05-.01.08-.02.23-.08.66-.12,1.03-.16.5-.05.98-.1,1.37-.24.17-.06.43-.14.73-.24l.08-.03c.67-.23,1.43-.48,1.81-.63.87-.35,1.52-.57,2.22-.81.55-.19,1.12-.39,1.84-.66.79-.3,1.62-.65,2.51-1.07.11.1.17.2.25.33.26.44.57.85,1.56,1.02.16.02.4.02.91,0,.09,0,.18,0,.25,0,0,.02.02.06.03.09.05.19.13.49.43.76.5.45,1.27.61,1.94.75.3.06.59.13.8.2.49.18.82.42,1.2.7.23.17.47.34.76.52.07.04.15.06.23.08-.03,1.38.36,1.84,1.08,2.56.14.14.31.31.49.51.27.3.36.48.51.8.05.11.11.24.18.38.03.05.05.15.08.24.06.24.15.56.4.82.29.3.67.26.88.23.01,0,.02,0,.03,0,.04.09.04.21.02.45-.02.29-.05.66.12,1.05.14.32.44.6.76.88.18.17.39.35.46.48.16.24.19.46.22.74.03.24.07.51.2.8.18.38.47.57.66.69.05.03.12.09.13.07,0,0,0,.04-.01.16-.04.2.02.4.17.54.15.14.36.19.55.13.64-.18.75,0,1.11.76.22.46.47.99.96,1.35.33.25.77.39,1.2.53.31.1.62.2.84.33.09.05.23.17.36.28.34.27.71.58,1.16.64.46.07.76-.13.96-.25.1-.06.15-.1.21-.11.25-.05.55-.07.86-.08.36-.02.74-.04,1.09-.11.05.17.08.34.11.5.14.68.28,1.38,1.34,2.15.7.51,1.9.73,2.71.21.58-.38.81-1.04.64-1.84-.04-.16-.13-.29-.27-.38-.03-.02-.06-.03-.08-.04.02-.02.03-.04.05-.06.07-.09.15-.18.23-.29.02.05.04.09.07.13.51.84,1.05.92,1.63,1.01.12.02.25.04.39.07.19.04.59.19.98.34,1.21.46,2.03.74,2.6.59.13.17.29.36.53.45.33.13.64.12.9.11.17,0,.32-.01.43.02.46.14.63.35.89.71.04.05.07.1.11.15-3.15,1.52-6.3,1.65-7.25,1.65Zm-26.38-46.95c.65.51,6.9-4.03,7.08-2.41-1.08.02-3.2,1.66-4.66,2.39-.88.44-3.89,2.21-3.48-.1.22-1.27,1.4-3.39,2.15-4.53,1.03-1.56,2.05-2.96,3.38-3.95-.7,1.13-2.39,2.77-2.98,4.15-.23.53-2.05,4.01-1.49,4.45Zm23.73-16.99c.43,1.56,2.03,3.07,3.48,3.46.62-.65-.21-2.89.97-2.57,0,.02,0,.04,0,.06-.13.66.07,1.48-.09,2.19-.15.7-.25.91-.2,1.68-1.51-1.21-3.42-1.71-4.55-4.14-.9-1.92-1.08-5.08.2-6.91-.62,3.05-.26,4.6.19,6.23Zm4.96,9.07c.1,3.53-2.59,6.16-3.39,7.42-1.95,3.03-4.68,4.75-7.37,6.68-.42-.1-.84-.25-1.27-.47.04-.9.84-1.65,1.49-2.17,1.23-.98,1.97-1.94,3.19-2.95,1.51-1.25,4.12-3.58,4.88-5.32,0,0-7.46,7.6-13.54,10.44-5.27,2.47-10.05,6.32-10.05,6.32.55,0,1.94.25,2.49.2,1.54-.15,1.8-.17,3.35-.38.59-.08,1.89-.29,2.57-.67-4.26,2.97-8.73,5.84-13.08,8.27-.9.5-1.6.83-2.23,1.09-1.34.55-2.38.77-4.33,1.58-1.01.41-3.78,2.08-4.47,1.18-.96-1.22-.99-.31-2.39.79-2.27,1.78-4.59,2.24-7.24,2.71-.93.16-5.44,1.14-5.2-.63l.1-.1c1.49-1.38,4.09-2.94,5.72-3.81,2.19-1.19,4.56-2.67,7.11-3.89,2.14-1.03,4.22-2.03,6.25-3.05,3.44-1.71,6.74-3.43,9.99-5.27,5.75-3.24,10.33-4.98,14.13-7.44,2.35-1.53,5.64-3.73,7.73-5.59,1.27-1.13,5.28-4.9,5.57-4.94Zm-8.39,16.57c-1,.79-4.98,1.83-6.77,1.83s-6.71.69-6.71.69c.5-.5,3.53-1.43,6.22-1.33,2.69.1,8.26-1.98,7.27-1.19Zm-19.55-3.4c1.21-.62,2.43-1.25,3.63-1.91.71-.39,1.74-1.18,2.58-.97-.26.45-.73.71-1.14,1-3.28,2.29-6.65,4.49-10.16,6.39-2.01,1.09-4.18,2.1-6.29,3.22-2.3,1.22-4.53,2.55-6.4,4.25-.1-.38.2-.78.48-1.13,1.37-1.69,3.1-3.1,4.96-4.34,1.97-1.31,4.08-2.45,6.06-3.57,2.01-1.14,4.24-1.9,6.29-2.95Zm40.2,26.87c0,5.91-2.12,10.15-6.28,12.62-.07-.09-.14-.18-.21-.28-.31-.41-.67-.88-1.51-1.13-.29-.08-.55-.07-.79-.06-.16,0-.3,0-.4-.02-.03-.03-.08-.1-.12-.14-.14-.19-.3-.4-.54-.52-.17-.09-.36-.09-.53-.01-.09.04-.16.1-.22.19-.39-.03-1.3-.38-1.76-.55-.47-.18-.87-.33-1.16-.39-.16-.03-.31-.06-.44-.08-.5-.08-.59-.09-.8-.45-.02-.05-.03-.22-.04-.33-.03-.39-.07-.91-.52-1.17-.46-.26-.96,0-1.12.08-.27.14-.39.47-.27.75.09.21.06.29-.25.66-.27.33-.64.77-.61,1.46,0,.2.1.38.27.48.11.07.23.09.34.08-.03.03-.05.05-.07.06-.31.2-.99.11-1.39-.17-.69-.51-.76-.84-.88-1.44-.07-.33-.15-.73-.35-1.21-.06-.14-.18-.26-.32-.32-.14-.06-.31-.06-.45,0-.34.15-.82.17-1.29.2-.34.02-.69.03-1.01.09-.29.06-.49.18-.63.28-.12.08-.13.08-.17.08-.12-.02-.41-.25-.58-.39-.17-.14-.34-.28-.52-.38-.32-.19-.7-.31-1.06-.42-.34-.11-.69-.23-.87-.36-.26-.19-.42-.54-.6-.91-.29-.61-.7-1.48-1.78-1.49-.13-.36-.41-.54-.59-.66-.14-.09-.2-.13-.23-.2-.05-.12-.07-.27-.1-.45-.05-.34-.1-.76-.4-1.23-.16-.25-.42-.48-.66-.71-.16-.14-.42-.39-.47-.49-.05-.12-.04-.26-.03-.49.03-.38.07-.9-.35-1.38-.31-.36-.73-.34-.96-.31-.02-.06-.04-.13-.06-.2-.04-.14-.08-.3-.16-.45-.07-.13-.12-.24-.17-.35-.17-.35-.31-.66-.71-1.1-.2-.21-.37-.39-.53-.54-.53-.53-.73-.73-.74-1.47.15-.07.28-.16.37-.22.04-.03.09-.06.13-.08.15-.07.26-.21.3-.37.04-.17.01-.34-.08-.48-.35-.51-.95-.77-1.6-.69-.14.02-.28.09-.37.2-.08-.05-.15-.1-.22-.16-.41-.31-.84-.62-1.49-.86-.28-.1-.61-.17-.96-.25-.53-.11-1.13-.24-1.4-.48-.03-.03-.05-.05-.08-.19-.06-.24-.18-.69-.79-.92-.13-.05-.2-.05-.64-.04-.21,0-.6.02-.69,0-.53-.09-.6-.2-.75-.46-.05-.08-.1-.17-.17-.26.68-.34,1.4-.7,2.16-1.12l.82-.44c3.77-2.01,7.33-3.92,10.61-6.53l2.51-1.82c.22,0,.44-.01.66-.03,1.91-.16,3.42-.73,5.2-1.39,1.71-.64,4.47-2.33,4.56-4.15,0-.13-.04-.25-.13-.34-.08-.09-.21-.15-.33-.15h-.14c-.62,0-1.21.05-1.78.1.44-.36.87-.67,1.43-1.09l.07-.05c.65-.48,1.42-1.22,1.88-1.8.43-.55.77-.96,1.06-1.31.63-.75,1.04-1.25,1.7-2.4,1.24-2.17,2.68-5.56,2.51-9.36-.01-.19,0-.48,0-.78,0-.4.01-.81,0-1.08-.04-.51-.05-1.04-.07-1.55-.06-2.06-.12-4.2-1.75-5.87-1.08-1.11-2.19-2.26-2.89-3.74-.06-.12-.11-.27-.18-.46-.25-.66-.52-1.4-1.1-1.76-.27-.17-.54-.26-.81-.26-1.19,0-1.59,1.46-1.78,2.16-.55,2-.59,5.09-.1,7.05.6,2.38,2.24,3.49,3.84,4.56,0,0,.01,0,.02,0-.25.13-.48.29-.68.42-.11.07-.21.13-.29.18-1.1.61-1.88,1.74-2.63,2.84-.3.44-.58.85-.86,1.19-.9,1.1-1.55,1.58-2.66,1.97-1.07.38-2.67.63-3.99.63h-.15c-.29,0-.57,0-.86,0h-5.02c-.14-.14-.32-.41-.28-.85.06-.78-.03-1.52-.11-2.23-.09-.72-.18-1.4-.09-2.08.07-.56-.03-.98-.3-1.29-.22-.24-.54-.38-.89-.38-.27,0-1.09,0-3.15,1.79-2.38,2.07-3.85,4.78-5.28,7.4l-.68,1.26s0,0,0,.01c-1.55.55-3.09,1.44-4.58,2.3-.5.28-.98.57-1.45.82-1.78.97-3.32,2.13-4.88,3.33-.22.17-.43.34-.64.51-.13-.15-.29-.32-.48-.53-.17-.19-.34-.37-.44-.5-.05-.07-.11-.16-.17-.24-.17-.24-.35-.51-.6-.7-.27-.21-.61-.29-.91-.36-.09-.02-.21-.05-.27-.07-.21-.25-.26-.84-.3-1.31-.02-.24-.04-.46-.07-.66-.06-.34-.15-.67-.24-.96-.12-.42-.22-.77-.2-1.06.01-.04.08-.15.12-.23.14-.24.3-.52.32-.88.03-.52-.13-.86-.27-1.15-.05-.1-.1-.21-.14-.34-.11-.31-.21-.62-.3-.92-.16-.56-.34-1.14-.64-1.74-.18-.35-.32-.76-.47-1.18-.38-1.08-.81-2.31-2.01-2.99-.62-.35-1.36-.28-2.07-.2-1.1.12-1.75.15-2.2-.68-.22-.41.06-1.2.33-1.96.32-.93.69-1.97.42-2.93-.38-1.32-1.2-2.22-1.99-3.09-.32-.36-.66-.73-.96-1.12-.55-.72-1.1-1.48-1.62-2.23-.4-.56-.79-1.1-1.17-1.61-.47-.63-.84-1.62-1.23-2.67-.77-2.06-1.64-4.4-3.72-4.92-.19-.05-.36-.08-.52-.11-.14-.02-.34-.06-.36-.07,0,0-.06-.11-.06-.51,0-.2.12-.54.23-.87.15-.44.31-.9.33-1.35.04-.9-.18-1.26-.5-1.67-.1-.14-.2-.26-.29-.45-.19-.36-.17-.62-.14-1.04,0-.08,0-.17.01-.26h77.64v69.88Zm0-170.12v97.7L104.71,20.23h81.4Zm-.87,98.84H20.9L103.22,20.62l82.03,98.45ZM56.32,42.12l.47.53c.14.16.13.42-.03.56l-12.28,10.9c-.08.05-.16.1-.23.17l-.14.15-.12.11-13.93,12.37c-.08.07-.17.1-.26.1-.1,0-.2-.04-.27-.12,0,0-.02,0-.02-.02l-.47-.53c-.15-.16-.13-.42.03-.56l.99-.87,12.83-11.39,12.88-11.44c.07-.07.17-.1.26-.1.11,0,.22.05.3.13Zm-.11-.58c.61-.32,1.35-.65,2.27-.83-.3.92-.72,1.62-1.12,2.2,0-.2-.07-.41-.21-.58l-.47-.53c-.12-.14-.28-.23-.46-.27Zm-11.06,13.03l12.78,11.61c.16.15.17.4.03.56l-.3.33-.18.2c-.07.08-.16.11-.26.12-.01,0-.02,0-.04,0-.1,0-.19-.03-.27-.1l-7.58-6.88-5.2-4.73c-.16-.15-.18-.4-.03-.56l.23-.25.09-.1.16-.17s.09-.08.15-.1c.05-.02.1-.03.15-.03.1,0,.19.04.27.1Zm-2.5-1.6l-.17.19-.31.34c-.08.09-.19.13-.29.13-.1,0-.19-.03-.27-.1l-4.6-4.18-1.75-1.58-1.02-.93-3.79-3.44c-.16-.15-.17-.4-.03-.56l.47-.52c.08-.08.19-.13.29-.13.1,0,.19.03.27.1l3.71,3.37,1.05.95,1.34,1.22,3.66,3.32,1.39,1.26c.16.14.17.4.03.56Zm-7.68-4.86l1.86,1.68,4.48,4.07c.08.08.18.14.29.18l-11.32,10.05-1.52,1.34c-.17.15-.27.37-.29.6-.01.23.06.45.22.63l.47.53c.07.08.15.14.24.18.12.07.26.1.4.1.21,0,.42-.07.57-.22l13.19-11.72c.03.18.12.35.27.49l4.48,4.06,8.31,7.54c.16.14.36.22.58.22s.43-.09.59-.24c.02-.01.03-.03.05-.04l.18-.2.3-.33c.32-.35.29-.9-.06-1.22l-12.78-11.61c-.07-.07-.16-.12-.24-.15l11.35-10.08c-.69,1-.43,1.5.82,2.91.76.86,1.35,1.27,1.82,1.27.19,0,.37-.07.49-.19,6.19-5.62,4.16-10.58,3.76-11.41-.02-.07-.06-.13-.1-.18-.05-.07-.12-.11-.2-.15-.42-.27-1.81-1.04-3.89-1.04-2.59,0-5.23,1.16-7.86,3.43-.12.1-.21.26-.24.44-.07.48.26,1.11,1.04,1.98.89,1.01,1.36,1.43,1.95,1.43.23,0,.44-.07.65-.17l-11.59,10.29c-.03-.2-.12-.39-.28-.53l-1.81-1.65-3.38-3.07-1.21-1.1c.37-.43.76-.84,1.23-1.2.52-.39,1.66-1.35,2.31-1.12.52.18,1,1.04,1.13,1.47.31.98.12,2.77.74,3.57,1.05,1.35,1.62-2.23,1.68-2.9.13-1.39.02-2.78.09-4.17.07-1.41.33-2.67.69-4.02.3-1.13.47-2.4,1-3.44.66-1.28,1.43-2.02,2.5-2.89.91-.74,1.49-2.11,2.09-3.12.54-.9,1.88-1.81,2.95-1.12,1.09.7-.67,2.17-1.18,2.9-.8,1.13-1.29,2.09-1.74,3.44-.5,1.49-.86,3.02-1.52,4.45-.26.56-.64,1.14-.82,1.71-.14.45,0,1.6.43,1.9.83.57.76-1.03.84-1.53.1-.67.33-1.15.71-1.66.38-.49.69-.76.76-1.4.07-.68-.28-1.18-.13-1.86.13-.61.56-.99.88-1.49.44-.69.59-3.23,1.77-3.12.27,1.25-.43,3.48.83,4.1.7-.77.28-2.57.45-3.58.1-.63.45-.92.6-1.49.11-.45-.23-1.59.58-1.4.07.5.15,1.19.44,1.57.16.21.39.13.56.33.16.19.11.69.29.82.56.41.8-.39,1.08.61.16.57.16,1.21.25,1.79.06.38-.02,1.29.51,1.42.65.16.85-1.08,1.11-1.49.28-.47.69-.76,1.04-1.19.4-.49.74-.77,1.08.14.2.54.02,1.1.37,1.64.33.51.87.76,1.26,1.19.37.41.53.97.79,1.45.3.56.56.82.61,1.47.07.81-.19,1.47-.3,2.23-.09.64,0,1.29-.07,1.94-.14,1.4-1.32,2.29-1.56,3.65-.35,1.91-.23,3.92-.06,5.86.13,1.51.19,2.9.13,4.41-.05,1.21-.1,2.75.3,3.87.17.47.54.65.91,1.03.4.41.38.61.73.9.12-1.3.51-2.08-.09-3.27-.61-1.21-.43-2.47-.36-3.82.07-1.38-.15-2.67-.23-4-.07-1.31.62-2.36.75-3.57.09-.88-.35-2.44.08-3.2.76-1.35,1.69.87,1.69,1.61,0,2.23-.76,5.96,1.19,7.53.35-.55.11-1.16,0-1.72-.16-.84-.09-1.68-.13-2.54-.05-1.19.16-2.55-.15-3.7-.15-.56-.58-3.45.38-1.79.33.57.43,1.26.67,1.84.27.68.73,1.29.95,2.01.58,1.96.61,3.93.61,5.99,0,1.7.34,2.91-.37,4.45-1.55,1.82-3.1,3.64-4.66,5.47-.93,1.09-1.87,2.17-2.79,3.27-.28.34-.54,1.07-.95,1.06-.61,0-.6-.94-.61-1.36-.01-.41.04-.82.08-1.23.13-1.3.33-2.61.45-3.87.14-1.4-1.18-2.05-1.35-3.27-.09-.68-.05-1.27-.22-1.94-.14-.53-.37-1.07-.38-1.63-.03-1.29-.81-2.12-.74-3.5.05-.94.21-2.61-.84-3.1-.7-.33-.92.07-.95.8-.03.69.31,1.13.69,1.71.4.62.58,1.04.5,1.79-.08.78-.04,1.09.22,1.86.39,1.16.42,2.4.38,3.65-.03.69-.05,1.03.39,1.64.29.4.86.8,1.01,1.28.34,1.06-.3,2.49-.36,3.54-.06,1.13-.02,2.23-.09,3.36-.06-.06-.26-.1-.36-.19-.16.45-.6.61-1.05.59-.08.38-.48,1.77-2.59,2.72-2.46,1.12-11.16-.07-11.16-.07,0,0-.6-6.7-3.87-6.92-3.27-.22-3.8,6.7-3.8,6.7-.82.97-3.35.67-4.31-.08-.85-.65-3.07-.68-3.45-1.02-.12-.01-.25-.02-.37-.01-.88.03-1.91.05-2.57-.62-.8-.82-.41-2.35-.17-3.33.61-2.44,1.57-4.52,2.92-6.69.72-1.15,1.42-2.24,2.16-3.36.81-1.21,1.26-2.55,1.89-3.85.53-1.1,1.27-2.13,2.07-3.03Zm-14.65-27.9h81.4l-26.55,31.76c-.38-.66-.68-1.27-.92-1.88-.14-.36-.25-.74-.35-1.11-.18-.64-.37-1.3-.75-1.91-.19-.31-.41-.61-.61-.89-.39-.54-.75-1.06-1.01-1.66l-.18-.42c-.43-1.02-.87-2.08-1.83-2.84-.29-.23-.62-.43-.94-.62-.52-.31-1.01-.61-1.36-1.03-.38-.45-.54-1.19-.69-1.9-.07-.34-.14-.66-.24-.96l-.12-.36c-.65-2.02-1.45-4.53-3.04-5.9-.45-.38-.96-.63-1.46-.87-.3-.14-.61-.29-.89-.47-.41-.25-.75-.57-1.12-.91-.31-.29-.63-.59-.99-.84-1.46-1.01-3.91-2.04-5.76-2.04-.4,0-.77.04-1.09.14-1.57.45-2.59,1.91-3.48,3.2-.25.37-.49.71-.73,1.02-.3.38-.66.69-1.05,1.01-.39.33-.8.68-1.13,1.1-.62.81-.97,1.75-1.3,2.66-.1.27-.2.54-.31.81-.95,2.37-2.1,4.1-3.64,5.45-1.78,1.55-3.29,2.91-4.69,4.54l-3.69-3.36c-.16-.14-.37-.22-.58-.22-.08,0-.15.01-.22.03,1.15-1.24,4.34-4.45,7.26-5.12.19-.04.33-.2.36-.38l.05-.32s.01-.07.01-.1c0-.26-.21-.47-.47-.47h-.01s-.02,0-.02,0c-.27.02-5.04.37-8.68,4.04-.17-.32-.48-.68-.98-.68-.38,0-.76.21-1.16.65-.47.51-.64.99-.49,1.42.13.39.48.6.73.69-3.35,3.99-3.23,8.81-3.23,9.02,0,.14.07.27.19.36.08.06.18.1.28.1.04,0,.07,0,.11-.01l.35-.09c.18-.04.32-.2.35-.39.38-2.83,3.01-6.09,4.25-7.49-.04.28.05.57.27.77l3.82,3.47c-2.65,3.53-4.73,7.22-7.12,11.59-1.09,2-2.22,4.07-2.91,6.34-.69,2.28.13,3.82,2.6,4.85.94.4,1.91.54,2.82.66.98.13,1.56.38,2.49.81,1.26.58,2.51.87,3.84.87,1.02,0,2.09-.16,3.47-.5.14-.04.39-.12.7-.22.82-.26,2.2-.71,2.86-.71.18,0,.23.03.23.03.07.11.11.23.16.36.11.31.26.7.8.82.23.05.5.08.85.08.19,0,.37,0,.56-.01.35-.01.7-.03,1.02,0,1.52.17,2.81.25,4.04.25h0c.39,0,.79,0,1.19-.03,1.52-.06,2.88-.33,4.32-.61.42-.08.84-.16,1.27-.24.17-.03.55-.03.94-.03.27,0,.51,0,.74,0l-38.53,46.08V20.23Zm0,100.24h82.2v88.99c-1.27-1.58-4.01-4.29-7.85-4.29h-59.55s-.09,0-.23,0c-2.43,0-14.57-.71-14.57-14.83v-69.88Z"/><path class="cls-2" d="m57.55,62.18c-.09-.2-.33-.35-.43-.54-.17-.33-.1-.53-.36-.84-.37-.43-1.01-.62-1.43-1-.55-.5-.72-.91-.95-1.59-.16-.49-.54-.98-.69-1.48-.38-1.25.32-2.59.06-3.86-.25-1.21-1.54-1.03-1.92-1.88-.14-.32.19-1.18-.28-1.36-.22-.09-.79.43-.97.63-.29.34-.44.81-.67,1.19-.23.38-.64.61-.86.95-.39.6-.61,1.92-.64,2.6.55.09,1.36-.31,1.83-.05.68.39.1,1.25.54,1.7.34.35.97.05,1.41.45.45.41.68,1.12.9,1.7.24.64.43,1.31.65,1.94.29.77.44.82,1.13,1.13.74.33,1.03.73,1.34,1.4.29.64.67.56,1.1,1.06.38.45.12,1,.98,1.03h.08c-.16-.52-.34-1.02-.5-1.57-.16-.53-.15-1.18-.33-1.62Z"/><path class="cls-2" d="m179.74,29.28s-.09,0-.09,0c-.04-.06-.05-.32-.06-.46,0-.14-.01-.26-.03-.35-.05-.23-.14-.45-.23-.67-.13-.3-.24-.58-.24-.86,0-.12-.08-.22-.19-.24-.42-.07-.66.21-.86.43-.11.13-.21.24-.34.24h0c-.12-.04-.31-.55-.39-.77-.07-.2-.13-.37-.2-.49-.34-.56-.65-.82-1.01-.82-.38,0-.66.3-.96.62-.16.17-.32.34-.5.46-.53-.67-1.7-1.52-2.56-1.52-.19,0-.36.04-.51.13-.39.22-.64.63-.85,1-.39.67-.61.9-1.18.52-.16-.1-.29-.25-.43-.4-.3-.32-.65-.68-1.27-.64-.49.03-.77.35-1.03.65-.12.14-.24.29-.39.4-.19.15-.32.23-.42.23-.07,0-.14-.04-.26-.1-.16-.09-.37-.2-.69-.24-.58-.08-.85.25-1.08.53-.15.18-.3.35-.52.44-.25.1-.43.04-.67-.05-.11-.04-.24-.09-.39-.12-.14-.03-.27-.04-.39-.05-.25-.02-.44-.04-.65-.2-.13-.1-.18-.2-.24-.31-.11-.21-.25-.51-1.03-.34-.53.11-.84.55-1.1.93-.26.37-.49.69-.9.69h0c-.27-.02-.5-.26-.73-.51-.32-.34-.68-.74-1.26-.65-.41.06-.64.34-.85.59-.13.16-.25.31-.4.38-.31.14-.65-.03-1.03-.24-.1-.06-.2-.11-.31-.16-.14-.07-.29-.16-.45-.27-.37-.24-.79-.51-1.24-.51h0c-.62.03-.85.44-1.06.8-.09.15-.17.31-.29.43-.22.25-.47.36-.82.36-.23,0-.48-.05-.72-.1-.25-.05-.51-.1-.75-.1-.46,0-.8.18-1.05.55-.23.34-.3.74-.37,1.1-.1.56-.15.67-.34.67-.15,0-.37-.08-.66-.22-.11-.06-.21-.13-.3-.19-.19-.13-.37-.25-.6-.25s-.42.11-.63.35c-.2.22-.27.45-.34.66-.09.29-.14.46-.45.56-.38.13-.85,0-1.23-.14-.46-.15-.89-.23-1.14.02-.2.2-.29.56-.28,1.17,0,.15.04.35.07.57.05.34.14.86.03,1.05-.1.15-.3.22-.67.22-.12,0-.23,0-.35-.01-.16-.01-.31-.02-.43-.01-.11,0-.2.09-.22.2-.08.5.11.91.27,1.26.13.27.24.53.25.81,0,.25-.16.39-.42.61-.25.2-.58.46-.56.9.01.47.28.65.46.77.19.12.27.18.09.66-.04.1-.09.19-.14.27-.12.21-.27.47-.14.81.12.31.39.54.66.77.24.21.5.42.61.68.02.04.04.07.07.09.05.04,4.62,3.6,6.6,8.14-.05-.01-.1-.02-.16-.02-.45,0-.95.27-1.13.87-.81.7-.57,1.5-.21,2.05.12.19.29.32.49.39.06.02.36.12.87.27-.35,1.18-.73,2.34-1.15,3.44-.47,1.23-.95,2.5-1.73,3.51-.08.1-.22.22-.37.34-.32.26-.69.57-.67.96.01.39.34.63.63.85.2.15.41.3.45.45.05.19-.04.37-.14.58-.12.25-.26.54-.16.87.1.33.52.59.92.84.15.09.29.18.36.25.11.08.2.17.29.25.3.27.6.56,1.11.61.24.02.4-.01.51-.04.03,0,.06-.01.05-.02.02.01.08.07.24.34.13.22.24.43.33.61.37.71.62,1.2,1.76,1.31,0,.08,0,.16,0,.25-.02.4-.04.86.14,1.2.25.49.78.73,1.25.94.18.08.35.16.49.24.12.08.25.19.39.3.25.21.53.45.87.54.18.05.41.03.65,0,.29-.03.57-.04.71.08.03.04.06.2.08.3.04.18.07.34.15.47.21.34.34.42.56.46.07.02.15.03.28.11.39.23.38.26.29.5-.06.17-.15.4-.15.72,0,.9.69,1.1,1.29,1.27l.1.03c.7.2.98.01,1.27-.22.1-.08.22-.17.38-.27.48-.28.58-.24.96.17.1.11.2.22.33.34.29.27.53.39.78.39.15,0,.28-.04.39-.09.14-.05.25-.09.42-.06.22.04.38.16.56.29.25.19.54.4,1.05.41h.07c.43,0,.88-.07,1.3-.13.26-.04.52-.08.77-.1.5-.05.95-.14,1.42-.24l.34-.06c.35-.07.51.03.73.2.19.14.42.31.83.34.18,0,.32-.09.44-.17.1-.07.2-.13.34-.14.23,0,.45.12.67.25.14.09.27.17.39.26.34.24.66.48,1.24.48.05,0,.12,0,.17,0,.76-.06,1.38-.53,1.74-1.35.12,0,.25,0,.38,0,.15,0,.31,0,.47,0,.45,0,.74-.04.95-.12.56-.22.6-.63.62-.93.02-.19.03-.36.15-.5.1-.12.28-.2.49-.29.28-.12.59-.26.81-.55.33-.44.58-1.23.42-1.79-.07-.25-.21-.44-.42-.56-.88-2.81-1.93-6.17-2.87-9.28.16-.2.32-.47.35-.81.03-.29-.04-.72-.48-1.19-.16-.17-.38-.35-.63-.52-.58-1.93-1.07-3.65-1.42-4.91.27-.06.54-.13.8-.2.25-.07.47-.25.58-.48.29-.58.57-1.4.24-2.02-.1-.19-.25-.35-.43-.45-.1-1.02-.87-1.07-1.03-1.07-.02,0-.08,0-.19.01.86-2.8,2.45-5.43,3.99-7.99.71-1.18,1.44-2.39,2.09-3.6l.16-.29c.7-1.31,1.43-2.67,2.23-3.96.09-.14.2-.29.3-.45.25-.34.5-.7.63-1.1.29-.91-.31-3.22-.91-3.93-.14-.17-.34-.18-.47-.19Zm-33.49,23.1c-.53-.83.23-.76.3-1.21.04-.23.15-.28.25-.28.11,0,.2.06.2.06.12.02.24.04.35.05,1.21.19,2.41.35,3.58.48.09.26.19.51.29.71.08.16.24.26.42.26.03,0,.06,0,.09,0,.21-.04.36-.22.37-.43l.02-.4c3.89.39,7.47.52,10.5.52.38,0,.76,0,1.12,0-.08.45-.2.88-.38,1.29-.91,0-1.81-.02-2.71-.09-1.38-.14-2.78-.26-4.18-.29-1.39-.04-2.79-.05-4.19.02l4.17.34c1.39.12,2.76.24,4.16.4.85.06,1.7.07,2.55.05-.06.12-.13.24-.2.36l-.24.4c-.08.13-.08.28-.03.42-7.03-.07-13.39-1.74-15.61-2.38-.54-.16-.83-.26-.83-.26Zm5.93-1.81c.29-2.95,2.78-5.27,5.81-5.27,3.2,0,5.81,2.59,5.84,5.79-3.32.08-7.64.02-11.65-.52Zm22.47,21.76c-.07.91-.79,3.19-1.91,1.97-1.17-1.27-.76-3.88-1.02-5.44-.26-1.56-.65-3.31-1.3-4.76-.51-1.13-.97-.98-.83.15.23,1.82.83,3.82,1.38,5.61.31,1.01.45,1.99.6,3.02.1.7.47,1.64.08,2.33-.2.34-1.13.7-1.51.51-.42-.21-.53-1.17-.64-1.55-.51-1.82-.66-3.7-.97-5.61-.21-1.28-.27-2.57-.47-3.85-.17-1.09-.34-3.35-1.18-4.07-.02.23-.09.48-.1.71-.09,1.72.45,3.33.82,4.95.49,2.12.18,4.42.4,6.59.06.62.32,1.68-.32,2.02-.78.42-1.1-.32-1.19-.91-.13-.91-.06-1.86-.17-2.77-.2-1.66,0-3.63-.44-5.22-.86,2.02-.32,4.58-.23,6.73.03.77.45,2.36-.45,2.77-1.03.47-1.32-.63-1.65-1.21-.41.49-.7,1.23-1.43.89-.77-.36-.37-1.27-.4-1.95-.04-1.09-.1-2.26-.15-3.38-.06-1.18.3-2.85-.24-3.94-1.13.57-.22-1.19-1.11-1.08-.07-.26-.18-.29-.37-.43-.58.97-.67,2.07-.92,3.16-.32,1.36-.99,2.76-1.06,4.18-.03.62.19,1.57-.16,2.1-.42.63-1.08.27-1.4-.32-.18-.32-.09-2.02-.4-1.95-.53.11.02,1.27-.97.97-.03-1.17-.07-2.21-.01-3.38.03-.68.75-3.11.14-3.56-1.09-.78-2.35,3.52-2.55,4.14-.43-.4-1.15-.18-1.59-.6-.38-.37-.42-.89-.38-1.42.06-.7.48-1.37.7-2.02.34-.99.71-1.98,1.05-2.97.46-1.35.58-2.04,1.04-3.4.08-.23,1.75-3.54.54-3.16-.33.11-.74,1.48-.9,1.82-.47.95-.86,1.94-1.25,2.93-.42,1.06-1,2.04-1.42,3.11-.36.94-.44,1.95-.77,2.85-.66-.31-1.69-.39-1.72-1.35-.02-.71.76-1.46,1.08-2.04.54-.97,1.06-2.03,1.41-3.11.32-1,.6-2.01.91-3.01.21-.67.56-.84.16-1.51-.97.6-1.1,2.4-1.65,3.38-.73,1.32-1.59,2.65-2.23,4.02-.21.45-.24,1.37-.74,1.6-.44.2-1.08-.14-1.21-.53-.36-1.03,1.31-1.52,1.12-2.56-.42.24-1.88,1.48-1.78.07.06-.86,1.31-1.11,1.65-1.74.23-.43.1-.85.22-1.28.13-.47.48-.78.68-1.21.46-.98,0-3.7,1.06-3.48,1.03.22,2.02.41,2.99.58,4.82.86,8.77,1.19,11.78,1.27.15,0,.29,0,.43,0l1.62,1.37c-.12.31-.1.57-.04.75.23.73,1.16,1.1,2.03,1.37.51.15,1.37,1.1,2.14,1.95.74.82,1.44,1.58,2.04,1.94.19.11.38.18.56.22.43,1.39.92,2.73,1.42,4.08.49,1.32,1.26,3.26,1.15,4.68Zm-1.24-11.63s.04.03.06.05c.4.42.4.8.29,1.08-.12.29-.37.49-.44.54,0,0-.28.75-.94.75-.14,0-.29-.03-.46-.11-.05-.02-.11-.05-.17-.08-1.21-.71-3.12-3.58-4.28-3.93-.91-.27-1.86-.68-1.74-1.35.02-.07.04-.15.08-.23.03-.06.07-.13.13-.2,0-.01.01-.02.02-.03l.33-.33h0s.26-.42.26-.42h0c.05-.07.1-.13.16-.17.06-.06.13-.1.19-.14.1-.05.2-.08.3-.08.54,0,1.06.72,1.47,1.43.34.57,1.46,1.2,2.57,1.81.87.48,1.73.96,2.18,1.4Zm-5.42-4.81c1.55-.1,2.36-.25,2.36-.25.07,1.01.47,2.05.74,3.05-.88-.49-1.78-1.02-2.02-1.43-.31-.53-.66-1.05-1.08-1.37Zm3.94-4.18c.23,0-.07.83.45.91.53.08-.08,1.28-.08,1.28-.26.07-.52.13-.79.2-1.9.47-3.86.73-5.81.85l-.54-.54.1-.2c.09-.16.18-.33.26-.49,1.16-.1,2.31-.23,3.45-.43l-2.09.07c-.41.02-.81.02-1.21.03.19-.42.34-.87.44-1.31,2.64-.09,4.53-.25,5.35-.33.27-.03.43-.04.46-.04Zm7.34-18.67c-.14.66-.54,1.09-.9,1.68-1.38,2.18-2.3,4.63-3.51,6.87-1.1,2.04-2.24,4.03-3.3,6.06-.51.98-.91,2.69-2.04,3.15,0,0-1.24.11-3.2.21.03-.26.04-.51.04-.77,0-4.32-3.51-7.83-7.83-7.83s-7.83,3.51-7.83,7.83c0,.03,0,.08,0,.11-.54-.09-1.07-.19-1.58-.3-1.22-.26-1.95-2.77-2.44-3.92-.51-1.21-1.54-2.03-2.47-2.95-.97-.95-1.65-2.09-2.51-3.16-.94-1.17-.95-1.64-.27-2.95.96.63,1.96,2.1,2.63,3.07.36.52.6,1.47,1.13,1.82.87.58.71-.37.51-.97-.38-1.16-1-2.3-1.47-3.39-.52-1.19-1.73-2.18-1.31-3.48.15-.47.42-1.08.74-1.45.43-.52.78-.89,1.26-.51,1.17.93,1.18,2.96,1.8,4.23.58,1.19.51,2.53.98,3.78.53,1.41,1.2,2.64,1.66,4.08.22.69,1.39,3.6,1.49,1.36.07-1.4-.79-2.37-1.04-3.7-.26-1.4-.76-2.75-1.15-4.08-.38-1.3-.5-2.49-1.13-3.77-.53-1.08-1.1-1.86,0-2.78.75-.63,1.62-.93,2.21-1.81.94.63,1.03,1.98,1.73,2.86,1.32,1.63.25-1.8.5-2.28.68-1.34.92.93,1.77.56.5-.21.49-.89,1.11-.93.65-.04.54.49,1.04.69.01.86.94,1.75.37,2.61-.25-.26-.25-.58-.58-.65-.02,1.75-.05,3.33.27,5.06.18.99.42,1.9.75,2.85.22.64.35,1.72.87,2.19.68-.29.4-2.86.36-3.55-.07-1.35-.36-2.64-.53-3.97-.12-.93-.05-1.83.08-2.74.14-.93-.42-1.7-.21-2.56.93-.1.88.69,1.55-.25.44-.61.54-1.03,1.23-.37.5.48.37.87,1.21.63.79-.23.99-.68,1.05.44.15,2.35-.25,4.77-.23,7.15.01,1.52.09,3.15.32,4.62.42-.73.29-2,.36-2.87.1-1.16.18-2.3.13-3.47-.07-1.72-.23-3.36.1-5.07.16-.84.35-2.45,1.41-1.64.19.15.33.51.53.61.43.2.2-.04.61-.04.41,0,.2-.35.55.02.36.38.1,2.04.08,2.51-.06,1.19-.25,2.37-.31,3.56-.07,1.43-.35,3.18-.14,4.58.62-.17.57-1.77.68-2.31.17-.86.35-1.71.51-2.57.29-1.61.51-3.26.61-4.89.06-.92.59-3.29,1.57-1.7.88,1.44.32,3.77.17,5.4-.12,1.38-.42,2.72-.61,4.06-.12.85-.59,2-.44,2.84.55-.11.79-2.57.99-3.22.27-.85.51-1.71.68-2.57.28-1.41.25-2.87.72-4.26.25-.76.97-2.92,1.68-3.09,2.16-.51,1.13,2.7.92,3.72-.38,1.85-.75,3.75-1.3,5.58-.36,1.21-1.16,2.65-1.12,3.92.61-.42,1.16-2.88,1.42-3.65.44-1.27.61-2.56.98-3.82.38-1.29.6-4.26,2.17-4.75.49.85-.07,2.32-.19,3.24-.21,1.52-1.12,3.1-.91,4.68.93-.44,1.03-2.2,1.28-3.08.23-.81.42-1.62.83-2.36.23-.43.85-1.64,1.46-1.29.31.18.52,1.32.88,1.67.35.33.41.05.61.53.13.33.01.62-.06.97Z"/><path class="cls-2" d="m74.49,82.93c.29,2.09.28,4.28.21,5.75-.02.57-.15,1.14-.28,1.74-.08.38-.17.77-.23,1.18-.11.75-.37,2.5.81,3.32,1.41.97,2.82,1.64,4.3,2.32-.01.42-.04.85-.07,1.3-.09,1.36-.19,2.77.22,4.11v.04c.23.71.48,1.52.26,2.12-.02.05-.15.22-.23.34-.38.52-.84,1.17-.62,1.83.04.13.12.27.25.41.02.15.09.31.21.47-.07.1-.13.24-.17.42-.13.6.14.94.27,1.09,0,0,.01.02.02.03.02.13.03.44,0,.66-.03.16-.08.31-.14.47-.16.45-.39,1.12.13,1.89.25.37.59.71.9,1.01.11.11.22.22.32.32.51.54,1.07.92,1.61,1.28.17.12.34.23.51.35.09.06.18.14.27.23.21.19.47.43.86.57.23.09.44.13.64.13.28,0,.5-.08.68-.14.1-.03.18-.07.28-.08.15-.03.27-.04.38-.06.28-.03.56-.06,1.02-.3.09-.05.22-.06.39-.08.22-.02.49-.05.78-.17.64-.25.81-.66.86-.96.11-.86-.82-1.54-1.63-2.14-.18-.13-.43-.32-.49-.39-.09-.12-.15-.27-.24-.45-.06-.13-.11-.26-.19-.4-.06-.12-.13-.29-.21-.48-.18-.45-.39-.96-.72-1.36.02-.05.04-.1.06-.16.04-.13.04-.25.03-.35.06-.07.12-.17.14-.29.07-.31.08-.57.08-.85v-.03c0-.09.01-.15.03-.24.02-.1.04-.22.05-.38.02-.43-.08-.77-.17-1.04-.04-.14-.08-.26-.1-.38-.03-.2.06-.44.16-.73.03-.08.06-.16.08-.24.36-1.1.53-2.15.54-3.3,0-.08,0-.13.02-.17.03.04.08.12.11.23.08.28.03.6-.02.98-.04.27-.08.54-.08.84,0,.63,0,1.25-.03,1.94-.01.34.12.88.46,1.22.21.22.48.34.76.34.19,0,.47-.06.75-.31.3.61.76.68.97.68.32,0,.62-.15.9-.46.02-.03.05-.06.07-.08.23.49.77,1.05,1.39,1.05.09,0,.18-.01.26-.03.15-.04.27-.1.38-.16.15.16.38.33.74.41.17.04.32.05.47.05.38,0,.64-.12.82-.26.19.22.41.32.67.32.31,0,.55-.16.73-.4-.14.25-.38.79.13,1.43.17.2.33.32.44.4,0,.02,0,.05,0,.08-.02.18-.04.36-.07.54-.11.75-.23,1.61.17,2.49l.03.07c.39.88.8,1.79,1.72,2.44.45.31.89.67,1.32,1.01.22.18.44.35.66.52.36.27.69.46,1.14.46.23,0,.45-.05.66-.1.58-.15.83-.35,1.03-.7.07,0,.15.02.23.02h.03c.26,0,.51-.15.63-.38.33-.66.05-1.59-.13-2.21l-.05-.15c-.24-.84-.54-1.28-1.01-1.8-.3-.33-.49-.86-.68-1.37l-.03-.08c-.18-.5-.26-.81-.3-.99.2-.15.34-.35.41-.6.1-.33.06-.69-.06-1.01.03-.05.06-.1.08-.15.13-.34.06-.64-.05-.9.07-.09.11-.19.14-.3.11-.63-.2-1.11-.4-1.42-.08-.12-.18-.28-.19-.35.01-.1.23-.39.35-.55.09-.12.17-.23.25-.34.35-.54.65-1.01.76-1.79.02-.14.03-.28.04-.42.01-.17.03-.33.05-.47.19.05.38.13.6.21.45.18.96.38,1.56.38.12,0,.23,0,.35-.02.91-.12,2.23-.55,2.97-1.34,1.28-1.39,2.06-3.83,1.07-5.8-.33-.66-1.23-1.54-1.83-1.91-.37-.23-.78-.34-1.13-.42-.27-.07-.53-.13-.72-.24-.01-.01-.03-.01-.04-.02-.03-.09-.07-.21-.15-.37-.11-.21-.26-.38-.38-.53-.09-.11-.2-.23-.22-.3-.05-.14.04-.61.09-.88.06-.31.12-.63.12-.93,0-.84.08-1.69.16-2.5.05-.56.11-1.14.14-1.72.02-.5.02-1.09-.16-1.69-.07-.2-.15-.38-.22-.55-.1-.23-.19-.42-.21-.62-.08-.75.04-1.5.16-2.29.02-.15.05-.29.06-.44.06-.38.1-.75.13-1.12.06-.61.12-1.19.25-1.74.1-.4.26-.79.42-1.21.2-.52.41-1.05.53-1.62.08-.39.13-.77.18-1.14.08-.59.16-1.15.32-1.7.28-.95.6-2.02.58-3.22-.01-.85-.31-1.61-.6-2.35-.06-.15-.12-.3-.18-.46-.05-.15-.11-.29-.17-.44-.22-.55-.43-1.07-.33-1.53.14-.65.47-1.4.77-2.06l.15-.33c.1-.22.24-.39.41-.58.35-.4.82-.95.68-1.96-.04-.28-.12-.54-.2-.77-.07-.23-.14-.44-.15-.62,0-.15.03-.28.09-.47.07-.22.15-.5.15-.84,0-.77-.3-1.45-.56-2.05-.12-.28-.23-.53-.31-.78-.04-.12-.07-.24-.1-.36-.08-.31-.17-.66-.35-.99-.14-.26-.31-.44-.46-.6.41-.78.61-1.71.77-2.48l.03-.17c.04-.18.07-.36.1-.55.12-.72.19-1.08.63-1.34.43-.26.9-.44,1.39-.63.31-.12.62-.24.94-.38.05-.02.11-.05.18-.07.44-.17,1.17-.46,1.31-1.24.19-1.03-.83-1.3-1.16-1.39-.06-.01-.12-.03-.18-.05-.11-.04-.25-.07-.39-.11-.18-.05-.56-.14-.78-.24.5-.42.73-.63.68-1.04-.03-.22-.16-.41-.35-.53.08-.18.31-.48.43-.63.13-.18.26-.34.35-.51.04-.08.09-.16.13-.24.15-.29.28-.51.48-.66.1-.07.21-.14.33-.2.3-.18.68-.4.97-.87.14-.24.14-.54-.02-.76-.36-.52-.89-.63-1.28-.71-.34-.07-.45-.11-.52-.21-.08-.11-.07-.18.13-.62.15-.33.34-.75.31-1.24-.02-.36-.31-.64-.67-.66-.03,0-.06,0-.09,0-.45,0-.84.15-1.15.28-.2.08-.4.16-.53.16-.02,0-.04,0-.05,0-.12-.08-.4-.31-.59-.47-.64-.54-.94-.78-1.31-.78-.13,0-.26.03-.37.1-.28.15-.46.42-.5.73-.09.73.62,1.47,1.49,2.3.09.09.16.15.2.19l.13.17c.49.63.75.98.66,1.55-.07.46-.2.82-.3.98-.03-.03-.08-.08-.12-.12-.17-.18-.4-.42-.78-.42-.29,0-.79.14-.85,1.08-.03.43.15.8.3,1.11.06.12.11.23.14.31.1.34.06.6.02.68-.04,0-.08,0-.15-.03-.27-.08-.52-.23-.79-.4-.47-.28-1.01-.6-1.76-.64-.29-.01-.62-.03-.97-.03-.9,0-1.6.1-2.21.32-.23.08-.46.21-.68.33-.06.03-.13.07-.21.11.01-.11.1-.43.16-.67.29-1.13.52-2.01-.09-2.45-.17-.12-.36-.18-.56-.18-.33,0-.57.17-.72.29-.08-.11-.18-.26-.24-.41-.28-.72-.09-.95.67-1.74l.1-.11c.59-.61,1.38-1.53,1.35-2.41,0-.2-.05-.38-.13-.55v-.02c0-.14-.09-.25-.22-.29-.03-.03-.05-.07-.09-.1-.13-.12-.3-.19-.47-.19h-.03c-.18,0-.36.09-.49.23-.08.08-.16.18-.25.28-.28.33-.7.82-.99.84-.08-.03-.26-.13-.39-.19-.35-.19-.72-.39-1.1-.39-.47,0-.84.31-.94.78-.09.41.12.8.3,1.15.04.08.1.2.12.24l.03.11c.04.14.13.45.11.57-.04.1-.28.19-.61.29-.29.09-.61.19-.89.39-.19.14-.29.35-.28.58.02.96.76,1.28,1.2,1.48.16.07.33.15.41.22.16.16.34.44.51.71.14.23.29.47.47.68.17.22.27.36.32.46-.14.16-.3.43-.22.82.03.17.11.3.2.4-.08.02-.17.02-.27.02-.12,0-.25,0-.37-.01-.1,0-.2-.01-.3-.02-.04,0-.08,0-.12,0-.99,0-1.34.5-1.47.8-.31.75.2,1.64.77,2.22.67.68,1.41.93,2.12,1.18.17.06.34.12.51.19.98.37.95,1.16.66,2.86-.08.45-.16.92-.18,1.35-.02.33.04.63.1.89.04.2.08.37.08.53q0,.15-.13.3c-.09.11-.21.26-.33.48-.51.94-.77,2.31-.93,3.26,0,.04-.01.05-.06.14-.05.09-.12.21-.19.38-.27.75-.09,1.45.07,2.06.08.3.15.59.17.85q.02.47-.74.65c-.12.03-.24.06-.37.09-.43.12-.89.12-1.38.13-.4,0-.82,0-1.25.07-.77.12-1.47.33-2.13.54-.15.05-.3.1-.46.14-1.52.46-2.79,1.52-4.01,2.54-.45.38-.87.73-1.29,1.05-.17.12-.32.26-.46.4-.14.14-.29.27-.41.35-.14.09-.31.16-.48.24-.29.12-.62.27-.94.53-.47.4-.94.7-1.43.93-.12.05-.23.1-.34.13-.38.14-.86.32-1.23.88-.08.12-.13.21-.17.29-.02.03-.03.06-.04.08h0s-.04.02-.12.07c-.94.44-1.8,1.2-2.32,2.02-.18.29-.25.55-.31.77-.05.19-.08.3-.16.4-.07.1-.15.19-.23.28-.2.23-.42.5-.58.84-.25.51-.4,1.03-.55,1.53-.12.41-.24.81-.4,1.17-.09.2-.18.39-.27.58-.33.7-.63,1.36-.82,2.16-.45,1.9-.17,3.93.09,5.74l.03.24Zm11.1,18.05s-.05.03-.05.05c-.18.37-.26.77-.32,1.12-.02.13-.05.26-.07.39-.04.23-.08.46-.13.66-.05.18-.11.37-.19.56-.05.15-.11.3-.16.46-.11.35-.21.76-.14,1.16-.02,0-.04,0-.05.02,0,0,0,0,0,0-.04.04-.05.1,0,.15.05.07.1.13.15.2.15.2.29.42.36.65.05.16.04.26.01.3-.02.03-.08.09-.28.14-.02,0-.04.02-.07.03-.04.02-.07.04-.1.08-.04.06-.06.14-.05.21.01.07.05.14.11.18.02.01.03.03.05.05.12.12.18.32.15.52,0,.07-.03.13-.05.17-.01-.01-.02-.02-.03-.03-.02-.02-.05-.03-.07-.04-.05-.02-.09-.03-.14-.03-.09,0-.18.03-.24.1-.13.14-.13.35,0,.48.03.03.07.06.11.1.06.07.1.16-.01.34-.06.08-.14.15-.22.19-.04.02-.06.02-.07.02l-.03-.02c-.06-.06-.15-.1-.23-.1-.02,0-.04,0-.07,0-.18.03-.3.21-.26.39.02.1,0,.16,0,.19-.01.02-.06.05-.13.05-.02,0-.04,0-.05,0-.17,0-.33-.11-.34-.16-.02-.13-.11-.22-.23-.24-.02,0-.03,0-.04,0-.13,0-.25.1-.27.23-.02.11-.06.14-.11.15-.03.01-.07.02-.12.02-.06,0-.12-.01-.18-.03-.12-.04-.21-.12-.26-.2-.05-.09-.06-.21-.02-.32,0-.01.01-.03.01-.05,0-.07-.05-.12-.11-.12h-.01s-.04,0-.05.01c-.01,0-.02.02-.03.03t0,0c-.05.08-.09.16-.11.25-.02.11-.02.22.02.33.06.17.2.33.38.44.15.08.3.13.44.13.06,0,.11,0,.17-.02.07-.01.14-.04.21-.09.05.04.09.07.15.11.18.1.37.15.57.15.27,0,.51-.12.65-.32.03-.04.06-.09.08-.15.1,0,.19-.02.29-.06.05-.02.09-.05.13-.07.27.41.47.85.67,1.32l.12.27c.26.59.59,1.25,1.12,1.79.21.22.46.37.67.5.07.04.14.08.2.13l.03.02c.24.16.47.31.5.49.03.11.03.18.01.21-.02.03-.1.08-.23.12-.08.02-.18.02-.28.02-.19,0-.38-.03-.56-.09h-.02s-.02-.02-.03-.02c-.02,0-.03,0-.05,0-.11,0-.21.08-.24.19-.01.06-.05.14-.09.22-.05.1-.1.21-.13.34-.09,0-.2.02-.3.02s-.19,0-.28-.02h-.02c-.05,0-.1.03-.12.08,0,.02,0,.04,0,.05,0,.02,0,.03.01.04-.05,0-.1,0-.15,0,0,0,0,0,0,0-.02-.04-.05-.07-.09-.07-.87-.08-1.59-.32-2.13-.7-.61-.43-1.11-1.04-1.58-1.63-.21-.27-.47-.49-.69-.69-.07-.06-.14-.11-.2-.17-.17-.15-.29-.26-.37-.38-.05-.06-.09-.12-.12-.17-.04-.09-.06-.14-.07-.21-.04-.25.08-.55.2-.86l.06-.15c.07-.2.14-.42.13-.65,0-.08-.01-.15-.03-.23.25,0,.49-.14.64-.35,0,0,0-.02.01-.03,0-.02.02-.03.02-.05,0-.06-.05-.12-.12-.12h-.01s-.04.01-.06.02c-.06.04-.12.07-.17.1-.07.03-.13.04-.19.04-.03,0-.06,0-.09-.01-.01,0-.02,0-.03,0-.04-.01-.06-.04-.1-.06-.1-.06-.19-.15-.23-.26-.05-.13-.03-.23.02-.26.05-.04.15-.06.26-.06.01,0,.02,0,.03,0,.05,0,.1,0,.15.01h.04c.16,0,.29-.1.33-.25.04-.18-.06-.37-.25-.41-.09-.02-.17-.06-.24-.11-.09-.06-.15-.12-.16-.16,0-.02-.01-.04.03-.1.03-.04.08-.08.16-.13,0,0,0,0,0,0,.04-.02.08-.04.11-.07.13-.09.18-.27.11-.41-.03-.08-.1-.13-.17-.16-.04-.02-.08-.03-.13-.03-.05,0-.1.01-.14.03-.09.04-.15.07-.21.12-.02,0-.05.01-.07.01s-.05,0-.07-.01c-.1-.03-.17-.11-.21-.25-.03-.09.03-.22.15-.37.04-.06.09-.11.14-.15.1-.1.21-.21.26-.37.12-.04.23-.06.34-.08.01.01.03.02.04.03,0,0,0,0,0,0,.01,0,.02,0,.03,0,.04,0,.09-.02.1-.06.26-.5.18-1.07.05-1.62-.05-.24-.13-.47-.19-.7-.08-.25-.15-.5-.2-.73-.08-.4-.13-.84-.13-1.42,0-.15,0-.29,0-.44,0-.35,0-.72-.02-1.09,0-.04-.04-.08-.08-.1,0,0,0-.02.01-.03.15.05.29.1.42.14.16.05.3.09.45.15.28.1.56.22.84.33.34.14.68.28,1.04.4.55.19,1.2.4,1.88.4.06,0,.12,0,.18,0,.18-.02.35-.05.52-.09,0,.09,0,.18,0,.27Zm-.77,8.68s-.04-.05-.06-.07c0,0,0,0,0-.01,0,0,0-.01.01-.01,0,.01.01.03.02.04,0,.02.02.04.02.05Zm10.87-9.38c-.33.32-.71.58-1.12.77-.1.04-.19.08-.29.12-.34.13-.69.21-1.05.25-.14.02-.29.02-.43.02h-.07c-.15,0-.3-.02-.45-.03-.92-.11-1.78-.53-2.43-1.18-.76-.75-1.2-1.78-1.2-2.83-.02-1.05.39-2.09,1.13-2.86.74-.78,1.77-1.25,2.85-1.28.06,0,.11,0,.17,0,.59,0,1.18.13,1.71.37.05.03.11.06.16.09.35.17.67.38.96.64.34.31.62.69.84,1.1.29.57.47,1.2.47,1.84.02,1.1-.45,2.21-1.24,2.97Zm4.19-21.03c.03.13.06.27.09.4.16.76.12,1.51.08,2.3-.01.18-.02.37-.03.55,0,.2-.02.4-.03.59-.04.69-.08,1.41,0,2.13.08.8.37,1.5.66,2.17.05.12.1.24.15.36.21.52.33,1.13.44,1.71.04.19.07.37.11.55.04.2.08.39.11.56,0,0,0,0-.01,0-.34-.25-.65-.49-.88-.77-.39-.49-.81-.9-1.22-1.3-.21-.21-.42-.41-.62-.63-.54-.56-1.13-1.08-1.7-1.58-.84-.73-1.63-1.42-2.28-2.26-.22-.28-.46-.53-.69-.76-.32-.33-.63-.64-.82-1.01-.27-.5-.3-1.12-.33-1.77,0-.24-.02-.47-.04-.71-.02-.22.08-.35.45-.73.26-.26.59-.6.81-1.06.12-.25.26-.51.41-.78.33-.59.67-1.2.82-1.89.01-.06.03-.14.05-.22.06-.29.21-1.04.36-1.21.19-.19.67-.31,1.06-.4.18-.04.36-.09.52-.14.54-.17,1.02-.47,1.49-.76.41-.25.81-.49,1.19-.62.03.15.06.31.09.46.09.45.18.87.1,1.27-.06.33-.16.64-.26.98-.17.58-.35,1.18-.38,1.88-.05.97.14,1.84.34,2.69Zm-3.02,7.34c-.11-.11-.22-.21-.33-.32.06.05.12.09.18.15.05.05.1.11.15.17Zm-1.98-12.44c-.05.08-.1.16-.14.25-.11.27-.16.54-.21.79l-.03.14c-.05.26-.12.48-.29.66-.21.23-.44.5-.58.8-.12.23-.18.47-.23.69-.02.08-.04.15-.06.22-.06.22-.18.39-.4.56-.08.07-.19.12-.3.18-.11.06-.24.13-.36.22.09-.32.18-.62.35-.87.29-.48.55-.97.74-1.34.49-.96.94-1.95,1.36-2.94.15,0,.29.01.39.04.07.02.13.05.17.1-.17.16-.31.33-.41.5Zm-2.57,5.71c-.03.21-.09.44-.09.67,0,.02,0,.05,0,.07-.01,0-.03.01-.03.02-.02.01-.03.03-.03.06-.11.69.15,1.38.36,1.83.23.48.55.98.99,1.55.71.92,1.55,1.74,2.35,2.53l.12.12c.72.73,1.58,1.49,2.7,2.39.06.05.12.11.19.16.17.13.32.26.46.41.16.16.31.34.47.53l.11.13c.06.07.12.14.18.2.35.39.72.79,1.22,1,.01,0,.03.01.05.01,0,0,.01,0,.02,0,.03,0,.05-.02.07-.04,0,0,.01-.01.02-.02,0,0,0-.01,0-.02.06.06.11.12.14.18t0,0s.03.07.05.1c.13.32-.03.42.09.75.02.05.05.08.08.12.06.06.13.09.18.14.02.03.03.07.06.1,0,.02,0,.05,0,.08,0,.03-.01.07-.02.12,0,0,0,0,0,0-.05.02-.1,0-.16.02-.23.26-.42.5-.58.77-.55.76-.87,1.71-.85,2.65,0,.19.02.38.05.56-.03.03-.07.07-.09.08-.36.02-.62.13-.82.29-.1.05-.21.11-.3.18-.31.22-.55.48-.78.74l-.12.13c-.27.32-.51.56-.79.74-.27.17-.59.27-1.02.32.37-.68.58-1.45.56-2.23,0-1.17-.49-2.32-1.34-3.16-.84-.85-2-1.34-3.2-1.35h-.07c-.8,0-1.59.21-2.28.6-.02-.09-.03-.17-.05-.26-.03-.15-.05-.31-.1-.47-.05-.14-.08-.26-.17-.39-.08-.12-.18-.21-.28-.29l-.02-.02c-.4-.25-.36-.73-.3-1.2.03-.23.08-.47.13-.71.05-.25.11-.51.14-.77.07-.45.16-.97.27-1.47.11-.51.24-.97.38-1.42.1-.31.22-.6.35-.91.07-.16.13-.32.2-.49.44-1.13.69-2.08.8-3,.03-.29.04-.57.05-.85,0-.23.01-.45.03-.66.03-.25.07-.46.14-.65.02-.07.07-.17.11-.26,0-.03.03-.06.04-.08.04.11.09.21.14.29,0,0,.01.03.02.03.02.03.06.05.09.05.02,0,.03,0,.05-.01Zm9.32,9.93s.01.04.02.06c.08.22.15.44.2.66v.04c.05.19.1.39.1.56,0,.05,0,.11,0,.16,0,.1,0,.19-.01.29h0c-.05-.07-.1-.15-.14-.24,0-.01,0-.02-.01-.03,0-.02-.02-.04-.03-.06-.09-.43-.03-.93-.11-1.34,0-.03-.01-.06-.02-.09Zm-1.07,7.46s-.04,0-.07,0c.02,0,.04,0,.06,0,0,0,0,0,0,.01Zm-4.04,2.48s-.02,0-.03,0c0,0,0-.02.01-.03,0,0,.01,0,.02.02Zm5.96,1.08s0-.06,0-.1c0-.05-.03-.1-.08-.12-.01,0-.02,0-.03,0h0s-.07.02-.1.04c-.19.25-.24.57-.28.84l-.02.13c-.04.32-.11.55-.23.76-.06.13-.13.25-.21.38-.08.13-.16.28-.24.42-.13.25-.2.48-.23.7-.01.1-.02.21-.01.31,0,.05.04.09.09.1h.01s0,0,0,0c-.04.15-.07.3-.1.45-.03-.02-.05-.05-.08-.06-.02-.01-.04-.02-.06-.02,0,0-.01,0-.02,0,0,0-.01,0-.02.01-.02,0-.04,0-.05.03-.03.05-.03.12.01.16.06.05.11.12.15.18.07.08.13.17.19.27.11.18.18.34.22.49.04.14.02.22,0,.23-.03,0-.06.01-.1.01-.05,0-.12,0-.2-.03-.06-.02-.12-.04-.18-.05-.03,0-.04,0-.05,0h0c-.13,0-.23.09-.26.22-.01.07,0,.14.04.2.04.06.1.1.17.11h0s0,0,0,0h0c.16.04.32.25.35.47.02.11,0,.19-.02.21,0,0-.02.02-.04.02h-.04s-.09,0-.13,0c-.06,0-.11.03-.15.06-.08.06-.14.14-.15.24,0,.09.02.17.08.24.02.03.05.05.08.06.05.03.09.04.15.05.02,0,.04,0,.07,0,.02,0,.04,0,.06,0,.1.01.12.05.13.06.03.07.02.21-.04.34-.06.13-.16.23-.23.25-.02,0-.04,0-.06,0-.01,0-.02,0-.03,0-.05,0-.12-.03-.18-.08-.06-.05-.14-.07-.21-.07-.09,0-.17.03-.23.08-.07.06-.11.15-.12.24,0,.09.02.18.09.25.02.02.04.04.05.06-.03.02-.08.04-.14.05-.05,0-.1.01-.15.01-.2,0-.33-.07-.35-.11-.04-.13-.16-.22-.3-.22h-.03c-.17.02-.3.17-.28.34.01.15-.03.19-.16.22-.02,0-.04,0-.06,0h-.03v-.03s0-.06,0-.06c0-.05,0-.09-.03-.13,0,0-.01-.02-.02-.02l-.12-.12s-.05-.03-.08-.03c0,0-.01,0-.02,0h-.03c-.06.02-.13.03-.22.07-.05.03-.08.05-.11.07-.02.01-.04.03-.06.04-.02.01-.03.02-.05.03-.04.03-.07.08-.08.13-.13-.08-.17-.27-.16-.42,0,0,0-.02,0-.03,0-.06-.05-.12-.12-.12h0s-.02,0-.02,0c-.02,0-.03.01-.05.02-.02.01-.02.02-.03.04,0,.01,0,.02,0,.03-.04.15-.05.28-.03.4,0,.04.03.06.04.1.04.12.11.22.21.29.12.08.26.12.42.12h.04c.18.12.4.18.63.18h.03c.13,0,.37-.04.55-.24,0,0,0,0,0,0,.05.02.1.04.15.06.13.04.27.06.41.06.07,0,.15,0,.23-.02.18-.03.46-.09.65-.39.02-.03.03-.06.04-.09,0,0,.01,0,.02,0,0,0,0,0,0,0,0,.05.01.09.02.13,0,.06.01.12.02.19-.08.23-.08.52.03.87.09.31.23.59.4.89.12.22.25.43.38.63.2.32.39.63.53.93.04.12.09.27.14.4.15.43.31.88.42,1.31.04.16.12.51.09.69,0,0-.01,0-.02,0-.09-.02-.2-.07-.35-.15-.06-.03-.11-.05-.16-.05-.05,0-.11.01-.15.04-.06.04-.11.1-.12.18-.02.07,0,.15.03.21.05.08.08.16.09.21-.02,0-.05.02-.08.03-.09.04-.21.09-.31.19l-.04.04s-.09.08-.13.12c-.22.08-.44.11-.68.07-.46-.6-1.12-1.04-1.7-1.42-.71-.47-1.15-.9-1.43-1.39-.17-.29-.36-.61-.53-.93-.2-.36-.32-.66-.37-.91-.04-.29,0-.63.03-.98.04-.38.08-.77.02-1.15,0-.04-.03-.07-.07-.08.01-.12.03-.24.04-.35.01,0,.03,0,.04-.02.08-.03.12-.11.1-.17,0,0,0,0,0,0,0-.02.01-.06.03-.1,0-.02.02-.04.03-.07,0-.02,0-.03,0-.05,0-.06-.05-.12-.12-.12h-.01s-.01,0-.02,0c0,0-.02,0-.03.01-.01,0-.02.02-.03.03,0,0,0,0,0,.01-.01.02-.02.04-.04.05-.02.03-.05.07-.07.11h-.04c-.07,0-.13,0-.19-.02-.08-.05-.16-.11-.23-.18l-.04-.04s-.02-.1-.02-.12c0-.11.04-.23.13-.31.03-.03.07-.05.11-.07.11,0,.21-.03.29-.05.14-.03.23-.14.25-.27,0-.03,0-.05,0-.08,0,0,0,0,0-.02-.02-.17-.16-.3-.34-.3h-.02c-.07,0-.14.02-.21.03-.02,0-.03,0-.04,0-.02-.03-.04-.06-.05-.08,0,0,0,0,0-.01-.01-.16.1-.4.24-.51.1-.09.15-.2.13-.31-.02-.16-.16-.28-.32-.28,0,0-.01,0-.01,0-.07-.05-.14-.11-.15-.17,0,0,0-.01,0-.02.02-.03.03-.06.05-.1.07-.15.17-.3.29-.49l.03-.04c.1-.14.2-.29.32-.42.03-.03.03-.06.02-.09.02,0,.04,0,.06,0,.03-.32.08-.63.11-.95.04.11.08.21.13.32.02.04.06.07.11.07h.01s.09-.04.1-.09c.1-.52.1-1.07,0-1.73-.05-.24-.11-.54-.23-.84-.13-.33-.27-.58-.44-.79-.02-.02-.05-.04-.09-.04-.01,0-.03,0-.04,0-.02,0-.04.02-.05.04-.03-.25-.02-.51.07-.77,0,0,.02,0,.03,0l.05.29c-.03-.12-.03-.21-.01-.29.1.01.19.03.29.03.24,0,.48-.05.69-.14.43-.17.77-.5,1.04-.8.1-.12.19-.23.29-.34.16-.19.31-.38.48-.54.27-.27.56-.46.91-.58.21.84.66,1.62,1.29,2.19.2.19.42.35.65.49,0,0,.02.01.03.02,0,.04.01.08.01.13,0,.12-.05.3-.11.49Zm5.45-7.27c.79.72,1.26,1.78,1.27,2.85.01.72-.19,1.44-.56,2.06-.37.52-.84.99-1.33,1.35-.63.39-1.36.6-2.11.6h-.07c-1.04-.01-2.06-.44-2.79-1.18-.73-.72-1.16-1.72-1.16-2.73-.02-1.02.38-2.02,1.09-2.76.71-.76,1.72-1.21,2.76-1.25.06,0,.11,0,.17,0,1.01,0,2,.39,2.73,1.06Zm-.71-55.78s.01.04.02.06c.04.1.08.21.15.32.08.12.19.21.3.27.08.03.17.06.27.06.06,0,.12,0,.17-.02.5-.16.74-.57.92-.86.2-.37.32-.74.36-1.13.05-.45-.05-.89-.26-1.21-.3-.54-.79-.92-1.21-1.27-.12-.1-.25-.2-.36-.3-.28-.24-.45-.47-.55-.72-.04-.08-.07-.17-.09-.27.12.14.25.29.4.45l.09.08c.25.25.51.5.94.65.09.02.17.03.25.03.2,0,.35-.06.49-.11h.03c.21-.09.39-.19.54-.26l.07-.04c.14-.07.27-.14.39-.19,0,0,0,0,0,0-.02.06-.03.11-.05.17l-.18.51c-.06.17-.13.36-.18.55l-.02.07c-.04.17-.09.39-.01.66.02.09.07.2.12.3.06.11.12.21.2.29.15.18.36.32.59.4.23.08.47.12.76.12.06,0,.12,0,.19,0-.01.01-.03.03-.06.05-.11.08-.26.15-.42.22-.06.03-.12.06-.18.09-.26.13-.45.26-.68.45-.13.1-.25.29-.29.45l-.1.36c-.06.32-.26.58-.47.86-.08.1-.16.21-.23.31l-.05.08c-.13.19-.27.39-.33.68-.04.19.05.42.2.54l-.07.03c-.15.06-.34.13-.47.32-.06.08-.12.22-.13.34,0,.07,0,.14.02.2,0,.04.02.08.03.12.05.16.05.27-.01.37-.15.24-.49.42-.74.52-.25.1-.54.21-.83.21h-.04c-.05-.09-.07-.19-.08-.28.06-.06.12-.12.18-.19.18-.19.36-.38.53-.6.12-.16.21-.34.28-.53.1-.26.16-.54.17-.83,0-.47-.14-.9-.29-1.31l-.03-.08v-.04c-.11-.3-.22-.61-.22-.9,0,0,0,0,0,0,0-.01,0-.02,0-.03Zm-10.2-.15l-.11-.37c-.05-.16-.17-.34-.3-.44-.24-.18-.42-.31-.69-.43-.06-.03-.13-.06-.19-.08-.16-.07-.31-.14-.43-.21-.03-.02-.05-.04-.06-.05.03,0,.07,0,.1,0,.33,0,.6-.04.84-.13.23-.09.43-.23.58-.41.07-.09.13-.19.19-.3.05-.11.09-.22.12-.31.07-.26.01-.48-.03-.65l-.02-.06c-.06-.2-.13-.38-.2-.55l-.2-.51c-.02-.06-.04-.11-.06-.17h0c.12.05.25.11.39.18l.07.03c.16.08.34.17.54.24h.03c.13.05.28.1.47.1.09,0,.17,0,.26-.03.44-.16.69-.42.94-.68l.08-.08c.15-.16.27-.31.39-.46-.02.1-.05.19-.08.28-.09.25-.27.49-.54.74-.11.1-.23.2-.36.31-.42.35-.89.75-1.18,1.3-.2.32-.28.77-.22,1.21.05.39.18.76.38,1.12.19.29.44.69.94.84.06.01.11.02.16.02.1,0,.2-.02.28-.06.12-.05.22-.15.3-.27.09-.14.14-.28.17-.4,0,0,0-.01,0-.01v.02c.01.3-.09.64-.19.96v.04s-.03.08-.03.08c-.13.42-.27.84-.25,1.31.02.45.16.87.4,1.22.03.04.06.09.09.13.17.22.36.4.54.59.06.06.12.12.18.18,0,.09-.03.19-.07.28h-.06c-.27,0-.55-.09-.81-.19-.24-.1-.59-.26-.75-.51-.04-.07-.05-.15-.03-.24,0-.04,0-.07.02-.11.03-.1.05-.21.04-.33,0-.12-.08-.26-.14-.34-.13-.19-.32-.26-.48-.31l-.07-.02c.15-.12.23-.35.19-.55-.07-.28-.21-.49-.34-.67l-.05-.08c-.08-.11-.16-.21-.24-.31-.22-.27-.42-.53-.49-.84Zm2.49,1.93c0,.08,0,.16,0,.23,0-.03,0-.06,0-.08,0-.05,0-.1.01-.16Zm-1.86.11s-.01.03-.03.04c-.01.01-.04.02-.07.04.03-.03.06-.05.1-.08Zm.64,14.64c.04-.23.14-.46.26-.7.06-.14.13-.29.19-.45.07-.19.14-.41.2-.63.01-.05.03-.11.04-.16.04-.15.07-.29.14-.41.01-.02.03-.04.04-.06.08-.14.19-.28.31-.41.06-.06.11-.13.17-.2.02.03.04.05.06.08.03.03.05.07.09.1.02.02.05.03.08.03s.06,0,.08-.03c.05-.04.05-.11.02-.16-.06-.09-.11-.18-.16-.27.02-.03.04-.06.06-.09,0-.01.01-.02.02-.03,0-.02.02-.04.02-.06,0-.06-.05-.12-.12-.12h0s0,0-.01,0c-.02,0-.03,0-.05.01,0,0-.01.01-.02.02-.12-.33-.17-.71-.15-1.13.01-.52.1-1.03.18-1.57l.04-.24c.1-.64.19-1.27.09-1.95-.06-.38-.2-.73-.41-1.01-.21-.27-.5-.51-.86-.67-.12-.05-.24-.09-.35-.13-.47-.17-.91-.34-1.33-.57-.58-.31-.99-.68-1.21-1.11-.12-.23-.25-.52-.24-.73v-.04s.08-.06.33-.06c.05,0,.11,0,.17,0,.11,0,.23.01.34.02.18.01.37.03.56.03h.05c.41,0,.7-.11.87-.31.14-.02.28-.04.42-.07,0,.13.04.27.12.38.26.35.63.49.96.61.26.09.54.16.83.16.08,0,.16-.01.23-.02h0s.02,0,.03,0c.03,0,.08-.04.1-.08.04-.07.06-.15.08-.23.02.02.05.03.08.03.03,0,.05-.01.08-.03.05-.04.06-.11.02-.16-.05-.07-.11-.13-.16-.2,0,0,0-.01,0-.02-.01-.05-.05-.08-.09-.09-.04-.05-.09-.1-.13-.15-.16-.19-.33-.38-.47-.58-.02-.03-.04-.07-.06-.1.08-.07.15-.13.21-.2.01-.01.03-.03.04-.05,0,0,0,.02,0,.03,0,.02,0,.04.01.05.02.03.06.05.1.05.02,0,.03,0,.05-.01.5-.25,1.04-.43,1.6-.53.34-.06.66-.09.97-.09.22,0,.44.02.64.05.42.06.85.17,1.27.27.13.03.27.07.4.1.17.04.35.12.54.2.34.14.7.29,1.09.29.02,0,.05,0,.07,0,.04,0,.08-.03.09-.07,0-.01.01-.02.02-.03,0-.06-.03-.11-.09-.13-.08-.02-.15-.05-.22-.08.16.05.31.1.46.15.07.02.14.04.21.07-.06.17-.13.33-.23.47-.14.21-.3.4-.46.59-.04.05-.08.1-.13.15-.02,0-.03.01-.05.03h0s-.02.02-.03.04c0,0,0,.02,0,.03,0,0,0,.01,0,.02-.05.07-.1.14-.16.21-.04.05-.03.12.02.16.02.02.05.03.07.03.03,0,.06-.01.09-.04.02.08.05.16.09.23.02.03.06.06.1.07.08.01.15.02.23.02.3,0,.59-.08.86-.18.33-.14.69-.28.95-.64.08-.11.11-.25.11-.38v-.02c.07.03.14.06.22.09-.03,0-.05.02-.07.05h0c-.02.06-.01.13.04.16.35.23.75.31,1.13.39.1.02.2.04.3.07.23.05.47.11.66.19.05.02.08.04.11.06.02.02.04.04.06.06h0s0,.06-.05.14c-.11.17-.29.33-.46.46-.17.13-.34.23-.57.32-.31.12-.64.18-.99.25-.13.03-.27.05-.4.08-.12.02-.24.05-.36.09.08-.03.17-.07.26-.1h.05s.14-.07.14-.07c.19-.07.38-.14.57-.24.31-.16.52-.33.66-.53.03-.04.03-.09,0-.13-.02-.03-.06-.05-.1-.05,0,0-.02,0-.03,0-.19.04-.37.08-.54.11-.3.06-.61.12-.94.23-.23.09-.51.21-.74.44-.24.22-.38.53-.37.83,0,.03,0,.05.03.07-.03.03-.06.05-.09.08-.2.21-.32.46-.43.7-.12.25-.2.5-.27.73-.12.39-.22.79-.31,1.18-.14.57-.26,1.11-.47,1.61-.37.96-.89,1.72-1.54,2.27-.19.16-.37.3-.55.43-.19.13-.33.19-.5.19-.36,0-.71-.35-.94-.65-.57-.75-.94-1.71-1.25-2.54-.14-.39-.22-.79-.3-1.22-.1-.54-.21-1.1-.47-1.61-.02-.04-.06-.06-.1-.06-.02,0-.03,0-.05.01-.05.02-.08.09-.06.15.19.49.25,1,.3,1.53.05.44.1.89.23,1.34.29.92.63,1.89,1.21,2.75.03.05.07.1.12.16.11.14.25.3.43.44.26.21.57.33.86.33h.04c.38,0,.71-.21.83-.3.2-.13.41-.28.61-.46.42-.34.79-.78,1.11-1.27.17.11.32.29.46.56.17.31.29.67.41,1.16.04.17.08.34.11.51l.02.11c.05.23.14.43.23.65l.06.15c.15.34.29.67.31.98.01.15-.02.32-.1.45-.06.12-.17.21-.32.28-.23.09-.51.12-.81.16-.12.01-.25.03-.37.04-.15.02-.27.05-.36.08-.14.04-.24.1-.35.15-.14.08-.27.16-.38.24-.06.04-.13.08-.19.12-.14.08-.31.19-.47.22,0,0-.01,0-.01,0-.01,0-.04,0-.06,0-.02,0-.04,0-.06,0h-.01s-.04,0-.04,0h-.04c-.08,0-.15-.02-.24-.05-.22-.07-.43-.23-.66-.39-.11-.08-.23-.16-.35-.24-.25-.16-.75-.45-1.33-.5-.33-.04-.66-.04-.93-.04h-.26s-.25,0-.25,0c-.41,0-.76-.01-1.08-.08-.18-.04-.31-.11-.38-.2-.07-.09-.08-.24-.05-.41Zm7.77-4.11s-.09-.06-.13-.08c.01-.02.02-.03.03-.05.03.04.07.09.1.14Zm-20.27,13.53c.26.02.46-.11.66-.23-.06.07-.12.16-.18.24-.04.05-.08.1-.11.15,0,0,0-.02-.01-.02,0-.01-.02-.01-.03-.01-.02-.01-.04-.03-.06-.03-.03,0-.05.01-.07.03-.29.25-.62.42-.97.6l-.16.08c-.1.05-.21.1-.31.16.42-.32.9-.59,1.23-.96Zm-6.37,5.18c.07-.11.21-.23.39-.34.13-.09.23-.11.42-.15l.13-.03c.22-.06.6-.21.73-.62.02-.08.04-.15.06-.22.03-.12.06-.23.09-.27.11-.11.26-.18.45-.23.12-.03.24-.05.38-.07.32-.05.68-.11,1-.34.29-.22.51-.48.72-.73.08-.1.16-.19.24-.29.27-.35.66-.58,1.06-.83.3-.18.61-.37.88-.62-.19.36-.29.74-.3,1.11-.01.42.05.86.2,1.33.26.83.71,1.61,1.29,2.25.41.44.9.76,1.38,1.05.22.14.45.29.67.44.02.02.04.02.07.02,0,0,0,0,0,0,.03,0,.06-.01.08-.04.03-.03.03-.08,0-.11,0-.02,0-.03-.02-.04-.24-.22-.49-.42-.74-.61-.42-.32-.81-.62-1.1-1.01-.51-.62-.88-1.35-1.08-2.11-.1-.4-.14-.79-.12-1.14.02-.33.14-.67.36-1,.42-.64,1.08-1.15,1.71-1.64.72-.58,1.33-1.05,1.98-1.45.76-.47,1.47-.78,2.18-.93.61-.12,1.27-.16,1.9-.19.18,0,.36-.02.54-.03.78-.06,1.68-.16,2.48-.54.04-.02.07-.06.07-.11s-.03-.08-.07-.1c.1-.06.21-.13.36-.22,0,0-.05-.07.25-.29.04.07.1.16.22.25.1.06.21.09.32.09.09,0,.18-.02.26-.06.17-.09.23-.19.28-.3.04-.1.06-.19.08-.26.05-.3.04-.58.03-.85v-.11c-.05-.5.13-1.03.34-1.53.08-.16.18-.28.29-.38.43,0,.85.01,1.24.07.36.04.68.17,1.04.42.1.06.2.14.31.22.24.18.51.38.86.5.11.03.25.07.41.08.02,0,.05,0,.08,0h.13s.05,0,.06,0c.04,0,.07,0,.14-.02.27-.06.49-.18.7-.31.07-.04.14-.09.2-.13.11-.07.22-.14.33-.21.09-.04.17-.09.22-.11.09-.03.16-.04.27-.06.11-.02.23-.03.35-.05.06,0,.12-.02.18-.03.06.08.12.19.18.32.03.07.05.15.08.22-.02-.03-.04-.05-.06-.08-.02-.03-.05-.04-.09-.04-.02,0-.04,0-.06.02-.05.03-.07.09-.04.14.2.46.27.86.22,1.22-.02.18-.06.36-.1.55-.05.26-.11.53-.13.81v.03c0,.1.04.18.11.25-.04.43-.19.84-.34,1.19-.19.45-.43.89-.7,1.32-.25.37-.55.8-.91,1.16-.42.43-.77.67-1.1.76-.17.03-.34.05-.5.05-.3,0-.55-.06-.74-.17-.24-.13-.45-.34-.68-.57-.13-.13-.27-.27-.42-.39-.14-.13-.29-.25-.44-.37-.25-.21-.49-.41-.71-.63-.38-.36-.62-.85-.79-1.24-.02-.04-.06-.07-.11-.07-.01,0-.02,0-.03,0-.06.02-.09.07-.08.14.11.55.34,1.06.66,1.47.22.27.47.51.7.74.13.13.26.25.39.39.09.1.19.2.28.31.26.28.51.58.89.82.32.19.65.25.88.27.08,0,.16,0,.24,0,.07,0,.13,0,.2,0l.2-.02c.08,0,.17-.02.24-.04.61-.18,1.04-.57,1.41-.97.23-.26.43-.54.61-.82.05-.07.09-.15.14-.23-.02.35.03.69.13,1.07-.03.02-.04.04-.05.07,0,0,0,.01,0,.02,0,.31.13.59.25.86l.03.06c.05.11.11.22.17.33.08.15.15.3.22.45.03.1.08.2.11.29.02.06.05.12.06.18.12.41.18.83.16,1.26-.01.59-.11,1.17-.28,1.73-.09.29-.2.58-.31.89-.1.27-.21.55-.3.83-.1.33-.18.63-.23.93-.03.17-.05.34-.07.51-.01.13-.03.27-.05.4-.07.53-.2,1.1-.38,1.74-.08.27-.16.54-.24.81-.27.89-.55,1.81-.72,2.75-.1.55-.18,1.14-.26,1.83-.06.57-.11,1.23,0,1.92.05.32.14.64.26.94.13.31.23.53.28.82.12.57.13,1.18.13,1.75v.16c-.01.55-.02,1.11-.07,1.65-.02.24-.05.48-.07.72-.04.36-.08.74-.1,1.11-.01.15-.02.29-.02.44,0,.16,0,.32-.02.47l-.02.18c-.02.25-.05.51-.01.77h0c0,.09.03.17.05.24.03.09.06.18.1.25.09.16.21.29.31.39.17.17.36.4.34.66-.06,0-.11,0-.17,0h-.07c-.92,0-1.81.29-2.55.8-.01,0-.03-.02-.04-.03-.09-.1-.11-.26-.12-.34,0-.04,0-.07,0-.11,0-.17.01-.35.03-.51,0,0,0-.01,0-.02,0-.07.02-.14.03-.21.01-.06.01-.13.03-.2,0-.08.03-.17.03-.26.02-.23-.01-.44-.04-.64v-.08c-.08-.39-.2-.76-.31-1.12l-.06-.2-.39-1.27-.02-.06c-.23-.81-.47-1.64-.57-2.48-.1-.8-.05-1.6.01-2.44v-.17c.06-.84.1-1.81-.07-2.74-.04-.25-.08-.5-.13-.75-.11-.64-.21-1.25-.27-1.86-.03-.5-.03-.92.02-1.27.04-.3.11-.62.18-.92.03-.12.06-.25.08-.38.09-.45.17-.89.21-1.34.04-.47.04-.96-.19-1.39-.02-.03-.05-.05-.09-.06,0,0,0,0,0,0-.02,0-.03,0-.05.01-.03.01-.05.03-.06.06-.06-.21-.16-.37-.29-.47,0,0-.02-.01-.03-.01-.06-.04-.12-.07-.2-.08-.08-.01-.17,0-.27.04.06-.08.12-.17.16-.25,0,0,0,0,0,0,.08-.12.15-.25.23-.37.21-.34.4-.67.66-.97.03-.04.04-.11,0-.15-.02-.03-.06-.04-.09-.04-.02,0-.04,0-.06.02-.49.27-.86.72-1.18,1.12l-.04.05c-.36.44-.68.78-1.1,1.03-.99.63-1.94.97-2.91,1.03-.06,0-.1.05-.11.1,0,.06.03.11.08.13.01,0,.03,0,.04,0,.11.03.22.05.33.07-.16.02-.32.04-.49.04-.02,0-.03,0-.05,0-.29,0-.2-.19-.44-.08.27-.61.52-1.22.77-1.83l.22-.52c.02-.06,0-.12-.06-.15-.02-.01-.03-.01-.05-.01-.04,0-.08.02-.1.06-.3.55-.59,1.13-.87,1.69-.17.34-.34.67-.51,1.01t0,0c-.43.87-.9,1.79-1.39,2.66-.27.48-.52.9-.76,1.29-.22.34-.34.74-.44,1.08-.02.06-.03.11-.05.16-.03.07-.05.15-.07.23,0,.01,0,.01-.01.03-.04.11-.08.21-.14.32-.05.1-.1.21-.16.34-.1.24-.16.51-.19.82-.02.25-.03.49-.05.72,0,.27-.02.53-.05.79-.09.86-.32,1.79-.72,2.84-.38.92-.75,1.92-.9,2.94-.09.51-.15,1.03-.21,1.51-.02.25-.06.49-.1.73-.04.25-.08.51-.1.77-.02.23-.03.52.03.82.03.13.08.28.19.42.1.12.21.21.32.29.33.18.42.53.52.91.03.11.06.22.09.32,0,.01.02.02.02.03-.27.17-.52.36-.75.59-.33.31-.6.68-.82,1.08-.02-.01-.03-.03-.06-.03h0s-.01,0-.02,0c-.02,0-.03,0-.05.01-.01,0-.03.02-.03.04,0,0,0,.01,0,.02-.03.07-.06.12-.1.16-.05.05-.1.08-.15.11-.08.04-.18.06-.28.06-.02-.07-.06-.14-.11-.21-.01-.03-.03-.05-.06-.08-.03-.05-.07-.1-.09-.14-.04-.07-.09-.1-.15-.1-.03,0-.06,0-.08.02-.05.03-.11.05-.16.05-.06,0-.11-.02-.14-.06-.08-.1-.13-.24-.15-.43,0-.02,0-.04-.02-.06-.03-.07-.1-.12-.18-.12-.03,0-.05,0-.08.02-.07.03-.13.04-.18.04-.04,0-.07,0-.09-.02-.07-.04-.14-.13-.19-.25-.1-.24-.14-.51-.17-.84-.03-.32-.03-.62,0-.88.02-.26.09-.52.19-.83.05-.15.11-.3.17-.45.17-.43.34-.87.41-1.37.05-.55.07-1.1.09-1.62v-.24s.02-.29.02-.29c.1-2.32.19-4.71.97-6.92.07-.23.14-.45.22-.68.16-.51.33-1.04.47-1.57.02-.05.03-.1.04-.16.1-.4.2-.79.27-1.2.1-.51.13-1.03.17-1.53l.02-.34c.05-.74.1-1.3.18-1.82.1-.74.21-1.29.33-1.79.11-.39.25-.79.4-1.18.02-.05.04-.11.06-.17l.14-.37.65-1.73.06-.14c.21-.53.43-1.07.52-1.65.01-.06-.03-.12-.09-.13h-.02c-.05,0-.1.04-.11.09-.11.5-.33.97-.54,1.43l-.12.27-.75,1.7c-.06.14-.13.3-.2.47-.04.09-.08.19-.12.29-.12.31-.25.64-.36.99-.18.65-.3,1.27-.4,1.85-.09.55-.17,1.13-.24,1.86l-.02.3c-.07.02-.14.03-.21.03-.19,0-.38-.06-.56-.18-.36-.22-.65-.56-.93-.88-.09-.11-.18-.21-.26-.31-.2-.24-.4-.48-.64-.72-.18-.18-.41-.34-.64-.43-.24-.1-.48-.17-.68-.22-.14-.03-.29-.06-.43-.1-.3-.06-.58-.12-.84-.22-.36-.14-.7-.4-1.05-.67l-1.04-.85-.08-.06c-.33-.26-.65-.5-.95-.77-.27-.24-.59-.57-.69-.9-.04-.14-.02-.26.05-.37Zm-4.23,7.28c.14-.88.69-1.59.94-2.45.06-.2.11-.71.21-1.04,0-.02.01-.04.02-.06.03-.09.07-.17.11-.21.12-.1.22-.09.33-.04,0,.01,0,.02,0,.02.12.4.45.66.65.78.53.31,1.09.44,1.64.57l.23.06c.38.06.72.17,1.05.3.04.01.08.03.11.05,0,.14.01.27,0,.41h0s-.09.03-.11.07c-.01.04-.04.07-.05.1-.09.18-.21.34-.34.5-.07.08-.13.16-.19.24-.11.16-.22.34-.29.56s-.08.46-.04.67c.03.16.17.28.34.28.41-.01.74-.28.89-.55.18-.27.24-.57.27-.82.03-.28.03-.55,0-.81-.03-.19-.07-.34-.12-.48.05.03.1.05.15.08.36.2.69.43,1.03.69.11.08.22.16.34.25.02.02.05.04.08.06.45.34.93.68,1.44.97,0,0,0,0,0,0,.08.04.15.08.22.12.42.22.86.41,1.28.6.01,0,.03.02.04.02.07.03.13.06.2.09.04.35.05.71.07,1.05v.17s0,.14,0,.14c0,.18,0,.35,0,.51-.02.32-.07.45-.11.52-.01.02-.02.03-.02.03,0,0-.01,0-.02-.01h-.03s0-.01-.01-.01c0,0-.02-.01-.02-.01-.01-.01-.04-.15-.03-.35,0-.17.04-.35.07-.54.05-.27.1-.56.08-.86,0-.05-.04-.1-.1-.11,0,0-.01,0-.02,0-.01,0-.02,0-.03.01-.03.01-.06.03-.08.06-.06.15-.12.3-.19.45-.13.28-.25.57-.32.89-.02.11-.05.26-.04.43.02.22.1.4.24.53.05.04.09.08.15.1.03.01.04.02.07.03l.04.02c.1.03.18.04.27.04h.04c.24,0,.47-.19.56-.36.16-.31.17-.58.17-.83,0-.3-.03-.54-.07-.75-.06-.3-.14-.64-.27-.97.51.23.99.47,1.45.74.02.01.04.02.06.02.02,0,.03-.02.05-.02.01,0,.03,0,.04-.02.03-.04.02-.08,0-.12,0-.02,0-.03-.02-.04-.48-.41-1.02-.74-1.58-1.06-.17-.1-.35-.19-.52-.28-.37-.2-.75-.4-1.11-.62-.52-.3-.98-.66-1.47-1.04-.5-.39-1.01-.8-1.6-1.13-.57-.32-1.23-.55-1.87-.64-.59-.11-1.2-.22-1.71-.47-.26-.14-.42-.31-.46-.5-.04-.17.04-.38.24-.66.07-.11.15-.21.23-.31.11-.14.23-.29.33-.45.14-.2.34-.6.22-1.01-.01-.04-.04-.06-.08-.07-.01,0-.02,0-.03,0h-.01c.01-.05.02-.11.04-.16.11-.32.22-.52.51-.72-.03.09-.05.18-.05.27,0,.13,0,.26.03.37.16.56.54.92.87,1.24.28.25.57.48.86.68.08.06.16.12.23.17l1.05.84c.38.28.76.56,1.23.74.38.14.76.21,1.12.27.08.01.16.03.24.04.42.09.8.18,1.08.46.22.2.43.41.64.65.1.1.19.21.29.31.32.32.67.66,1.1.88.22.11.44.17.65.17.03,0,.06,0,.09,0,.06,0,.13-.01.19-.03-.03.41-.08.81-.15,1.2-.06.34-.14.68-.24,1.01-.02.07-.03.14-.05.21-.15.53-.32,1.07-.51,1.62-.07.22-.15.45-.22.67-.18.58-.37,1.19-.5,1.82-.15.67-.22,1.35-.27,1.86-.11,1.25-.15,2.5-.19,3.72,0,.25-.01.5-.02.75,0,.36-.02.73-.04,1.09-.03.4-.18.81-.34,1.24-.05.15-.11.3-.16.46-.11.35-.18.67-.19.97-.01.3,0,.61.04.96.04.31.09.64.24.97.07.14.18.33.4.44.08.04.17.06.26.06.05,0,.09,0,.14-.01.03.12.1.26.21.38.1.11.24.18.38.18.08,0,.14-.01.21-.04.02.02.03.04.05.06.02.02.04.04.05.06.06.07.09.13.1.19.01.07.07.13.14.13h.05c.18,0,.34-.04.48-.11.03-.02.05-.04.07-.06-.22.55-.34,1.14-.33,1.73,0,.94.33,1.88.89,2.63-.02,0-.04,0-.06,0-.02,0-.04-.01-.06-.02-.2-.05-.53-.08-.9-.07-.18-.01-.36-.03-.55-.03-.09,0-.18,0-.26,0-.02,0-.03,0-.04,0-.11,0-.22,0-.34,0-.34.04-.64.16-.92.29-.22.06-.44.1-.65.11h-.05c-.62,0-1.26-.22-1.81-.43-.33-.13-.67-.28-1-.42-.28-.13-.56-.25-.85-.37-.16-.07-.33-.12-.49-.18-.16-.05-.31-.11-.45-.17-.09-.04-.12-.06-.12-.07t-.02-.04c-.01-.1.01-.29.03-.4.1-.64.17-1.32.2-2.04.05-1.1.09-2.57.04-4.05-.07-1.42-.23-2.79-.48-4.05-.25-1.24-.52-2.64-1.1-3.93-.06-.14-.12-.27-.17-.41-.21-.49-.42-.95-.57-1.43-.1-.33-.17-.64-.21-.94-.03-.21-.04-.44-.06-.66,0-.12-.01-.22-.03-.33-.05-.64-.08-1.31,0-1.97.02-.28.1-.56.24-.93.12-.34.23-.73.07-1.08-.02-.04-.06-.07-.11-.07-.01,0-.03,0-.04,0-.06.03-.09.09-.07.15.1.28,0,.58-.13.88-.17.37-.27.69-.31,1-.11.68-.12,1.38-.1,2.04v.17c.02.27.03.56.05.85.03.33.1.67.2,1.03.15.52.35,1.02.54,1.5.06.14.11.28.16.41.49,1.23.77,2.57,1,3.83.24,1.25.38,2.54.43,3.95.05,1.16.05,2.39,0,4,0,.17-.02.33-.03.49,0,.04,0,.08,0,.12-.01,0-.02,0-.03-.01.01-.05,0-.1-.05-.13-.08-.04-.16-.09-.25-.14-.75-.4-1.53-.91-2.45-1.58-.41-.29-.83-.61-1.29-.96-.38-.27-.57-.69-.51-1.15.03-.32.12-.64.21-.98.05-.18.1-.36.14-.55.12-.5.16-1,.21-1.48l.02-.16c.07-.95.08-1.99.02-3.27-.06-1.08-.15-2.17-.24-3.23-.09-1.05-.18-2.14-.24-3.21-.06-1.18,0-2.21.19-3.15.07-.47.27-.9.49-1.36.24-.53.49-1.08.54-1.68,0-.06-.04-.12-.1-.13,0,0-.01,0-.02,0,0,0-.01,0-.02.01-.05,0-.08.04-.09.08-.1.54-.35,1.01-.62,1.51-.2.38-.41.77-.55,1.2.01-.09.03-.18.04-.28Z"/><path class="cls-2" d="m99.9,43.71s-.02-.03-.02-.04c-.02-.04-.02-.07-.01-.08.02-.1-.04-.19-.14-.22h-.04c-.26-.07-.52-.13-.77-.18-.33-.07-.64-.14-.95-.22-.57-.16-1.08-.32-1.55-.67-.02-.02-.05-.03-.07-.03s-.05.01-.07.02c-.04.03-.06.08-.04.13.13.37.42.63.64.78.25.18.55.32.89.42.3.09.61.15.95.17.11,0,.23.01.34.01.16,0,.32-.01.48-.03.02.03.05.05.08.08.02.02.06.04.09.06.03.01.05.03.06.04.02.03.05.04.09.04.02,0,.04,0,.05-.01.05-.02.07-.08.07-.13-.01-.06-.04-.12-.07-.16Z"/><path class="cls-2" d="m102.61,49.94c.15.17.33.29.59.39.05.02.09.03.13.03.09,0,.17-.03.23-.08.13-.12.22-.25.31-.37.08-.13.16-.27.21-.44l.02-.05c.03-.14-.05-.27-.18-.29l-.08-.02c-.11-.02-.24-.05-.37-.05-.02,0-.04,0-.05,0-.08-.04-.16-.07-.25-.1-.12-.03-.24-.04-.35-.04-.04,0-.09,0-.13,0-.11.01-.19.09-.22.18v.04c-.04.1-.07.25-.03.42.03.14.1.28.2.38Zm.51-.54c.09-.01.17-.02.25-.02.01,0,.03,0,.04,0,.01.01.03.02.04.03-.06.06-.12.12-.18.19-.07-.04-.12-.08-.16-.12-.02-.02-.04-.04-.06-.07.02,0,.04,0,.06-.01Z"/><path class="cls-2" d="m100.38,44.86s.02,0,.03,0c.03,0,.07-.01.1-.01.07,0,.14.02.21.04h.03c.11.04.23.09.34.14.03.01.07.03.1.05,0,0-.02,0-.02.01-.03.03-.04.08-.03.12.06.18.18.31.35.36.05.02.11.02.16.02.14,0,.26-.04.35-.09.1-.05.16-.15.16-.26v-.03c-.02-.31-.2-.49-.36-.6-.17-.13-.35-.19-.49-.22-.11-.02-.21-.04-.32-.04-.08,0-.15,0-.22.02-.12.02-.4.09-.5.33-.02.04-.01.09.02.12.02.03.06.04.09.04Z"/><path class="cls-2" d="m104.95,45.81s.05,0,.08,0c.28,0,.53-.16.61-.4,0-.01.01-.03.01-.05,0-.06-.05-.12-.12-.12h0s-.03,0-.04.01c-.05.02-.11.03-.16.03-.02,0-.05,0-.07,0,.01,0,.02,0,.03-.01.06-.02.1-.03.14-.04.03,0,.07-.02.1-.02l.09-.02c.15-.03.32-.07.49-.15.04-.02.07-.06.07-.1,0-.05-.02-.08-.06-.11-.21-.12-.4-.19-.62-.21h-.08s-.1-.01-.15-.01c-.14,0-.34.03-.58.23,0,0-.01.01-.01.02-.09.12-.17.25-.17.47,0,.14.07.28.16.36.1.09.21.12.28.12Z"/><path class="cls-2" d="m104.13,53.82c.1.02.2.03.31.03.05,0,.11,0,.16,0,.3-.02.58-.11.81-.2.22-.08.43-.18.62-.26l.08-.04s.07-.02.1-.03c.06-.03.13-.05.17-.05.01,0,.04,0,.08.12.01.05.05.08.11.09h0s.09-.03.11-.07c.03-.07.06-.16.04-.28-.01-.12-.11-.24-.24-.29-.1-.04-.21-.06-.33-.06-.07,0-.13,0-.19.01-.28.04-.52.12-.75.2h-.05s-.71.29-.71.29l-.09.03c-.14.04-.27.09-.4.09-.05,0-.1,0-.16-.02-.01,0-.02,0-.03,0-.04,0-.07.01-.1.04-.03.04-.03.09,0,.13.08.13.23.23.43.29Z"/><path class="cls-2" d="m99.44,53.22c.06,0,.12,0,.18,0,.39,0,.69.08.92.24.23.15.43.36.64.58.08.08.16.17.25.25.32.31.67.63,1.11.83.32.15.68.23,1.05.23.11,0,.23,0,.34-.03.06,0,.1-.05.1-.11,0-.05-.03-.1-.08-.12-.36-.12-.77-.27-1.11-.5-.32-.22-.61-.51-.91-.81-.06-.05-.11-.11-.17-.16-.27-.26-.54-.52-.93-.69-.2-.1-.42-.15-.65-.15-.03,0-.07,0-.1,0-.25.02-.48.1-.69.21-.05.03-.07.08-.06.14.01.05.06.08.11.08h0Z"/><path class="cls-2" d="m100.1,51.08s.04,0,.05,0c.09,0,.15-.03.18-.06,0,0,0,0,.01,0,0,0,0,0,.01,0l.12.09s.01,0,.03.02c.02.02.05.04.07.07.03.03.06.06.09.08.08.08.18.17.32.25.1.06.23.1.35.1.12,0,.23-.03.32-.09.03-.02.05-.06.05-.1s-.02-.08-.06-.1c-.13-.08-.22-.16-.28-.26l-.03-.04c-.06-.1-.15-.22-.27-.34-.08-.07-.16-.14-.29-.19-.03-.01-.04-.01-.06-.02-.03,0-.06-.02-.11-.03-.04-.01-.1-.02-.15-.02-.02,0-.03,0-.05,0-.11,0-.19.03-.26.08-.09.07-.13.15-.14.19,0,0,0,.01,0,.02-.04,0-.07.02-.09.05-.03.03-.03.08-.01.12,0,0,0,0,0,.01.02.05.06.13.18.16Z"/><path class="cls-2" d="m101.51,58.12c.09.03.19.06.28.09l.1.03s-.07.04-.1.06c-.03.02-.06.06-.05.1,0,.04.02.08.06.1.08.04.21.1.37.1.04,0,.08,0,.13-.01.1-.02.21-.08.29-.16.07-.07.12-.15.17-.25.07-.15,0-.33-.14-.41h-.03c-.1-.06-.22-.12-.34-.15-.13-.03-.25-.04-.36-.04h0c-.29,0-.53.08-.72.22-.03.03-.05.07-.05.11,0,.04.03.08.07.09.12.06.23.09.32.12Z"/><path class="cls-2" d="m105.05,58.78c.13.09.25.13.35.13.01,0,.03,0,.04,0,.04,0,.07-.02.08-.05.02-.03.03-.07.01-.1-.02-.06-.03-.11-.04-.16,0-.02,0-.03-.01-.05.01,0,.02,0,.03-.01.06-.01.13-.02.21-.03.07,0,.15-.02.24-.04.03,0,.07-.03.08-.06.02-.03.02-.07,0-.1-.09-.2-.27-.34-.51-.4-.05-.01-.1-.02-.15-.02-.2,0-.41.09-.54.23l-.03.04c-.1.11-.11.27-.01.39.08.1.16.18.24.23Z"/><path class="cls-2" d="m103.97,61.16c.06,0,.09,0,.11-.01,0,0,.02,0,.03,0,0,0,.02.02.02.02,0,0,.04.02.04.02.02,0,.04.01.07.01.08,0,.16-.05.18-.13l.03-.08c.12-.34.12-.68.11-.9,0-.16-.03-.31-.05-.43l-.02-.08c-.02-.11-.05-.24-.09-.37,0-.04-.04-.07-.08-.08h-.02s-.06,0-.09.04c-.11.12-.08.2-.08.39-.05.17.02.39.01.54-.01.25-.27.5-.2.75-.03.04-.05.08-.06.11,0,.01,0,.02-.01.03-.02.03-.03.08,0,.11s.06.06.1.06h0Z"/><path class="cls-2" d="m102.66,61.87s-.01.07,0,.1c.02.03.05.05.08.06.06.01.13.04.21.07.09.03.18.07.27.09.08.02.17.04.27.05-.03.01-.05.03-.07.05-.02,0-.06.02-.14.02-.04,0-.07.02-.1.06-.07.12-.07.27.01.39.06.1.2.17.34.17h.03c.14-.02.26-.09.32-.19.06-.1.07-.22.03-.35-.01-.04-.05-.07-.09-.07-.14-.03-.21-.05-.23-.06.05,0,.09.01.15.02h.06c.14,0,.32,0,.5-.05.15-.04.42-.11.55-.34.01-.02.02-.04.02-.07,0-.06-.05-.12-.12-.12h0c-.11,0-.2-.02-.29-.04-.07-.01-.13-.03-.19-.03-.16-.03-.34-.04-.5-.05h-.09c-.14,0-.29,0-.44.03-.08,0-.17.03-.27.06-.04.01-.05.02-.08.03-.08.02-.19.06-.25.19Z"/><path class="cls-2" d="m101.13,67.59c.31-.02.63-.14.88-.36.26-.21.42-.5.54-.72.07-.15.13-.3.19-.45.04-.09.08-.18.11-.27.1-.23.23-.43.39-.63.03-.04.03-.09,0-.13-.02-.03-.06-.05-.1-.05,0,0-.02,0-.03,0-.29.07-.57.25-.78.52-.17.2-.28.43-.38.63l-.05.09c-.09.19-.2.42-.34.63-.14.2-.33.38-.51.54-.03.03-.05.08-.03.13.02.04.06.07.11.07h0Z"/><path class="cls-2" d="m100.37,71.23s-.06.1-.03.14c.02.04.06.06.1.06,0,0,.02,0,.03,0,.06-.02.12-.04.18-.06.9-.33,1.72-.95,2.31-1.77.12-.17.29-.43.4-.71.1-.25.19-.48.27-.71l.05-.13c.15-.41.29-.79.62-1.07.04-.04.05-.1.03-.14-.02-.04-.06-.06-.1-.06-.01,0-.03,0-.04,0-.52.17-.84.66-1.1,1.16-.07.14-.14.27-.2.4-.15.31-.29.59-.49.85-.58.81-1.32,1.47-1.98,2.01-.02.01-.03.03-.05.04Z"/><path class="cls-2" d="m92.86,63.05c.5-.18.91-.27,1.29-.27.03,0,.06,0,.08,0,.44.02.85.15,1.19.39.33.22.61.53.85.92.2.34.35.74.46,1.22.01.05.06.09.12.09h0c.06,0,.12-.04.13-.09.26-.99-.17-2.07-1.08-2.7-.41-.28-.94-.44-1.44-.44-.09,0-.17,0-.25.02-.56.05-1.09.29-1.49.68-.04.04-.05.1-.01.15.02.03.07.05.11.05.02,0,.03,0,.05-.01Z"/><path class="cls-2" d="m84.2,71.68c-.21,0-.41.03-.6.08-.05.01-.09.06-.08.12,0,.05.04.1.1.11.45.07.84.2,1.2.39.34.18.67.41,1.02.72.24.2.46.41.7.63.41.39.84.79,1.34,1.12.02.01.04.02.06.02.03,0,.06,0,.08-.03.04-.04.05-.1.02-.15-.48-.73-1.02-1.48-1.74-2.12-.43-.36-.83-.6-1.24-.73-.28-.1-.57-.15-.85-.15Z"/><path class="cls-2" d="m82.19,69.58c.52.38,1.04.6,1.58.68,0,0,.01,0,.02,0,.04,0,.08-.03.1-.06.02-.05.01-.1-.02-.14-.33-.35-.69-.62-1.04-.88l-.21-.16c-.23-.17-.42-.32-.59-.47l-.03-.03c-.17-.17-.27-.28-.22-.48.01-.05,0-.09-.04-.12-.02-.01-.05-.02-.07-.02-.02,0-.04,0-.06.01-.16.1-.26.32-.23.53.02.16.08.32.18.48.18.28.41.49.62.65Z"/><path class="cls-2" d="m84.26,68.35c.23.26.46.44.7.58.26.14.5.21.73.21.07,0,.14,0,.2-.02.05-.01.08-.05.09-.1,0-.05-.02-.1-.06-.12-.24-.13-.42-.29-.61-.46-.21-.2-.37-.37-.52-.55-.17-.19-.32-.38-.49-.59-.17-.23-.31-.42-.46-.66-.02-.03-.06-.06-.1-.06,0,0-.01,0-.02,0-.05.01-.09.05-.1.1-.04.27,0,.57.16.91.1.26.26.5.48.75Z"/><path class="cls-2" d="m77.19,85.99c.01.14.03.31.03.53.02.37.02.75.03,1.1,0,.69,0,1.43,0,2.19,0,.23,0,.46,0,.69-.01,1.22-.03,2.48.1,3.73,0,.06.05.1.11.1h0c.06,0,.1-.04.11-.1.23-1.57.35-3.01.38-4.42,0-.62,0-1.42-.1-2.24-.04-.36-.09-.73-.17-1.11-.05-.23-.09-.39-.14-.55l-.02-.08c-.05-.16-.11-.34-.26-.47-.02-.01-.05-.03-.08-.03s-.06.01-.08.03c-.04.04-.05.1-.02.15.06.09.08.21.09.34,0,.04.01.09.02.13Z"/><path class="cls-2" d="m84.12,105.25s-.01,0-.02,0c-.49.12-.9.18-1.32.19h-.09c-.17,0-.34-.01-.53-.04-.22-.04-.42-.1-.63-.19,0,0-.02,0-.03,0-.02,0-.03,0-.04.01-.02.01-.03.03-.02.05.05.12.15.24.27.34.02.02.04.04.07.05.07.06.15.12.24.17.24.13.51.17.77.17.26,0,.52-.07.75-.18.11-.06.21-.12.31-.2.12-.08.21-.17.28-.27.01-.01.02-.02.03-.04s0-.04,0-.05c-.01-.01-.03-.02-.05-.02Z"/><path class="cls-2" d="m100.75,104.29s-.02,0-.02,0c-.27.11-.53.21-.8.26-.21.04-.4.06-.6.06-.06,0-.12,0-.18,0-.27-.01-.54-.05-.83-.1-.28-.04-.57-.09-.87-.1h0s-.05.01-.06.03c0,.02,0,.05.02.06.1.08.22.15.33.22.14.08.3.16.46.23.29.12.6.19.92.21h.1c.14,0,.28,0,.42-.04.06-.01.1-.03.16-.04.04-.01.08-.02.11-.04.06-.02.13-.03.19-.06.19-.08.34-.19.47-.32.09-.09.17-.18.24-.28.01-.02,0-.05,0-.06-.01-.01-.03-.02-.04-.02Z"/><path class="cls-2" d="m95.46,97.46c-.07-.08-.21-.14-.34-.14h-.04c-.2.03-.3.11-.37.16l-.03.03c-.18.17-.31.33-.43.48-.07.09-.15.18-.22.27-.47.55-.91.81-1.35.82h-.02s-.05,0-.1-.02c-.06-.02-.13-.06-.19-.09l-.42-.21-.11-.06c-.24-.13-.49-.26-.73-.38-.26-.12-.59-.27-.94-.34-.08-.02-.16-.03-.24-.03-.14,0-.26.04-.35.13-.17.2-.11.42-.07.58.01.05.06.1.12.1h.02s.02,0,.03,0c.26.48.61.91,1.02,1.26.55.46,1.2.72,1.84.72.02,0,.05,0,.08,0,.63-.03,1.26-.24,1.93-.65.33-.21.59-.43.8-.7.26-.33.4-.73.38-1.1-.01-.18-.02-.36-.11-.58-.03-.08-.08-.15-.14-.21Z"/><path class="cls-2" d="m104.53,97.42c-.24-.13-.48-.26-.73-.38-.33-.15-.61-.27-.93-.34-.09-.01-.16-.02-.24-.02-.14,0-.26.04-.35.12-.17.21-.11.42-.07.58.01.05.06.1.12.1,0,0,.01,0,.02,0,0,0,.02,0,.03,0,.26.48.61.91,1.02,1.26.55.46,1.2.72,1.84.72h.08c.63-.03,1.26-.24,1.93-.64.33-.21.59-.44.8-.71.26-.33.4-.72.38-1.1-.01-.18-.02-.35-.11-.59-.03-.08-.08-.15-.13-.21-.08-.08-.22-.15-.34-.15h-.04c-.2.02-.3.11-.37.16l-.03.03c-.19.17-.31.33-.43.49-.07.09-.14.18-.22.26-.47.55-.91.81-1.35.81h-.02q-.05,0-.1-.02c-.06-.02-.13-.06-.19-.09l-.41-.22-.12-.06Z"/><path class="cls-2" d="m83.36,79.67c.11.07.23.11.35.12.03,0,.06,0,.09,0,.09,0,.17-.01.2-.02.16-.03.35-.09.53-.23.16-.13.27-.33.32-.54.03-.17.03-.34,0-.53-.05-.29-.15-.57-.3-.85-.18-.37-.41-.7-.66-1.03,0,0,0,0,0,0-.09-.12-.18-.24-.28-.35-.02-.03-.06-.04-.09-.04-.02,0-.03,0-.06.01-.05.03-.07.08-.05.14.08.24.17.47.27.69-.26.2-.39.51-.49.73-.12.31-.18.6-.2.87-.01.19,0,.34.04.5.05.23.17.41.34.53Zm.27-1.77c.03-.19.07-.4.16-.59.08.19.15.37.21.55.08.23.16.48.18.71.02.21-.01.37-.09.43-.07.07-.21.11-.31.11-.03,0-.05,0-.05,0,0,0-.01,0-.02-.01-.04-.02-.12-.18-.13-.45-.01-.23,0-.49.05-.75Z"/><path class="cls-2" d="m81.17,78.26c.04.08.08.16.16.25.07.08.22.18.4.18.02,0,.04,0,.06,0,.3-.07.4-.22.48-.33.01-.02.03-.04.04-.06.08-.14.14-.27.19-.42.09-.29.14-.55.15-.81.03-.55-.07-.99-.28-1.33-.05-.07-.1-.15-.16-.22-.02-.02-.05-.04-.08-.04-.02,0-.05,0-.07.02-.03.02-.04.05-.05.08,0,0,0,0,0,0,0,0,0-.02,0-.02-.02-.05-.06-.08-.11-.08h-.01c-.06,0-.1.05-.1.11-.03.35-.18.65-.34.96-.06.12-.12.24-.17.36-.11.24-.22.51-.22.84,0,.09.02.18.04.27.02.07.05.15.08.22Zm.64-1.11c.02-.07.04-.13.06-.19.12-.39.25-.82.16-1.25.16.43.09.9.02,1.29-.05.2-.1.44-.19.64-.03.08-.07.16-.11.23,0-.01,0-.03-.02-.04,0-.03-.01-.07-.02-.11-.02-.16.04-.36.1-.58Z"/><path class="cls-2" d="m70.09,148.25c.31.24.61.36.88.58.1.08.19.16.28.27.32.38.57.8.81,1.23.39.71.78,1.77.77,2.59l.61-.19c.07-.01.13-.01.18,0,.16.02.26.09.42.12.28.06.54.13.82.12.16,0,.33-.03.5-.1-.07-.82.96-.8,1.18-1.44.23-.65-.65-.75-.66-1.38-.01-.7,1.34-1,1.14-1.68-.16-.55-1.27-.39-.92-1.16.2-.45.96-.57.67-1.11-.24-.44-1.03-.32-1.17-.74-.17-.51.58-.91.69-1.35.14-.53-.27-.67-.75-.92-1.65-.85.84-1.26-.3-2.12-.33-.25-1.23-.4-.91-.83.24-.33.98-.09,1.02-.65-1.11-.53-2.63-2.3-3.94-2.23-.43.02-.84.25-1.21.81-.23.35-.58.72-.78,1.11-.06.13-.12.27-.14.4-.07.41.03.85-.11,1.25-.16.47-.36.68-.32,1.17.02.4.07.66-.06,1.08-.13.41-.55,1.04-.5,1.47.04.41.55.9.67,1.28.28.94.27,1.72,1.15,2.42Z"/><path class="cls-2" d="m60.5,144.78c.38.11.78.23.97.34.43.27.74.73.78.94-.06.01-.16.02-.33,0-.07,0-.15-.02-.23-.03-.48-.07-1.13-.16-1.58.24-.17.15-.36.43-.35.9.03.68.71,1.17,1.26,1.56.1.08.2.14.27.2.06.05.15.12.27.21,1.52,1.15,1.89,1.67,1.97,1.89-.05,0-.12,0-.17-.01-.28-.02-.7-.06-1.03.23-.23.2-.34.5-.36.9-.02.8.61,1.19,1.07,1.48.2.12.4.25.49.37.14.19.17.28.17.28-.02.04-.1.14-.16.22-.08.1-.16.2-.25.33-.52.75-.22,1.28-.02,1.63.1.18.19.34.22.57.04.29.29.5.58.5.03,0,.05,0,.08,0,.32-.04.54-.34.5-.65-.06-.45-.24-.77-.37-.99-.04-.08-.11-.2-.12-.23,0,0,0-.05.08-.16.07-.1.14-.18.2-.26.39-.48.69-.99.02-1.91-.22-.3-.53-.5-.81-.67-.31-.19-.52-.34-.52-.46h0s.08,0,.12,0c.31.03.77.07,1.14-.28.23-.22.34-.52.32-.84-.05-.86-1.01-1.75-2.44-2.84-.1-.08-.19-.14-.24-.18-.09-.07-.2-.15-.33-.24-.21-.15-.69-.49-.77-.64.15-.02.44.02.59.04.11.02.21.03.29.04,1.11.1,1.45-.43,1.55-.75.27-.8-.46-1.84-1.29-2.35-.33-.2-.78-.33-1.26-.47-.62-.18-1.56-.45-1.65-.83-.07-.31-.38-.51-.7-.44-.31.07-.51.38-.44.69.23,1.05,1.47,1.41,2.47,1.69Z"/><path class="cls-2" d="m58.58,149.21c-1.14-.07-2.18.35-2.71,1.11-.18.27-.12.63.14.81.27.18.63.12.81-.15.29-.41.97-.65,1.68-.61.67.04,1.22.32,1.43.72.08.15.1.24.11.29-.1.03-.33.05-.66-.03-.46-.11-.8-.34-.88-.5-.15-.28-.5-.39-.79-.25-.29.15-.4.5-.25.78.37.73,1.43,1.15,2.24,1.19.03,0,.07,0,.11,0,.57,0,1.01-.2,1.24-.57.17-.27.29-.74-.08-1.46-.41-.77-1.31-1.28-2.39-1.34Z"/><path class="cls-2" d="m29.51,173.95c1.52,4.5,3.83,8.76,6.34,11.68,1.16,1.35,1.99,1.85,3.06,1.85.48,0,.97-.09,1.58-.22.3-.06.64-.13,1.02-.19.25-.04.52-.06.82-.06,2.76,0,6.96,1.81,9.01,3.43,1.03.82,1.88,2.09,2.7,3.32,1.3,1.96,2.65,3.98,4.88,4.48.45.1.88.16,1.28.16,2.58,0,3.91-2.01,5.07-3.79.25-.38.51-.77.77-1.14.25-.35.5-.68.74-1.01,1.38-1.87,2.69-3.64,3.64-5.99.16-.38.3-.75.45-1.12.84-2.1,1.56-3.92,2.93-5.79.61-.83.97-1.94,1.32-3.02.36-1.12.74-2.28,1.37-2.97.52-.57,1.17-.77,1.93-1.01.72-.23,1.54-.48,2.35-1.08,1.42-1.04,2.85-4.4,3.05-7.19.14-1.87-.26-3.33-1.17-4.24l-.05-.06c-.31-.31-.58-.58-.73-.99-.03-.13-.08-.72-.12-1.12-.05-.54-.08-.88-.11-1.06-.19-1.02.04-1.67.43-2.76l.1-.29c.9-2.53,1.18-3.79,1.38-6.39,1.17.22,2.62.25,3.28.25,3.53,0,6.13-.85,7.96-2.6.67-.65,1.12-1.21,1.12-1.85,0-.69-.52-1.18-1.24-1.87l-.22-.2c-.84-.8-1.72-1.62-2.76-2.35-4.08-2.86-8.38-4.25-13.93-4.49-1.96-.09-3.54-.74-5.21-1.43-1.82-.75-3.71-1.54-6.12-1.54-.5,0-1.01.03-1.52.1-1.11.14-4.92.69-7.59,1.66-.34.12-.63.24-.89.34-1.56.6-1.8.75-3.72.05-.6-.22-1.25-.33-1.92-.33-1.86,0-3.63.82-5.35,1.61-.57.26-1.1.51-1.63.72-.82.33-1.76.5-2.75.68-1.98.36-4.03.74-5.39,2.42-1.11,1.38-1.64,3.08-2.14,4.74-.34,1.09-.65,2.12-1.12,3.03-.63,1.23-1.44,2.34-2.24,3.43-1.09,1.5-2.22,3.04-2.91,4.92-2.25,6.13-.2,12.09,1.78,17.86.16.47.32.94.48,1.4Zm41.62,5.54c-.98,1.65-1.47,3.4-2.68,5.01-1.99,2.65-7.11,4.48-10.11,2.69-1.75-1.05-1.41-3.03-2.37-4.66-1.04-1.79-2.46-2.47-2.77-4.67-.27-1.95-.09-3.43-1.77-4.86-1.52-1.29-3.3-1.56-4.06-3.64-1.04-2.86.39-4.98,1.63-7.47.77-1.54.83-2.67-.38-3.93-.53-.55-2.08-1.38-2.07-2.25.02-1.17.82-.43,1.35,0,1.27,1.05,2.18,2.46,3.31,3.64,1.8,1.87,5.42,4.46,7.11,6.39,1.16,1.32-.41,2.21,1.22,3.67,1.5,1.34,2.3.26,3.44.99,1.45.93,3.4,2.49,5.13,2.89,1.17.27,3.21-.29,4.16.61,1.29,1.22-.45,4.39-1.16,5.6Zm-10.15-16.09c.21.15.26.44.11.65-.09.13-.23.2-.38.2-.09,0-.19-.03-.27-.09-10.36-7.4-9.71-11.64-9.67-11.81.05-.25.29-.42.54-.38.25.05.42.29.38.54-.01.08-.41,3.97,9.29,10.89Zm.55,2.39l.18.12c1.22.23,1.17,3.1-.57,2.55-.63-.2-1.1-.8-.95-1.69.06-.34.16-.71.45-.9.33-.21.64,0,.88-.08Zm10.79,5.24c-4.49-.29-4.43-1.46-4.43-1.46,0,0,4.25-3.09,11.08-.58,0,0-2.16,2.33-6.65,2.04Zm7.87-2.77c-10.24-3.03-13.38,1.21-14.33,1.74-.94.53-2.05-.83-2.05-.83,2.28-2.5-.39-4.7-.39-4.7,4.8-9.41,15.9-6.45,15.9-6.45,0,.53.71,2.27.71,2.27,3.62,3.34.16,7.96.16,7.96Zm9.68-22.45c-.95.14-2.2.28-3.21.22-.88-.06-4.4-.26-4.08-.76.7-1.11.29-3.15.29-3.15.87.99,1.04.02,1.92-.06,2.74-.23,3.29.72,4.14.99,2.04.64,4.25,2.28.94,2.76Zm-.05-6.58c.28.18.57.36.85.55,2,1.43,2.59,2.9,2.76,3.6-4.4-2.27-7.13-2.75-8.64-2.75-1.12,0-1.75.26-2.01.41-.28-.21-.97-.86-.86-2.11.08-.92-.41-1.88-.75-2.44,3.62.55,6.53,1.46,8.65,2.73Zm-35.22-2.26c.41-1.63,5.25-2.09,6.81-2.47,2.48-.62,5.28-.93,7.83-.45,2.44.45,4.67,1.32,6.95,1.97,1.03.3,2.64.31,3.44,1.17.85.91.6,2.42,1.27,3.49.76,1.21,1.69,1.25,1.28,2.89-.14.55-.58.9-.69,1.52-.12.65.15,1.28.1,1.88-.23,2.28-.44,5.71-1.37,7.42-.87,1.59-3.42.78-6.58.55-2.52-.18-4.33,1.11-6.54,2.37-1.24.71-2.12,1.38-3.14,2.42-.82.85-1.57,1.94-2.79,1.65-.98-.24-2.02-1.61-2.82-2.21-.87-.66-1.84-1.27-2.65-2.04-.84-.8-1.58-1.63-1.93-2.76-.27-.85-.02-5.05-.77-5.11-2.02-.16-1.71.62-2.95.92-.98.24-2.52-.46-3.44-.86-3.42-1.52-.49-3.95,1.39-4.62,1.63-.58,2.2-.6,3.79-.06.86.29,2.25,1.16,2.97.42.49-.5-.61-1.61-.61-1.61.35-.98,2.17-.74,2.87-1.46,2.01-2.09-3.11-2.37-2.44-5Zm-13.7,7.72c1.62-3.5,5.48-7.49,9.74-8.35.16-.03.31-.04.46-.04,2.33,0,3.1,3.9,3.26,4.95-8.09.08-13,6.86-14.08,8.53-.52-1.3-.31-3.08.61-5.09Z"/><path class="cls-2" d="m71.06,162.51c-.61-.25-1.31-.09-1.82.42-.23.22-.23.6-.01.82.22.23.6.24.82.01.18-.18.4-.24.57-.17.15.06.24.21.25.41,0,.08-.08.24-.18.38-.11-.1-.25-.17-.42-.16-.32,0-.58.27-.57.6.01.54.25.78.45.89.08.04.21.1.37.1.15,0,.32-.04.52-.17.48-.29,1-1.05.98-1.66-.02-.66-.39-1.22-.97-1.46Z"/><path class="cls-2" d="m65.44,174.95c-.89-.09-1.84.4-2.49-.6-.53-.82-.66-1.55-1.76-.99-1.02.51-1.71.15-2.43-.64-.62-.69-1.22-1.38-1.64-2.2-.19-.39-1.14-2.46-1.7-1.34l.29-.17c-1.37,1.02-1.09,3.04-.51,4.43.34.81.66,1.76,1.09,2.51.24.41.59.69.83,1.11.26.44.31.98.56,1.4.45.76.59.04,1.17.24.38.13.46.81.9.96.6.21.63-.42,1.21-.34.47.07.83.69,1.05,1.05.42.7.46,1.85,1.35,2.2.61.24.69-.29,1.11-.32.51-.04.54.75,1.1.69.98-.11,1.01-1.84,1.1-2.51.15-1.06.25-2.09.08-3.15-.14-.85-.26-2.22-1.3-2.33Z"/><path class="cls-2" d="m78.13,162.64c-.57.19-.95.78-.96,1.5-.01.58.42,1.4.9,1.7.14.08.29.13.43.13.12,0,.24-.03.34-.09.28-.15.42-.45.43-.89,0-.32-.25-.59-.57-.6-.1,0-.2.02-.28.07-.05-.11-.08-.22-.08-.29,0-.27.12-.41.18-.43.06-.02.16.04.25.15.2.25.57.28.82.08.25-.21.28-.57.08-.83-.41-.49-.99-.69-1.52-.5Z"/><path class="cls-2" d="m264.49,68.55c.48-.19.9-.29,1.27-.3v-11.33h-8.23v2.08l5.42.18v7.52c-.49.25-1.29.5-2.38.75-1.1.25-2.34.38-3.74.38-1.9,0-3.51-.48-4.82-1.45-1.31-.97-2.31-2.3-2.99-3.99-.68-1.7-1.02-3.63-1.02-5.81,0-2.38.4-4.38,1.21-6,.8-1.62,1.88-2.84,3.23-3.67,1.35-.83,2.84-1.24,4.47-1.24,1.83,0,3.32.14,4.46.43,1.14.29,2.08.6,2.82.94l.11-2.6c-.68-.13-1.33-.27-1.96-.44-.63-.16-1.35-.31-2.16-.43-.82-.12-1.84-.19-3.09-.19-1.69,0-3.27.29-4.73.86-1.47.58-2.75,1.43-3.85,2.56-1.1,1.13-1.96,2.54-2.59,4.23-.62,1.69-.93,3.65-.93,5.89,0,2.51.47,4.76,1.42,6.74.94,1.98,2.3,3.55,4.07,4.7,1.77,1.15,3.91,1.72,6.4,1.72,1.33,0,2.47-.09,3.42-.26.96-.18,1.78-.38,2.46-.62.69-.24,1.27-.45,1.75-.64Z"/><path class="cls-2" d="m288.08,68.48c1.74-1.02,3.12-2.52,4.14-4.49,1.02-1.98,1.56-4.41,1.62-7.31.06-2.67-.36-5.01-1.27-7.01-.9-2-2.2-3.55-3.9-4.65-1.7-1.1-3.69-1.65-5.99-1.64-2.2.01-4.2.51-6,1.5-1.79.99-3.23,2.47-4.32,4.43s-1.66,4.39-1.72,7.3c-.05,2.63.39,4.96,1.31,7.01.92,2.05,2.25,3.65,3.99,4.8,1.74,1.16,3.81,1.71,6.21,1.66,2.2-.05,4.18-.58,5.92-1.6Zm-13.52-6.19c-.64-1.68-.96-3.51-.95-5.51.01-2.49.42-4.56,1.21-6.21.8-1.65,1.87-2.89,3.22-3.72,1.35-.83,2.86-1.25,4.54-1.26,1.83-.01,3.36.48,4.6,1.47,1.24.99,2.17,2.32,2.8,3.98.63,1.66.94,3.49.94,5.5-.04,3.66-.85,6.45-2.43,8.38-1.58,1.92-3.67,2.9-6.26,2.92-1.9.01-3.49-.49-4.78-1.5-1.28-1.01-2.25-2.36-2.89-4.04Z"/><path class="cls-2" d="m304.63,69.95c1.07.06,2.08.1,3.04.1,2.56,0,4.59-.32,6.1-.97,1.51-.64,2.59-1.57,3.24-2.77.65-1.2.98-2.63.98-4.28,0-1.14-.28-2.17-.84-3.09-.56-.92-1.29-1.66-2.2-2.21-.91-.55-1.89-.85-2.95-.9,1.02-.26,1.84-.73,2.45-1.41.62-.68,1.06-1.46,1.33-2.33.27-.87.4-1.73.4-2.56,0-1.28-.31-2.38-.94-3.29-.63-.92-1.57-1.62-2.84-2.1-1.27-.49-2.86-.73-4.77-.73-.8,0-1.5.02-2.1.06-.6.04-1.2.08-1.78.12-.58.04-1.23.06-1.96.06l-1.58-.03v26.18h1.51c.87.04,1.84.09,2.91.15Zm-1.54-24.25c.31-.05.71-.09,1.21-.11.5-.03,1.01-.05,1.52-.07s.92-.03,1.24-.03c1.86,0,3.38.33,4.55,1,1.17.67,1.75,1.82,1.75,3.47s-.38,2.82-1.14,3.77c-.76.95-1.82,1.48-3.18,1.58-.33,0-.77,0-1.31,0-.55,0-1.13,0-1.74,0s-1.18,0-1.71-.02c-.52-.01-.92-.04-1.19-.07v-9.54Zm0,11.75c.22-.02.57-.04,1.06-.05.48-.01,1.01-.02,1.6-.02h2.97c1.97.03,3.51.44,4.63,1.21,1.11.77,1.67,2.04,1.67,3.78,0,2.05-.61,3.49-1.83,4.3-1.22.82-2.96,1.22-5.21,1.22-.53,0-1.08,0-1.65-.03-.57-.02-1.13-.05-1.69-.1-.56-.05-1.08-.11-1.56-.19v-10.13Z"/><rect class="cls-2" x="324.7" y="43.65" width="2.92" height="26.15"/><polygon class="cls-2" points="338.67 57.41 347.33 57.41 347.33 55.16 338.67 55.16 338.67 45.9 350.53 45.9 350.53 43.65 335.78 43.65 335.78 69.8 351.76 69.8 351.76 67.51 338.67 67.51 338.67 57.41"/><path class="cls-2" d="m360.13,58.4c1.15.01,2.16.02,3.04.03.83,0,1.55,0,2.2-.03.69.14,1.33.51,1.91,1.17.63.72,1.21,1.58,1.73,2.59.52,1.01,1,2.05,1.44,3.11.44,1.06.85,1.98,1.24,2.78.23.5.41.88.53,1.13.12.25.25.46.39.63h3.31c-.15-.25-.31-.52-.47-.82-.16-.3-.33-.61-.51-.94-.47-.83-.95-1.79-1.44-2.88-.49-1.09-1.01-2.16-1.56-3.22-.55-1.06-1.13-1.99-1.76-2.77-.48-.6-.99-.98-1.52-1.25.8-.22,1.55-.5,2.22-.91,1.01-.63,1.8-1.48,2.37-2.54.57-1.07.85-2.35.85-3.85,0-1.33-.22-2.45-.65-3.37-.43-.92-1.05-1.66-1.85-2.23-.8-.56-1.75-.97-2.84-1.23-1.1-.26-2.31-.39-3.63-.39-1.13,0-2.23.04-3.32.11-1.09.07-2.04.11-2.88.11-.06,0-.23,0-.5,0-.28,0-.67.02-1.19.03v26.15h2.89v-11.4Zm0-12.56c.53-.11,1.22-.18,2.08-.22.86-.04,1.68-.06,2.45-.06,1.49,0,2.71.18,3.67.53.96.35,1.66.91,2.12,1.67.46.76.69,1.77.69,3.01-.01,1.9-.58,3.32-1.7,4.26-1.12.94-2.6,1.42-4.42,1.44-.34,0-.84,0-1.51,0-.67,0-1.33-.02-1.98-.03-.65-.02-1.12-.04-1.4-.06v-10.52Z"/><polygon class="cls-2" points="384.1 53.12 383.92 47.47 386.6 52.03 398.42 69.8 401.06 69.8 401.06 43.65 398.42 43.65 398.42 60.75 398.6 66.1 396.17 61.84 384.13 43.65 381.42 43.65 381.42 69.8 384.1 69.8 384.1 53.12"/><path class="cls-2" d="m429.1,49.66c-.9-2-2.2-3.55-3.9-4.65-1.7-1.1-3.69-1.65-5.99-1.64-2.2.01-4.2.51-6,1.5-1.79.99-3.23,2.47-4.32,4.43s-1.66,4.39-1.72,7.3c-.05,2.63.39,4.96,1.31,7.01.92,2.05,2.25,3.65,3.99,4.8,1.74,1.16,3.81,1.71,6.21,1.66,2.2-.05,4.18-.58,5.92-1.6,1.74-1.02,3.12-2.52,4.14-4.49,1.02-1.98,1.56-4.41,1.62-7.31.06-2.67-.36-5.01-1.27-7.01Zm-4.08,15.25c-1.58,1.92-3.67,2.9-6.26,2.92-1.9.01-3.49-.49-4.78-1.5-1.28-1.01-2.25-2.36-2.89-4.04-.64-1.68-.96-3.51-.95-5.51.01-2.49.42-4.56,1.21-6.21.8-1.65,1.87-2.89,3.22-3.72,1.35-.83,2.86-1.25,4.54-1.26,1.83-.01,3.36.48,4.6,1.47,1.24.99,2.17,2.32,2.8,3.98.63,1.66.94,3.49.94,5.5-.04,3.66-.85,6.45-2.43,8.38Z"/><path class="cls-2" d="m249.83,86.45c-.41,0-.83.01-1.24.03-.41.02-.81.04-1.2.06-.39.02-.75.03-1.08.03-.04,0-.16.01-.35.02-.19,0-.38,0-.56,0h-.33v15.87h.27c.16,0,.33,0,.51,0,.18,0,.3,0,.37.02.53,0,1.12.02,1.75.06.63.04,1.17.07,1.62.09,1.64.02,3.04-.32,4.2-1.02,1.16-.7,2.04-1.7,2.64-2.99s.91-2.81.91-4.54c0-2.41-.62-4.28-1.87-5.62-1.25-1.34-3.13-2.01-5.65-2.01Zm4.95,11.82c-.48,1.03-1.14,1.78-1.99,2.28-.85.5-1.83.75-2.94.76-.46,0-.97,0-1.55-.04-.58-.04-1.07-.09-1.48-.15v-13.24c.36-.04.76-.08,1.2-.11.44-.03.91-.04,1.4-.04,1.35,0,2.47.23,3.37.68.9.45,1.58,1.16,2.04,2.14.46.97.68,2.23.67,3.78,0,1.6-.25,2.92-.73,3.94Z"/><polygon class="cls-2" points="262.09 94.94 267.34 94.94 267.34 93.58 262.09 93.58 262.09 87.96 269.28 87.96 269.28 86.6 260.34 86.6 260.34 102.46 270.03 102.46 270.03 101.07 262.09 101.07 262.09 94.94"/><path class="cls-2" d="m292.44,90.14c-.62-.62-1.37-1.2-2.26-1.72-.89-.53-1.89-1.04-3.02-1.55-1.06-.48-1.91-.92-2.58-1.31-.66-.39-1.15-.79-1.46-1.2-.31-.4-.47-.87-.47-1.4,0-.43.13-.82.39-1.14.26-.33.65-.58,1.18-.76.53-.18,1.2-.27,2.02-.27,1.15,0,2.27.17,3.37.52,1.1.35,1.91.72,2.44,1.13l1.02-4.89c-.47-.28-1.33-.6-2.57-.97-1.24-.36-2.85-.55-4.82-.55-1.38,0-2.65.15-3.78.45-1.14.3-2.12.75-2.95,1.35-.83.6-1.47,1.35-1.92,2.24-.45.9-.68,1.94-.68,3.14,0,1.4.28,2.6.84,3.62.56,1.01,1.31,1.88,2.24,2.6.93.72,1.94,1.35,3.04,1.87,1.3.62,2.34,1.14,3.12,1.55.78.41,1.34.81,1.68,1.2.34.39.51.87.51,1.43,0,.77-.28,1.34-.84,1.69-.56.35-1.45.53-2.68.53-.91,0-1.82-.09-2.72-.27-.9-.18-1.72-.4-2.45-.66-.74-.26-1.33-.51-1.76-.76l-.81,5.1c.34.21.93.44,1.76.69.83.25,1.82.47,2.95.65,1.13.18,2.32.27,3.56.27,2.05,0,3.79-.32,5.21-.96,1.42-.64,2.5-1.54,3.23-2.7.73-1.16,1.1-2.52,1.1-4.08,0-1.03-.16-1.94-.48-2.74-.32-.79-.79-1.5-1.42-2.12Z"/><path class="cls-2" d="m316.12,77.54c-1.77-1.07-3.89-1.57-6.37-1.5-2.42.07-4.56.56-6.44,1.47-1.88.91-3.36,2.32-4.44,4.24-1.09,1.92-1.66,4.42-1.72,7.52-.05,2.77.4,5.17,1.35,7.21.94,2.03,2.33,3.6,4.15,4.7,1.82,1.1,4.03,1.62,6.61,1.57,2.38-.05,4.48-.54,6.3-1.48,1.82-.94,3.25-2.39,4.29-4.35,1.04-1.96,1.59-4.49,1.65-7.58.05-2.76-.4-5.14-1.33-7.16-.93-2.02-2.29-3.56-4.06-4.64Zm-2.76,18.44c-.97,1.37-2.31,2.05-3.99,2.05-1.23,0-2.26-.37-3.07-1.11-.82-.74-1.43-1.75-1.84-3.04-.41-1.29-.62-2.77-.62-4.43,0-2.16.26-3.86.78-5.1.52-1.24,1.22-2.13,2.1-2.66.88-.53,1.85-.79,2.92-.79,1.17,0,2.14.35,2.9,1.04.76.69,1.33,1.66,1.71,2.9.38,1.24.56,2.69.56,4.33,0,3.18-.49,5.45-1.46,6.82Z"/><polygon class="cls-2" points="341.95 87.82 342.66 94.46 340.86 90.67 331.92 76.32 325.8 76.32 325.8 102.46 331.75 102.46 331.75 91.17 330.94 84.48 332.84 88.46 341.32 102.46 347.9 102.46 347.9 76.32 341.95 76.32 341.95 87.82"/><path class="cls-2" d="m371.16,77.54c-1.77-1.07-3.89-1.57-6.37-1.5-2.42.07-4.56.56-6.44,1.47s-3.36,2.32-4.44,4.24c-1.09,1.92-1.66,4.42-1.72,7.52-.05,2.77.4,5.17,1.35,7.21.94,2.03,2.33,3.6,4.15,4.7,1.82,1.1,4.03,1.62,6.61,1.57,2.38-.05,4.48-.54,6.3-1.48,1.82-.94,3.25-2.39,4.29-4.35,1.04-1.96,1.59-4.49,1.65-7.58.05-2.76-.4-5.14-1.33-7.16-.93-2.02-2.29-3.56-4.06-4.64Zm-2.76,18.44c-.97,1.37-2.31,2.05-3.99,2.05-1.23,0-2.26-.37-3.07-1.11-.82-.74-1.43-1.75-1.84-3.04-.41-1.29-.62-2.77-.62-4.43,0-2.16.26-3.86.78-5.1.52-1.24,1.22-2.13,2.1-2.66.88-.53,1.85-.79,2.92-.79,1.17,0,2.14.35,2.9,1.04.76.69,1.33,1.66,1.71,2.9.38,1.24.56,2.69.56,4.33,0,3.18-.49,5.45-1.46,6.82Z"/><path class="cls-2" d="m401.38,100.56c-.49-.86-.94-1.76-1.34-2.7-.4-.94-.8-1.85-1.21-2.73-.4-.87-.85-1.65-1.34-2.31-.3-.41-.64-.72-1-.99.29-.13.6-.24.87-.41,1.04-.63,1.86-1.52,2.45-2.67.59-1.16.89-2.62.89-4.41,0-1.64-.29-3-.86-4.08-.58-1.08-1.34-1.93-2.29-2.54-.95-.62-2-1.05-3.15-1.3-1.15-.25-2.3-.38-3.45-.38-1.86,0-3.41.05-4.64.14-1.23.09-2.31.14-3.25.14h-2.25v26.15h6.55v-9.25c1.16,0,2.06-.02,2.78-.06.53.02.99.26,1.36.72.38.47.71,1.09.99,1.84s.57,1.56.85,2.42c.28.86.6,1.69.95,2.47.25.56.43.97.55,1.22.12.25.26.47.4.64h7.21c-.18-.32-.36-.63-.55-.95-.19-.32-.37-.63-.54-.95Zm-13.05-11.81c-.4-.02-.72-.05-.95-.09v-7.71c.41-.11.86-.19,1.35-.24.49-.05.97-.08,1.43-.08,1.15,0,2.03.18,2.65.55.62.36,1.04.84,1.27,1.42.23.58.34,1.19.34,1.84,0,1.21-.31,2.24-.92,3.09-.61.85-1.58,1.28-2.92,1.28-.28,0-.63,0-1.04,0-.41,0-.82-.02-1.21-.04Z"/><path class="cls-2" d="m411.94,76.14l-9.11,26.32h6.86l1.38-4.89h9.1l1.45,4.89h6.93l-9.18-26.32h-7.43Zm.41,16.86l2.3-8.16.88-3.41.84,3.41,2.43,8.16h-6.45Z"/><rect class="cls-2" x="241.19" y="114.38" width="247.81" height="3.31"/><path class="cls-1" d="m243.52,147.3v.08c0,.44.11.84.34,1.21.23.37.55.68.98.95.43.27.94.48,1.54.63.6.15,1.28.23,2.04.23,1.45,0,2.55-.27,3.31-.82.76-.55,1.14-1.24,1.14-2.08,0-.51-.13-.94-.39-1.3-.26-.36-.61-.67-1.05-.94-.44-.27-.95-.5-1.54-.71-.59-.21-1.2-.41-1.86-.61-.64-.2-1.28-.42-1.94-.65-.65-.23-1.25-.52-1.79-.87-.54-.35-.98-.76-1.32-1.25-.34-.49-.51-1.08-.51-1.79,0-.61.13-1.17.39-1.67.26-.5.63-.93,1.11-1.29.48-.36,1.06-.64,1.75-.83s1.45-.29,2.28-.29,1.64.1,2.35.3c.72.2,1.33.48,1.85.84.51.36.91.79,1.2,1.28.29.49.43,1.03.43,1.62v.18h-1.16v-.1c0-.44-.11-.84-.32-1.21-.21-.37-.52-.68-.93-.95s-.9-.48-1.48-.63-1.23-.23-1.95-.23c-1.4,0-2.46.27-3.19.82-.73.55-1.1,1.24-1.1,2.08,0,.51.12.93.37,1.28.25.35.58.65,1.01.92.43.27.92.5,1.48.7s1.16.4,1.8.6c.62.19,1.28.4,1.96.63.68.23,1.3.53,1.86.88.56.35,1.02.78,1.39,1.28.37.5.55,1.11.55,1.85,0,.61-.14,1.17-.41,1.67-.27.5-.66.92-1.16,1.28-.5.35-1.1.63-1.8.82-.7.19-1.48.29-2.34.29s-1.71-.1-2.44-.3c-.74-.2-1.37-.48-1.91-.84-.53-.36-.95-.79-1.25-1.28-.3-.49-.45-1.03-.45-1.62v-.16h1.16Z"/><path class="cls-1" d="m258.41,135.63h10.7v1.16h-9.52v6.21h8.1v1.12h-8.1v5.93h9.52v1.16h-10.7v-15.56Z"/><path class="cls-1" d="m287.54,147.42c-.35.61-.77,1.17-1.27,1.67s-1.05.93-1.65,1.29c-.6.36-1.25.64-1.95.83-.7.19-1.42.29-2.17.29-1.12,0-2.17-.21-3.16-.64-.99-.43-1.85-1-2.58-1.73-.73-.72-1.31-1.58-1.74-2.56s-.64-2.04-.64-3.15.21-2.17.64-3.14c.43-.98,1-1.83,1.74-2.56s1.59-1.31,2.58-1.74c.99-.43,2.05-.64,3.16-.64.75,0,1.46.1,2.16.29.69.19,1.34.47,1.94.83.6.36,1.14.79,1.64,1.29.49.5.92,1.05,1.28,1.65l-1.08.52c-.31-.51-.67-.96-1.09-1.38-.42-.41-.88-.77-1.39-1.07-.51-.3-1.05-.53-1.64-.7-.59-.17-1.19-.25-1.82-.25-.96,0-1.86.18-2.69.55-.84.37-1.57.86-2.19,1.49-.63.63-1.12,1.36-1.49,2.19s-.55,1.73-.55,2.67.18,1.86.55,2.69.86,1.57,1.49,2.19c.62.63,1.36,1.12,2.19,1.48.84.36,1.74.54,2.69.54,1.28,0,2.43-.31,3.47-.94,1.04-.62,1.86-1.45,2.47-2.47l1.08.52Z"/><path class="cls-1" d="m298.5,135.63c.84,0,1.59.13,2.25.4.66.27,1.21.63,1.67,1.09.45.46.8.99,1.04,1.6.24.61.36,1.25.36,1.93,0,.55-.08,1.07-.24,1.58-.16.51-.39.97-.69,1.4s-.67.79-1.11,1.11-.94.56-1.52.73l4.09,5.75h-1.44l-3.93-5.53c-.08.01-.16.02-.24.02h-5.93v5.51h-1.18v-15.56h6.86Zm-5.69,1.12v7.82h5.65c.68,0,1.28-.11,1.8-.32.52-.21.96-.5,1.32-.86s.63-.77.81-1.25c.18-.47.27-.97.27-1.49s-.09-1.01-.27-1.49c-.18-.47-.45-.89-.81-1.25s-.8-.65-1.32-.86c-.52-.21-1.12-.32-1.8-.32h-5.65Z"/><path class="cls-1" d="m308.41,135.63h10.7v1.16h-9.52v6.21h8.1v1.12h-8.1v5.93h9.52v1.16h-10.7v-15.56Z"/><path class="cls-1" d="m321.82,135.63h12.41v1.16h-5.63v14.41h-1.18v-14.41h-5.61v-1.16Z"/><path class="cls-1" d="m342.34,135.63l7.14,15.56h-1.3l-1.6-3.51h-9.78l-1.58,3.51h-1.32l7.14-15.56h1.28Zm-5.01,10.94h8.74l-4.37-9.66-4.37,9.66Z"/><path class="cls-1" d="m359.8,135.63c.84,0,1.59.13,2.24.4.66.27,1.21.63,1.67,1.09s.8.99,1.04,1.6c.24.61.36,1.25.36,1.93,0,.55-.08,1.07-.24,1.58-.16.51-.39.97-.69,1.4-.3.43-.67.79-1.11,1.11-.44.31-.95.56-1.52.73l4.09,5.75h-1.44l-3.93-5.53c-.08.01-.16.02-.24.02h-5.93v5.51h-1.18v-15.56h6.86Zm-5.69,1.12v7.82h5.65c.68,0,1.28-.11,1.8-.32.52-.21.96-.5,1.32-.86.36-.36.63-.77.81-1.25s.27-.97.27-1.49-.09-1.01-.27-1.49-.45-.89-.81-1.25c-.36-.36-.8-.65-1.32-.86-.52-.21-1.12-.32-1.8-.32h-5.65Z"/><path class="cls-1" d="m367.56,133.55l4.91-2.97.58,1.02-5.03,2.75-.46-.8Zm3.33,2.08v15.56h-1.18v-15.56h1.18Z"/><path class="cls-1" d="m382.74,135.63l7.14,15.56h-1.3l-1.6-3.51h-9.78l-1.58,3.51h-1.32l7.14-15.56h1.28Zm-5.01,10.94h8.74l-4.37-9.66-4.37,9.66Z"/><path class="cls-1" d="m400.22,135.63h6.09c1.18,0,2.23.2,3.13.61.9.41,1.66.96,2.26,1.66.61.7,1.06,1.52,1.38,2.46.31.94.47,1.96.47,3.05s-.16,2.11-.47,3.06c-.31.95-.77,1.78-1.38,2.47-.61.7-1.36,1.25-2.26,1.65-.91.4-1.95.6-3.13.6h-6.09v-15.56Zm1.18,1.16v13.25h4.85c.98,0,1.86-.17,2.61-.51.76-.34,1.4-.8,1.92-1.4.52-.59.91-1.29,1.19-2.1.27-.8.41-1.68.41-2.62s-.14-1.82-.41-2.62c-.27-.8-.67-1.5-1.19-2.1-.52-.59-1.16-1.06-1.92-1.4-.76-.34-1.63-.51-2.61-.51h-4.85Z"/><path class="cls-1" d="m417.94,135.63h10.7v1.16h-9.52v6.21h8.1v1.12h-8.1v5.93h9.52v1.16h-10.7v-15.56Z"/><path class="cls-3" d="m267.79,165.57v26.71h-6.85v-9.93h-10.89v9.93h-6.81v-26.71h6.81v10.37h10.89v-10.37h6.85Z"/><path class="cls-3" d="m289.6,165.57l10.79,26.71h-7.46l-1.47-3.9h-10.51l-1.47,3.9h-7.46l10.82-26.71h6.78Zm-3.39,8.76l-2.94,7.84h5.85l-2.91-7.84Z"/><path class="cls-3" d="m328.46,185.12c-.59,1.14-1.32,2.18-2.19,3.12-.87.94-1.85,1.74-2.94,2.41-1.1.67-2.28,1.2-3.56,1.58s-2.6.56-3.97.56c-1.92,0-3.74-.37-5.46-1.1-1.72-.73-3.23-1.72-4.52-2.98s-2.31-2.72-3.06-4.4c-.75-1.68-1.13-3.48-1.13-5.39s.38-3.71,1.13-5.39c.75-1.68,1.77-3.14,3.06-4.4,1.29-1.25,2.8-2.25,4.52-2.98,1.72-.73,3.54-1.1,5.46-1.1,1.37,0,2.69.19,3.95.56s2.45.9,3.54,1.56c1.1.66,2.08,1.46,2.94,2.4.87.94,1.6,1.96,2.19,3.08l-6.23,2.81c-.59-1.14-1.46-2.06-2.58-2.76s-2.4-1.04-3.82-1.04c-1,0-1.95.19-2.82.56-.88.38-1.65.89-2.31,1.54-.66.65-1.18,1.42-1.56,2.31-.38.89-.56,1.84-.56,2.84s.19,1.95.56,2.84.9,1.66,1.56,2.31c.66.65,1.43,1.16,2.31,1.54.88.38,1.82.56,2.82.56,1.44,0,2.72-.35,3.83-1.04,1.12-.7,1.97-1.61,2.57-2.76l6.27,2.74Z"/><path class="cls-3" d="m339.86,165.57v26.71h-6.85v-26.71h6.85Z"/><path class="cls-3" d="m346.13,165.57h20.51v6.64h-13.66v3.83h11.23v6.2h-11.23v3.42h13.66v6.61h-20.51v-26.71Z"/><path class="cls-3" d="m372.11,192.28v-26.71h5.82l11.92,14.93v-14.93h6.81v26.71h-5.79l-11.91-14.89v14.89h-6.85Z"/><path class="cls-3" d="m402.93,165.57h12.39c2.08,0,3.91.35,5.5,1.06,1.59.71,2.9,1.67,3.96,2.89,1.05,1.22,1.84,2.64,2.38,4.26.54,1.62.8,3.33.8,5.14s-.27,3.55-.8,5.17c-.54,1.62-1.33,3.04-2.38,4.25-1.05,1.21-2.37,2.17-3.96,2.88-1.59.71-3.42,1.06-5.5,1.06h-12.39v-26.71Zm6.85,6.64v13.46h5.03c1.03,0,1.93-.17,2.71-.5.78-.33,1.43-.79,1.95-1.39.53-.59.92-1.3,1.18-2.12.26-.82.39-1.73.39-2.74,0-2.01-.53-3.63-1.58-4.86-1.05-1.23-2.6-1.85-4.66-1.85h-5.03Z"/><path class="cls-3" d="m446.99,165.57l10.79,26.71h-7.46l-1.47-3.9h-10.51l-1.47,3.9h-7.46l10.82-26.71h6.78Zm-3.39,8.76l-2.94,7.84h5.85l-2.91-7.84Z"/></svg>