<?xml version="1.0" encoding="utf-8"?>
<!-- Generator: Adobe Illustrator 27.7.0, SVG Export Plug-In . SVG Version: 6.00 Build 0)  -->
<svg version="1.1" id="Capa_2_00000095318105590594814790000009711121891354399375_"
	 xmlns="http://www.w3.org/2000/svg" xmlns:xlink="http://www.w3.org/1999/xlink" x="0px" y="0px" viewBox="0 0 58 52.5"
	 style="enable-background:new 0 0 58 52.5;" xml:space="preserve">
<style type="text/css">
	.st0{fill:#410324;}
	.st1{fill:#DC7F37;}
	.st2{fill:#FFFFFF;}
	.st3{fill:#960E53;}
</style>
<g id="Capa_2-2">
	<path class="st0" d="M36,9.6c0-0.1,0-0.2,0-0.3V7.9h1.7v1.2c0,0.2,0,0.4,0.1,0.5H36z"/>
	<path class="st0" d="M28.9,9.6C29,9.4,29,9.3,29,9.1V7.9h1.7v1.4c0,0.1,0,0.2,0,0.3H28.9z"/>
	<path class="st0" d="M21.9,9.6c0-0.1,0-0.2,0-0.3V7.9h1.8v1.2c0,0.2,0,0.4,0.1,0.5H21.9z"/>
	<path class="st0" d="M39.1,43.3C39.1,43.3,39.1,43.3,39.1,43.3c0,0.4-0.3,0.8-0.7,0.8c0,0-0.1,0-0.1,0h-34c-2.3,0-4.2-1.8-4.2-3.9
		V11.8c0-2.2,1.9-3.9,4.2-3.9h12.4v1.4c0,0.1,0,0.2,0,0.3H4.2c-1.4,0-2.5,1-2.5,2.2v28.4c0,1.2,1.1,2.2,2.5,2.2h34
		C38.7,42.4,39.1,42.8,39.1,43.3z"/>
	<path class="st0" d="M58,11.8v28.4c0,2.2-1.9,3.9-4.2,3.9H47c-0.1,0-0.2,0-0.3,0c-0.3-0.1-0.6-0.4-0.6-0.8v0c0-0.2,0.1-0.5,0.3-0.6
		c0.1-0.1,0.3-0.2,0.6-0.2h6.8c1.4,0,2.5-1,2.5-2.2V11.8c0-1.2-1.1-2.2-2.5-2.2H43C43,9.4,43,9.3,43,9.1V7.9h10.8
		C56.1,7.9,58,9.7,58,11.8z"/>
	<path class="st1" d="M13.5,16.9c-2.1,0-3.9,1.7-3.9,3.9c0,1.2,0.5,2.2,1.3,2.9c0.7,0.6,1.6,0.9,2.5,0.9c1,0,1.8-0.4,2.5-0.9
		c0.8-0.7,1.4-1.8,1.4-2.9C17.3,18.6,15.6,16.9,13.5,16.9z M13.5,18.7c1.1,0,2.1,0.9,2.1,2.1c0,1.1-0.9,2.1-2.1,2.1
		c-1.1,0-2.1-0.9-2.1-2.1C11.4,19.6,12.3,18.7,13.5,18.7z"/>
	<path class="st1" d="M19.3,28.4c-0.2-2.1-1.5-3.8-3.3-4.7c-0.8-0.4-1.6-0.6-2.5-0.6c-0.9,0-1.8,0.2-2.5,0.6
		c-1.8,0.8-3.1,2.6-3.3,4.7c0,0.4,0.1,0.8,0.4,1.1c0.3,0.3,0.6,0.5,1,0.5h8.9c0.4,0,0.8-0.2,1-0.5C19.2,29.1,19.3,28.7,19.3,28.4z
		 M9.5,28.1c0.4-1.9,2.1-3.2,4-3.2c1.9,0,3.6,1.4,4,3.2H9.5z"/>
	<path class="st2" d="M22.2,2.7c-0.6-1-1.7-1.6-2.9-1.6c-1.9,0-3.5,1.6-3.5,3.5v4.2c0,0.3,0,0.5,0.1,0.8c0.1,0.7,0.5,1.2,0.9,1.7
		c0.6,0.6,1.5,1,2.5,1c1.3,0,2.4-0.7,3-1.8v0c0.2-0.3,0.3-0.6,0.4-1c0.1-0.2,0.1-0.5,0.1-0.8V4.6C22.8,3.9,22.5,3.2,22.2,2.7z
		 M19.7,11.5h-0.9c-1.1,0-2-0.8-2.1-1.9c0-0.1,0-0.2,0-0.3V4.1c0-1.2,1-2.2,2.2-2.2h0.9c1.2,0,2.2,1,2.2,2.2v5.2c0,0.1,0,0.2,0,0.3
		C21.7,10.7,20.8,11.5,19.7,11.5z"/>
	<path class="st0" d="M23.3,2.6c-0.2-0.4-0.3-0.7-0.6-1c-0.7-0.9-1.8-1.4-3-1.4h-0.9c-2.1,0-3.9,1.8-3.9,3.9v5.2c0,0.1,0,0.2,0,0.3
		c0.1,2,1.8,3.6,3.9,3.6h0.9c1.3,0,2.5-0.6,3.2-1.6c0.2-0.3,0.4-0.7,0.5-1c0.1-0.3,0.2-0.6,0.2-0.9c0-0.1,0-0.2,0-0.3V4.1
		C23.6,3.6,23.5,3.1,23.3,2.6z M19.7,11.5h-0.9c-1.1,0-2-0.8-2.1-1.9c0-0.1,0-0.2,0-0.3V4.1c0-1.2,1-2.2,2.2-2.2h0.9
		c1.2,0,2.2,1,2.2,2.2v5.2c0,0.1,0,0.2,0,0.3C21.7,10.7,20.8,11.5,19.7,11.5z"/>
	<path class="st2" d="M21.9,4.1v5.2c0,0.1,0,0.2,0,0.3c-0.2,1.1-1.1,1.9-2.2,1.9h-0.9c-1.1,0-2-0.8-2.1-1.9c0-0.1,0-0.2,0-0.3V4.1
		c0-1.2,1-2.2,2.2-2.2h0.9C20.9,1.9,21.9,2.9,21.9,4.1z"/>
	<path class="st2" d="M29.3,2.6L29.3,2.6c-0.6-1-1.7-1.7-3-1.7c-1.3,0-2.4,0.7-3,1.8c-0.3,0.5-0.5,1.1-0.5,1.8v4.2
		c0,0.3,0,0.7,0.1,1c0.1,0.3,0.2,0.6,0.4,0.9c0.1,0.2,0.3,0.4,0.5,0.6c0.6,0.6,1.5,1,2.5,1c1.2,0,2.2-0.6,2.9-1.5
		c0.2-0.3,0.4-0.6,0.5-1c0.1-0.3,0.1-0.7,0.1-1V4.4C29.9,3.7,29.7,3.1,29.3,2.6z M26.8,11.2h-0.9c-1,0-1.9-0.7-2.1-1.6
		c-0.1-0.2-0.1-0.4-0.1-0.5V3.9c0-1.2,1-2.2,2.2-2.2h0.9c1.2,0,2.2,1,2.2,2.2v5.2c0,0.2,0,0.4-0.1,0.5
		C28.7,10.6,27.8,11.2,26.8,11.2z"/>
	<path class="st0" d="M30.5,2.6c-0.1-0.4-0.3-0.7-0.5-1c-0.7-1-1.9-1.6-3.1-1.6h-0.9c-1.3,0-2.5,0.7-3.2,1.6c-0.2,0.3-0.4,0.7-0.5,1
		C22,3.1,22,3.5,22,3.9v5.2c0,0.2,0,0.4,0,0.5c0,0.3,0.1,0.7,0.3,1v0c0.2,0.4,0.4,0.7,0.6,1c0.7,0.9,1.8,1.4,3,1.4h0.9v0
		c1.2,0,2.2-0.5,3-1.3c0.2-0.3,0.5-0.6,0.6-1c0.2-0.3,0.2-0.7,0.3-1c0-0.2,0-0.4,0-0.5V3.9C30.7,3.4,30.6,3,30.5,2.6z M26.8,11.2
		h-0.9c-1,0-1.9-0.7-2.1-1.6c-0.1-0.2-0.1-0.4-0.1-0.5V3.9c0-1.2,1-2.2,2.2-2.2h0.9c1.2,0,2.2,1,2.2,2.2v5.2c0,0.2,0,0.4-0.1,0.5
		C28.7,10.6,27.8,11.2,26.8,11.2z"/>
	<path class="st2" d="M29,3.9v5.2c0,0.2,0,0.4-0.1,0.5c-0.2,0.9-1.1,1.6-2.1,1.6h-0.9c-1,0-1.9-0.7-2.1-1.6
		c-0.1-0.2-0.1-0.4-0.1-0.5V3.9c0-1.2,1-2.2,2.2-2.2h0.9C28,1.7,29,2.7,29,3.9z"/>
	<path class="st2" d="M36.9,4.4L36.9,4.4c0-0.7-0.3-1.3-0.6-1.8c-0.6-0.9-1.7-1.5-2.9-1.5c-1.2,0-2.3,0.6-2.9,1.5
		c-0.4,0.6-0.6,1.2-0.6,2v4.2c0,0.3,0,0.5,0.1,0.8c0.1,0.4,0.2,0.7,0.4,1c0.1,0.2,0.3,0.5,0.5,0.7c0.6,0.6,1.5,1,2.5,1
		c1.3,0,2.4-0.7,3-1.7c0.2-0.3,0.4-0.7,0.4-1.1c0.1-0.2,0.1-0.5,0.1-0.8V4.6C36.9,4.5,36.9,4.5,36.9,4.4z M33.8,11.5h-0.9
		c-1.1,0-2-0.8-2.2-1.9c0-0.1,0-0.2,0-0.3V4.1c0-1.2,1-2.2,2.2-2.2h0.9c1.2,0,2.2,1,2.2,2.2v5.2c0,0.1,0,0.2,0,0.3
		C35.8,10.7,34.9,11.5,33.8,11.5z"/>
	<path class="st0" d="M37.4,2.6L37.4,2.6c-0.2-0.4-0.4-0.7-0.6-1c-0.7-0.8-1.8-1.3-3-1.3h-0.9c-1.2,0-2.2,0.5-3,1.3
		c-0.2,0.3-0.5,0.6-0.6,1v0C29.1,3,29,3.6,29,4.1v5.2c0,0.1,0,0.2,0,0.3c0,0.3,0.1,0.7,0.2,1c0.1,0.4,0.3,0.7,0.5,1
		c0.7,1,1.8,1.6,3.1,1.6h0.9c1.3,0,2.4-0.6,3.1-1.6c0.2-0.3,0.4-0.6,0.5-1c0.1-0.3,0.2-0.7,0.2-1c0-0.1,0-0.2,0-0.3V4.1
		C37.7,3.6,37.6,3,37.4,2.6z M33.8,11.5h-0.9c-1.1,0-2-0.8-2.2-1.9c0-0.1,0-0.2,0-0.3V4.1c0-1.2,1-2.2,2.2-2.2h0.9
		c1.2,0,2.2,1,2.2,2.2v5.2c0,0.1,0,0.2,0,0.3C35.8,10.7,34.9,11.5,33.8,11.5z"/>
	<path class="st2" d="M36,4.1v5.2c0,0.1,0,0.2,0,0.3c-0.1,1.1-1.1,1.9-2.1,1.9h-0.9c-1.1,0-2-0.8-2.2-1.9c0-0.1,0-0.2,0-0.3V4.1
		c0-1.2,1-2.2,2.2-2.2h0.9C35,1.9,36,2.9,36,4.1z"/>
	<path class="st2" d="M40.4,0.9c-1.3,0-2.4,0.7-3,1.7v0c-0.3,0.5-0.5,1.1-0.5,1.8v4.2c0,0.1,0,0.1,0,0.2v0c0,0.3,0.1,0.5,0.1,0.8
		c0.1,0.4,0.3,0.7,0.5,1c0.1,0.2,0.2,0.3,0.4,0.5c0.6,0.6,1.5,1,2.5,1c1.6,0,2.9-1.1,3.4-2.5c0.1-0.3,0.2-0.7,0.2-1V4.4
		C43.9,2.4,42.3,0.9,40.4,0.9z M43,9.1c0,0.2,0,0.4-0.1,0.5c-0.2,0.9-1.1,1.6-2.1,1.6h-0.9c-1,0-1.9-0.7-2.1-1.6
		c0-0.2-0.1-0.4-0.1-0.5V3.9c0-1.2,1-2.2,2.2-2.2h0.9c1.2,0,2.2,1,2.2,2.2V9.1z"/>
	<path class="st0" d="M40.8,0h-0.9c-1.3,0-2.4,0.6-3.1,1.6c-0.2,0.3-0.4,0.6-0.5,1C36.1,3,36,3.4,36,3.9v5.2c0,0.2,0,0.4,0,0.5
		c0,0.4,0.2,0.7,0.3,1.1c0.2,0.3,0.4,0.7,0.6,1c0.7,0.8,1.8,1.4,3,1.4h0.9v0c2,0,3.6-1.5,3.9-3.4c0-0.2,0-0.4,0-0.5V3.9
		C44.8,1.7,43,0,40.8,0z M43,9.1c0,0.2,0,0.4-0.1,0.5c-0.2,0.9-1.1,1.6-2.1,1.6h-0.9c-1,0-1.9-0.7-2.1-1.6c0-0.2-0.1-0.4-0.1-0.5
		V3.9c0-1.2,1-2.2,2.2-2.2h0.9c1.2,0,2.2,1,2.2,2.2V9.1z"/>
	<path class="st2" d="M43,3.9v5.2c0,0.2,0,0.4-0.1,0.5c-0.2,0.9-1.1,1.6-2.1,1.6h-0.9c-1,0-1.9-0.7-2.1-1.6c0-0.2-0.1-0.4-0.1-0.5
		V3.9c0-1.2,1-2.2,2.2-2.2h0.9C42,1.7,43,2.7,43,3.9z"/>
	<path class="st0" d="M47.3,40.6v11c0,0.5-0.4,0.9-0.9,0.9H16.9c-0.5,0-0.9-0.4-0.9-0.9v-8.1c0-0.5,0.4-0.9,0.9-0.9s0.9,0.4,0.9,0.9
		v7.2h27.8V40.6c0,0,0-0.1,0-0.1c0-0.4,0.4-0.8,0.9-0.8h0C46.9,39.7,47.3,40.1,47.3,40.6z"/>
	<path class="st1" d="M19.2,33.4c0,0.5-0.4,0.9-0.9,0.9H8.5c-0.5,0-0.9-0.4-0.9-0.9s0.4-0.9,0.9-0.9h9.8
		C18.8,32.5,19.2,32.9,19.2,33.4z"/>
	<path class="st3" d="M35.4,18.7h-6.1c-0.4,0-0.7,0.3-0.7,0.7v6.1c0,0.4,0.3,0.7,0.7,0.7h6.1c0.4,0,0.7-0.3,0.7-0.7v-6.1
		C36.1,19,35.8,18.7,35.4,18.7z M34.7,24.7h-4.6v-4.6h4.6V24.7z"/>
	<path class="st3" d="M33.5,21.6v1.6c0,0.2-0.2,0.4-0.4,0.4h-1.6c-0.2,0-0.4-0.2-0.4-0.4v-1.6c0-0.2,0.2-0.4,0.4-0.4h1.6
		C33.4,21.3,33.5,21.4,33.5,21.6z"/>
	<path class="st3" d="M35.4,27.9h-6.1c-0.4,0-0.7,0.3-0.7,0.7v6.1c0,0.4,0.3,0.7,0.7,0.7h6.1c0.4,0,0.7-0.3,0.7-0.7v-6.1
		C36.1,28.2,35.8,27.9,35.4,27.9z M34.7,34h-4.6v-4.6h4.6V34z"/>
	<path class="st3" d="M33.5,30.9v1.6c0,0.2-0.2,0.4-0.4,0.4h-1.6c-0.2,0-0.4-0.2-0.4-0.4v-1.6c0-0.2,0.2-0.4,0.4-0.4h1.6
		C33.4,30.5,33.5,30.7,33.5,30.9z"/>
	<path class="st3" d="M40.9,28.6v1.6c0,0.1,0,0.2-0.1,0.2c0,0,0,0.1-0.1,0.1c-0.1,0.1-0.1,0.1-0.2,0.1h-1.6c-0.2,0-0.4-0.2-0.4-0.4
		v-1.6c0-0.2,0.2-0.4,0.4-0.4h1.6C40.7,28.2,40.9,28.4,40.9,28.6z"/>
	<path class="st3" d="M43,30.7v1.6c0,0.1,0,0.2-0.1,0.2c0,0,0,0,0,0c-0.1,0.1-0.2,0.1-0.2,0.1H41c-0.1,0-0.2,0-0.2-0.1
		c0,0,0-0.1-0.1-0.1c0-0.1-0.1-0.1-0.1-0.2v-1.6c0-0.1,0-0.2,0.1-0.2c0,0,0.1,0,0.1-0.1c0.1-0.1,0.1-0.1,0.2-0.1h1.6
		c0.1,0,0.2,0,0.2,0.1c0,0,0,0,0,0C43,30.5,43,30.6,43,30.7z"/>
	<path class="st3" d="M45.2,28.6v1.6c0,0.2-0.2,0.4-0.4,0.4h-1.6c-0.1,0-0.2,0-0.2-0.1c0,0,0,0,0,0c-0.1-0.1-0.1-0.1-0.1-0.2v-1.6
		c0-0.2,0.2-0.4,0.4-0.4h1.6C45,28.2,45.2,28.4,45.2,28.6z"/>
	<path class="st3" d="M45.2,32.8v1.6c0,0.2-0.2,0.4-0.4,0.4h-1.6c-0.2,0-0.4-0.2-0.4-0.4v-1.6c0-0.1,0-0.2,0.1-0.2c0,0,0,0,0,0
		c0.1-0.1,0.2-0.1,0.2-0.1h1.6C45,32.5,45.2,32.6,45.2,32.8z"/>
	<path class="st3" d="M40.9,32.8v1.6c0,0.2-0.2,0.4-0.4,0.4h-1.6c-0.2,0-0.4-0.2-0.4-0.4v-1.6c0-0.2,0.2-0.4,0.4-0.4h1.6
		c0.1,0,0.2,0,0.2,0.1c0,0,0.1,0,0.1,0.1C40.9,32.7,40.9,32.8,40.9,32.8z"/>
	<path class="st3" d="M45,18.7h-6.1c-0.4,0-0.7,0.3-0.7,0.7v6.1c0,0.4,0.3,0.7,0.7,0.7H45c0.4,0,0.7-0.3,0.7-0.7v-6.1
		C45.7,19,45.4,18.7,45,18.7z M44.3,24.7h-4.6v-4.6h4.6V24.7z"/>
	<path class="st3" d="M43.2,21.6v1.6c0,0.2-0.2,0.4-0.4,0.4h-1.6c-0.2,0-0.4-0.2-0.4-0.4v-1.6c0-0.2,0.2-0.4,0.4-0.4h1.6
		C43,21.3,43.2,21.4,43.2,21.6z"/>
	<path class="st3" d="M46.9,14.7H27.2c-1.4,0-2.5,1.1-2.5,2.5v19.7c0,1.4,1.1,2.5,2.5,2.5h7c-0.2-0.4-0.3-0.8-0.4-1.2h10.5
		c0.7,0,1.2,0.5,1.2,1.2h1.4c0.1,0,0.3,0,0.4,0c1.2-0.2,2.1-1.2,2.1-2.5V17.2C49.4,15.8,48.3,14.7,46.9,14.7z M47.6,36.8
		c0,0.4-0.3,0.7-0.7,0.7H27.2c-0.4,0-0.7-0.3-0.7-0.7V17.2c0-0.4,0.3-0.7,0.7-0.7h19.7c0.4,0,0.7,0.3,0.7,0.7V36.8z"/>
	<path class="st2" d="M46.9,16.5H27.2c-0.4,0-0.7,0.3-0.7,0.7v19.7c0,0.4,0.3,0.7,0.7,0.7H32c0-0.1,0-0.2,0-0.3
		c0-0.5,0.4-0.9,0.9-0.9h11.4c1,0,1.8,0.5,2.4,1.2h0.2c0.4,0,0.7-0.3,0.7-0.7V17.2C47.6,16.8,47.3,16.5,46.9,16.5z M36.1,34.7
		c0,0.4-0.3,0.7-0.7,0.7h-6.1c-0.4,0-0.7-0.3-0.7-0.7v-6.1c0-0.4,0.3-0.7,0.7-0.7h6.1c0.4,0,0.7,0.3,0.7,0.7V34.7z M36.1,25.5
		c0,0.4-0.3,0.7-0.7,0.7h-6.1c-0.4,0-0.7-0.3-0.7-0.7v-6.1c0-0.4,0.3-0.7,0.7-0.7h6.1c0.4,0,0.7,0.3,0.7,0.7V25.5z M45.2,30.2
		c0,0.2-0.2,0.4-0.4,0.4h-1.6c-0.1,0-0.2,0-0.2-0.1c0,0.1,0.1,0.1,0.1,0.2v1.6c0,0.1,0,0.2-0.1,0.2c0.1-0.1,0.2-0.1,0.2-0.1h1.6
		c0.2,0,0.4,0.2,0.4,0.4v1.6c0,0.2-0.2,0.4-0.4,0.4h-1.6c-0.2,0-0.4-0.2-0.4-0.4v-1.6c0-0.1,0-0.2,0.1-0.2c-0.1,0.1-0.2,0.1-0.2,0.1
		H41c-0.1,0-0.2,0-0.2-0.1c0,0.1,0.1,0.1,0.1,0.2v1.6c0,0.2-0.2,0.4-0.4,0.4h-1.6c-0.2,0-0.4-0.2-0.4-0.4v-1.6
		c0-0.2,0.2-0.4,0.4-0.4h1.6c0.1,0,0.2,0,0.2,0.1c0-0.1-0.1-0.1-0.1-0.2v-1.6c0-0.1,0-0.2,0.1-0.2c-0.1,0.1-0.1,0.1-0.2,0.1h-1.6
		c-0.2,0-0.4-0.2-0.4-0.4v-1.6c0-0.2,0.2-0.4,0.4-0.4h1.6c0.2,0,0.4,0.2,0.4,0.4v1.6c0,0.1,0,0.2-0.1,0.2c0.1-0.1,0.1-0.1,0.2-0.1
		h1.6c0.1,0,0.2,0,0.2,0.1c-0.1-0.1-0.1-0.1-0.1-0.2v-1.6c0-0.2,0.2-0.4,0.4-0.4h1.6c0.2,0,0.4,0.2,0.4,0.4V30.2z M45.7,25.5
		c0,0.4-0.3,0.7-0.7,0.7h-6.1c-0.4,0-0.7-0.3-0.7-0.7v-6.1c0-0.4,0.3-0.7,0.7-0.7H45c0.4,0,0.7,0.3,0.7,0.7V25.5z"/>
	<path class="st2" d="M39.7,20.1v4.6h4.6v-4.6H39.7z M43.2,23.3c0,0.2-0.2,0.4-0.4,0.4h-1.6c-0.2,0-0.4-0.2-0.4-0.4v-1.6
		c0-0.2,0.2-0.4,0.4-0.4h1.6c0.2,0,0.4,0.2,0.4,0.4V23.3z"/>
	<path class="st2" d="M30.1,20.1v4.6h4.6v-4.6H30.1z M33.5,23.3c0,0.2-0.2,0.4-0.4,0.4h-1.6c-0.2,0-0.4-0.2-0.4-0.4v-1.6
		c0-0.2,0.2-0.4,0.4-0.4h1.6c0.2,0,0.4,0.2,0.4,0.4V23.3z"/>
	<path class="st2" d="M30.1,29.4V34h4.6v-4.6H30.1z M33.5,32.5c0,0.2-0.2,0.4-0.4,0.4h-1.6c-0.2,0-0.4-0.2-0.4-0.4v-1.6
		c0-0.2,0.2-0.4,0.4-0.4h1.6c0.2,0,0.4,0.2,0.4,0.4V32.5z"/>
	<path class="st2" d="M46.4,39.3v4h-0.9v-2.7c0,0,0-0.1,0-0.1v-1.1c0,0,0,0,0-0.1c0-0.6-0.6-1.2-1.2-1.2H33.8
		c0.1,0.4,0.2,0.8,0.4,1.2c0.8,1.8,2.6,3.1,4.7,3.1H39c0.5,0,0.9,0.4,0.9,0.9v0h-1.1c-1.1,0-2.2-0.3-3-0.8c-1.2-0.7-2.1-1.8-2.6-3.1
		c-0.2-0.6-0.3-1.2-0.4-1.8c0-0.1,0-0.2,0-0.3h11.4c0.4,0,0.7,0.1,1,0.3C45.9,37.9,46.4,38.5,46.4,39.3z"/>
	<path class="st2" d="M45.5,39.4v1.1c0,0,0,0.1,0,0.1v10.1H17.8v-6.6h20.5c0,0,0.1,0,0.1,0c0.2,0,0.3,0,0.5,0H39
		c0.5,0,0.9-0.4,0.9-0.9v0c0-0.5-0.4-0.9-0.9-0.9h-0.2c-2.1,0-3.9-1.2-4.7-3.1c-0.2-0.4-0.3-0.8-0.4-1.2h10.5
		C44.9,38.1,45.5,38.7,45.5,39.4C45.5,39.3,45.5,39.4,45.5,39.4z"/>
	<path class="st2" d="M53.8,9.6h-9.1c-0.3,1.9-1.9,3.4-3.9,3.4v0h-0.9c-1.2,0-2.2-0.5-3-1.4c-0.7,1-1.8,1.6-3.1,1.6h-0.9
		c-1.3,0-2.4-0.6-3.1-1.6C29,12.4,28,13,26.8,13v0h-0.9c-1.2,0-2.3-0.5-3-1.4c-0.7,1-1.9,1.6-3.2,1.6h-0.9c-2,0-3.7-1.6-3.9-3.6H4.2
		c-1.4,0-2.5,1-2.5,2.2v28.4c0,1.2,1.1,2.2,2.5,2.2h30.1c-1-0.8-1.7-1.9-2.1-3.1h-5c-1.4,0-2.5-1.1-2.5-2.5V17.2
		c0-1.4,1.1-2.5,2.5-2.5h19.7c1.4,0,2.5,1.1,2.5,2.5v19.7c0,1.2-0.9,2.3-2.1,2.5c0,0,0,0,0,0.1v3.1h6.5c1.4,0,2.5-1,2.5-2.2V11.8
		C56.3,10.6,55.2,9.6,53.8,9.6z M18.3,34.3H8.5c-0.5,0-0.9-0.4-0.9-0.9s0.4-0.9,0.9-0.9h9.8c0.5,0,0.9,0.4,0.9,0.9
		S18.8,34.3,18.3,34.3z M19,29.4c-0.3,0.3-0.6,0.5-1,0.5H9c-0.4,0-0.8-0.2-1-0.5c-0.3-0.3-0.4-0.7-0.4-1.1c0.2-2.1,1.5-3.8,3.3-4.7
		c-0.8-0.7-1.3-1.8-1.3-2.9c0-2.1,1.7-3.9,3.9-3.9s3.9,1.7,3.9,3.9c0,1.2-0.5,2.2-1.4,2.9c1.8,0.8,3.1,2.6,3.3,4.7
		C19.3,28.7,19.2,29.1,19,29.4z"/>
	<path class="st2" d="M15.5,20.7c0,1.1-0.9,2.1-2.1,2.1c-1.1,0-2.1-0.9-2.1-2.1c0-1.1,0.9-2.1,2.1-2.1
		C14.6,18.7,15.5,19.6,15.5,20.7z"/>
	<path class="st2" d="M17.5,28.1h-8c0.4-1.9,2.1-3.2,4-3.2C15.4,24.9,17.1,26.2,17.5,28.1z"/>
	<path class="st0" d="M47.3,39.4v3.9c0,0,0,0.1,0,0.1c0,0.3-0.3,0.6-0.6,0.8c-0.1,0-0.2,0-0.3,0v0c-0.5,0-0.9-0.4-0.9-0.9v-3.9
		c0,0,0,0,0-0.1c0-0.6-0.6-1.2-1.2-1.2H33.8c0.1,0.4,0.2,0.8,0.4,1.2c0.8,1.8,2.6,3.1,4.7,3.1H39c0.5,0,0.9,0.4,0.9,0.9v0
		c0,0.5-0.4,0.9-0.9,0.9h-0.2c-0.2,0-0.3,0-0.5,0c-1.6-0.1-3-0.7-4.1-1.7c-1-0.8-1.7-1.9-2.1-3.1c-0.2-0.6-0.3-1.2-0.3-1.8
		c0-0.1,0-0.2,0-0.3c0-0.5,0.4-0.9,0.9-0.9h11.4c1,0,1.8,0.5,2.4,1.2C47,38,47.3,38.6,47.3,39.4C47.3,39.3,47.3,39.3,47.3,39.4z"/>
</g>
</svg>
